<svg width="1242" height="1118" viewBox="0 0 1242 1118" fill="none" xmlns="http://www.w3.org/2000/svg">
<path d="M498 2C498 2 1157 30.5 1157 280C1157 529.5 1240 502.5 1240 658.5C1240 814.5 826.5 679.5 826.5 845.5C826.5 1011.5 498 1116.5 498 1116.5" stroke="#F8F4EC" stroke-opacity="0.1" stroke-width="3"/>
<path d="M357.5 81.4966C357.5 81.4966 1028 41.0003 1028 290.5C1028 540 1111 425 1111 581C1111 737 738 621 738 787C738 953 371 1094.5 371 1094.5" stroke="#F8F4EC" stroke-opacity="0.1" stroke-width="3"/>
<path d="M224 186C224 186 906.5 41.9364 906.5 291.436C906.5 540.936 999.5 390 999.5 546C999.5 702 661 588 661 754C661 920 249.5 1095.44 249.5 1095.44" stroke="#F8F4EC" stroke-opacity="0.1" stroke-width="3"/>
<path d="M106.5 353.504C106.5 353.504 836.5 55.0006 836.5 304.501C836.5 554.001 932.5 373.5 932.5 529.5C932.5 685.5 611.5 563.5 611.5 729.5C611.5 895.5 106.5 1095.81 106.5 1095.81" stroke="#F8F4EC" stroke-opacity="0.1" stroke-width="3"/>
<path d="M7 507.011C7 507.011 802.5 57.4992 802.5 306.999C802.5 556.499 896.5 416.5 896.5 536C896.5 655.5 581.5 544 581.5 710C581.5 876 1 1105.79 1 1105.79" stroke="#F8F4EC" stroke-opacity="0.1" stroke-width="3"/>
</svg>
