<svg width="123" height="60" viewBox="0 0 123 60" fill="none" xmlns="http://www.w3.org/2000/svg">
<line x1="11.8319" y1="12.9262" x2="49.9262" y2="37.1681" stroke="#D85F5F" stroke-opacity="0.7" stroke-width="7" stroke-linecap="round"/>
<path d="M44.016 20.4C43.2479 20.4 42.4798 20.4961 41.76 20.688L37.9199 10.656C37.7759 10.3198 37.4398 10.0801 37.0561 10.0801H34.032C33.5519 10.0801 33.1199 10.4641 33.1199 10.9922C33.1199 11.5202 33.504 11.9042 34.032 11.9042H36.432L38.1122 16.2723H24.8642L24.4801 15.2642C25.3922 15.1202 26.2081 14.9762 26.3521 14.928C26.7362 14.8801 27.1202 14.5918 27.1202 14.1599V13.728C27.1202 13.5361 26.9762 13.3918 26.784 13.3918H20.8801C20.544 13.3918 20.3042 13.6319 20.3042 13.9677C20.3042 13.9677 20.2081 15.9837 21.0723 15.8397C21.3603 15.7919 21.9361 15.6958 22.6563 15.5518L23.2322 17.0397L20.1602 21.4557C18.9123 20.7837 17.4723 20.3997 15.9361 20.3997C11.0882 20.3997 7.15211 24.3359 7.15211 29.1837C7.15211 34.0316 11.0883 37.9677 15.9361 37.9677C20.4482 37.9677 24.1921 34.5117 24.6721 30.0957H28.9441C29.2321 30.0957 29.4721 29.9996 29.6161 29.7595L39.0241 18.7675L40.0323 21.3594C37.2004 22.7995 35.2323 25.7754 35.2323 29.1835C35.2323 34.0314 39.1684 37.9675 44.0163 37.9675C48.8641 37.9675 52.8003 34.0313 52.8003 29.1835C52.7996 24.3359 48.8634 20.3995 44.0154 20.3995L44.016 20.4ZM15.984 36.144C12.1439 36.144 9.02408 33.0242 9.02408 29.1841C9.02408 25.344 12.1439 22.2242 15.984 22.2242C17.1361 22.2242 18.1922 22.5121 19.1521 22.9923L15.2159 28.6561C15.0241 28.9441 15.0241 29.2802 15.168 29.616C15.312 29.904 15.6482 30.0962 15.984 30.0962H22.8961C22.4159 33.504 19.4879 36.144 15.984 36.144ZM17.712 28.272L20.64 24C21.84 25.1039 22.656 26.5919 22.896 28.272H17.712ZM24.7198 28.272C24.4798 25.9681 23.3758 23.9522 21.6957 22.5121L24.0478 19.1039L27.6478 28.2719L24.7198 28.272ZM29.2801 27.4082L25.584 18.0482H37.248L29.2801 27.4082ZM44.0161 36.1442C40.176 36.1442 37.0562 33.0244 37.0562 29.1843C37.0562 26.5442 38.5441 24.2403 40.7041 23.0882L43.152 29.5201C43.296 29.9042 43.6321 30.096 44.0158 30.096C44.1119 30.096 44.2559 30.096 44.352 30.0481C44.8321 29.8563 45.0719 29.3283 44.88 28.896L42.4321 22.4641C42.9601 22.3202 43.4881 22.2723 44.064 22.2723C47.9041 22.2723 51.0239 25.3921 51.0239 29.2322C51.0243 33.0723 47.8562 36.1442 44.0161 36.1442Z" fill="#F8F4EC"/>
<line x1="75.8319" y1="12.9262" x2="113.926" y2="37.1681" stroke="#D85F5F" stroke-opacity="0.7" stroke-width="7" stroke-linecap="round"/>
<path d="M81 37.9998C76.5817 37.9998 73.0001 34.4182 73.0001 29.9999C73.0001 25.5816 76.5817 22 81 22C85.4183 22 88.9999 25.5816 88.9999 29.9999C88.9999 34.4182 85.4183 37.9998 81 37.9998ZM81 34C83.2091 34 85.0001 32.209 85.0001 29.9999C85.0001 27.7908 83.2091 25.9998 81 25.9998C78.7909 25.9998 76.9999 27.7908 76.9999 29.9999C76.9999 32.209 78.7909 34 81 34ZM81 31.9998C79.8954 31.9998 79.0001 31.1045 79.0001 29.9999C79.0001 28.8953 79.8954 28 81 28C82.1046 28 82.9999 28.8953 82.9999 29.9999C82.9999 31.1045 82.1046 31.9998 81 31.9998Z" fill="#F8F4EC"/>
<path d="M105 37.9998C100.582 37.9998 97.0001 34.4182 97.0001 29.9999C97.0001 25.5816 100.582 22 105 22C109.418 22 113 25.5816 113 29.9999C113 34.4182 109.418 37.9998 105 37.9998ZM105 34C107.209 34 109 32.209 109 29.9999C109 27.7908 107.209 25.9998 105 25.9998C102.791 25.9998 101 27.7908 101 29.9999C101 32.209 102.791 34 105 34ZM105 31.9998C103.895 31.9998 103 31.1045 103 29.9999C103 28.8953 103.895 28 105 28C106.105 28 107 28.8953 107 29.9999C107 31.1045 106.105 31.9998 105 31.9998Z" fill="#F8F4EC"/>
<path d="M105 16.9995C107.144 16.9995 108.673 17.2182 110.447 18.1051C110.941 18.3522 111.141 18.9528 110.895 19.4467C110.647 19.9409 110.047 20.1411 109.553 19.894C108.127 19.1811 106.857 18.9996 105 18.9996C98.8337 18.9996 94.0004 23.8084 94.0004 29.9994C94.0004 30.5515 93.5524 30.9995 93.0002 30.9995H91.0004C90.4479 30.9995 90.0002 30.5515 90.0002 29.9994C90.0002 24.9011 85.82 20.9994 81.0002 20.9994C80.8449 20.9994 80.6919 20.9632 80.5529 20.8939C77.8067 19.5205 77.2114 19.2335 76.38 18.897C76.227 18.8351 76.072 18.7748 75.9082 18.7135C75.4167 18.529 75.0042 18.3881 73.684 17.9481C73.2756 17.8118 73.0003 17.4298 73.0003 16.9993V14.9994C73.0003 14.4472 73.448 13.9993 74.0001 13.9993C78.7697 13.9993 84.171 15.3372 90.2112 17.9994H91.5957C94.136 15.6252 98.0561 13.8965 101.776 13.8965C102.228 13.8965 102.623 14.1995 102.741 14.6358C102.848 15.0295 103.032 15.8472 103.297 17.1054C103.853 17.0354 104.422 16.9992 105 16.9992L105 16.9995Z" fill="#F8F4EC"/>
<path d="M97.9997 11.9999C97.4476 11.9999 96.9999 11.5522 96.9999 10.9998C96.9999 10.4477 97.4476 10 97.9997 10H101C101.473 10 101.881 10.3311 101.978 10.7939L105.979 29.7941C106.092 30.3345 105.746 30.8649 105.206 30.9787C104.665 31.0922 104.135 30.7464 104.021 30.206L100.188 12.0002L97.9997 11.9999Z" fill="#F8F4EC"/>
<path d="M81.4063 30.914C80.9017 31.1383 80.3108 30.911 80.0865 30.4064C79.8621 29.9018 80.0895 29.3109 80.594 29.0866L89.594 25.0864C90.0986 24.8621 90.6896 25.0895 90.9139 25.594C91.1382 26.0989 90.9109 26.6899 90.4063 26.9142L81.4063 30.914Z" fill="#F8F4EC"/>
</svg>
