<svg width="50" height="50" viewBox="0 0 50 50" fill="none" xmlns="http://www.w3.org/2000/svg">
<circle cx="25" cy="25" r="25" fill="#555B47" fill-opacity="0.5"/>
<circle cx="25" cy="25" r="15" fill="#555B47"/>
<path d="M31.6258 26.3526H26.5319V31.6318C26.5319 32.3877 25.9198 33 25.164 33C24.4082 33 23.796 32.3877 23.796 31.6318V26.3526H18.3617C17.6121 26.3526 17 25.7403 17 24.9844C17 24.2284 17.6121 23.6162 18.3679 23.6162H23.8023V18.3682C23.8023 17.6123 24.4144 17 25.1702 17C25.926 17 26.5382 17.6123 26.5382 18.3682V23.6162H31.6321C32.3879 23.6162 33 24.2284 33 24.9844C32.9906 25.7403 32.3816 26.3526 31.6258 26.3526Z" fill="#F8F4EC"/>
</svg>
