<svg width="28" height="30" viewBox="0 0 28 30" fill="none" xmlns="http://www.w3.org/2000/svg">
<path d="M19.4582 8.74841C18.0724 8.74841 16.9485 7.65048 16.9485 6.29555C16.9485 4.94034 18.0727 3.84327 19.4582 3.84327C20.8448 3.84327 21.9687 4.94091 21.9687 6.29555C21.969 7.65048 20.8448 8.74841 19.4582 8.74841ZM19.4582 15.2501C19.4582 15.2501 24.6734 8.89291 24.6734 6.07862C24.6734 3.26434 22.3387 0.98291 19.4582 0.98291C16.5784 0.98291 14.2438 3.2642 14.2438 6.07862C14.2438 8.89334 19.4582 15.2501 19.4582 15.2501ZM7.32501 27.5165L1.90333 25.3337L1.90361 10.1608L7.3253 12.3425L7.32501 27.5165ZM27.7506 27.2001V8.00936L25.7886 6.98843C25.6393 7.52972 25.4026 8.11765 25.1082 8.72479L25.8495 9.25409V24.4262L20.4281 22.2452V15.3679C20.2336 15.6143 20.09 15.7912 20.0186 15.878L19.4586 16.5596L18.8998 15.878C18.8336 15.7965 18.7025 15.6364 18.5272 15.4148V23.0084L9.2252 26.752L9.22549 11.5791L14.1377 9.93153C13.8282 9.35118 13.5589 8.77917 13.3559 8.23703L7.32518 10.3333L0.00201416 7.38775V26.5785L7.32518 29.5257L20.4284 24.2535V24.2543L27.7506 27.2001Z" fill="#555B47"/>
</svg>
