<svg width="29" height="27" viewBox="0 0 29 27" fill="none" xmlns="http://www.w3.org/2000/svg">
<path d="M6.43927 10.8055C6.65027 10.8045 6.85941 10.8386 7.05468 10.9057C7.24994 10.9728 7.42747 11.0716 7.57707 11.1965C7.72667 11.3213 7.84538 11.4697 7.92639 11.6332C8.00739 11.7967 8.04909 11.972 8.04909 12.149V15.2632C8.04909 16.1523 8.76983 16.873 9.65891 16.873V16.873C10.548 16.873 11.2687 16.1523 11.2687 15.2632V12.149C11.2687 11.7927 11.4374 11.451 11.7377 11.199C12.038 10.947 12.4453 10.8055 12.87 10.8055H16.0897C16.5143 10.8055 16.9216 10.947 17.2219 11.199C17.5222 11.451 17.691 11.7927 17.691 12.149V15.2632C17.691 16.1523 18.4117 16.873 19.3008 16.873V16.873C20.1899 16.873 20.9106 16.1523 20.9106 15.2632V12.149C20.9106 11.972 20.9523 11.7967 21.0333 11.6332C21.1143 11.4697 21.233 11.3213 21.3826 11.1965C21.5322 11.0716 21.7097 10.9728 21.905 10.9057C22.1003 10.8386 22.3094 10.8045 22.5204 10.8055H25.7315C26.157 10.8055 26.5652 10.9468 26.8668 11.1986C27.1685 11.4503 27.3391 11.7921 27.3413 12.149V16.1065C27.3413 16.5298 27.6846 16.873 28.1079 16.873V16.873C28.2206 16.8633 28.3344 16.8735 28.4421 16.903C28.5497 16.9325 28.6488 16.9807 28.7329 17.0443C28.817 17.108 28.8842 17.1858 28.9302 17.2726C28.9762 17.3594 29 17.4534 29 17.5484C29 17.6434 28.9762 17.7374 28.9302 17.8242C28.8842 17.9111 28.817 17.9888 28.7329 18.0525C28.6488 18.1162 28.5497 18.1643 28.4421 18.1938C28.3344 18.2233 28.2206 18.2335 28.1079 18.2238V18.2238C27.6846 18.2238 27.3413 18.567 27.3413 18.9904V25.6492C27.3413 26.0075 27.1717 26.351 26.8698 26.6044C26.5679 26.8577 26.1585 27 25.7315 27H22.5204C22.3087 27.0009 22.0989 26.9666 21.903 26.8991C21.7072 26.8315 21.5293 26.7321 21.3796 26.6065C21.2299 26.4809 21.1113 26.3316 21.0308 26.1673C20.9503 26.003 20.9095 25.8269 20.9106 25.6492V19.8336C20.9106 18.9445 20.1899 18.2238 19.3008 18.2238V18.2238C18.4117 18.2238 17.691 18.9445 17.691 19.8336V25.6492C17.6921 25.8263 17.6515 26.0018 17.5715 26.1656C17.4915 26.3294 17.3738 26.4784 17.225 26.6039C17.0762 26.7294 16.8993 26.8291 16.7044 26.897C16.5096 26.965 16.3007 27 16.0897 27H12.87C12.659 27 12.4501 26.965 12.2553 26.897C12.0604 26.8291 11.8835 26.7294 11.7347 26.6039C11.5859 26.4784 11.4681 26.3294 11.3882 26.1656C11.3082 26.0018 11.2676 25.8263 11.2687 25.6492V19.8336C11.2687 18.9445 10.548 18.2238 9.65891 18.2238V18.2238C8.76983 18.2238 8.04909 18.9445 8.04909 19.8336V25.6492C8.05022 25.8269 8.00935 26.003 7.92885 26.1673C7.84835 26.3316 7.72981 26.4809 7.5801 26.6065C7.43039 26.7321 7.25248 26.8315 7.05665 26.8991C6.86083 26.9666 6.65099 27.0009 6.43927 27H3.22815C2.8012 27 2.39174 26.8577 2.08984 26.6044C1.78794 26.351 1.61833 26.0075 1.61833 25.6492V18.9904C1.61833 18.567 1.27513 18.2238 0.851755 18.2238V18.2238C0.633044 18.224 0.422609 18.1536 0.264044 18.0272C0.105479 17.9009 0.0109354 17.7281 0 17.5448C0.0130387 17.3628 0.108501 17.1919 0.266845 17.067C0.425189 16.9421 0.634438 16.8727 0.851755 16.873V16.873C1.27513 16.873 1.61833 16.5298 1.61833 16.1065V12.149C1.62059 11.7921 1.79118 11.4503 2.09284 11.1986C2.3945 10.9468 2.80267 10.8055 3.22815 10.8055H6.43927ZM5.63862 12.149H4.0288C3.81904 12.1594 3.62125 12.2345 3.47345 12.3598C3.32566 12.4851 3.23829 12.6519 3.22815 12.828V24.9346C3.22815 25.1127 3.31251 25.2836 3.46266 25.4096C3.61281 25.5356 3.81646 25.6064 4.0288 25.6064H5.63862C5.85097 25.6064 6.05461 25.5356 6.20476 25.4096C6.35492 25.2836 6.43927 25.1127 6.43927 24.9346V12.7851C6.41735 12.6167 6.32481 12.4602 6.17815 12.3437C6.0315 12.2272 5.84028 12.1582 5.63862 12.149ZM15.2805 12.149H13.6792C13.4679 12.1577 13.268 12.232 13.1185 12.3575C12.9689 12.483 12.8803 12.6507 12.87 12.828V24.9346C12.8824 25.1106 12.9718 25.2765 13.1212 25.4005C13.2706 25.5245 13.4693 25.5979 13.6792 25.6064H15.2805C15.4904 25.5979 15.6891 25.5245 15.8385 25.4005C15.9878 25.2765 16.0773 25.1106 16.0897 24.9346V12.7851C16.0675 12.6155 15.9737 12.4581 15.8253 12.3415C15.6769 12.2248 15.4837 12.1566 15.2805 12.149ZM24.9309 12.149H23.3211C23.1113 12.1594 22.9135 12.2345 22.7657 12.3598C22.6179 12.4851 22.5306 12.6519 22.5204 12.828V24.9346C22.5204 25.1127 22.6048 25.2836 22.7549 25.4096C22.9051 25.5356 23.1087 25.6064 23.3211 25.6064H24.9309C25.1432 25.6064 25.3469 25.5356 25.497 25.4096C25.6472 25.2836 25.7315 25.1127 25.7315 24.9346V12.7851C25.7096 12.6167 25.6171 12.4602 25.4704 12.3437C25.3238 12.2272 25.1325 12.1582 24.9309 12.149ZM8.51755 0.342632C8.6083 0.48586 8.62788 0.65338 8.57204 0.808673C8.5162 0.963967 8.38945 1.09444 8.21944 1.17165C7.91214 1.28149 7.65011 1.46471 7.46594 1.69851C7.28176 1.93232 7.18357 2.20639 7.18357 2.48665C7.18357 2.76691 7.28176 3.04099 7.46594 3.2748C7.65011 3.5086 7.91214 3.69182 8.21944 3.80166C8.76179 4.01574 9.22215 4.35261 9.54869 4.77433C9.87524 5.19604 10.055 5.68587 10.0677 6.18867C10.0581 6.66654 9.89473 7.13335 9.59486 7.5397C9.29498 7.94606 8.86978 8.27684 8.36424 8.49707L8.18537 8.58283C8.10372 8.626 8.01273 8.65525 7.9176 8.66892C7.82247 8.68259 7.72506 8.6804 7.63094 8.66248C7.53682 8.64456 7.44783 8.61127 7.36905 8.56449C7.29026 8.51771 7.22323 8.45838 7.17178 8.38986C7.12033 8.32135 7.08546 8.24501 7.06917 8.16519C7.05288 8.08537 7.05549 8.00364 7.07685 7.92467C7.0982 7.8457 7.13788 7.77103 7.19363 7.70492V7.70492C7.30846 7.56876 7.48906 7.51549 7.64749 7.43409C7.85711 7.32638 8.0389 7.18313 8.18062 7.01259C8.37524 6.77841 8.48621 6.5025 8.50052 6.21725C8.48654 5.93563 8.37742 5.66315 8.18589 5.43159C7.99437 5.20002 7.72832 5.01892 7.41879 4.9094C6.86567 4.70194 6.39554 4.3651 6.06471 3.93921C5.73388 3.51333 5.55637 3.01645 5.55344 2.50809C5.55653 2.02902 5.71722 1.55995 6.01781 1.15263C6.3184 0.745307 6.74721 0.415542 7.25696 0.199697L7.43582 0.113936C7.52224 0.0623104 7.621 0.0270506 7.72525 0.0105947C7.82951 -0.00586115 7.93678 -0.00312032 8.03965 0.018628C8.14252 0.0403763 8.23853 0.080613 8.32104 0.136555C8.40356 0.192498 8.47061 0.262811 8.51755 0.342632ZM20.2506 0.356903C20.2835 0.348397 20.3187 0.361887 20.334 0.392289C20.4001 0.523731 20.4098 0.671006 20.3603 0.808673C20.3045 0.963967 20.1777 1.09444 20.0077 1.17165C19.7004 1.28149 19.4384 1.46471 19.2542 1.69851C19.0701 1.93232 18.9719 2.20639 18.9719 2.48665C18.9719 2.76691 19.0701 3.04099 19.2542 3.2748C19.4384 3.5086 19.7004 3.69182 20.0077 3.80166C20.5501 4.01574 21.0104 4.35261 21.337 4.77433C21.6635 5.19604 21.8433 5.68587 21.856 6.18867C21.8437 6.66603 21.6792 7.13191 21.3796 7.53787C21.08 7.94382 20.6563 8.27504 20.1525 8.49707L19.9737 8.58283C19.892 8.626 19.801 8.65525 19.7059 8.66892C19.6108 8.68259 19.5134 8.6804 19.4192 8.66248C19.3251 8.64456 19.2361 8.61127 19.1573 8.56449C19.0786 8.51771 19.0115 8.45838 18.9601 8.38986C18.9086 8.32135 18.8738 8.24501 18.8575 8.16519C18.8412 8.08537 18.8438 8.00364 18.8651 7.92467C18.8865 7.8457 18.9262 7.77103 18.9819 7.70492V7.70492C19.0968 7.56875 19.2772 7.515 19.4353 7.43292C19.6439 7.3246 19.8249 7.18129 19.9664 7.0111C20.1607 6.77721 20.2725 6.50206 20.2888 6.21725C20.2728 5.93607 20.1629 5.66433 19.9716 5.43307C19.7804 5.2018 19.5154 5.02034 19.2071 4.9094C18.6687 4.71069 18.2083 4.38823 17.879 3.97927C17.5498 3.57031 17.3651 3.09154 17.3464 2.59826C17.3277 2.10499 17.4757 1.61733 17.7733 1.19164C18.0709 0.765942 18.506 0.419576 19.0282 0.19255L19.2071 0.113936C19.3788 0.038345 19.5793 0.0229799 19.7645 0.0712098C19.929 0.114041 20.0695 0.203922 20.1623 0.324286C20.1832 0.3513 20.2175 0.365431 20.2506 0.356903V0.356903ZM14.4074 0.342632C14.4101 0.342632 14.4126 0.343994 14.414 0.34624C14.5028 0.488668 14.5216 0.654682 14.4662 0.808673C14.4103 0.963967 14.2836 1.09444 14.1136 1.17165C13.8063 1.28149 13.5443 1.46471 13.3601 1.69851C13.1759 1.93232 13.0777 2.20639 13.0777 2.48665C13.0777 2.76691 13.1759 3.04099 13.3601 3.2748C13.5443 3.5086 13.8063 3.69182 14.1136 3.80166C14.6559 4.01574 15.1163 4.35261 15.4428 4.77433C15.7694 5.19604 15.9491 5.68587 15.9619 6.18867C15.9523 6.66654 15.7889 7.13335 15.489 7.5397C15.1891 7.94606 14.7639 8.27684 14.2584 8.49707L14.0795 8.58283C13.9967 8.62459 13.905 8.65227 13.8095 8.66427C13.7139 8.67628 13.6165 8.67238 13.5228 8.65281C13.4291 8.63323 13.3409 8.59836 13.2632 8.55017C13.1855 8.50199 13.12 8.44145 13.0702 8.372C13.0204 8.30255 12.9874 8.22555 12.9731 8.1454C12.9588 8.06526 12.9634 7.98353 12.9868 7.90489C13.0101 7.82625 13.0517 7.75223 13.1091 7.68707V7.68707C13.2273 7.5529 13.4098 7.50379 13.5715 7.42731C13.794 7.32204 13.9881 7.17751 14.1396 7.00271C14.3455 6.76514 14.4638 6.4821 14.4798 6.18867C14.4659 5.90705 14.3567 5.63457 14.1652 5.403C13.9737 5.17144 13.7076 4.99033 13.3981 4.88081C12.8456 4.67263 12.3761 4.33561 12.0454 3.90988C11.7147 3.48416 11.5367 2.98767 11.5328 2.47951C11.5362 1.99956 11.6969 1.52965 11.9974 1.12123C12.2979 0.712818 12.7265 0.381642 13.2363 0.163964L13.4151 0.0853493C13.5869 0.00975805 13.7873 -0.00560701 13.9725 0.0426229C14.1562 0.0904496 14.31 0.196942 14.4009 0.339031C14.4023 0.341268 14.4048 0.342632 14.4074 0.342632V0.342632Z" fill="#555B47"/>
</svg>
