<svg width="80" height="80" viewBox="0 0 80 80" fill="none" xmlns="http://www.w3.org/2000/svg">
<line x1="4.83988" y1="13.9629" x2="66.9629" y2="54.1601" stroke="#D85F5F" stroke-opacity="0.7" stroke-width="7" stroke-linecap="round"/>
<path d="M54.7737 8.4219C54.0951 8.41832 53.3215 8.86654 52.9625 9.76658L49.1076 19.7478C48.2706 22.1706 46.4224 24.9366 41.6339 25.3036C34.2817 26.0067 30.4004 24.5286 26.1745 24.7616C23.0151 23.5884 20.4375 21.3844 18.2714 18.0063C17.7602 17.18 16.7267 16.8443 15.8267 17.2072C14.6535 17.6813 14.212 19.1103 14.908 20.1625C16.0932 22.0099 17.5527 23.5028 18.9825 24.9363C20.0191 25.9738 20.2338 26.3662 19.0008 27.5957C17.3633 29.2318 16.7222 31.2542 16.4378 33.5917C16.0709 36.6368 16.4307 42.1877 12.1151 46.3631C11.8186 46.647 11.6584 47.0743 11.7633 47.4703L14.6561 55.6108H19.7994C19.7994 54.4845 19.0628 53.4881 17.9847 53.1555L16.4257 47.6068C18.5177 47.0024 20.9927 44.8689 22.01 42.7921L21.4248 47.4769L23.7815 55.6104H28.9248C28.9248 54.484 28.1882 53.4876 27.11 53.1551L25.6815 47.3288C28.014 46.7029 30.1997 43.2845 30.8962 40.8583C33.4292 42.1431 36.3993 43.04 39.8029 43.5471L41.0695 55.6099H46.2137C46.2137 54.7863 45.8177 54.0125 45.1512 53.5277L45.7512 44.0465C46.3878 44.0612 47.0476 44.0501 47.7065 44.0465L48.8435 55.6099H53.9841C53.9841 54.5867 53.377 53.6612 52.4394 53.2541L52.8626 46.6693C53.1327 42.3769 55.2546 39.6399 55.9908 37.0176C56.7693 34.2328 55.1167 32.4068 55.6024 29.3916C55.9024 27.5144 56.7836 26.3368 58.9764 26.3176L64.046 26.2729C66.6688 25.9466 67.6287 23.7314 68.0907 22.4586C68.6278 20.9774 68.0836 20.0069 66.9764 19.706C63.9277 18.8912 63.1577 18.5282 61.8836 16.514C60.9877 15.0952 60.1623 14.2582 59.0581 13.855L59.0595 11.3068C59.0595 9.80275 57.0742 9.79155 56.4702 11.3068L56.0479 12.3661V9.76612C56.0479 8.87059 55.4555 8.42189 54.7734 8.42189L54.7737 8.4219Z" fill="#F8F4EC"/>
</svg>
