<svg width="30" height="27" viewBox="0 0 30 27" fill="none" xmlns="http://www.w3.org/2000/svg">
<path d="M1.57305 17.6063C1.57294 17.6062 1.57282 17.6062 1.5727 17.6062C1.53839 17.606 1.50407 17.6024 1.47042 17.5955C1.34051 17.5685 1.22667 17.491 1.1539 17.3799C1.08114 17.2689 1.05568 17.1335 1.08292 17.0038L3.7628 4.15691C4.00432 2.98994 4.63246 1.93886 5.54538 1.17297C6.4496 0.417828 7.58955 0.00285714 8.76772 0H20.358C21.5361 0.00290177 22.6761 0.417857 23.5803 1.17297C24.4935 1.93903 25.1214 2.9904 25.3629 4.15737L27.7642 15.6699C27.8153 15.938 27.6424 16.1976 27.3752 16.2534C27.1082 16.3092 26.8457 16.1405 26.7855 15.8744L24.3841 4.36127C23.9779 2.41373 22.2848 1.00013 20.3578 1.00013H8.76808C6.84128 1.00013 5.14797 2.41395 4.74174 4.36127L2.06317 17.2081C2.01497 17.4402 1.81037 17.6065 1.5734 17.6063C1.57328 17.6063 1.57316 17.6063 1.57305 17.6063Z" fill="#555B47"/>
<path d="M23.0654 23.1388C23.0654 23.1388 23.0654 23.1388 23.0654 23.1388H6.45626C5.81386 23.1383 5.19798 22.883 4.74375 22.4287C4.28973 21.9745 4.03415 21.3586 4.03369 20.7164V20.5832C4.03414 19.9408 4.2895 19.3249 4.74375 18.8707C5.19799 18.4162 5.81386 18.1608 6.45626 18.1602H23.0654C23.3415 18.1602 23.5654 18.3838 23.5654 18.6602C23.5654 18.9363 23.3415 19.1602 23.0654 19.1602H6.45626C6.07903 19.1606 5.71741 19.3106 5.45066 19.5776C5.18392 19.8443 5.03414 20.2059 5.0337 20.5832V20.7164C5.03414 21.0934 5.18437 21.4551 5.45089 21.7216C5.71763 21.9883 6.07923 22.1383 6.45626 22.1388H23.0654C23.3415 22.1388 23.5654 22.3626 23.5654 22.6388C23.5654 22.9151 23.3415 23.1387 23.0654 23.1388C23.0654 23.1388 23.0654 23.1388 23.0654 23.1388Z" fill="#555B47"/>
<path d="M26.2267 26.7366C26.2267 26.7366 26.2266 26.7366 26.2265 26.7366H6.27747C4.03484 26.7366 1.9625 25.5402 0.841071 23.598C-0.280357 21.6556 -0.280357 19.2627 0.841071 17.3203C1.9625 15.3781 4.03484 14.1816 6.27747 14.1816H24.5369C25.788 14.1807 26.9827 14.7035 27.8309 15.6232C28.6791 16.5431 29.1039 17.7756 29.0021 19.0227C28.9434 19.7417 28.7128 20.4277 28.3391 21.0272C28.0112 21.5531 28.2178 22.5071 28.6088 22.9879C28.942 23.3975 29.1242 23.9094 29.1251 24.4372C29.1251 25.5823 28.2289 26.7365 26.227 26.7366C26.2269 26.7366 26.2268 26.7366 26.2267 26.7366ZM6.27747 15.1812C4.39199 15.1812 2.64981 16.187 1.70719 17.82C0.764328 19.4528 0.764328 21.4647 1.70719 23.0975C2.64981 24.7303 4.39199 25.7361 6.27747 25.7361H26.2266C27.3971 25.7361 28.1248 25.2361 28.1248 24.4374C28.1244 24.0932 27.9874 23.7631 27.7438 23.5196C27.5005 23.2763 27.1704 23.1392 26.8262 23.1388H22.2498C21.9737 23.1388 21.7498 22.9149 21.7498 22.6388C21.7498 22.3624 21.9737 22.1388 22.2498 22.1388H24.5391C25.7819 22.1388 26.9304 21.4756 27.5518 20.3993C28.1732 19.323 28.1732 17.9968 27.5518 16.9205C26.9304 15.8442 25.7819 15.1812 24.5391 15.1812L6.27747 15.1812Z" fill="#555B47"/>
</svg>
