<svg width="29" height="28" viewBox="0 0 29 28" fill="none" xmlns="http://www.w3.org/2000/svg">
<path d="M27.2515 7.26873e-05H5.10517C4.33322 0.00348178 3.59383 0.339847 3.0482 0.935563C2.50234 1.53159 2.19431 2.33898 2.19118 3.18189V7.63644H1.74836C1.28473 7.63644 0.839796 7.83757 0.51203 8.19553C0.184264 8.55348 0 9.03931 0 9.54549V26.0909C0 26.5972 0.184204 27.083 0.51203 27.4409C0.839856 27.7988 1.28479 28 1.74836 28H24.9904C25.7631 28 26.5043 27.6648 27.051 27.0682C27.5974 26.4713 27.9044 25.662 27.9044 24.8182V20.2364C28.2267 20.0929 28.503 19.8483 28.6979 19.5332C28.893 19.2185 28.9981 18.8474 29 18.4673V1.92189C29.0031 1.41337 28.8202 0.924436 28.4921 0.563636C28.1637 0.202844 27.7173 0 27.2516 0L27.2515 7.26873e-05ZM24.9903 26.7273H1.74832C1.42648 26.7273 1.16552 26.4424 1.16552 26.091V9.54553C1.16552 9.19411 1.42648 8.90916 1.74832 8.90916H2.19114V21.0255C2.20025 21.8639 2.51116 22.6647 3.05621 23.2551C3.60129 23.8457 4.33731 24.1783 5.10513 24.1817H22.8342C22.9073 24.1783 22.9786 24.2076 23.0314 24.2627C23.0842 24.3181 23.1139 24.3945 23.1139 24.4744C23.1139 24.6431 23.1753 24.805 23.2846 24.9244C23.3938 25.0437 23.5421 25.1107 23.6967 25.1107C23.8512 25.1107 23.9995 25.0437 24.1088 24.9244C24.2181 24.805 24.2795 24.6431 24.2795 24.4744C24.2764 24.0582 24.1229 23.6599 23.852 23.3667C23.5814 23.0735 23.2156 22.9091 22.8342 22.9091H5.10515C4.64255 22.9056 4.19945 22.7034 3.87215 22.3463C3.5451 21.9889 3.35986 21.5054 3.35673 20.9999V3.18176C3.35673 2.67551 3.54094 2.18969 3.86876 1.8318C4.19685 1.47384 4.64152 1.27271 5.1051 1.27271H27.2514C27.406 1.27271 27.5543 1.33975 27.6636 1.45907C27.7728 1.57839 27.8342 1.74032 27.8342 1.90907V18.4545C27.8342 18.6233 27.7728 18.7852 27.6636 18.9045C27.5543 19.0238 27.406 19.0909 27.2514 19.0909H7.20317C6.81993 19.0909 6.45232 19.2571 6.18117 19.5531C5.91007 19.8491 5.75786 20.2505 5.75786 20.669C5.75786 20.8378 5.81926 20.9997 5.92854 21.119C6.03781 21.2383 6.18612 21.3054 6.34066 21.3054C6.49521 21.3054 6.64351 21.2384 6.75278 21.119C6.86206 20.9997 6.92346 20.8378 6.92346 20.669C6.92008 20.5869 6.94844 20.5071 7.00177 20.4491C7.05485 20.3909 7.12796 20.3599 7.20315 20.3636H26.7385V24.7801C26.7479 25.2929 26.5679 25.7884 26.239 26.1545C25.9101 26.521 25.4601 26.7273 24.9902 26.7273L24.9903 26.7273Z" fill="#555B47"/>
</svg>
