<svg width="19" height="22" viewBox="0 0 19 22" fill="none" xmlns="http://www.w3.org/2000/svg">
<path d="M6.42082 10.146C6.18916 10.146 5.96668 10.2358 5.80279 10.396C5.63889 10.5562 5.54694 10.7733 5.54694 10.9999V20.4414C5.54694 20.7465 5.71344 21.0285 5.98388 21.181C6.25433 21.3336 6.58753 21.3336 6.85776 21.181C7.12821 21.0285 7.29491 20.7465 7.29491 20.4414V10.9999C7.29491 10.7733 7.20276 10.5561 7.03886 10.396C6.87496 10.2358 6.65267 10.146 6.42082 10.146Z" fill="#555B47"/>
<path d="M11.9594 5.42529C11.7275 5.42529 11.5053 5.51533 11.3414 5.67549C11.1775 5.83564 11.0853 6.05283 11.0853 6.27939V20.4419C11.0853 20.747 11.252 21.029 11.5225 21.1815C11.7927 21.3341 12.1259 21.3341 12.3964 21.1815C12.6668 21.029 12.8333 20.747 12.8333 20.4419V6.27939C12.8333 6.05283 12.7414 5.83564 12.5775 5.67549C12.4135 5.51533 12.1911 5.42529 11.9594 5.42529Z" fill="#555B47"/>
<path d="M0.878562 14.8673C0.649295 14.871 0.430624 14.9626 0.269894 15.1224C0.10899 15.2821 0.0188437 15.4972 0.0190433 15.7212V20.4421C0.0190433 20.7472 0.185545 21.0292 0.455989 21.1818C0.726433 21.3343 1.05964 21.3343 1.32987 21.1818C1.60032 21.0292 1.76702 20.7472 1.76702 20.4421V15.7212C1.76702 15.4923 1.67287 15.273 1.50597 15.1124C1.33887 14.9519 1.11284 14.8636 0.878562 14.8673Z" fill="#555B47"/>
<path d="M17.4986 0.70459C17.2669 0.70459 17.0444 0.794435 16.8805 0.95459C16.7166 1.11474 16.6247 1.33193 16.6247 1.55849V20.4415C16.6247 20.7466 16.7912 21.0286 17.0616 21.1811C17.3321 21.3337 17.6653 21.3337 17.9355 21.1811C18.206 21.0286 18.3727 20.7466 18.3727 20.4415V1.55849C18.3727 1.33193 18.2805 1.11474 18.1166 0.95459C17.9527 0.79444 17.7304 0.70459 17.4986 0.70459Z" fill="#555B47"/>
</svg>
