<svg width="27" height="30" viewBox="0 0 27 30" fill="none" xmlns="http://www.w3.org/2000/svg">
<path d="M7.39498 6.84019H16.8758C17.3493 8.31105 18.5167 9.46991 20.0145 9.95574C21.5119 10.4416 23.1573 10.1948 24.4368 9.29245C25.7163 8.39014 26.4743 6.942 26.4743 5.40017C26.4743 3.85834 25.7163 2.4102 24.4368 1.50788C23.1573 0.605568 21.5119 0.358797 20.0145 0.8446C18.5167 1.33043 17.3493 2.48929 16.8758 3.96014H7.39498C5.84032 3.9655 4.37688 4.67867 3.43696 5.88871C2.49739 7.09874 2.188 8.6674 2.60089 10.1319C3.01378 11.5968 4.10134 12.7894 5.54293 13.3586L20.7711 19.3107C21.354 19.5478 21.7919 20.0349 21.9574 20.6305C22.1232 21.2259 21.9975 21.8627 21.6175 22.3555C21.2378 22.8484 20.6457 23.1417 20.0146 23.1507H10.5285C10.055 21.6799 8.88752 20.5207 7.38979 20.0349C5.89241 19.5494 4.24695 19.7961 2.96747 20.6985C1.68798 21.6008 0.929993 23.0486 0.929993 24.5904C0.929993 26.1322 1.68795 27.5804 2.96747 28.4827C4.24695 29.385 5.89241 29.6318 7.38979 29.146C8.88752 28.6605 10.055 27.5013 10.5285 26.0304H20.0093C21.5639 26.0251 23.0274 25.3119 23.9673 24.1022C24.9069 22.8922 25.2163 21.3232 24.8034 19.8587C24.3905 18.3942 23.3029 17.2012 21.8613 16.632L6.63313 10.6801C6.05028 10.4427 5.61233 9.95557 5.44689 9.3603C5.28105 8.76465 5.4068 8.12781 5.78681 7.63495C6.16647 7.14243 6.75857 6.84879 7.38972 6.84009L7.39498 6.84019ZM21.5618 3.48028C22.0826 3.48028 22.5826 3.68251 22.9509 4.04245C23.3196 4.40271 23.5266 4.89088 23.5266 5.40016C23.5266 5.90944 23.3196 6.39762 22.9509 6.75787C22.5826 7.11781 22.0826 7.32004 21.5618 7.32004C21.0406 7.32004 20.5406 7.11781 20.1723 6.75787C19.8036 6.39761 19.5966 5.90944 19.5966 5.40016C19.5966 4.89088 19.8036 4.4027 20.1723 4.04245C20.5406 3.68251 21.0406 3.48028 21.5618 3.48028ZM5.84234 26.5203C5.3215 26.5203 4.82154 26.318 4.4532 25.9581C4.0845 25.5979 3.87754 25.1097 3.87754 24.6004C3.87754 24.0911 4.0845 23.6029 4.4532 23.2427C4.82155 22.8828 5.32149 22.6805 5.84234 22.6805C6.36352 22.6805 6.86348 22.8828 7.23182 23.2427C7.60052 23.603 7.80748 24.0911 7.80748 24.6004C7.80748 25.1097 7.60052 25.5979 7.23182 25.9581C6.86347 26.318 6.36353 26.5203 5.84234 26.5203Z" fill="#555B47"/>
</svg>
