<svg width="71" height="49" viewBox="0 0 71 49" fill="none" xmlns="http://www.w3.org/2000/svg">
<line x1="4.83988" y1="3.96288" x2="66.9629" y2="44.1601" stroke="#D85F5F" stroke-opacity="0.7" stroke-width="7" stroke-linecap="round"/>
<path d="M53.6143 29.5426C51.5542 27.4834 48.6969 26.7015 46.027 27.1912V29.6075C48.0831 29.0781 50.3542 29.5914 51.9589 31.197C54.3747 33.6117 54.3747 37.5417 51.9589 39.958C49.5432 42.3742 45.6137 42.3742 43.1979 39.958C41.536 38.2971 41.0464 35.9261 41.6706 33.8187H39.2333C38.6638 36.5458 39.4287 39.5014 41.5426 41.6133C44.8714 44.9427 50.2865 44.9427 53.6143 41.6133C56.9431 38.2855 56.9431 32.871 53.6143 29.5426Z" fill="#F8F4EC"/>
<path d="M30.4393 33.9795C30.9687 36.0341 30.4554 38.3062 28.8498 39.9109C26.434 42.3272 22.5045 42.3272 20.0888 39.9109C17.6731 37.4947 17.6731 33.5648 20.0888 31.1499C21.7497 29.4875 24.1207 28.9993 26.2281 29.6226V27.1853C23.4999 26.6153 20.5459 27.3807 18.4324 29.4946C15.1036 32.8234 15.1046 38.2374 18.4324 41.5663C21.7618 44.8951 27.1768 44.8951 30.5055 41.5663C32.5647 39.5076 33.3462 36.6489 32.857 33.9795H30.4393Z" fill="#F8F4EC"/>
<path d="M25.9714 20.8061V18.3898C23.9172 18.9207 21.6462 18.4069 20.04 16.8003C17.6253 14.3856 17.6253 10.455 20.04 8.0393C22.4547 5.6246 26.3853 5.6246 28.8005 8.0393C30.4614 9.70018 30.952 12.0712 30.3294 14.1801H32.7657C33.3357 11.4515 32.5698 8.4974 30.4559 6.38394C27.1281 3.05613 21.7135 3.0551 18.3842 6.38394C15.0564 9.71176 15.0564 15.1278 18.3842 18.4556C20.4448 20.5154 23.3031 21.2973 25.9714 20.8061Z" fill="#F8F4EC"/>
<path d="M41.607 13.9723C41.0777 11.9177 41.5909 9.64704 43.1965 8.04041C45.6112 5.62571 49.5418 5.62571 51.9575 8.04092C54.3722 10.4566 54.3722 14.3862 51.9575 16.8014C50.2966 18.4623 47.9257 18.9534 45.8182 18.3302V20.7665C48.5454 21.3366 51.4999 20.5712 53.6144 18.4573C56.9417 15.1284 56.9417 9.7144 53.6144 6.38556C50.2851 3.05672 44.869 3.0562 41.5413 6.38506C39.4826 8.44426 38.7007 11.3034 39.1899 13.9723H41.607Z" fill="#F8F4EC"/>
<path d="M45.3137 37.1743C46.3794 38.2405 48.1086 38.2405 49.1748 37.1743C50.2426 36.108 50.2426 34.3778 49.1748 33.3116C48.4431 32.5788 47.402 32.3619 46.4748 32.6356C43.1209 27.3697 43.0687 20.6297 46.3217 15.3209C47.2864 15.6659 48.4025 15.4605 49.1744 14.6885C50.2401 13.6223 50.2401 11.8921 49.1749 10.8248C48.1077 9.7576 46.3774 9.7576 45.3112 10.8248C44.5388 11.5973 44.3328 12.7142 44.6774 13.678C39.3718 16.9324 32.6299 16.8791 27.3652 13.5268C27.6375 12.5982 27.4205 11.5571 26.6892 10.8253C25.623 9.75801 23.8928 9.75801 22.8255 10.8253C21.7593 11.8915 21.7593 13.6212 22.826 14.689C23.5578 15.4207 24.5979 15.6372 25.526 15.365C28.88 20.6303 28.9322 27.3724 25.6777 32.681C24.7144 32.3359 23.596 32.5403 22.825 33.3123C21.7577 34.3795 21.7577 36.1082 22.825 37.176C23.8907 38.2407 25.6209 38.2422 26.6887 37.176C27.4596 36.404 27.6645 35.2875 27.3195 34.3248C32.627 31.0699 39.3685 31.1221 44.6355 34.4759C44.3633 35.4011 44.5807 36.4422 45.314 37.1744L45.3137 37.1743ZM46.4844 34.4843C46.9043 34.0654 47.5833 34.0654 48.0022 34.4838C48.4206 34.9041 48.4206 35.5817 48.0017 36.0016C47.5833 36.4199 46.9043 36.4199 46.4844 36.0016C46.0651 35.5817 46.0651 34.9042 46.4844 34.4843ZM46.4819 12.001C46.9018 11.5821 47.5798 11.5821 47.9997 12.001C48.418 12.4199 48.418 13.0989 47.9997 13.5183C47.5798 13.9381 46.9018 13.9381 46.4819 13.5183C46.0635 13.0989 46.0635 12.4199 46.4819 12.001ZM25.4463 13.4469C25.028 13.8658 24.3489 13.8658 23.9291 13.4469C23.5102 13.027 23.5102 12.348 23.9291 11.9296C24.3489 11.5098 25.0279 11.5098 25.4468 11.9291C25.8662 12.348 25.8662 13.027 25.4463 13.4469ZM25.4935 36.0215C25.0747 36.4398 24.3957 36.4398 23.9763 36.0215C23.5574 35.6031 23.5574 34.9241 23.9763 34.5052C24.3961 34.0854 25.0742 34.0854 25.4935 34.5052C25.9129 34.9241 25.9129 35.6031 25.4935 36.0215ZM40.4631 25.5505C40.4631 26.0904 40.0267 26.5288 39.4863 26.5288H32.5158C31.9759 26.5288 31.5379 26.0904 31.5379 25.5505V22.4482C31.5379 21.9073 31.9759 21.4698 32.5158 21.4698H39.4863C40.0272 21.4698 40.4631 21.9078 40.4631 22.4482V25.5505Z" fill="#F8F4EC"/>
<path d="M37.4259 22.3154H34.5727C33.9269 22.3154 33.4025 22.8403 33.4025 23.4861V24.5102C33.4025 25.1576 33.9269 25.6809 34.5727 25.6809H37.4259C38.0722 25.6809 38.5961 25.1566 38.5961 24.5102V23.4861C38.5956 22.8403 38.0727 22.3154 37.4259 22.3154Z" fill="#F8F4EC"/>
</svg>
