<svg width="27" height="30" viewBox="0 0 27 30" fill="none" xmlns="http://www.w3.org/2000/svg">
<path d="M23.3624 8.4002L24.5906 7.20013L23.4444 6.08013L22.2162 7.2802C20.1286 5.48027 17.4676 4.36027 14.5203 4.1602V2.24027H15.8303V0.640416L11.5729 0.640137V2.23999H12.883V4.15992C6.12865 4.56004 0.806824 10.0399 0.806824 16.7199C0.806824 23.68 6.57888 29.3199 13.7017 29.3199C20.8246 29.3199 26.5965 23.6799 26.5965 16.7199C26.5965 13.5601 25.3687 10.6401 23.3627 8.39992L23.3624 8.4002ZM13.7015 27.7602C7.47918 27.7602 2.44412 22.8403 2.44412 16.7602C2.44412 10.6801 7.47918 5.7602 13.7015 5.7602C19.9239 5.7602 24.9589 10.6801 24.9589 16.7602C24.9589 22.8403 19.9239 27.7602 13.7015 27.7602Z" fill="#555B47"/>
<path d="M18.8186 10.6001L14.029 15.2803C13.9063 15.2404 13.8243 15.2404 13.7015 15.2404C12.8417 15.2404 12.1459 15.9204 12.1459 16.7605C12.1459 17.6006 12.8418 18.2806 13.7015 18.2806C14.5613 18.2806 15.2572 17.6006 15.2572 16.7605C15.2572 16.6405 15.2163 16.5205 15.2163 16.4005L19.965 11.7605L18.8186 10.6001Z" fill="#555B47"/>
</svg>
