<svg width="71" height="60" viewBox="0 0 71 60" fill="none" xmlns="http://www.w3.org/2000/svg">
<line x1="4.83988" y1="5.96288" x2="66.9629" y2="46.1601" stroke="#D85F5F" stroke-opacity="0.7" stroke-width="7" stroke-linecap="round"/>
<path d="M48.822 46.7724C48.6774 41.2864 45.213 40.6375 45.4299 36.8116C45.5746 32.1201 48.822 29.6658 48.822 29.6658C48.822 29.6658 40.9544 30.3884 39.4389 40.2764C39.4389 40.2764 38.5724 31.9751 36.3351 28.1495C34.0975 24.6128 33.2309 25.3347 33.2309 25.3347C33.2309 25.3347 35.1802 27.7886 31.1383 33.9961C26.8797 40.7089 30.4884 43.6681 30.4884 43.6681C30.4884 43.6684 24.1365 42.297 23.2707 35.1513C23.2707 35.1513 23.126 35.5842 22.9097 35.9451C21.8999 38.1825 22.8377 43.3076 22.9817 47.9991C11.1446 40.6367 19.156 30.0266 19.3727 21.6531C19.6617 10.2489 16.6299 6.20657 16.6299 6.20657C16.6299 6.20657 25.869 14.2908 28.1781 18.0446C27.6729 7.93971 32.6534 2.88686 39.6553 0C36.9851 4.18663 37.4896 7.79563 38.1395 11.2594C39.15 16.8175 42.1815 19.7769 42.1815 19.7769C42.1815 19.7769 44.8523 17.1061 46.0795 14.0026C48.1001 8.80552 47.7392 6.49594 47.7392 6.49594C52.1424 9.52774 62.1032 37.8939 48.822 46.7722L48.822 46.7724Z" fill="#F8F4EC"/>
</svg>
