<svg width="80" height="80" viewBox="0 0 80 80" fill="none" xmlns="http://www.w3.org/2000/svg">
<line x1="10.8399" y1="25.9629" x2="72.9629" y2="66.1601" stroke="#D85F5F" stroke-opacity="0.7" stroke-width="7" stroke-linecap="round"/>
<path d="M39.6468 59.75H50.2267C50.9191 59.75 51.5584 59.3808 51.9049 58.7812C52.2509 58.1817 52.2509 57.4433 51.9049 56.8437C51.5585 56.2442 50.9192 55.875 50.2267 55.875H47.5562C47.004 55.875 46.5562 55.4272 46.5562 54.875C46.5562 54.3228 47.004 53.875 47.5562 53.875H51.312C51.974 53.8661 52.5857 53.5214 52.9366 52.9598C53.287 52.3986 53.3281 51.6973 53.0455 51.0987C52.7633 50.5 52.1955 50.0862 51.5392 50H48.3905C47.8463 49.9817 47.4088 49.5447 47.3905 49V48.9964C47.391 48.7313 47.4963 48.4777 47.6838 48.2906C47.8718 48.1036 48.1258 47.9991 48.3905 48H52.0624C52.7548 48 53.3945 47.6308 53.7406 47.0312C54.0866 46.4317 54.0866 45.6933 53.7406 45.0938C53.3946 44.4942 52.7549 44.125 52.0624 44.125H49.2249C48.9611 44.1277 48.7071 44.0246 48.5191 43.8388C48.3316 43.6531 48.2254 43.4005 48.2249 43.1362C48.2249 43.1281 48.2258 43.138 48.2263 43.1295C48.2267 43.1214 48.2249 43.1232 48.2249 43.1147V43.1152C48.2254 42.8509 48.3312 42.5978 48.5191 42.4121C48.7066 42.2259 48.9611 42.1228 49.2249 42.125H53.2307C53.9008 42.125 54.5195 41.7674 54.8549 41.1875C55.1897 40.6076 55.1897 39.8924 54.8549 39.3125C54.5196 38.7326 53.9008 38.3751 53.2307 38.3751H43.9799C44.2053 37.767 44.3192 37.1228 44.3152 36.4741C44.3152 34.4053 43.3085 33.3098 42.4995 32.4344C42.4968 32.4312 42.4941 32.4254 42.4915 32.4219C43.2352 32.5487 43.9884 32.6134 44.7432 32.6147C46.037 32.6147 47.4968 32.4107 48.8896 31.7728C52.6441 30.0536 54.3227 25.9062 54.3927 25.7308H54.3923C54.4927 25.4772 54.4851 25.1938 54.3717 24.946C54.2583 24.6982 54.0485 24.5072 53.7914 24.4174C53.6128 24.3549 49.3766 22.9174 45.6222 24.6357H45.6218C44.7352 25.0491 43.9192 25.5996 43.203 26.2669C43.7785 25.5598 44.1464 24.7075 44.2656 23.8044C45.008 23.5633 45.6562 23.0964 46.1201 22.4691C46.3406 22.1749 46.5214 21.8535 46.6589 21.5124C48.0544 21.6829 49.4036 21.1646 50.2191 20.0803C51.0348 18.9955 51.158 17.5571 50.6066 16.2625C50.8959 16.0357 51.1544 15.7727 51.3758 15.4794C51.9776 14.6991 52.2423 13.7111 52.1111 12.7347C51.9209 11.3919 50.9915 10.2874 49.6861 9.76148C49.8562 8.36502 49.3379 7.01816 48.254 6.20296C47.17 5.38778 45.7317 5.26367 44.4374 5.81546C43.57 4.70788 42.2498 4.12129 40.9079 4.31192C39.566 4.50255 38.4606 5.43157 37.9346 6.73695C36.5396 6.56686 35.1913 7.08517 34.3761 8.16906C33.5609 9.25296 33.4368 10.6914 33.9882 11.9856C32.8806 12.853 32.2945 14.1718 32.4846 15.5151C32.6748 16.8584 33.6043 17.9624 34.9088 18.4884C34.7387 19.8848 35.257 21.2317 36.3409 22.0469C37.4248 22.8621 38.8627 22.9862 40.1574 22.4344V22.4339C40.6789 23.1125 41.4043 23.6058 42.227 23.841C42.0422 24.6227 41.5811 25.1237 41.0301 25.7197C40.2212 26.5947 39.2145 27.684 39.2145 29.7527C39.2145 31.8215 40.2212 32.9107 41.0301 33.7857C41.7475 34.5621 42.3145 35.1754 42.3145 36.4616C42.323 36.8888 42.2462 37.3129 42.0881 37.7098C41.9997 37.9206 41.985 38.1554 42.0466 38.3755H39.6466C37.2546 38.3661 34.8958 38.9317 32.7684 40.0251L31.9992 40.3907V57.5587L32.7957 58.027C34.9081 59.1431 37.2577 59.7337 39.6465 59.7497L39.6468 59.75ZM42.3143 18.5248C40.7817 18.5239 39.3602 17.7248 38.5634 16.4159C37.7665 15.1066 37.7094 13.4771 38.4125 12.115C39.1156 10.7534 40.4777 9.8565 42.0062 9.7485C43.5348 9.64001 45.0093 10.3364 45.8973 11.5855C46.7853 12.8346 46.9585 14.456 46.354 15.8642C45.7496 17.2726 44.4549 18.2642 42.9374 18.4807C42.7312 18.5102 42.5228 18.5248 42.3143 18.5248Z" fill="#F8F4EC"/>
<path d="M26.3783 59.7503H28.4966H28.4961C29.3314 59.7383 30.0015 59.0566 29.9997 58.2209V40.118C29.934 39.9171 29.934 39.701 29.9997 39.5002V39.1028C29.9988 38.7064 29.839 38.3274 29.5568 38.0497C29.2742 37.7725 28.8921 37.6194 28.4961 37.6252H26.3783C25.9823 37.6194 25.6001 37.7725 25.3176 38.0497C25.0354 38.3274 24.8756 38.7064 24.8747 39.1028V58.2205C24.8729 59.0563 25.543 59.7379 26.3782 59.75L26.3783 59.7503Z" fill="#F8F4EC"/>
<path d="M44.2263 15.575C44.6714 14.9835 44.816 14.2183 44.6174 13.5054C44.4187 12.792 43.8995 12.2117 43.2129 11.9353C42.5263 11.6585 41.7499 11.717 41.1124 12.0934C40.4749 12.4697 40.049 13.1215 39.9593 13.8563C39.87 14.5912 40.1276 15.3259 40.6562 15.8443C41.1847 16.3626 41.9241 16.6055 42.6571 16.5019C43.2825 16.4131 43.8468 16.0796 44.2262 15.5751L44.2263 15.575Z" fill="#F8F4EC"/>
</svg>
