<svg width="29" height="28" viewBox="0 0 29 28" fill="none" xmlns="http://www.w3.org/2000/svg">
<path fill-rule="evenodd" clip-rule="evenodd" d="M4.29612 2.66624V1.33312C4.29612 0.97984 4.40903 0.64064 4.61061 0.3904C4.8122 0.14016 5.08544 0 5.37003 0C6.00622 0 5.90724 0 5.90724 0C6.20368 0 6.44444 0.29824 6.44444 0.66624C6.44444 1.03424 6.20368 1.33312 5.90724 1.33312H5.37003V2.66624H6.60169C6.30524 2.66624 6.06448 2.368 6.06448 2C6.06448 1.632 6.30524 1.33312 6.60169 1.33312H9.50891C9.80535 1.33312 10.0461 1.632 10.0461 2C10.0461 2.368 9.80535 2.66624 9.50891 2.66624H10.7406V1.33312H10.2034C9.90692 1.33312 9.66667 1.03424 9.66667 0.66624C9.66667 0.29824 9.90692 0 10.2034 0C10.2034 0 10.1044 0 10.7406 0C11.0252 0 11.2984 0.14016 11.5 0.3904C11.7016 0.64064 11.8145 0.97984 11.8145 1.33312V2.66624H17.185V1.33312C17.185 0.97984 17.2984 0.64064 17.5 0.3904C17.7011 0.14016 17.9743 0 18.2594 0C18.8956 0 18.7961 0 18.7961 0C19.0926 0 19.3333 0.29824 19.3333 0.66624C19.3333 1.03424 19.0926 1.33312 18.7961 1.33312H18.2594V2.66624H19.4906C19.1941 2.66624 18.9539 2.368 18.9539 2C18.9539 1.632 19.1941 1.33312 19.4906 1.33312H22.3983C22.6948 1.33312 22.935 1.632 22.935 2C22.935 2.368 22.6948 2.66624 22.3983 2.66624H23.6295V1.33312H23.0928C22.7963 1.33312 22.5556 1.03424 22.5556 0.66624C22.5556 0.29824 22.7963 0 23.0928 0C23.0928 0 22.9933 0 23.6295 0C23.9146 0 24.1878 0.14016 24.3889 0.3904C24.5905 0.64064 24.7039 0.97984 24.7039 1.33312V2.66624H26.315C27.7977 2.66624 29 4.15872 29 6C29 6 29 20.1152 29 24.6662C29 26.5075 27.7977 28 26.315 28C21.113 28 7.88697 28 2.68501 28C1.20228 28 0 26.5075 0 24.6662C0 20.1152 0 8.3264 0 6C0 4.15872 1.20228 2.66624 2.68501 2.66624H4.29612V2.66624ZM27.9261 12.0006H1.0739V24.6662C1.0739 25.7709 1.79516 26.6662 2.68501 26.6662C7.88697 26.6662 21.113 26.6662 26.315 26.6662C27.2048 26.6662 27.9261 25.7709 27.9261 24.6662V12.0006ZM25.7773 17.3331C25.7773 16.5965 25.2962 16 24.7034 16C21.726 16 7.27346 16 4.29612 16C3.70324 16 3.22222 16.5965 3.22222 17.3331C3.22222 18.8397 3.22222 22.4934 3.22222 24C3.22222 24.736 3.70324 25.3331 4.29612 25.3331C7.27346 25.3331 21.726 25.3331 24.7034 25.3331C25.2962 25.3331 25.7773 24.736 25.7773 24V17.3331ZM4.29612 17.3331V24H24.7034V17.3331H4.29612ZM3.75943 14.6662H25.2401C25.5365 14.6662 25.7773 14.368 25.7773 14C25.7773 13.632 25.5365 13.3331 25.2401 13.3331H3.75943C3.46299 13.3331 3.22222 13.632 3.22222 14C3.22222 14.368 3.46299 14.6662 3.75943 14.6662V14.6662ZM27.9261 6C27.9261 4.89536 27.2048 4 26.315 4C21.113 4 7.88697 4 2.68501 4C1.79516 4 1.0739 4.89536 1.0739 6V10.6662H27.9261V6ZM9.50942 8.19584L9.5883 8.29376C9.79813 8.55424 9.79813 8.97664 9.5883 9.23648C9.37899 9.49696 9.03872 9.49696 8.82889 9.23648L8.75001 9.13856C8.15093 9.49312 7.41163 9.3632 6.91618 8.74752C6.2872 7.96736 6.2872 6.69952 6.91618 5.91936C7.54464 5.13856 8.56596 5.13856 9.19442 5.91936C9.69038 6.5344 9.79504 7.45216 9.50942 8.19584V8.19584ZM19.4906 6.47104L19.4112 6.37312C19.2019 6.11264 19.2019 5.69024 19.4112 5.4304C19.621 5.16992 19.9613 5.16992 20.1711 5.4304L20.25 5.52832C20.8491 5.17376 21.5884 5.30368 22.0838 5.91936C22.7128 6.69952 22.7128 7.96736 22.0838 8.74752C21.4554 9.52832 20.434 9.52832 19.8056 8.74752C19.3096 8.13248 19.205 7.21472 19.4906 6.47104V6.47104ZM21.3244 6.86208C21.5337 7.12192 21.5337 7.54432 21.3244 7.8048C21.1146 8.06528 20.7743 8.06528 20.565 7.8048C20.3552 7.54432 20.3552 7.12192 20.565 6.86208C20.7743 6.6016 21.1146 6.6016 21.3244 6.86208ZM7.67559 7.8048C7.46576 7.54432 7.46576 7.12192 7.67559 6.86208C7.88542 6.6016 8.22569 6.6016 8.435 6.86208C8.64484 7.12192 8.64484 7.54432 8.435 7.8048C8.22569 8.06528 7.88542 8.06528 7.67559 7.8048Z" fill="#555B47"/>
</svg>
