<svg width="100" height="100" viewBox="0 0 100 100" fill="none" xmlns="http://www.w3.org/2000/svg">
<circle cx="50" cy="50" r="50" fill="#F8F4EC" fill-opacity="0.5"/>
<circle cx="50" cy="50" r="35" fill="#F8F4EC"/>
<path d="M46.0781 56.0547H52.2188C52.2188 55.1875 52.5234 54.3672 53.1328 53.5703C53.7422 52.7734 54.4688 52.0234 55.3125 51.3203C56.1562 50.6172 57 49.8672 57.8438 49.0938C58.6875 48.3203 59.4141 47.3359 60 46.1641C60.5859 44.9922 60.8906 43.7266 60.8906 42.3438C60.8906 39.5547 59.8359 37.2578 57.7031 35.4531C55.5703 33.6484 52.8516 32.7578 49.5469 32.7578C46.1953 32.7578 43.4766 33.7188 41.3906 35.6172C39.3047 37.5156 38.0625 39.8359 37.6406 42.5781L43.3828 44.2891C43.7812 42.5781 44.5078 41.1953 45.5625 40.1641C46.6172 39.1328 47.9297 38.6172 49.5 38.6172C50.9766 38.6172 52.1484 38.9922 53.0156 39.7422C53.8828 40.4922 54.3047 41.4766 54.3047 42.6953C54.3047 43.5156 54.0234 44.3125 53.4609 45.0859C52.8984 45.8594 52.2188 46.5859 51.3984 47.2656C50.5781 47.9453 49.7578 48.6719 48.9609 49.4453C48.1641 50.2188 47.4844 51.1797 46.8984 52.3047C46.3125 53.4297 46.0312 54.6719 46.0312 56.0078L46.0781 56.0547ZM49.1016 67.3281C50.1797 67.3281 51.0938 66.9531 51.8438 66.1797C52.5938 65.4062 52.9688 64.4688 52.9688 63.3672C52.9688 62.3594 52.5938 61.4922 51.8438 60.7656C51.0938 60.0391 50.1797 59.6641 49.1016 59.6641C48.0234 59.6641 47.0859 60.0391 46.3125 60.7656C45.5391 61.4922 45.1406 62.3828 45.1406 63.4141C45.1406 64.5156 45.5156 65.4531 46.2891 66.2266C47.0625 67 48 67.375 49.0781 67.375L49.1016 67.3281Z" fill="#555B47"/>
</svg>
