<svg width="179" height="179" viewBox="0 0 179 179" fill="none" xmlns="http://www.w3.org/2000/svg">
<path d="M136.798 65.3584C135.648 64.8631 134.313 65.3943 133.818 66.5448L93.4585 160.292L30.96 133.386L60.968 63.6831C62.5863 64.5596 63.5223 65.3591 64.5567 66.2477C66.0315 67.5132 67.7031 68.9491 71.3529 70.5203C75.0017 72.0912 77.1926 72.3181 79.1244 72.5192C80.9679 72.71 82.5594 72.8755 85.5714 74.1722C88.5865 75.4702 89.8015 76.513 91.2081 77.7214C92.6839 78.9874 94.3555 80.4232 98.0073 81.9954C101.66 83.568 103.853 83.7968 105.787 83.9978C107.634 84.1898 109.227 84.3562 112.245 85.6555C115.264 86.9553 116.479 87.9981 117.887 89.2069C118.838 90.0143 120.269 89.9131 121.086 88.9635C121.901 88.0125 121.792 86.58 120.842 85.7647C119.795 84.8663 118.634 83.8811 116.752 82.8235L144.576 47.1058C145.31 46.164 145.188 44.8141 144.297 44.0193L133.591 34.4714C133.122 34.0552 132.499 33.8483 131.876 33.9057C131.25 33.9618 130.676 34.2754 130.291 34.7702L97.5887 76.7511C96.0739 75.9107 95.1607 75.1359 94.1634 74.2792C92.6876 73.0132 91.016 71.5773 87.3652 70.0056C83.7164 68.4348 81.5256 68.2078 79.5937 68.0067C77.7502 67.816 76.1587 67.6505 73.1467 66.3538C70.1326 65.0562 68.9186 64.0139 67.5121 62.8054C66.3488 61.8073 65.047 60.7018 62.765 59.5089L70.4226 41.7217L105.838 56.9686C106.989 57.4639 108.323 56.9327 108.819 55.7822C109.314 54.6318 108.783 53.2974 107.632 52.8021L70.1331 36.6583C68.9826 36.163 67.6482 36.6942 67.1529 37.8447L25.8966 133.676C25.4013 134.826 25.9325 136.161 27.083 136.656L93.748 165.356C94.8985 165.851 96.2329 165.32 96.7282 164.169L137.984 68.3385C138.48 67.188 137.949 65.8537 136.798 65.3584ZM132.38 39.4703L139.693 45.992L112.514 80.8811C109.749 79.8571 107.905 79.658 106.257 79.4857C104.888 79.3435 103.655 79.2131 101.879 78.626L132.38 39.4703Z" fill="#F8F4EC"/>
<path d="M84.7457 56.0194L72.8251 60.765C71.6609 61.2285 71.0934 62.5468 71.5568 63.7109C71.7885 64.293 72.234 64.7259 72.767 64.9554C73.3 65.1849 73.9207 65.2109 74.5027 64.9792L84.3163 61.0724L87.0367 67.9058C87.5001 69.0699 88.8184 69.6375 89.9826 69.174C91.1467 68.7106 91.7142 67.3923 91.2508 66.2281L87.6916 57.2877C87.2281 56.1235 85.9098 55.556 84.7457 56.0194ZM85.5294 123.031L73.6088 127.776C72.4446 128.24 71.8771 129.558 72.3405 130.722L77.0861 142.643C77.3179 143.225 77.7633 143.658 78.2963 143.887C78.8294 144.117 79.45 144.143 80.032 143.911L91.9527 139.165C93.1168 138.702 93.6844 137.384 93.2209 136.219L88.4753 124.299C88.0119 123.135 86.6935 122.567 85.5294 123.031ZM80.4615 138.858L77.3935 131.151L85.1 128.084L88.168 135.79L80.4615 138.858ZM40.5077 122.68C39.024 126.126 40.6206 130.137 44.067 131.62C47.5133 133.104 51.5237 131.508 53.0074 128.061C54.4911 124.615 52.8946 120.604 49.4482 119.121C46.0019 117.637 41.9914 119.234 40.5077 122.68ZM47.6545 123.287C48.8029 123.782 49.3353 125.119 48.8409 126.267C48.3464 127.416 47.0092 127.948 45.8607 127.454C44.7123 126.959 44.1799 125.622 44.6743 124.474C45.1687 123.325 46.506 122.793 47.6545 123.287ZM75.6906 98.3162C77.1743 94.8698 75.5777 90.8594 72.1314 89.3757C68.685 87.892 64.6746 89.4886 63.1909 92.9349C61.7072 96.3813 63.3037 100.392 66.7501 101.875C70.1965 103.359 74.2069 101.763 75.6906 98.3162ZM67.3575 94.7287C67.8519 93.5802 69.1892 93.0479 70.3376 93.5423C71.4861 94.0367 72.0184 95.374 71.524 96.5224C71.0296 97.6709 69.6923 98.2033 68.5439 97.7088C67.3954 97.2144 66.863 95.8771 67.3575 94.7287ZM53.8989 110.961C54.1943 110.964 54.4858 110.918 54.7749 110.82C55.3196 110.586 55.7829 110.142 56.0159 109.601C56.1328 109.33 56.1862 109.032 56.1902 108.737C56.1927 108.443 56.1462 108.15 56.0484 107.862C55.9209 107.584 55.7546 107.34 55.5495 107.128C54.9216 106.463 53.9245 106.256 53.0903 106.589C52.8128 106.715 52.5775 106.861 52.3563 107.086C52.1448 107.292 51.9662 107.536 51.8493 107.807C51.6071 108.37 51.6118 108.989 51.8168 109.547C52.0513 110.091 52.4935 110.554 53.0357 110.788C53.3063 110.904 53.5948 110.979 53.8989 110.961ZM103.352 120.102L106.94 111.769C107.435 110.619 106.904 109.284 105.753 108.789C104.603 108.294 103.269 108.825 102.773 109.976L99.1857 118.309C98.6904 119.459 99.2217 120.794 100.372 121.289C101.523 121.784 102.857 121.253 103.352 120.102ZM41.7852 91.0047C42.164 89.8113 41.5282 88.532 40.3092 88.1567C38.8648 87.6983 37.4091 87.3881 35.9563 87.1972C36.9006 84.3923 37.0099 81.4805 36.4048 78.7433C38.8032 79.3799 41.3017 79.3098 43.5934 78.3968C47.7464 76.7435 50.5842 72.6864 50.9998 67.8084C51.0603 67.0965 50.7823 66.398 50.2491 65.9225C46.5901 62.664 41.7443 61.6666 37.5918 63.3214C34.6221 64.5031 32.3445 66.9269 31.1246 69.9894C29.9668 69.0163 28.655 68.1892 27.196 67.5611C26.0456 67.0658 24.7112 67.5971 24.2159 68.7476C23.7206 69.898 24.2518 71.2324 25.4023 71.7277C31.1456 74.2003 33.8069 80.8852 31.3343 86.6285C31.2788 86.7574 31.2816 86.8914 31.2512 87.0235C22.0978 87.5656 13.7074 93.1569 9.86586 102.08C4.77276 113.91 9.41962 127.531 20.6751 133.763C20.7423 133.8 20.8111 133.834 20.8793 133.863C21.9372 134.319 23.1891 133.906 23.7584 132.878C24.3654 131.782 23.9685 130.401 22.8731 129.795C13.6663 124.696 9.8651 113.554 14.0324 103.874C18.1997 94.1939 28.9062 89.2969 38.9372 92.4808C40.1306 92.8595 41.406 92.1992 41.7852 91.0047ZM39.2695 67.5355C41.5352 66.6336 44.1045 67.0344 46.3128 68.5819C45.7707 71.2303 44.18 73.2813 41.9157 74.1827C39.6501 75.0847 37.0859 74.6886 34.8724 73.1364C35.4145 70.488 37.0053 68.4369 39.2695 67.5355Z" fill="#F8F4EC"/>
<path d="M19.3858 108.648C18.2353 108.152 16.9009 108.684 16.4056 109.834C13.9331 115.577 16.5944 122.262 22.3377 124.735C23.4881 125.23 24.8225 124.699 25.3178 123.548C25.8131 122.398 25.2819 121.064 24.1314 120.568C20.685 119.085 19.0885 115.074 20.5722 111.628C21.0675 110.477 20.5363 109.143 19.3858 108.648ZM25.5224 103.684C25.728 103.895 25.9714 104.075 26.243 104.192C26.5136 104.308 26.8113 104.361 27.1062 104.365C27.4016 104.368 27.6931 104.321 27.9822 104.224C28.2591 104.096 28.5031 103.93 28.7156 103.725C28.9485 103.528 29.1067 103.276 29.2231 103.005C29.3401 102.734 29.4149 102.445 29.3975 102.141C29.4 101.847 29.3535 101.554 29.2557 101.266C29.1281 100.988 28.9822 100.753 28.7568 100.532C28.3456 100.109 27.7628 99.8576 27.1729 99.8497C26.8573 99.8379 26.5861 99.8936 26.2976 99.9925C26.02 100.119 25.7848 100.265 25.5635 100.49C25.352 100.696 25.1735 100.94 25.0566 101.211C24.9401 101.482 24.8857 101.779 24.8817 102.074C24.87 102.39 24.9257 102.661 25.0241 102.951C25.151 103.227 25.3183 103.472 25.5224 103.684ZM125.584 115.299C124.523 114.627 123.127 114.927 122.449 115.976C121.77 117.03 122.073 118.434 123.125 119.112C133.391 125.73 137.329 138.692 132.49 149.932C127.395 161.768 113.85 167.828 101.655 163.728C100.468 163.329 99.181 163.967 98.7821 165.155C98.403 166.281 98.9597 167.498 100.033 167.96C100.09 167.984 100.149 168.007 100.209 168.027C114.626 172.874 130.635 165.713 136.657 151.726C142.376 138.442 137.719 123.122 125.584 115.299Z" fill="#F8F4EC"/>
<path d="M116.716 156.212L111.97 144.291C111.507 143.127 110.189 142.56 109.024 143.023C107.86 143.487 107.293 144.805 107.756 145.969L112.502 157.89C112.515 157.924 112.544 157.945 112.559 157.978C109.877 158.425 107.059 158.272 104.297 157.429C103.099 157.064 101.831 157.738 101.465 158.936C101.124 160.052 101.687 161.229 102.735 161.68C102.812 161.714 102.891 161.743 102.972 161.768C114.033 165.146 125.828 159.672 130.407 149.036C134.985 138.399 130.856 126.07 120.8 120.357C119.723 119.768 118.327 120.119 117.707 121.209C117.088 122.298 117.47 123.682 118.559 124.302C121.069 125.728 123.117 127.67 124.636 129.926C124.602 129.937 124.567 129.931 124.533 129.944L112.612 134.69C111.448 135.153 110.88 136.472 111.344 137.636C111.575 138.218 112.021 138.651 112.554 138.88C113.087 139.11 113.707 139.136 114.29 138.904L126.21 134.159C126.372 134.094 126.493 133.979 126.631 133.884C127.908 137.413 128.086 141.326 126.992 145.096L118.804 141.571C117.653 141.076 116.319 141.607 115.824 142.757C115.328 143.908 115.859 145.242 117.01 145.738L125.198 149.263C123.212 152.649 120.247 155.209 116.806 156.706C116.78 156.541 116.78 156.374 116.716 156.212Z" fill="#F8F4EC"/>
</svg>
