<svg width="30" height="17" viewBox="0 0 30 17" fill="none" xmlns="http://www.w3.org/2000/svg">
<path d="M1.13905 0H3.07228C3.6931 0.00358238 4.25787 0.260038 4.66835 0.669693C5.08348 1.08293 5.33993 1.654 5.33993 2.28302V2.84671H6.01782C6.81186 2.84671 7.53318 3.17123 8.05619 3.69405L8.08148 3.72123C8.58891 4.24152 8.90352 4.95294 8.90352 5.73242V6.60063H24.3916C25.1856 6.60063 25.9069 6.92515 26.43 7.44797C26.9519 7.96995 27.2773 8.6923 27.2773 9.48634V9.68927H28.6985C28.9486 9.68927 29.1515 9.8922 29.1515 10.1423V16.425C29.1515 16.6751 28.9486 16.878 28.6985 16.878H24.95C24.6999 16.878 24.497 16.6751 24.497 16.425V14.344H5.34108V16.425C5.34108 16.6751 5.13815 16.878 4.88801 16.878H1.13959C0.889454 16.878 0.686523 16.6751 0.686523 16.425V0.454069C0.686523 0.203935 0.889454 0.00100384 1.13959 0.00100384L1.13905 0ZM3.51081 0.983285V15.9707H4.43443V2.28286C4.43443 1.90502 4.27955 1.56046 4.03025 1.31117C3.88611 1.16619 3.70953 1.05282 3.51186 0.98391L3.51081 0.983285ZM2.60446 15.9707V0.906141H1.5921V15.9707H2.60446ZM5.34057 3.75182V6.5994H7.99701V5.73118C7.99701 5.1974 7.78313 4.71062 7.43689 4.35365L7.41518 4.33363C7.05631 3.97476 6.56153 3.75182 6.01764 3.75182H5.33975L5.34057 3.75182ZM5.34057 7.50575V9.68805H26.3706V9.48512C26.3706 8.94123 26.1476 8.44644 25.7888 8.08758C25.4299 7.72871 24.9351 7.50577 24.3912 7.50577L5.34057 7.50575ZM5.34057 10.5944V13.4357H24.9496C25.1998 13.4357 25.4027 13.6386 25.4027 13.8887V15.9697H28.2448V10.5942H5.3407L5.34057 10.5944Z" fill="#555B47"/>
</svg>
