<svg width="82" height="40" viewBox="0 0 82 40" fill="none" xmlns="http://www.w3.org/2000/svg">
<g clip-path="url(#clip0_418_209)">
<path d="M4.0323 4.55681C5.70267 1.73825 8.23354 0.337402 11.6418 0.337402C13.3121 0.337402 14.8475 0.776221 16.2648 1.67074C17.6821 2.54837 18.7957 3.79732 19.5887 5.40069C20.7191 3.29099 22.4907 1.78888 24.9035 0.894364C25.8652 0.523056 26.9619 0.337402 28.1767 0.337402C29.3916 0.337402 30.5558 0.573689 31.6862 1.06314C32.7998 1.55259 33.7953 2.24458 34.6726 3.13909C36.5455 5.14753 37.4735 7.64542 37.4735 10.6496V25.772H33.7109V10.7509C33.7109 8.67495 33.1204 6.97031 31.9562 5.63698C30.792 4.37116 29.3072 3.72981 27.5019 3.72981C25.5953 3.72981 24.0093 4.35428 22.7438 5.58635C21.4278 6.86905 20.7529 8.60744 20.7529 10.8015V25.772H16.9903V10.7509C16.9903 8.67495 16.3998 6.97031 15.2356 5.63698C14.0883 4.38804 12.6035 3.74669 10.7981 3.74669C8.89156 3.74669 7.30555 4.37116 6.04012 5.60323C4.7072 6.86905 4.0323 8.60744 4.0323 10.8015V25.772H0.286621V0.742466H4.04917C4.0323 0.742466 4.0323 4.55681 4.0323 4.55681Z" fill="#F8F4EC"/>
<path d="M42.9906 4.55681C44.661 1.73825 47.1919 0.337402 50.6001 0.337402C52.2705 0.337402 53.8059 0.776221 55.2231 1.67074C56.6404 2.54837 57.754 3.79732 58.547 5.40069C59.6775 3.29099 61.4491 1.78888 63.8618 0.894364C64.8236 0.523056 65.9203 0.337402 67.1351 0.337402C68.3499 0.337402 69.5141 0.573689 70.6445 1.06314C71.7581 1.55259 72.7536 2.24458 73.631 3.13909C75.4869 5.14753 76.4318 7.6623 76.4318 10.6665V25.7889H72.6692V10.7678C72.6692 8.69183 72.0787 6.98719 70.9145 5.65386C69.7503 4.38804 68.2655 3.74669 66.4602 3.74669C64.5536 3.74669 62.9676 4.37116 61.7022 5.60323C60.3692 6.86905 59.6943 8.60744 59.6943 10.8184V25.7889H55.9318V10.7678C55.9318 8.69183 55.3412 6.98719 54.1771 5.65386C53.0129 4.38804 51.5281 3.74669 49.7227 3.74669C47.8161 3.74669 46.2301 4.37116 44.9647 5.60323C43.6318 6.86905 42.9569 8.60744 42.9569 10.8184V25.7889H39.1943V0.742466H42.9569L42.9906 4.55681Z" fill="#F8F4EC"/>
<path d="M78.1865 0.742676H81.9491V25.7891H78.1865V0.742676Z" fill="#F8F4EC"/>
<path d="M2.26103 39.2068L3.18902 36.8945H3.66145V39.7469H3.27338V37.6034H3.25651L2.39601 39.7469H2.12605L1.23182 37.5359H1.21494V39.7469H0.84375V36.8945H1.34992L2.26103 39.2068Z" fill="#F8F4EC"/>
<path d="M5.8716 38.4302H4.7074V39.4597H6.07407V39.7635H4.31934V36.9112H6.0572V37.215H4.7074V38.1433H5.8716V38.4302ZM5.3823 36.1011H5.83785V36.118L5.31481 36.6243H5.02798L5.3823 36.1011Z" fill="#F8F4EC"/>
<path d="M8.50407 37.1983H7.55921V39.7469H7.17115V37.1983H6.24316V36.8945H8.50407V37.1983Z" fill="#F8F4EC"/>
<path d="M9.33045 39.7469H8.94238V36.8945H9.33045V39.7469Z" fill="#F8F4EC"/>
<path d="M11.5747 38.4301H10.4105V39.4597H11.7772V39.7635H10.0225V36.9111H11.7603V37.2149H10.4105V38.1432H11.5747V38.4301Z" fill="#F8F4EC"/>
<path d="M12.6039 38.5148V39.7469H12.2158V36.8945H13.1944C13.515 36.8945 13.7512 36.962 13.9031 37.0971C14.0718 37.2321 14.1561 37.4346 14.1561 37.7047C14.1561 37.8566 14.1224 37.9747 14.038 38.0928C13.9537 38.1941 13.8524 38.2954 13.7006 38.346C13.8524 38.3966 13.9706 38.481 14.038 38.5992C14.1055 38.7173 14.1393 38.8523 14.1393 39.0211V39.2912C14.1393 39.3755 14.1561 39.4599 14.173 39.5274C14.1899 39.595 14.2236 39.6625 14.2743 39.6962V39.7469H13.8693C13.8187 39.6962 13.785 39.6456 13.7681 39.5443C13.7512 39.4431 13.7512 39.3755 13.7512 39.2743V39.0211C13.7512 38.8692 13.7006 38.7511 13.6162 38.6498C13.5319 38.5485 13.3969 38.5148 13.245 38.5148H12.6039ZM12.6039 38.211H13.1607C13.38 38.211 13.5319 38.1772 13.6331 38.0928C13.7343 38.0085 13.785 37.8903 13.785 37.7215C13.785 37.5528 13.7343 37.4346 13.65 37.3502C13.5487 37.2658 13.4138 37.2152 13.2113 37.2152H12.6208L12.6039 38.211Z" fill="#F8F4EC"/>
<path d="M16.2823 39.0378C16.2823 38.9028 16.2316 38.8015 16.1473 38.7171C16.046 38.6327 15.8942 38.5483 15.658 38.4977C15.3712 38.4302 15.1349 38.312 14.9831 38.177C14.8144 38.042 14.7469 37.8563 14.7469 37.6538C14.7469 37.4344 14.8312 37.2487 15.0168 37.0969C15.1856 36.945 15.4218 36.8774 15.6917 36.8774C15.9954 36.8774 16.2316 36.9618 16.4172 37.1306C16.6028 37.2994 16.6872 37.5019 16.6703 37.7213V37.7382H16.2991C16.2991 37.5694 16.2485 37.4344 16.1304 37.3331C16.0123 37.2319 15.8773 37.1812 15.6917 37.1812C15.5061 37.1812 15.3712 37.2319 15.2699 37.3163C15.1687 37.4006 15.1181 37.5188 15.1181 37.6538C15.1181 37.772 15.1687 37.8901 15.2699 37.9576C15.3712 38.042 15.5399 38.1095 15.7761 38.177C16.0629 38.2445 16.2823 38.3627 16.4341 38.5146C16.586 38.6665 16.6535 38.8352 16.6535 39.0547C16.6535 39.2909 16.5691 39.4766 16.3835 39.6116C16.1979 39.7466 15.9617 39.8141 15.6749 39.8141C15.4049 39.8141 15.1518 39.7298 14.9493 39.5779C14.7469 39.426 14.6288 39.2234 14.6456 38.9534V38.9365H15.0168C15.0168 39.1222 15.0843 39.2572 15.2193 39.3585C15.3543 39.4597 15.5061 39.5104 15.6749 39.5104C15.8605 39.5104 15.9954 39.4766 16.1135 39.3922C16.2316 39.2909 16.2823 39.1728 16.2823 39.0378Z" fill="#F8F4EC"/>
<path d="M18.1719 39.7469V36.8945H19.0661C19.4373 36.8945 19.741 37.0127 19.9604 37.2321C20.1797 37.4684 20.2978 37.7553 20.2978 38.1266V38.5148C20.2978 38.8861 20.1797 39.173 19.9604 39.4093C19.741 39.6456 19.4373 39.7469 19.0661 39.7469H18.1719ZM18.5599 37.1983V39.4431H19.0661C19.3361 39.4431 19.5385 39.3587 19.6904 39.1899C19.8422 39.0211 19.9266 38.7848 19.9266 38.5148V38.1266C19.9266 37.8566 19.8422 37.6371 19.6904 37.4684C19.5385 37.2996 19.3361 37.2152 19.0661 37.2152H18.5599V37.1983Z" fill="#F8F4EC"/>
<path d="M22.9805 36.8945V38.7848C22.9805 39.1055 22.8792 39.3418 22.6768 39.5274C22.4743 39.6962 22.2043 39.7975 21.8838 39.7975C21.5801 39.7975 21.327 39.7131 21.1245 39.5274C20.922 39.3587 20.8208 39.1055 20.8208 38.7848V36.8945H21.2089V38.7848C21.2089 39.0042 21.2764 39.173 21.3945 39.2912C21.5126 39.4093 21.6813 39.4768 21.8838 39.4768C22.0862 39.4768 22.255 39.4093 22.3899 39.2912C22.5249 39.173 22.5924 39.0042 22.5924 38.7848V36.8945H22.9805Z" fill="#F8F4EC"/>
<path d="M25.9835 39.2068L26.9115 36.8945H27.3839V39.7469H26.9958V37.6034H26.9789L26.1185 39.7469H25.8485L24.9543 37.5359H24.9374V39.7469H24.5493V36.8945H25.0555L25.9835 39.2068Z" fill="#F8F4EC"/>
<path d="M30.1343 36.8945V38.7848C30.1343 39.1055 30.033 39.3418 29.8306 39.5274C29.6281 39.6962 29.3581 39.7975 29.0376 39.7975C28.7339 39.7975 28.4808 39.7131 28.2783 39.5274C28.0758 39.3587 27.9746 39.1055 27.9746 38.7848V36.8945H28.3627V38.7848C28.3627 39.0042 28.4302 39.173 28.5483 39.2912C28.6664 39.4093 28.8351 39.4768 29.0376 39.4768C29.24 39.4768 29.4088 39.4093 29.5437 39.2912C29.6787 39.173 29.7462 39.0042 29.7462 38.7848V36.8945H30.1343Z" fill="#F8F4EC"/>
<path d="M31.13 39.4431H32.5304V39.7469H30.7588V36.8945H31.1469V39.4431H31.13Z" fill="#F8F4EC"/>
<path d="M34.3864 37.1983H33.4415V39.7469H33.0535V37.1983H32.1255V36.8945H34.3864V37.1983Z" fill="#F8F4EC"/>
<path d="M35.1962 39.7469H34.8081V36.8945H35.1962V39.7469Z" fill="#F8F4EC"/>
<path d="M37.3053 39.2068L38.2332 36.8945H38.7057V39.7469H38.3176V37.6034H38.3007L37.4402 39.7469H37.1703L36.276 37.5359H36.2592V39.7469H35.8711V36.8945H36.3773L37.3053 39.2068Z" fill="#F8F4EC"/>
<path d="M40.9326 38.4302H39.7684V39.4597H41.1351V39.7635H39.3804V36.9112H41.1182V37.215H39.7684V38.1433H40.9326V38.4302ZM40.4265 36.1011H40.882V36.118L40.359 36.6243H40.0721L40.4265 36.1011Z" fill="#F8F4EC"/>
<path d="M41.5737 39.7469V36.8945H42.468C42.8392 36.8945 43.1429 37.0127 43.3622 37.2321C43.5816 37.4684 43.6997 37.7553 43.6997 38.1266V38.5148C43.6997 38.8861 43.5816 39.173 43.3622 39.4093C43.1429 39.6456 42.8392 39.7469 42.468 39.7469H41.5737ZM41.9618 37.1983V39.4431H42.468C42.7379 39.4431 42.9404 39.3587 43.0922 39.1899C43.2441 39.0211 43.3285 38.7848 43.3285 38.5148V38.1266C43.3285 37.8566 43.2441 37.6371 43.0922 37.4684C42.9404 37.2996 42.7379 37.2152 42.468 37.2152H41.9618V37.1983Z" fill="#F8F4EC"/>
<path d="M44.6952 39.7469H44.3071V36.8945H44.6952V39.7469Z" fill="#F8F4EC"/>
<path d="M46.9056 39.0208H45.8257L45.5726 39.7635H45.1846L46.2138 36.9111H46.5512L47.5636 39.7635H47.1755L46.9056 39.0208ZM45.9438 38.6833H46.8043L46.3825 37.4512H46.3656L45.9438 38.6833Z" fill="#F8F4EC"/>
<path d="M50.4824 38.4301H49.3182V39.4597H50.6849V39.7635H48.9302V36.9111H50.668V37.2149H49.3182V38.1432H50.4824V38.4301Z" fill="#F8F4EC"/>
<path d="M53.1315 37.1983H52.1867V39.7469H51.7986V37.1983H50.8706V36.8945H53.1315V37.1983Z" fill="#F8F4EC"/>
<path d="M54.498 39.7469V36.8945H55.3923C55.7635 36.8945 56.0672 37.0127 56.2865 37.2321C56.5059 37.4684 56.624 37.7553 56.624 38.1266V38.5148C56.624 38.8861 56.5059 39.173 56.2865 39.4093C56.0672 39.6456 55.7635 39.7469 55.3923 39.7469H54.498ZM54.8861 37.1983V39.4431H55.3923C55.6622 39.4431 55.8647 39.3587 56.0166 39.1899C56.1684 39.0211 56.2528 38.7848 56.2528 38.5148V38.1266C56.2528 37.8566 56.1684 37.6371 56.0166 37.4684C55.8647 37.2996 55.6622 37.2152 55.3923 37.2152H54.8861V37.1983Z" fill="#F8F4EC"/>
<path d="M58.7669 38.4301H57.6027V39.4597H58.9694V39.7635H57.1978V36.9111H58.9356V37.2149H57.5858V38.1432H58.75V38.4301H58.7669Z" fill="#F8F4EC"/>
<path d="M60.7745 39.4431H62.1749V39.7469H60.4033V36.8945H60.7914V39.4431H60.7745Z" fill="#F8F4EC"/>
<path d="M62.681 37.2656L62.4786 37.9407H62.293V37.2656V36.8774H62.681V37.2656Z" fill="#F8F4EC"/>
<path d="M63.7274 39.7469H63.3394V36.8945H63.7274V39.7469Z" fill="#F8F4EC"/>
<path d="M66.5786 39.7469H66.1906L64.8239 37.5696H64.807V39.7469H64.4189V36.8945H64.807L66.1737 39.0717H66.1906V36.8945H66.5786V39.7469Z" fill="#F8F4EC"/>
<path d="M69.1769 37.1983H68.2321V39.7469H67.844V37.1983H66.916V36.8945H69.1769V37.1983Z" fill="#F8F4EC"/>
<path d="M71.1177 38.4301H69.9535V39.4597H71.3202V39.7635H69.5654V36.9111H71.3033V37.2149H69.9535V38.1432H71.1177V38.4301Z" fill="#F8F4EC"/>
<path d="M72.1469 38.5148V39.7469H71.7588V36.8945H72.7374C73.058 36.8945 73.2942 36.962 73.446 37.0971C73.6148 37.2321 73.6991 37.4346 73.6991 37.7047C73.6991 37.8566 73.6654 37.9747 73.581 38.0928C73.4967 38.1941 73.3954 38.2954 73.2436 38.346C73.3954 38.3966 73.5135 38.481 73.581 38.5992C73.6485 38.7173 73.6822 38.8523 73.6822 39.0211V39.2912C73.6822 39.3755 73.6991 39.4599 73.716 39.5274C73.7329 39.595 73.7666 39.6625 73.8172 39.6962V39.7469H73.4123C73.3617 39.6962 73.3279 39.6456 73.3111 39.5443C73.2942 39.4431 73.2942 39.3755 73.2942 39.2743V39.0211C73.2942 38.8692 73.2436 38.7511 73.1592 38.6498C73.0748 38.5485 72.9399 38.5148 72.8049 38.5148H72.1469ZM72.1469 38.211H72.7036C72.923 38.211 73.0748 38.1772 73.1761 38.0928C73.2773 38.0085 73.3279 37.8903 73.3279 37.7215C73.3279 37.5528 73.2773 37.4346 73.1929 37.3502C73.0917 37.2658 72.9567 37.2152 72.7543 37.2152H72.1637L72.1469 38.211Z" fill="#F8F4EC"/>
<path d="M76.4492 39.7469H76.0612L74.6945 37.5696H74.6776V39.7469H74.2896V36.8945H74.6776L76.0443 39.0717H76.0612V36.8945H76.4492V39.7469Z" fill="#F8F4EC"/>
<path d="M78.6766 38.4301H77.5124V39.4597H78.879V39.7635H77.1074V36.9111H78.8453V37.2149H77.4955V38.1432H78.6597V38.4301H78.6766Z" fill="#F8F4EC"/>
<path d="M81.3083 37.1983H80.3634V39.7469H79.9753V37.1983H79.0474V36.8945H81.3083V37.1983Z" fill="#F8F4EC"/>
<path d="M4.37002 33.2997V33.3165C4.3869 33.806 4.2013 34.2279 3.84698 34.5655C3.49266 34.903 3.02023 35.0718 2.42969 35.0718C1.83916 35.0718 1.34986 34.8524 0.978665 34.4305C0.607472 34.0085 0.421875 33.4684 0.421875 32.8271V31.8819C0.421875 31.2406 0.607472 30.7005 0.978665 30.2786C1.34986 29.8566 1.83916 29.6372 2.42969 29.6372C3.02023 29.6372 3.49266 29.7891 3.84698 30.1098C4.2013 30.4305 4.37002 30.8524 4.35315 31.3756V31.3925H3.66138C3.66138 31.0212 3.56015 30.7343 3.34081 30.5148C3.12146 30.2954 2.81776 30.1942 2.42969 30.1942C2.02476 30.1942 1.72105 30.3461 1.48484 30.6836C1.24862 31.0212 1.13052 31.4094 1.13052 31.8819V32.8271C1.13052 33.2997 1.24862 33.7047 1.48484 34.0254C1.72105 34.3461 2.04163 34.5148 2.42969 34.5148C2.81776 34.5148 3.13834 34.4136 3.34081 34.1942C3.56015 33.9748 3.66138 33.6878 3.66138 33.3165L4.37002 33.2997Z" fill="#F8F4EC"/>
<path d="M9.85348 34.9875H9.14483V32.6584H6.58022V34.9875H5.87158V29.7217H6.58022V32.1014H9.14483V29.7217H9.85348V34.9875Z" fill="#F8F4EC"/>
<path d="M14.4259 33.6202H12.4518L11.9794 34.9704H11.2539L13.1605 29.7046H13.7679L15.6239 34.9704H14.8984L14.4259 33.6202ZM12.6543 33.0295H14.2235L13.4642 30.7679H13.4473L12.6543 33.0295Z" fill="#F8F4EC"/>
<path d="M19.5551 33.9915H19.572L21.2592 29.7046H22.1535V34.9704H21.4448V31.021H21.428L19.8251 34.9704H19.3358L17.6991 30.886H17.6823V34.9704H16.9736V29.7046H17.9185L19.5551 33.9915Z" fill="#F8F4EC"/>
<path d="M23.9419 34.9875V29.7217H25.6629C26.2197 29.7217 26.6415 29.8398 26.9621 30.0761C27.2826 30.3124 27.4345 30.6668 27.4345 31.1394C27.4345 31.3588 27.367 31.5613 27.232 31.747C27.097 31.9327 26.9114 32.0677 26.6752 32.1521C27.0127 32.2027 27.2995 32.3546 27.502 32.6078C27.7044 32.8609 27.8057 33.1478 27.8057 33.5023C27.8057 33.9917 27.6538 34.3462 27.3333 34.5993C27.0127 34.8525 26.5909 34.9875 26.0678 34.9875H23.9419ZM24.6674 31.9495H25.8147C26.0847 31.9495 26.304 31.882 26.4559 31.7301C26.6246 31.5782 26.709 31.3757 26.709 31.1225C26.709 30.8356 26.6246 30.6331 26.439 30.4812C26.2534 30.3462 26.0003 30.2618 25.6629 30.2618H24.6505L24.6674 31.9495ZM24.6674 32.5065V34.4305H26.0341C26.3547 34.4305 26.6077 34.3462 26.7933 34.1943C26.9789 34.0424 27.0633 33.8061 27.0633 33.5191C27.0633 33.2322 26.9789 32.9959 26.7933 32.8103C26.6077 32.6246 26.3547 32.5402 26.0509 32.5234H26.0003L24.6674 32.5065Z" fill="#F8F4EC"/>
<path d="M32.0915 32.5401H29.9318V34.4304H32.4627V34.9874H29.2231V29.7216H32.4289V30.2785H29.9318V31.9832H32.0915V32.5401ZM31.1803 28.2363H32.0071V28.2532L31.0454 29.1984H30.5055L31.1803 28.2363Z" fill="#F8F4EC"/>
<path d="M34.5885 32.6919V34.9704H33.8799V29.7046H35.6852C36.2589 29.7046 36.6976 29.8396 37.0013 30.0928C37.305 30.3459 37.4568 30.7172 37.4568 31.2067C37.4568 31.4767 37.3893 31.713 37.2375 31.9156C37.1025 32.1181 36.8832 32.27 36.6132 32.3881C36.9 32.4894 37.1025 32.6413 37.2375 32.8438C37.3725 33.0464 37.4231 33.3164 37.4231 33.6202V34.1097C37.4231 34.2784 37.44 34.4135 37.4737 34.5485C37.5075 34.6835 37.5749 34.7848 37.6593 34.8691V34.9535H36.9169C36.8157 34.8691 36.7651 34.751 36.7313 34.5991C36.6976 34.4472 36.6976 34.2784 36.6976 34.1097V33.6202C36.6976 33.3333 36.6132 33.1139 36.4445 32.9282C36.2758 32.7426 36.0564 32.6751 35.7696 32.6751H34.5885V32.6919ZM34.5885 32.135H35.6009C36.0058 32.135 36.2926 32.0506 36.4782 31.8987C36.6638 31.7468 36.7482 31.5105 36.7482 31.2067C36.7482 30.9029 36.6638 30.6835 36.4951 30.5147C36.3264 30.3459 36.0564 30.2784 35.6852 30.2784H34.5885V32.135Z" fill="#F8F4EC"/>
<path d="M40.6795 32.3881L42.0461 29.7046H42.856L41 33.1139V34.9704H40.3252V33.0801L38.5029 29.7215H39.3128L40.6795 32.3881Z" fill="#F8F4EC"/>
<path d="M48.7442 34.4808C50.142 34.4808 51.2751 33.3473 51.2751 31.9491C51.2751 30.5509 50.142 29.4175 48.7442 29.4175C47.3465 29.4175 46.2134 30.5509 46.2134 31.9491C46.2134 33.3473 47.3465 34.4808 48.7442 34.4808Z" fill="#30AA53"/>
<path d="M56.3541 34.346C57.7519 34.346 58.885 33.2125 58.885 31.8144C58.885 30.4162 57.7519 29.2827 56.3541 29.2827C54.9563 29.2827 53.8232 30.4162 53.8232 31.8144C53.8232 33.2125 54.9563 34.346 56.3541 34.346Z" fill="#39A9E1"/>
<path d="M63.9464 34.346C65.3441 34.346 66.4773 33.2125 66.4773 31.8144C66.4773 30.4162 65.3441 29.2827 63.9464 29.2827C62.5486 29.2827 61.4155 30.4162 61.4155 31.8144C61.4155 33.2125 62.5486 34.346 63.9464 34.346Z" fill="#7D4392"/>
<path d="M71.5392 34.346C72.9369 34.346 74.07 33.2125 74.07 31.8144C74.07 30.4162 72.9369 29.2827 71.5392 29.2827C70.1414 29.2827 69.0083 30.4162 69.0083 31.8144C69.0083 33.2125 70.1414 34.346 71.5392 34.346Z" fill="#D01230"/>
<path d="M79.1315 34.346C80.5292 34.346 81.6623 33.2125 81.6623 31.8144C81.6623 30.4162 80.5292 29.2827 79.1315 29.2827C77.7337 29.2827 76.6006 30.4162 76.6006 31.8144C76.6006 33.2125 77.7337 34.346 79.1315 34.346Z" fill="#E95C1B"/>
</g>
<defs>
<clipPath id="clip0_418_209">
<rect width="82" height="40" fill="white"/>
</clipPath>
</defs>
</svg>
