<svg width="90" height="45" viewBox="0 0 90 45" fill="none" xmlns="http://www.w3.org/2000/svg">
<path d="M23.2981 0.0191445C23.4704 0.0957177 23.6427 0.15315 23.7767 0.248866C24.1021 0.497729 24.1978 0.842304 24.1213 1.22517C23.815 2.96721 23.5087 4.70925 23.2024 6.43215C23.1832 6.56615 23.1449 6.70016 23.1258 6.83416C23.0109 7.44675 22.6855 7.73389 22.0346 7.73389C19.948 7.73389 17.8614 7.73389 15.7748 7.73389C14.1859 7.73389 12.597 7.73389 11.0081 7.73389C10.3189 7.73389 9.9935 7.48503 9.87864 6.79587C9.5532 4.95812 9.22776 3.12036 8.90233 1.26346C8.78747 0.63173 9.03633 0.28715 9.74463 0C9.80206 0 9.85949 0 9.89778 0C9.9935 0.0382866 10.0701 0.0574299 10.1466 0.0957165C10.5678 0.248863 10.7592 0.593446 10.7975 1.0146C10.8549 1.89519 11.257 2.50777 12.1184 2.79492C12.865 3.04379 13.6116 3.04378 14.339 2.75663C14.9899 2.50777 15.411 2.04833 15.5451 1.35918C15.5451 1.32089 15.5642 1.26346 15.5642 1.22517C15.5259 0.593441 15.8131 0.17229 16.4256 0C16.4831 0 16.5405 0 16.5788 0C17.2488 0.153146 17.4785 0.593442 17.4977 1.24431C17.5168 1.78033 17.804 2.20148 18.2443 2.50777C19.144 3.12036 20.6372 3.12036 21.5178 2.46949C21.8623 2.22062 22.1112 1.91433 22.1495 1.47404C22.1686 1.2826 22.2069 1.09117 22.2452 0.899738C22.3026 0.612588 22.4175 0.363723 22.6664 0.191433C22.8004 0.11486 22.9535 0.0574299 23.0875 0C23.1449 0.0191433 23.2215 0.0191445 23.2981 0.0191445ZM11.6398 5.81956C14.9133 5.81956 18.1485 5.81956 21.4029 5.81956C21.4412 5.60899 21.4795 5.39841 21.4986 5.20698C21.5369 5.01555 21.5561 4.82411 21.5943 4.61354C19.9672 5.14955 17.8614 4.97726 16.5022 3.56066C15.8705 4.24981 15.0665 4.65182 14.1476 4.80497C13.2287 4.97726 12.329 4.90069 11.4101 4.61354C11.5058 5.01555 11.5632 5.41755 11.6398 5.81956Z" fill="#F8F4EC"/>
<path d="M89.4568 38.6696C88.5762 38.6696 87.6956 38.6696 86.815 38.6696C86.815 38.5739 86.7959 38.5165 86.7959 38.4399C86.7959 37.4253 86.7959 36.3916 86.7959 35.377C86.7959 35.1664 86.8533 35.109 87.0639 35.109C87.8679 35.109 88.6528 35.109 89.4568 35.0898C89.4568 35.2813 89.4568 35.4727 89.4568 35.6833C88.7868 35.6833 88.1168 35.6833 87.4468 35.6833C87.4468 36.0087 87.4468 36.2767 87.4468 36.6022C88.0402 36.6022 88.6145 36.6022 89.1888 36.6022C89.2845 37.1765 89.2845 37.1765 88.7677 37.1765C88.3274 37.1765 87.8871 37.1765 87.4468 37.1765C87.4468 37.5019 87.4468 37.789 87.4468 38.0953C88.1359 38.0953 88.7868 38.0953 89.4568 38.0953C89.4568 38.2868 89.4568 38.4782 89.4568 38.6696Z" fill="#F8F4EC"/>
<path d="M30.8782 32.2748C30.9547 31.5473 31.0696 30.8391 31.0696 30.1116C31.0887 22.7031 31.0887 15.3138 31.0887 7.90537C31.0887 7.86708 31.0887 7.80965 31.0887 7.73308C30.993 7.73308 30.8973 7.73308 30.8016 7.73308C29.1744 7.73308 27.5472 7.73308 25.92 7.73308C25.3457 7.73308 24.982 7.46507 24.8672 6.98649C24.7332 6.3739 25.1734 5.83789 25.8243 5.83789C26.6092 5.83789 27.4132 5.83789 28.1981 5.83789C29.4424 5.83789 30.6676 5.83789 31.9119 5.83789C32.6202 5.83789 33.0031 6.20162 33.0031 6.92906C33.0031 14.5672 33.0413 22.1863 32.9839 29.8245C32.9648 34.0551 31.4333 37.7498 28.5618 40.8701C26.9921 42.5547 25.1352 43.8374 23.0294 44.7562C22.3594 45.0434 21.9574 44.9477 21.5171 44.3542C19.909 42.191 18.301 40.047 16.6738 37.8838C16.6164 37.8072 16.559 37.7498 16.5015 37.6732C15.8698 38.5155 15.2381 39.3578 14.6255 40.181C13.5726 41.5976 12.5006 43.0142 11.4477 44.4308C11.0648 44.9477 10.6628 45.0434 10.0694 44.7754C8.09762 43.9331 6.33643 42.7653 4.82411 41.253C2.62263 39.0515 1.16774 36.4097 0.440297 33.3851C0.134004 32.1216 0 30.8582 0 29.5564C0 21.9948 0 14.4524 0 6.89077C0 6.20161 0.363723 5.83789 1.05288 5.83789C3.08207 5.83789 5.11126 5.83789 7.14045 5.83789C7.56161 5.83789 7.90619 6.01018 8.07847 6.43133C8.23162 6.79506 8.17419 7.13963 7.90619 7.44593C7.69561 7.69479 7.40846 7.75222 7.08302 7.75222C5.45584 7.75222 3.84781 7.75222 2.22062 7.75222C2.12491 7.75222 2.02919 7.75222 1.91433 7.75222C1.91433 7.86708 1.91433 7.9628 1.91433 8.05852C1.91433 15.3138 1.91433 22.5691 1.91433 29.8436C1.91433 30.6668 2.04833 31.4708 2.10576 32.2939C2.14405 32.2939 2.16319 32.2939 2.20148 32.3131C2.50777 31.9111 2.81407 31.5091 3.12036 31.1262C4.67097 29.097 6.22157 27.087 7.77218 25.0578C8.26991 24.4069 8.95907 24.4069 9.45679 25.0578C9.95452 25.7278 10.4522 26.3978 10.95 27.0678C10.9883 27.1061 11.0265 27.1635 11.084 27.221C11.8306 26.2255 12.5772 25.2301 13.3046 24.2346C14.0895 23.1817 14.8743 22.1288 15.6592 21.076C16.1378 20.4251 16.8461 20.4251 17.3247 21.076C18.7796 23.0286 20.2536 24.9812 21.7085 26.953C21.7659 27.0295 21.8425 27.1252 21.9191 27.221C21.9957 27.1252 22.0722 27.0295 22.1297 26.953C22.6082 26.3021 23.0868 25.6512 23.5846 25.0195C24.0248 24.4452 24.7331 24.426 25.1734 25.0195C26.9921 27.3933 28.8107 29.7479 30.6101 32.1217C30.6676 32.1791 30.725 32.2557 30.7633 32.3131C30.8399 32.2748 30.859 32.2748 30.8782 32.2748ZM28.0449 38.5538C24.1971 33.4042 20.3685 28.2738 16.5207 23.1243C12.6729 28.293 8.84421 33.4042 4.9964 38.5538C6.43215 40.3916 8.19333 41.8082 10.2991 42.8036C10.3565 42.727 10.3948 42.6696 10.4331 42.6122C12.1751 40.2767 13.9172 37.9412 15.6592 35.6057C16.1569 34.9357 16.8461 34.9357 17.363 35.6057C18.5116 37.1372 19.6602 38.6878 20.8088 40.2193C21.4405 41.0807 22.0914 41.923 22.7231 42.7845C24.8289 41.789 26.59 40.3724 28.0449 38.5538Z" fill="#F8F4EC"/>
<path d="M50.0596 7.73438C50.0596 7.84923 50.0596 7.9641 50.0596 8.05981C50.0596 11.1993 50.0405 14.3388 50.0787 17.4783C50.0787 18.0718 50.1745 18.7035 50.3659 19.2778C50.8062 20.6944 51.9931 21.4984 53.5437 21.5367C54.1371 21.5558 54.7114 21.4984 55.2666 21.2687C56.4726 20.7901 57.0661 19.8329 57.2766 18.6269C57.3532 18.1866 57.3915 17.7463 57.3915 17.306C57.3915 14.224 57.3915 11.1419 57.3915 8.05981C57.3915 7.9641 57.3915 7.86838 57.3915 7.75352C58.6358 7.75352 59.861 7.75352 61.1436 7.75352C61.1436 7.84924 61.1436 7.92581 61.1436 8.02152C61.1436 11.1802 61.1436 14.3388 61.1436 17.4783C61.1436 18.8949 60.9139 20.2732 60.263 21.5558C59.4207 23.2213 58.0424 24.2359 56.262 24.6953C54.4434 25.1739 52.6057 25.1548 50.7871 24.5996C48.4707 23.8722 47.0924 22.2259 46.5947 19.8712C46.4224 19.0864 46.3458 18.2632 46.3267 17.44C46.2884 14.3005 46.3075 11.1419 46.3075 8.00239C46.3075 7.92581 46.3075 7.84924 46.3267 7.75352C47.571 7.73438 48.7962 7.73438 50.0596 7.73438Z" fill="#F8F4EC"/>
<path d="M78.526 7.73438C78.526 8.88297 78.526 10.0124 78.526 11.1802C76.8031 11.1802 75.0993 11.1802 73.3573 11.1802C73.3573 15.698 73.3573 20.1967 73.3573 24.7145C72.0938 24.7145 70.8687 24.7145 69.6052 24.7145C69.6052 20.2158 69.6052 15.7171 69.6052 11.1993C67.8632 11.1993 66.1594 11.1993 64.4365 11.1993C64.4365 10.0316 64.4365 8.90212 64.4365 7.75352C69.1458 7.73438 73.8167 7.73438 78.526 7.73438Z" fill="#F8F4EC"/>
<path d="M41.5795 24.733C40.3352 24.733 39.11 24.733 37.8657 24.733C37.8657 19.0666 37.8657 13.4193 37.8657 7.75293C39.0909 7.75293 40.3352 7.75293 41.5795 7.75293C41.5795 13.4002 41.5795 19.0475 41.5795 24.733Z" fill="#F8F4EC"/>
<path d="M53.8687 32.3519C53.8687 30.7247 53.8687 29.0975 53.8687 27.4512C54.2324 27.4512 54.577 27.4512 54.9407 27.4512C55.0173 27.4512 55.0938 27.5469 55.1513 27.6235C55.4958 28.1595 55.8213 28.7147 56.1658 29.2507C56.2041 29.3273 56.2616 29.4038 56.3381 29.4996C56.6827 28.9444 57.0464 28.4467 57.3144 27.8915C57.5059 27.5278 57.7547 27.3938 58.1568 27.4321C58.3482 27.4512 58.5588 27.4321 58.7693 27.4321C58.7693 29.0784 58.7693 30.6864 58.7693 32.3136C58.4248 32.3136 58.0802 32.3136 57.7165 32.3136C57.7165 31.299 57.7165 30.2653 57.7165 29.2507C57.6973 29.2507 57.6782 29.2316 57.659 29.2316C57.2187 29.9016 56.7784 30.5716 56.319 31.2607C55.8596 30.5716 55.4193 29.9016 54.9598 29.1933C54.9598 30.2844 54.9598 31.299 54.9598 32.3328C54.577 32.3519 54.2324 32.3519 53.8687 32.3519Z" fill="#F8F4EC"/>
<path d="M63.211 29.7868C64.0725 30.1314 64.2065 30.7822 64.015 31.4523C63.8619 31.9308 63.479 32.218 63.0196 32.2563C62.005 32.352 60.9712 32.352 59.9375 32.3903C59.9375 30.7057 59.9375 29.0976 59.9375 27.4513C60.0906 27.4513 60.2629 27.4513 60.4161 27.4513C61.1435 27.4513 61.8518 27.4322 62.5793 27.4896C62.8473 27.5087 63.1536 27.6427 63.3833 27.7959C64.015 28.2362 63.9959 29.1933 63.4024 29.6719C63.3259 29.6911 63.2684 29.7485 63.211 29.7868ZM60.9712 31.3948C61.4307 31.3948 61.871 31.3948 62.3304 31.3948C62.3878 31.3948 62.4453 31.3757 62.5218 31.3757C62.8473 31.3183 63.0004 31.146 63.0004 30.878C63.0004 30.61 62.8281 30.3994 62.5218 30.3802C62.005 30.3611 61.5073 30.3802 60.9904 30.3802C60.9712 30.6865 60.9712 31.0311 60.9712 31.3948ZM60.9712 29.4039C61.4115 29.4039 61.8518 29.4231 62.273 29.4039C62.5601 29.3848 62.7133 29.1742 62.7133 28.9253C62.7133 28.6573 62.5601 28.485 62.3304 28.4659C61.871 28.4276 61.4115 28.4468 60.9712 28.4468C60.9712 28.7722 60.9712 29.0785 60.9712 29.4039Z" fill="#F8F4EC"/>
<path d="M72.6293 30.6104C73.0313 31.2038 73.4142 31.759 73.8162 32.3524C73.3951 32.3524 73.0313 32.3524 72.6485 32.3524C72.5719 32.3524 72.4762 32.2759 72.4188 32.1993C72.1508 31.7973 71.8827 31.4144 71.6147 31.0124C71.519 30.8401 71.4042 30.7636 71.1936 30.7827C71.0213 30.8018 70.849 30.7827 70.6384 30.7827C70.6384 31.2996 70.6384 31.8164 70.6384 32.3333C70.2747 32.3333 69.9301 32.3333 69.5664 32.3333C69.5664 30.7061 69.5664 29.0789 69.5664 27.4326C70.0833 27.4326 70.581 27.4326 71.0787 27.4326C71.519 27.4326 71.9593 27.4326 72.3805 27.5092C73.1079 27.6432 73.5482 28.1218 73.6248 28.7918C73.7205 29.5958 73.4334 30.1892 72.7442 30.5338C72.7442 30.553 72.7059 30.5721 72.6293 30.6104ZM70.6767 28.4472C70.6767 28.9066 70.6767 29.3661 70.6767 29.8255C71.0213 29.8255 71.3467 29.8255 71.6722 29.8255C71.7487 29.8255 71.8062 29.8255 71.8827 29.8255C72.3039 29.7872 72.5528 29.5192 72.5528 29.1364C72.5528 28.7535 72.323 28.4855 71.921 28.4472C71.519 28.4281 71.0979 28.4472 70.6767 28.4472Z" fill="#F8F4EC"/>
<path d="M64.9341 27.4707C66.1784 27.4707 67.3844 27.4707 68.6287 27.4707C68.6287 27.7961 68.6287 28.1024 68.6287 28.4279C67.7673 28.4279 66.9058 28.4279 66.0253 28.4279C66.0253 28.7533 66.0253 29.0596 66.0253 29.385C66.7718 29.385 67.5376 29.385 68.3033 29.385C68.3033 29.7105 68.3033 30.0168 68.3033 30.3613C67.5567 30.3613 66.791 30.3613 66.0253 30.3613C66.0253 30.7059 66.0253 31.0314 66.0253 31.3759C66.9058 31.3759 67.7673 31.3759 68.6479 31.3759C68.6479 31.7014 68.6479 32.0077 68.6479 32.3331C67.4227 32.3331 66.1784 32.3331 64.9341 32.3331C64.9341 30.7251 64.9341 29.0979 64.9341 27.4707Z" fill="#F8F4EC"/>
<path d="M21.1343 13.113C19.9474 13.113 18.7797 13.113 17.5928 13.113C17.5928 11.9452 17.5928 10.7966 17.5928 9.62891C18.7605 9.62891 19.9474 9.62891 21.1343 9.62891C21.1343 10.7775 21.1343 11.9452 21.1343 13.113Z" fill="#F8F4EC"/>
<path d="M44.1825 29.3846C44.8525 29.3846 45.4842 29.3846 46.1542 29.3846C46.1542 28.7529 46.1542 28.1212 46.1542 27.4703C46.518 27.4703 46.8625 27.4703 47.2263 27.4703C47.2263 29.0784 47.2263 30.7055 47.2263 32.3327C46.8817 32.3327 46.5371 32.3327 46.1542 32.3327C46.1542 31.701 46.1542 31.0501 46.1542 30.4184C45.4842 30.4184 44.8525 30.4184 44.1825 30.4184C44.1825 31.0501 44.1825 31.6818 44.1825 32.3327C43.7996 32.3327 43.455 32.3327 43.0913 32.3327C43.0913 30.7055 43.0913 29.0975 43.0913 27.4512C43.455 27.4512 43.7805 27.4512 44.1633 27.4512C44.1825 28.102 44.1825 28.7338 44.1825 29.3846Z" fill="#F8F4EC"/>
<path d="M15.3722 13.1321C14.281 13.1321 13.2281 13.1321 12.1561 13.1321C12.0795 13.1321 12.0029 13.1321 11.9072 13.1321C11.9072 11.9644 11.9072 10.7966 11.9072 9.62891C13.0558 9.62891 14.2044 9.62891 15.3722 9.62891C15.3722 10.7775 15.3722 11.9452 15.3722 13.1321Z" fill="#F8F4EC"/>
<path d="M17.5928 18.8181C17.5928 17.6503 17.5928 16.5017 17.5928 15.334C18.7797 15.334 19.9474 15.334 21.1343 15.334C21.1343 15.4106 21.1534 15.5063 21.1534 15.5828C21.1534 16.2337 21.1534 16.8846 21.1534 17.5355C21.1726 18.3586 20.5408 18.8946 19.8134 18.8564C19.1051 18.8181 18.3776 18.8372 17.6502 18.8372C17.6502 18.8372 17.6311 18.8372 17.5928 18.8181Z" fill="#F8F4EC"/>
<path d="M11.8879 15.3135C13.0556 15.3135 14.2042 15.3135 15.372 15.3135C15.372 16.4812 15.372 17.6298 15.372 18.7976C15.372 18.7976 15.3528 18.8167 15.3337 18.8167C14.5105 18.8167 13.7065 18.855 12.8834 18.8167C12.3665 18.7976 11.907 18.2998 11.8879 17.7255C11.8688 16.9407 11.8879 16.1558 11.8879 15.3135Z" fill="#F8F4EC"/>
<path d="M49.5047 31.262C49.3898 31.5492 49.2558 31.798 49.1793 32.0852C49.1027 32.3149 48.9878 32.3915 48.7581 32.3723C48.5093 32.3532 48.2413 32.3723 47.9541 32.3723C48.203 31.798 48.4327 31.262 48.6433 30.726C49.0836 29.6923 49.5239 28.6585 49.9641 27.6248C50.0216 27.4717 50.0982 27.4334 50.2513 27.4334C50.5193 27.4525 50.8447 27.3568 51.0362 27.4908C51.2085 27.6057 51.2659 27.9311 51.3616 28.1608C51.9168 29.4626 52.4719 30.7643 53.0271 32.0661C53.0654 32.1618 53.1036 32.2383 53.1419 32.3723C52.7782 32.3723 52.4336 32.3723 52.1082 32.3723C52.0508 32.3723 51.9742 32.2958 51.9551 32.2383C51.8402 31.9895 51.7445 31.7406 51.6488 31.4726C51.5913 31.3386 51.5339 31.2812 51.3808 31.2812C50.7682 31.262 50.1556 31.262 49.5047 31.262ZM51.1702 30.2857C50.9596 29.7689 50.749 29.2711 50.5384 28.7351C50.4236 29.0414 50.3087 29.2903 50.213 29.52C50.1173 29.7689 50.0216 30.0177 49.9067 30.2666C50.347 30.2857 50.7299 30.2857 51.1702 30.2857Z" fill="#F8F4EC"/>
<path d="M42.2493 28.14C42.0195 28.408 41.809 28.6569 41.5601 28.944C41.1198 28.542 40.6221 28.2932 40.0095 28.408C39.6841 28.4655 39.3969 28.6569 39.2055 28.9249C38.7269 29.5566 38.8035 30.4946 39.3586 31.0498C39.9329 31.6241 40.6604 31.5667 41.5601 30.8967C41.7898 31.1264 42.0387 31.3369 42.2684 31.5667C41.3878 32.6196 39.6458 32.7536 38.612 31.8347C37.5209 30.8775 37.4634 29.1546 38.4589 28.1209C39.4352 27.1063 41.2347 27.1063 42.2493 28.14Z" fill="#F8F4EC"/>
<path d="M76.3435 29.3846C76.7072 28.772 77.071 28.1977 77.3964 27.6426C77.473 27.5086 77.5687 27.432 77.7218 27.4512C78.0473 27.4703 78.3727 27.4512 78.7364 27.4512C78.6598 27.566 78.6216 27.6617 78.5641 27.7383C78.0664 28.5232 77.5687 29.3081 77.0518 30.0929C76.9178 30.3035 76.8412 30.5332 76.8412 30.7821C76.8604 31.299 76.8412 31.8158 76.8412 32.3518C76.4775 32.3518 76.1329 32.3518 75.7501 32.3518C75.7501 31.8158 75.7692 31.2607 75.7501 30.7247C75.7501 30.5524 75.6926 30.3609 75.5969 30.2078C75.0418 29.3081 74.4675 28.4083 73.874 27.4703C74.2952 27.4703 74.678 27.4703 75.0609 27.4703C75.1375 27.4703 75.2141 27.5852 75.2523 27.6426C75.5586 28.1403 75.8649 28.6572 76.1712 29.1741C76.2478 29.2315 76.2861 29.3081 76.3435 29.3846Z" fill="#F8F4EC"/>
<path d="M41.3307 44.8909C41.1201 44.8909 40.9286 44.8909 40.6989 44.8909C40.6989 44.106 40.6989 43.3211 40.6989 42.5362C40.6798 42.5171 40.6606 42.5171 40.6415 42.498C40.2969 42.9957 39.9523 43.5125 39.5886 44.0486C39.2249 43.5125 38.8803 42.9957 38.4974 42.4214C38.4974 43.2828 38.4974 44.0677 38.4974 44.8909C38.2869 44.8909 38.0763 44.8909 37.8657 44.8909C37.8657 43.7231 37.8657 42.5554 37.8657 41.3494C38.0572 41.3494 38.2486 41.3302 38.4209 41.3494C38.4975 41.3685 38.574 41.4451 38.6315 41.5216C38.9569 42.0002 39.2632 42.498 39.5886 43.0148C39.8758 42.5745 40.1821 42.1534 40.4118 41.7131C40.5841 41.3876 40.7946 41.2919 41.1392 41.3302C41.2732 41.3494 41.3498 41.3685 41.3498 41.5216C41.3498 42.6128 41.3498 43.6848 41.3498 44.776C41.3689 44.8143 41.3498 44.8526 41.3307 44.8909Z" fill="#F8F4EC"/>
<path d="M55.1715 44.8921C55.1715 44.7964 55.1523 44.7007 55.1523 44.6241C55.1523 43.6287 55.1523 42.6332 55.1523 41.6378C55.1523 41.4081 55.1906 41.3123 55.4395 41.3315C55.8989 41.3506 56.3584 41.3123 56.8178 41.3506C57.2581 41.3698 57.6793 41.4846 57.8516 41.9441C58.0047 42.3844 57.8898 42.7672 57.4495 43.0544C57.5261 43.0927 57.5835 43.131 57.641 43.1501C57.9856 43.3224 58.1387 43.5904 58.1196 43.9733C58.1004 44.3561 57.909 44.605 57.5835 44.7581C57.4304 44.8156 57.2773 44.8921 57.1241 44.8921C56.4924 44.9113 55.8415 44.8921 55.1715 44.8921ZM55.8032 44.3944C56.2435 44.3753 56.6647 44.3753 57.0667 44.3178C57.2964 44.2987 57.4687 44.1647 57.4878 43.8775C57.4878 43.6095 57.3538 43.4564 57.1241 43.4372C56.6838 43.3798 56.2435 43.3798 55.8032 43.3607C55.8032 43.7244 55.8032 44.0307 55.8032 44.3944ZM55.8032 42.8247C56.1669 42.8247 56.5115 42.8438 56.837 42.8247C57.1241 42.8055 57.2773 42.6332 57.2773 42.3844C57.2773 42.1355 57.1432 41.9632 56.8752 41.9441C56.5115 41.9249 56.1478 41.9441 55.7841 41.9441C55.8032 42.2504 55.8032 42.5184 55.8032 42.8247Z" fill="#F8F4EC"/>
<path d="M66.4657 42.4987C66.4657 43.2836 66.4657 44.0876 66.4657 44.8916C66.2551 44.8916 66.0637 44.8916 65.8531 44.8916C65.8531 44.8342 65.834 44.7959 65.834 44.7576C65.834 43.6856 65.834 42.6327 65.834 41.5607C65.834 41.4075 65.8723 41.3501 66.0446 41.3309C66.3126 41.3118 66.504 41.3884 66.6571 41.6181C67.174 42.3264 67.7292 43.0156 68.3035 43.7621C68.3035 42.9198 68.3035 42.1541 68.3035 41.3501C68.514 41.3501 68.7055 41.3501 68.9352 41.3501C68.9352 42.5178 68.9352 43.6856 68.9352 44.8725C68.6098 44.949 68.38 44.8916 68.1695 44.6045C67.6526 43.877 67.0783 43.1878 66.5423 42.4795C66.504 42.4987 66.4849 42.4987 66.4657 42.4987Z" fill="#F8F4EC"/>
<path d="M42.3447 38.6509C42.115 38.6509 41.9236 38.6509 41.6938 38.6509C41.6938 38.5552 41.6938 38.4595 41.6938 38.3638C41.6938 37.4066 41.6938 36.4494 41.6938 35.4923C41.6938 35.3774 41.713 35.2051 41.7896 35.1477C41.9236 35.0328 42.3064 35.1477 42.4213 35.2817C42.8807 35.8751 43.3402 36.4686 43.7996 37.0429C43.9145 37.196 44.0293 37.33 44.2016 37.5406C44.2016 36.6983 44.2016 35.9134 44.2016 35.1668C44.2399 35.1477 44.2782 35.1285 44.2973 35.1285C44.8334 35.0903 44.8333 35.0903 44.8333 35.6263C44.8333 36.5452 44.8333 37.464 44.8333 38.3638C44.8333 38.4595 44.8333 38.5552 44.8333 38.6509C44.4888 38.7275 44.2399 38.6892 44.0293 38.3829C43.5125 37.6555 42.9382 36.9663 42.3447 36.2006C42.3447 37.0429 42.3447 37.8469 42.3447 38.6509Z" fill="#F8F4EC"/>
<path d="M48.9499 43.7038C48.9499 42.9381 48.9499 42.1532 48.9499 41.3683C49.1604 41.3683 49.3519 41.3683 49.5624 41.3683C49.5624 42.5552 49.5624 43.7229 49.5624 44.8907C49.237 44.9864 49.0073 44.9098 48.7967 44.6227C48.3181 43.9527 47.8013 43.3209 47.3035 42.6701C47.2461 42.6126 47.1887 42.5361 47.093 42.4403C47.093 43.3018 47.093 44.0867 47.093 44.9098C46.8824 44.9098 46.7101 44.9098 46.4995 44.9098C46.4995 43.7421 46.4995 42.5743 46.4995 41.3875C46.8249 41.3109 47.0738 41.3492 47.3035 41.6555C47.7821 42.3446 48.3181 42.9764 48.835 43.6464C48.8541 43.6847 48.8733 43.7229 48.8733 43.7612C48.9116 43.7421 48.9307 43.7229 48.9499 43.7038Z" fill="#F8F4EC"/>
<path d="M54.9985 37.4443C54.9985 37.8654 54.9985 38.2483 54.9985 38.6503C54.788 38.6503 54.5965 38.6503 54.3477 38.6503C54.3477 38.5354 54.3477 38.4397 54.3477 38.344C54.3477 37.3677 54.3477 36.3722 54.3477 35.3959C54.3477 35.1854 54.4051 35.1279 54.6157 35.1279C55.1517 35.1471 55.6877 35.1088 56.2046 35.1662C56.8363 35.2236 57.2 35.5682 57.2574 36.1042C57.3149 36.5637 57.1426 37.0997 56.5108 37.3103C56.4917 37.3103 56.4917 37.3294 56.4534 37.3677C56.7406 37.7889 57.0469 38.21 57.3723 38.6694C57.1234 38.6694 56.9129 38.6886 56.7023 38.6694C56.6257 38.6694 56.5491 38.5929 56.5108 38.5163C56.3003 38.2291 56.0897 37.9611 55.9174 37.674C55.8025 37.4826 55.6685 37.4251 55.458 37.4443C55.324 37.4634 55.1708 37.4443 54.9985 37.4443ZM54.9985 36.8508C55.3814 36.8508 55.7451 36.87 56.1088 36.8508C56.396 36.8317 56.6066 36.5828 56.6257 36.334C56.6449 36.066 56.4917 35.7979 56.1854 35.7597C55.8025 35.7022 55.4005 35.7022 54.9985 35.6831C54.9985 36.1042 54.9985 36.468 54.9985 36.8508Z" fill="#F8F4EC"/>
<path d="M82.6415 38.7263C81.5503 38.7263 80.8037 37.9414 80.8037 36.8503C80.8037 35.8548 81.6269 35.0508 82.6606 35.0508C83.6944 35.0508 84.5175 35.8548 84.5175 36.8885C84.5367 37.9414 83.7135 38.7454 82.6415 38.7263ZM83.8475 36.9077C83.8475 36.1994 83.3306 35.6442 82.6606 35.6442C81.9906 35.6442 81.4546 36.1994 81.4737 36.9077C81.4737 37.5968 82.0097 38.1329 82.6798 38.1329C83.3306 38.152 83.8475 37.616 83.8475 36.9077Z" fill="#F8F4EC"/>
<path d="M43.8959 44.9675C42.843 44.9675 42.0581 44.2018 42.0581 43.1298C42.0581 42.0769 42.8621 41.292 43.915 41.292C44.9679 41.292 45.791 42.096 45.7719 43.1106C45.7719 44.3932 44.7573 45.0249 43.8959 44.9675ZM43.915 44.3741C44.585 44.3741 45.1019 43.838 45.121 43.1489C45.121 42.4597 44.585 41.8854 43.9342 41.8854C43.2833 41.8854 42.7473 42.4406 42.7281 43.1298C42.709 43.8189 43.245 44.3741 43.915 44.3741Z" fill="#F8F4EC"/>
<path d="M51.6488 35.6835C51.6488 36.0089 51.6488 36.2961 51.6488 36.6024C52.2423 36.6024 52.8166 36.6024 53.41 36.6024C53.41 36.7938 53.41 36.9661 53.41 37.1767C52.8357 37.1767 52.2423 37.1767 51.6297 37.1767C51.6297 37.4638 51.6105 37.7318 51.6488 37.9807C51.6488 38.0381 51.7828 38.1338 51.8594 38.1338C52.3571 38.153 52.8357 38.1338 53.3334 38.1338C53.4291 38.1338 53.5249 38.1338 53.6397 38.1338C53.6397 38.3061 53.6397 38.4784 53.6397 38.6698C52.7783 38.6698 51.9168 38.6698 51.0362 38.6698C51.0362 38.5933 51.0171 38.5167 51.0171 38.4593C51.0171 37.4447 51.0171 36.4301 51.0171 35.4155C51.0171 35.2049 51.0745 35.1475 51.2851 35.1475C52.0508 35.1666 52.8357 35.1475 53.6206 35.1475C53.6206 35.3198 53.6206 35.492 53.6206 35.6835C52.9888 35.6835 52.338 35.6835 51.6488 35.6835Z" fill="#F8F4EC"/>
<path d="M68.3992 36.5824C68.3992 36.793 68.3992 36.9653 68.3992 37.1567C67.8057 37.1567 67.2314 37.1567 66.6188 37.1567C66.6188 37.4439 66.5997 37.7119 66.638 37.9608C66.638 38.0182 66.772 38.0948 66.8677 38.0948C67.3654 38.1139 67.844 38.0948 68.3417 38.0948C68.4374 38.0948 68.5332 38.0948 68.648 38.0948C68.648 38.2862 68.648 38.4393 68.648 38.6308C67.7866 38.6308 66.9251 38.6308 66.0445 38.6308C66.0445 38.5542 66.0254 38.4968 66.0254 38.4202C66.0254 37.4056 66.0254 36.3719 66.0254 35.3573C66.0254 35.1658 66.0828 35.1084 66.2743 35.1084C67.0591 35.1275 67.844 35.1084 68.6289 35.1084C68.6289 35.2998 68.6289 35.453 68.6289 35.6444C67.978 35.6444 67.3271 35.6444 66.6571 35.6444C66.6571 35.9507 66.6571 36.2379 66.6571 36.5441C67.2314 36.5824 67.8057 36.5824 68.3992 36.5824Z" fill="#F8F4EC"/>
<path d="M65.2786 44.8922C64.6278 44.9496 64.6086 44.9496 64.3981 44.3945C64.3023 44.1265 64.1492 44.0307 63.8812 44.0499C63.5175 44.069 63.1537 44.069 62.79 44.0499C62.6369 44.0499 62.5603 44.0882 62.522 44.2222C62.5029 44.2987 62.4646 44.3753 62.4263 44.4327C62.2157 44.9496 62.2157 44.9496 61.584 44.873C61.7371 44.5285 61.8711 44.203 62.0243 43.8776C62.3689 43.0927 62.7134 42.327 63.0389 41.5421C63.1346 41.2932 63.326 41.3507 63.5175 41.3315C63.7089 41.3124 63.7855 41.4081 63.8429 41.5613C64.2832 42.595 64.7426 43.6479 65.2021 44.6816C65.2212 44.739 65.2404 44.8156 65.2786 44.8922ZM62.8474 43.4564C63.2495 43.4564 63.6132 43.4564 63.996 43.4564C63.8046 43.0161 63.6132 42.595 63.4217 42.1164C63.2112 42.595 63.0389 43.0161 62.8474 43.4564Z" fill="#F8F4EC"/>
<path d="M40.8901 35.1285C40.8901 35.9325 40.9284 36.6982 40.8709 37.464C40.8135 38.3637 39.9712 38.8997 38.9949 38.6891C38.3057 38.536 37.8846 38.0574 37.8654 37.3108C37.8463 36.6408 37.8654 35.9708 37.8654 35.3199C37.8654 35.1668 37.9229 35.0902 38.076 35.1093C38.21 35.1093 38.344 35.1093 38.4972 35.1093C38.4972 35.7411 38.4972 36.3537 38.4972 36.9662C38.4972 37.1002 38.4972 37.2534 38.5163 37.3874C38.612 37.9234 38.9566 38.1723 39.4735 38.134C39.9521 38.0957 40.2392 37.7703 40.2392 37.2534C40.2392 36.6599 40.2392 36.0665 40.2392 35.4731C40.2392 35.1093 40.2392 35.1093 40.6029 35.1285C40.7178 35.1093 40.7944 35.1285 40.8901 35.1285Z" fill="#F8F4EC"/>
<path d="M73.6631 38.6694C73.9502 37.9994 74.2182 37.3677 74.5054 36.7551C74.716 36.2574 74.9457 35.7597 75.1563 35.2428C75.2328 35.0705 75.3668 35.0896 75.4817 35.1088C75.6157 35.1279 75.788 35.0322 75.8646 35.2236C76.3431 36.334 76.8409 37.4443 77.3195 38.5546C77.3195 38.5737 77.3195 38.612 77.3195 38.6694C77.1472 38.6694 76.9749 38.6886 76.8026 38.6694C76.7452 38.6694 76.6494 38.5737 76.6303 38.5163C76.5154 37.8846 76.1134 37.7314 75.5391 37.8271C75.52 37.8271 75.4817 37.8271 75.4626 37.8271C74.8691 37.7123 74.5054 37.9037 74.3714 38.5163C74.3522 38.5929 74.2374 38.6503 74.1417 38.6694C74.0077 38.6886 73.8545 38.6694 73.6631 38.6694ZM74.9074 37.2528C75.3286 37.2528 75.6923 37.2528 76.1134 37.2528C75.9028 36.7934 75.7306 36.3531 75.5008 35.8554C75.2903 36.3531 75.118 36.7934 74.9074 37.2528Z" fill="#F8F4EC"/>
<path d="M57.7549 38.1337C57.8697 37.9997 57.9846 37.8657 58.1186 37.6934C58.4823 37.9806 58.8652 38.1912 59.3438 38.1337C59.4586 38.1146 59.5926 38.0954 59.6884 38.0189C59.9181 37.8657 59.9181 37.5211 59.6692 37.3871C59.4969 37.2914 59.2863 37.234 59.0949 37.1766C58.9226 37.1191 58.7312 37.0808 58.5589 37.0234C58.0803 36.8511 57.8697 36.5448 57.8697 36.0854C57.8889 35.6451 58.1569 35.2814 58.5972 35.1474C59.2481 34.9559 59.8224 35.1091 60.3775 35.5111C60.2627 35.6834 60.1669 35.8365 60.0712 35.9705C59.8032 35.8557 59.5544 35.76 59.2863 35.6642C59.1906 35.626 59.0566 35.626 58.9418 35.6451C58.7312 35.6834 58.5398 35.76 58.5015 36.0088C58.4632 36.2577 58.6355 36.3917 58.8461 36.4491C59.1906 36.564 59.5544 36.6406 59.8798 36.7746C60.4349 37.0043 60.6264 37.4829 60.3967 38.038C60.3201 38.2294 60.1478 38.4209 59.9755 38.5166C59.3629 38.9186 58.2718 38.708 57.7549 38.1337Z" fill="#F8F4EC"/>
<path d="M70.6006 38.1529C70.7154 37.9997 70.8303 37.8657 70.9643 37.7126C71.2897 37.9423 71.6343 38.172 72.0555 38.1529C72.1895 38.1529 72.3618 38.1529 72.4575 38.0763C72.5723 37.9997 72.6872 37.8466 72.6872 37.7317C72.6872 37.6169 72.5915 37.4446 72.4766 37.3871C72.3043 37.2914 72.0746 37.2531 71.8832 37.1766C71.73 37.1191 71.5769 37.0808 71.4237 37.0234C70.9452 36.8511 70.7154 36.5257 70.7346 36.1045C70.7537 35.6451 71.0217 35.2814 71.4812 35.1474C72.1321 34.9559 72.7063 35.1091 73.2424 35.5111C73.2232 35.5494 73.2041 35.5877 73.2041 35.626C72.9744 36.0088 72.9744 35.9897 72.5723 35.7982C72.3043 35.6642 72.0172 35.5685 71.73 35.6834C71.596 35.7408 71.4238 35.9131 71.4046 36.0471C71.3855 36.162 71.5386 36.3343 71.6726 36.4108C71.864 36.5257 72.0938 36.5448 72.3043 36.6214C72.4766 36.6788 72.6681 36.7363 72.8212 36.8128C73.1658 36.966 73.3572 37.234 73.3572 37.6169C73.3572 38.038 73.2041 38.3634 72.8212 38.5549C72.1703 38.8995 71.194 38.7272 70.6006 38.1529Z" fill="#F8F4EC"/>
<path d="M72.8787 44.3166C72.3426 45.0824 71.0409 45.1972 70.2943 44.5846C69.4903 43.9146 69.4137 42.6129 70.122 41.8663C70.8495 41.1006 72.1703 41.1006 72.8595 41.8663C72.7446 42.0003 72.6106 42.1534 72.4766 42.3066C72.1129 42.0386 71.7492 41.7706 71.2898 41.9046C71.0409 41.9811 70.7729 42.1152 70.6006 42.3066C70.1794 42.7852 70.2369 43.57 70.6772 44.0103C71.1366 44.4889 71.7492 44.4698 72.4958 43.9338C72.6298 44.0678 72.7638 44.2018 72.8787 44.3166Z" fill="#F8F4EC"/>
<path d="M77.1279 35.148C77.1662 35.1289 77.1662 35.1289 77.1854 35.1289C77.7979 35.0906 77.7979 35.0906 78.0277 35.6457C78.2957 36.354 78.5828 37.0432 78.87 37.8089C79.0231 37.4261 79.1571 37.0815 79.2911 36.756C79.4634 36.3157 79.6548 35.8754 79.808 35.416C79.8846 35.1671 80.0186 35.0714 80.2674 35.1097C80.3631 35.1289 80.4589 35.1097 80.612 35.1097C80.5737 35.2246 80.5546 35.3011 80.5354 35.3777C80.1143 36.4115 79.6931 37.4261 79.272 38.4598C79.1954 38.6321 79.1188 38.7278 78.9083 38.7278C78.6977 38.7278 78.5828 38.6704 78.4871 38.4598C78.066 37.4069 77.6257 36.3732 77.2045 35.3394C77.1662 35.282 77.1471 35.2246 77.1279 35.148Z" fill="#F8F4EC"/>
<path d="M46.9585 35.1293C47.1691 35.1293 47.3605 35.1101 47.5328 35.1293C47.6094 35.1484 47.6859 35.2441 47.7051 35.3207C48.0114 36.0864 48.2985 36.833 48.6048 37.5988C48.624 37.6562 48.6623 37.7136 48.7005 37.7902C49.0068 37.0245 49.294 36.2779 49.5811 35.5504C49.7726 35.0718 49.7726 35.0718 50.4426 35.1293C50.3469 35.3781 50.232 35.627 50.1363 35.8567C49.7726 36.7182 49.4088 37.5988 49.0643 38.4602C48.9877 38.6516 48.8728 38.6899 48.6814 38.6899C48.49 38.6899 48.3751 38.6516 48.2985 38.4602C47.8774 37.4073 47.4371 36.3736 47.0159 35.3398C47.0159 35.3016 46.9968 35.225 46.9585 35.1293Z" fill="#F8F4EC"/>
<path d="M51.3238 41.9622C51.0175 41.9622 50.7495 41.9431 50.4815 41.9622C50.2327 41.9813 50.1561 41.8856 50.1944 41.6559C50.2135 41.5602 50.1944 41.4645 50.1944 41.3496C51.1515 41.3496 52.0896 41.3496 53.0467 41.3496C53.0467 41.541 53.0467 41.7325 53.0467 41.9431C52.683 41.9431 52.3384 41.9431 51.9556 41.9431C51.9556 42.9385 51.9556 43.8957 51.9556 44.872C51.7258 44.872 51.5344 44.872 51.3238 44.872C51.3238 43.934 51.3238 42.9768 51.3238 41.9622Z" fill="#F8F4EC"/>
<path d="M65.3739 35.165C65.3739 35.3373 65.3739 35.5096 65.3739 35.701C65.0102 35.701 64.6465 35.701 64.2636 35.701C64.2636 36.6965 64.2636 37.6728 64.2636 38.6491C64.053 38.6491 63.8425 38.6491 63.6128 38.6491C63.6128 37.6728 63.6128 36.6965 63.6128 35.701C63.2299 35.701 62.8853 35.701 62.5024 35.701C62.5024 35.5096 62.5024 35.3373 62.5024 35.165C63.4596 35.165 64.4168 35.165 65.3739 35.165Z" fill="#F8F4EC"/>
<path d="M58.8086 41.3688C58.8852 41.3688 58.9426 41.3496 59 41.3496C59.134 41.3496 59.268 41.3496 59.4212 41.3496C59.4212 42.3451 59.4212 43.3214 59.4212 44.3168C60.0529 44.3168 60.6463 44.3168 61.2781 44.3168C61.2781 44.5274 61.2781 44.6997 61.2781 44.9103C60.4741 44.9103 59.6509 44.9103 58.8277 44.9103C58.8086 43.7234 58.8086 42.5556 58.8086 41.3688Z" fill="#F8F4EC"/>
<path d="M46.327 35.1275C46.327 36.3144 46.327 37.4822 46.327 38.6499C46.1165 38.6499 45.925 38.6499 45.6953 38.6499C45.6953 38.5542 45.6953 38.4585 45.6953 38.3628C45.6953 37.4056 45.6953 36.4484 45.6953 35.4913C45.6953 35.1084 45.6953 35.1084 46.0782 35.1084C46.1739 35.1084 46.2313 35.1275 46.327 35.1275Z" fill="#F8F4EC"/>
<path d="M61.8518 38.6692C61.6221 38.6692 61.4498 38.6692 61.2393 38.6692C61.2393 37.5014 61.2393 36.3337 61.2393 35.1276C61.3924 35.1276 61.5647 35.1085 61.7178 35.1276C61.7753 35.1276 61.8327 35.2234 61.8327 35.2808C61.8518 36.3911 61.8518 37.5206 61.8518 38.6692Z" fill="#F8F4EC"/>
<path d="M85.8577 38.6694C85.6471 38.6694 85.4748 38.6694 85.2451 38.6694C85.2451 38.5737 85.2451 38.478 85.2451 38.3823C85.2451 37.4251 85.2451 36.468 85.2451 35.5108C85.2451 35.1279 85.2451 35.1279 85.628 35.1279C85.7046 35.1279 85.762 35.1279 85.8577 35.1471C85.8577 36.3148 85.8577 37.4826 85.8577 38.6694Z" fill="#F8F4EC"/>
<path d="M66.3701 27.0304C66.619 26.705 66.8678 26.3796 67.1167 26.0733C67.155 26.035 67.2507 25.9967 67.3081 26.0158C67.5761 26.1116 67.8442 26.2456 68.1313 26.3604C67.5953 26.7433 67.155 27.2984 66.3701 27.0304Z" fill="#F8F4EC"/>
<path d="M67.0972 34.8031C67.2695 34.5734 67.4226 34.3628 67.5949 34.1714C67.6332 34.1331 67.748 34.1331 67.8055 34.1522C67.9395 34.1905 68.0543 34.2479 68.1692 34.3054C67.9395 34.6882 67.5375 34.8797 67.0972 34.8031Z" fill="#F8F4EC"/>
</svg>
