<svg width="198" height="185" viewBox="0 0 198 185" fill="none" xmlns="http://www.w3.org/2000/svg">
<path d="M91.4764 129.8H56.2384C54.3692 129.8 52.5767 130.543 51.255 131.865C49.9333 133.187 49.1908 134.98 49.1908 136.85C49.1908 138.72 49.9333 140.513 51.255 141.835C52.5767 143.157 54.3692 143.9 56.2384 143.9H91.4764C93.3379 143.925 95.1162 144.675 96.4326 145.992C97.749 147.309 98.4994 149.088 98.524 150.95C98.524 152.82 99.2665 154.613 100.588 155.935C101.91 157.257 103.702 158 105.572 158C107.441 158 109.233 157.257 110.555 155.935C111.877 154.613 112.619 152.82 112.619 150.95C112.613 145.342 110.384 139.966 106.42 136.001C102.456 132.036 97.0819 129.806 91.4764 129.8ZM105.572 59.2995C106.965 59.2995 108.328 58.886 109.487 58.1113C110.646 57.3367 111.549 56.2356 112.083 54.9474C112.616 53.6591 112.756 52.2416 112.484 50.874C112.212 49.5065 111.541 48.2503 110.555 47.2643C109.569 46.2783 108.314 45.6069 106.947 45.3349C105.579 45.0628 104.162 45.2025 102.875 45.7361C101.587 46.2697 100.486 47.1733 99.7117 48.3327C98.9373 49.492 98.524 50.8551 98.524 52.2494C98.524 54.1192 99.2665 55.9124 100.588 57.2346C101.91 58.5567 103.702 59.2995 105.572 59.2995ZM133.762 59.2995H147.857C153.463 59.2934 158.837 57.0631 162.801 53.098C166.764 49.1329 168.994 43.7568 169 38.1494C169 36.2796 168.257 34.4864 166.936 33.1642C165.614 31.8421 163.822 31.0993 161.952 31.0993C160.083 31.0993 158.291 31.8421 156.969 33.1642C155.647 34.4864 154.905 36.2796 154.905 38.1494C154.88 40.0115 154.13 41.7904 152.813 43.1073C151.497 44.4241 149.719 45.1748 147.857 45.1994H133.762C131.893 45.1994 130.1 45.9422 128.779 47.2643C127.457 48.5865 126.714 50.3797 126.714 52.2494C126.714 54.1192 127.457 55.9124 128.779 57.2346C130.1 58.5567 131.893 59.2995 133.762 59.2995ZM147.857 101.6H132.625C136.669 95.2706 139.416 88.2007 140.706 80.8007C140.913 79.5972 140.804 78.3607 140.389 77.2122C139.974 76.0636 139.269 75.0425 138.341 74.2486C137.414 73.4547 136.296 72.9153 135.098 72.6832C133.899 72.4511 132.661 72.5343 131.505 72.9245C127.147 74.4057 122.576 75.1616 117.974 75.1621C106.661 75.1579 95.8113 70.6652 87.8053 62.6694C79.7994 54.6736 75.2907 43.8276 75.2683 32.5107C75.3158 30.0324 75.5458 27.561 75.9565 25.1165C76.1405 23.9207 76.0135 22.6978 75.5879 21.5653C75.1623 20.4329 74.4523 19.4293 73.5263 18.651C72.6003 17.8728 71.4897 17.3462 70.3012 17.122C69.1128 16.8978 67.8866 16.9836 66.7409 17.371C58.5711 20.0973 51.1309 24.6526 44.9868 30.6899C38.8428 36.7271 34.1568 44.0873 31.2858 52.2099C28.4148 60.3324 27.4344 69.0033 28.4193 77.5621C29.4042 86.121 32.3284 94.3421 36.9693 101.6H28.048C26.1788 101.6 24.3863 102.342 23.0646 103.665C21.7429 104.987 21.0004 106.78 21.0004 108.65C21.0004 110.52 21.7429 112.313 23.0646 113.635C24.3863 114.957 26.1788 115.7 28.048 115.7H63.286C65.1551 115.7 66.9477 114.957 68.2694 113.635C69.5911 112.313 70.3336 110.52 70.3336 108.65C70.3336 106.78 69.5911 104.987 68.2694 103.665C66.9477 102.342 65.1551 101.6 63.286 101.6H55.0439C50.4796 97.1699 46.9677 91.7716 44.7673 85.803C42.5669 79.8344 41.734 73.4477 42.3302 67.1142C42.9264 60.7806 44.9364 54.6617 48.2119 49.2089C51.4875 43.7561 55.945 39.1085 61.2556 35.6089C62.0746 50.1052 68.4061 63.739 78.952 73.7151C89.4979 83.6911 103.459 89.2536 117.974 89.2621C119.831 89.2634 121.687 89.1715 123.535 88.9868C121.344 93.7043 118.307 97.9795 114.573 101.6H91.4764C89.6072 101.6 87.8147 102.342 86.493 103.665C85.1713 104.987 84.4288 106.78 84.4288 108.65C84.4288 110.52 85.1713 112.313 86.493 113.635C87.8147 114.957 89.6072 115.7 91.4764 115.7H147.857C149.726 115.7 151.519 116.443 152.841 117.765C154.162 119.087 154.905 120.88 154.905 122.75C154.905 124.62 154.162 126.413 152.841 127.735C151.519 129.057 149.726 129.8 147.857 129.8C145.988 129.8 144.195 130.543 142.874 131.865C141.552 133.187 140.81 134.98 140.81 136.85C140.81 138.72 141.552 140.513 142.874 141.835C144.195 143.157 145.988 143.9 147.857 143.9C153.465 143.9 158.842 141.672 162.807 137.705C166.772 133.739 169 128.359 169 122.75C169 117.14 166.772 111.761 162.807 107.794C158.842 103.828 153.465 101.6 147.857 101.6ZM25.3707 130.364C24.5163 130.721 23.7294 131.222 23.0445 131.845C21.7431 133.187 21.0107 134.98 21.0004 136.85C20.9883 138.011 21.2661 139.156 21.8084 140.183C22.3507 141.209 23.1406 142.084 24.1063 142.728C25.072 143.372 26.183 143.765 27.3388 143.871C28.4946 143.977 29.6586 143.793 30.7252 143.335C31.5789 142.977 32.3656 142.477 33.0518 141.855C33.707 141.198 34.2251 140.417 34.576 139.558C34.9268 138.699 35.1035 137.778 35.0956 136.85C35.068 134.984 34.3382 133.196 33.0518 131.844C32.0599 130.868 30.8016 130.206 29.4349 129.943C28.0683 129.679 26.6543 129.826 25.3707 130.364Z" fill="#F8F4EC"/>
<path d="M161.008 175.239C161.015 175.566 161.104 175.886 161.266 176.166C161.428 176.447 161.658 176.678 161.933 176.837L166.132 179.224L168.419 183.607C168.574 183.902 168.803 184.149 169.081 184.32C169.36 184.492 169.677 184.583 170.001 184.583C170.324 184.583 170.642 184.492 170.921 184.32C171.199 184.149 171.428 183.902 171.583 183.607L173.869 179.224L178.068 176.837C178.355 176.677 178.595 176.439 178.762 176.148C178.929 175.857 179.017 175.525 179.017 175.186C179.017 174.847 178.929 174.515 178.762 174.224C178.595 173.933 178.355 173.695 178.068 173.534L173.869 171.133L171.583 166.772C171.428 166.476 171.199 166.23 170.921 166.058C170.642 165.887 170.324 165.796 170.001 165.796C169.677 165.796 169.36 165.887 169.081 166.058C168.803 166.23 168.574 166.476 168.419 166.772L166.132 171.133L161.933 173.534C161.642 173.701 161.4 173.949 161.236 174.25C161.071 174.551 160.99 174.893 161.001 175.239H161.008ZM166.547 175.189L168.317 174.173C168.618 174.001 168.866 173.742 169.031 173.428L169.997 171.581L170.971 173.428C171.135 173.742 171.383 174.001 171.685 174.173L173.454 175.189L171.685 176.184C171.383 176.356 171.135 176.615 170.971 176.93L169.997 178.777L169.031 176.93C168.864 176.614 168.614 176.355 168.31 176.184L166.547 175.189ZM168.201 156.393C168.2 156.639 168.246 156.884 168.335 157.111C168.425 157.339 168.557 157.547 168.724 157.721C168.891 157.896 169.089 158.035 169.308 158.13C169.526 158.225 169.761 158.275 169.997 158.276C170.235 158.276 170.47 158.227 170.689 158.132C170.908 158.038 171.107 157.899 171.275 157.724C171.443 157.549 171.575 157.341 171.665 157.113C171.756 156.885 171.802 156.64 171.801 156.393C171.801 155.896 171.611 155.419 171.273 155.067C170.934 154.715 170.476 154.518 169.997 154.518C169.52 154.52 169.063 154.718 168.727 155.07C168.39 155.421 168.201 155.897 168.201 156.393ZM178.994 156.443C178.994 156.445 178.994 156.448 178.994 156.45C179.003 156.78 179.096 157.102 179.263 157.382C179.431 157.663 179.666 157.893 179.946 158.048L184.125 160.435L186.425 164.811C186.58 165.106 186.809 165.353 187.087 165.524C187.366 165.696 187.683 165.786 188.007 165.786C188.331 165.786 188.648 165.696 188.927 165.524C189.205 165.353 189.434 165.106 189.589 164.811L191.876 160.435L196.068 158.048C196.354 157.888 196.594 157.65 196.761 157.359C196.928 157.068 197.017 156.736 197.017 156.397C197.017 156.058 196.928 155.726 196.761 155.435C196.594 155.144 196.354 154.906 196.068 154.745L191.876 152.358L189.589 147.975C189.434 147.68 189.205 147.434 188.927 147.262C188.648 147.091 188.331 147 188.007 147C187.683 147 187.366 147.091 187.087 147.262C186.809 147.434 186.58 147.68 186.425 147.975L184.125 152.358L179.94 154.745C179.645 154.91 179.401 155.157 179.234 155.458C179.067 155.759 178.984 156.103 178.994 156.45V156.443ZM184.547 156.393L186.316 155.385C186.621 155.211 186.872 154.95 187.037 154.632L188.004 152.785L188.956 154.632C189.122 154.95 189.372 155.211 189.678 155.385L191.447 156.393L189.678 157.409C189.376 157.582 189.128 157.84 188.963 158.155L188.01 160.002L187.037 158.155C186.871 157.839 186.62 157.581 186.316 157.409L184.547 156.393ZM186.2 175.182C186.199 175.429 186.245 175.674 186.336 175.902C186.426 176.13 186.558 176.338 186.726 176.513C186.893 176.688 187.093 176.827 187.312 176.921C187.531 177.016 187.766 177.065 188.004 177.065C188.24 177.064 188.475 177.014 188.693 176.919C188.911 176.824 189.11 176.685 189.277 176.51C189.444 176.336 189.576 176.128 189.665 175.9C189.755 175.673 189.801 175.428 189.8 175.182C189.8 174.686 189.611 174.21 189.274 173.859C188.938 173.507 188.481 173.309 188.004 173.307C187.525 173.307 187.067 173.504 186.728 173.856C186.39 174.208 186.2 174.685 186.2 175.182Z" fill="#F8F4EC"/>
<path d="M12.0331 38.0359C11.7063 38.0539 11.3808 37.9892 11.0889 37.8485C10.7971 37.7077 10.5491 37.4957 10.3695 37.2335L7.67282 33.2268L3.12993 31.2774C2.82378 31.1448 2.56085 30.9353 2.3687 30.6706C2.17656 30.406 2.0623 30.0961 2.03789 29.7734C2.01348 29.4507 2.07982 29.127 2.22996 28.8365C2.38011 28.546 2.60853 28.2992 2.89125 28.1221L7.08921 25.5115L9.15251 21.1447C9.29089 20.8465 9.51043 20.5896 9.78779 20.401C10.0652 20.2125 10.39 20.0993 10.7278 20.0738C11.0656 20.0482 11.4038 20.1112 11.7063 20.2559C12.0089 20.4006 12.2646 20.6216 12.4463 20.8956L15.1571 24.9012L19.6788 26.8522C19.9849 26.9848 20.2479 27.1944 20.44 27.459C20.6321 27.7237 20.7464 28.0337 20.7708 28.3564C20.7952 28.6791 20.7289 29.0026 20.5787 29.2931C20.4286 29.5837 20.2002 29.8304 19.9175 30.0075L15.7407 32.6165L13.6633 36.9844C13.5187 37.2877 13.29 37.5472 13.0023 37.734C12.7147 37.9207 12.3794 38.0277 12.0336 38.0428L12.0331 38.0359ZM11.6649 32.5087L12.5443 30.6677C12.6936 30.3538 12.933 30.087 13.2342 29.8989L15.0029 28.796L13.0879 27.965C12.7619 27.8244 12.4851 27.5968 12.2902 27.3089L11.1439 25.6211L10.2857 27.4605C10.1363 27.7744 9.89694 28.0411 9.59579 28.2291L7.82752 29.3388L9.74208 30.1631C10.0692 30.3054 10.3463 30.5357 10.5402 30.8262L11.6649 32.5087ZM30.2826 29.4419C30.0371 29.4614 29.7903 29.4343 29.5563 29.3619C29.3223 29.2896 29.1057 29.1734 28.9188 29.0203C28.7319 28.8671 28.5784 28.6799 28.4671 28.4692C28.3558 28.2586 28.2888 28.0285 28.27 27.7925C28.2521 27.5558 28.283 27.3178 28.3609 27.0921C28.4388 26.8663 28.5621 26.6571 28.7239 26.4769C28.8857 26.2966 29.0826 26.1487 29.3035 26.0415C29.5244 25.9343 29.7649 25.8701 30.0111 25.8524C30.5071 25.8149 30.997 25.9683 31.3732 26.279C31.7495 26.5897 31.9811 27.0321 32.0171 27.509C32.0513 27.9849 31.8879 28.4555 31.5628 28.8178C31.2377 29.1801 30.7774 29.4045 30.2826 29.4419ZM29.419 18.6836C29.4166 18.6838 29.4143 18.684 29.4119 18.6842C29.0821 18.6997 28.7544 18.6311 28.4619 18.4855C28.1694 18.3399 27.9226 18.1222 27.7463 17.8546L25.0511 13.8684L20.5143 11.9048C20.2081 11.7722 19.9452 11.5627 19.7531 11.298C19.5609 11.0334 19.4467 10.7235 19.4222 10.4008C19.3978 10.0781 19.4642 9.75443 19.6143 9.46389C19.7645 9.17336 19.9929 8.92662 20.2756 8.7495L24.4665 6.13947L26.5303 1.77949C26.6687 1.48131 26.8882 1.22438 27.1656 1.03582C27.443 0.847249 27.7678 0.734096 28.1056 0.708543C28.4434 0.68299 28.7815 0.745993 29.0841 0.890692C29.3867 1.03539 29.6424 1.25636 29.824 1.53033L32.5202 5.53025L37.0631 7.47963C37.3693 7.6122 37.6322 7.82178 37.8244 8.08642C38.0165 8.35106 38.1308 8.6611 38.1552 8.98381C38.1796 9.30652 38.1132 9.63002 37.9631 9.92055C37.8129 10.2111 37.5845 10.4578 37.3018 10.6349L33.1049 13.2592L31.0406 17.6123C30.8981 17.918 30.6704 18.1801 30.3828 18.3694C30.0952 18.5586 29.7591 18.6677 29.4119 18.6842L29.419 18.6836ZM29.0497 13.1427L29.9221 11.3025C30.072 10.9851 30.3138 10.7154 30.6185 10.5263L32.3873 9.42345L30.4738 8.61287C30.1441 8.47175 29.8645 8.24155 29.6685 7.95026L28.5292 6.26201L27.6498 8.10297C27.5005 8.4169 27.2611 8.68374 26.9599 8.8718L25.1901 9.961L27.1052 10.7921C27.4323 10.9344 27.7094 11.1647 27.9034 11.4552L29.0497 13.1427ZM10.1896 12.9112C9.94345 12.9307 9.69605 12.9032 9.46154 12.8304C9.22704 12.7577 9.01005 12.6411 8.82302 12.4872C8.63598 12.3333 8.48259 12.1453 8.37163 11.9338C8.26068 11.7223 8.19434 11.4916 8.17644 11.2548C8.1595 11.0186 8.19112 10.7814 8.26947 10.5564C8.34783 10.3314 8.47138 10.1229 8.6331 9.94342C8.79482 9.76388 8.99154 9.61669 9.21201 9.50996C9.43247 9.40323 9.67237 9.33907 9.91801 9.32139C10.4127 9.28396 10.9016 9.43664 11.2775 9.74589C11.6534 10.0551 11.8857 10.4958 11.9235 10.9714C11.9596 11.4483 11.7972 11.9206 11.472 12.2843C11.1468 12.6481 10.6855 12.8736 10.1896 12.9112Z" fill="#F8F4EC"/>
</svg>
