<svg width="262" height="260" viewBox="0 0 262 260" fill="none" xmlns="http://www.w3.org/2000/svg">
<path d="M168.691 158.22C162.247 158.218 155.841 157.229 149.696 155.287C149.107 155.122 148.558 154.834 148.086 154.443C147.615 154.053 147.23 153.567 146.958 153.019C146.686 152.47 146.532 151.87 146.506 151.258C146.48 150.646 146.583 150.036 146.808 149.466C147.229 148.42 148.037 147.576 149.064 147.112C150.092 146.647 151.259 146.597 152.322 146.971C162.934 150.319 174.318 150.319 184.929 146.971C185.993 146.597 187.16 146.647 188.187 147.112C189.215 147.576 190.023 148.42 190.444 149.466C190.67 150.03 190.777 150.635 190.756 151.242C190.736 151.85 190.589 152.446 190.326 152.994C190.062 153.541 189.688 154.028 189.226 154.423C188.764 154.818 188.225 155.112 187.643 155.287C181.512 157.225 175.121 158.214 168.691 158.22Z" fill="#555B47"/>
<path d="M219.024 175.553H118.359C114.296 175.553 110.4 173.939 107.527 171.066C104.654 168.193 103.04 164.297 103.04 160.234V97.2962C103.04 93.2334 104.654 89.3371 107.527 86.4643C110.4 83.5915 114.296 81.9775 118.359 81.9775H219.024C223.087 81.9775 226.983 83.5915 229.856 86.4643C232.729 89.3371 234.343 93.2334 234.343 97.2962V160.234C234.343 164.297 232.729 168.193 229.856 171.066C226.983 173.939 223.087 175.553 219.024 175.553ZM118.359 90.731C116.617 90.731 114.948 91.4227 113.716 92.6539C112.485 93.8851 111.794 95.555 111.794 97.2962V160.234C111.794 161.975 112.485 163.645 113.716 164.876C114.948 166.107 116.617 166.799 118.359 166.799H219.024C220.765 166.799 222.435 166.107 223.666 164.876C224.897 163.645 225.589 161.975 225.589 160.234V97.2962C225.589 95.555 224.897 93.8851 223.666 92.6539C222.435 91.4227 220.765 90.731 219.024 90.731H118.359Z" fill="#555B47"/>
<path d="M168.692 123.426C165.269 123.43 161.904 122.54 158.931 120.843L109.693 94.583L113.807 86.8799L163.177 113.14C164.83 114.085 166.7 114.581 168.604 114.581C170.508 114.581 172.378 114.085 174.031 113.14L223.488 86.8799L227.603 94.583L178.233 120.843C175.33 122.518 172.042 123.408 168.692 123.426Z" fill="#555B47"/>
<path d="M70.8826 20.4076C70.4081 20.6538 70.004 21.0152 69.7105 21.4555C69.417 21.8959 69.2443 22.4001 69.2096 22.918L68.7455 30.7932L63.9758 37.3086C63.6554 37.7493 63.4597 38.2625 63.4093 38.7943C63.3589 39.3261 63.4556 39.8567 63.6894 40.3309C63.9231 40.805 64.2853 41.2051 64.7378 41.489C65.1903 41.7729 65.7165 41.9301 66.2613 41.9444L74.3338 42.1286L80.8631 46.5559C81.3054 46.8603 81.8276 47.0393 82.3743 47.0741C82.9211 47.1089 83.4719 46.9982 83.9682 46.7535C84.4645 46.5088 84.8878 46.1393 85.1931 45.6844C85.4984 45.2296 85.6745 44.7064 85.7024 44.1702L86.1873 36.2848L90.9257 29.7848C91.2462 29.344 91.4419 28.8309 91.4922 28.2991C91.5426 27.7673 91.4458 27.2363 91.212 26.7622C90.9783 26.288 90.6163 25.8882 90.1637 25.6043C89.7112 25.3205 89.185 25.1632 88.6403 25.149L80.599 24.9494L74.0488 20.5323C73.5936 20.2257 73.0563 20.0509 72.4966 20.0271C71.937 20.0034 71.3766 20.1315 70.8777 20.3975L70.8826 20.4076ZM74.9563 28.4869L77.7224 30.3454C78.1932 30.6629 78.7515 30.8393 79.3313 30.8536L82.735 30.9353L80.7321 33.695C80.3904 34.1635 80.1902 34.7135 80.1553 35.2803L79.9451 38.6062L77.2102 36.7323C76.7394 36.4148 76.1812 36.2387 75.6015 36.2244L72.1928 36.1326L74.2007 33.383C74.5425 32.911 74.7409 32.357 74.7723 31.7873L74.9563 28.4869ZM103.687 17.3339C103.326 17.5105 103.001 17.7537 102.732 18.0498C102.463 18.346 102.255 18.6893 102.12 19.0599C101.984 19.4306 101.924 19.8214 101.942 20.2101C101.961 20.5989 102.058 20.978 102.227 21.3256C102.399 21.6734 102.64 21.9824 102.937 22.2352C103.234 22.488 103.581 22.6797 103.958 22.7988C104.336 22.918 104.736 22.9624 105.135 22.9296C105.535 22.8969 105.926 22.7874 106.287 22.6078C107.016 22.2485 107.578 21.6258 107.849 20.8763C108.12 20.1268 108.078 19.3122 107.733 18.6115C107.385 17.9139 106.764 17.3878 106.006 17.1483C105.248 16.9089 104.414 16.9756 103.687 17.3339ZM111.41 33.1816C111.406 33.1833 111.403 33.185 111.399 33.1868C110.923 33.439 110.519 33.8076 110.228 34.2553C109.938 34.7031 109.772 35.2144 109.746 35.737L109.267 43.5821L104.518 50.1124C104.197 50.5532 104.002 51.0663 103.951 51.5981C103.901 52.1299 103.998 52.6606 104.231 53.1347C104.465 53.6089 104.827 54.009 105.28 54.2929C105.732 54.5767 106.258 54.734 106.803 54.7482L114.865 54.9375L121.39 59.3549C121.832 59.6593 122.354 59.8382 122.901 59.873C123.448 59.9078 123.998 59.7971 124.495 59.5524C124.991 59.3078 125.414 58.9382 125.72 58.4834C126.025 58.0285 126.201 57.5054 126.229 56.9691L126.698 49.104L131.468 42.5886C131.788 42.1479 131.984 41.6347 132.034 41.1029C132.085 40.5711 131.988 40.0401 131.754 39.566C131.52 39.0919 131.158 38.6921 130.706 38.4082C130.253 38.1243 129.727 37.9671 129.182 37.9528L121.1 37.7486L114.58 33.3413C114.126 33.0296 113.588 32.8503 113.026 32.823C112.465 32.7957 111.901 32.9216 111.399 33.1868L111.41 33.1816ZM115.493 41.281L118.249 43.1443C118.723 43.4663 119.288 43.6446 119.873 43.6574L123.277 43.7391L121.259 46.4687C120.913 46.941 120.711 47.4971 120.677 48.0695L120.477 51.3902L117.711 49.5317C117.24 49.2143 116.682 49.0378 116.102 49.0235L112.708 48.9619L114.711 46.2022C115.053 45.7303 115.252 45.1762 115.283 44.6066L115.493 41.281ZM89.1613 57.2739C88.7989 57.4509 88.4738 57.6951 88.2045 57.9922C87.9351 58.2893 87.7268 58.6336 87.5916 59.0054C87.4564 59.3772 87.3969 59.769 87.4165 60.1586C87.4361 60.5482 87.5345 60.9279 87.706 61.2756C87.8784 61.6219 88.12 61.9293 88.4171 62.1807C88.7142 62.432 89.0611 62.6225 89.4376 62.7407C89.8142 62.8588 90.2132 62.9024 90.6119 62.8694C91.0106 62.8363 91.4013 62.7273 91.7614 62.5481C92.4883 62.1897 93.049 61.5689 93.3207 60.8218C93.5925 60.0746 93.5531 59.2619 93.2113 58.5615C92.8658 57.8609 92.2451 57.3316 91.4856 57.0902C90.7261 56.8487 89.8899 56.9147 89.1613 57.2739Z" fill="#555B47"/>
<path d="M193.143 230.052C193.016 230.571 193.021 231.113 193.159 231.624C193.297 232.135 193.562 232.597 193.929 232.964L199.546 238.503L201.303 246.385C201.423 246.916 201.68 247.401 202.047 247.79C202.414 248.178 202.877 248.455 203.387 248.592C203.898 248.728 204.438 248.72 204.95 248.566C205.461 248.413 205.926 248.121 206.296 247.721L211.755 241.771L219.387 239.778C219.908 239.646 220.387 239.371 220.773 238.982C221.16 238.594 221.439 238.107 221.582 237.572C221.725 237.038 221.726 236.476 221.586 235.947C221.445 235.417 221.167 234.94 220.782 234.566L215.171 229.004L213.405 221.157C213.285 220.625 213.028 220.14 212.661 219.751C212.294 219.363 211.831 219.086 211.321 218.949C210.81 218.813 210.271 218.821 209.759 218.975C209.247 219.128 208.782 219.42 208.412 219.82L202.963 225.737L195.324 227.752C194.793 227.893 194.308 228.182 193.921 228.587C193.534 228.992 193.261 229.498 193.133 230.049L193.143 230.052ZM201.905 232.312L205.125 231.457C205.675 231.312 206.175 231.008 206.568 230.581L208.873 228.075L209.628 231.4C209.755 231.966 210.037 232.479 210.44 232.879L212.803 235.229L209.592 236.051C209.043 236.196 208.542 236.5 208.149 236.926L205.834 239.429L205.089 236.107C204.959 235.539 204.673 235.025 204.266 234.626L201.905 232.312ZM212.451 203.353C212.346 203.741 212.315 204.145 212.36 204.543C212.406 204.94 212.527 205.323 212.716 205.67C212.905 206.016 213.16 206.319 213.464 206.561C213.769 206.803 214.118 206.98 214.491 207.082C214.866 207.182 215.257 207.204 215.643 207.148C216.029 207.091 216.402 206.956 216.74 206.751C217.078 206.545 217.375 206.274 217.614 205.952C217.853 205.63 218.028 205.263 218.131 204.873C218.341 204.088 218.243 203.255 217.858 202.558C217.473 201.86 216.832 201.354 216.078 201.153C215.324 200.954 214.519 201.074 213.84 201.487C213.16 201.899 212.661 202.57 212.451 203.353ZM229.46 207.989C229.459 207.993 229.458 207.996 229.457 208C229.332 208.525 229.343 209.072 229.489 209.585C229.634 210.099 229.909 210.561 230.285 210.924L235.87 216.455L237.651 224.33C237.772 224.862 238.029 225.347 238.396 225.736C238.762 226.124 239.225 226.401 239.736 226.538C240.246 226.674 240.786 226.666 241.298 226.512C241.81 226.359 242.275 226.067 242.644 225.667L248.1 219.728L255.722 217.732C256.242 217.6 256.721 217.325 257.108 216.937C257.494 216.548 257.774 216.061 257.917 215.527C258.06 214.992 258.061 214.43 257.92 213.901C257.779 213.371 257.502 212.894 257.117 212.52L251.511 206.984L249.754 199.103C249.633 198.571 249.376 198.086 249.009 197.697C248.643 197.309 248.18 197.032 247.669 196.895C247.158 196.759 246.619 196.767 246.107 196.921C245.595 197.074 245.13 197.366 244.761 197.766L239.28 203.711L231.669 205.71C231.135 205.846 230.646 206.132 230.255 206.537C229.865 206.941 229.588 207.448 229.457 208L229.46 207.989ZM238.243 210.255L241.46 209.411C242.015 209.266 242.521 208.959 242.916 208.527L245.221 206.021L245.944 209.338C246.071 209.909 246.356 210.428 246.764 210.83L249.13 213.169L245.91 214.025C245.361 214.17 244.86 214.473 244.467 214.9L242.184 217.412L241.428 214.087C241.299 213.519 241.013 213.004 240.605 212.605L238.243 210.255ZM232.917 240.6C232.812 240.989 232.781 241.395 232.827 241.793C232.873 242.191 232.995 242.575 233.185 242.922C233.376 243.268 233.631 243.571 233.937 243.813C234.243 244.055 234.594 244.232 234.968 244.332C235.342 244.43 235.733 244.451 236.117 244.393C236.502 244.336 236.874 244.2 237.211 243.995C237.548 243.789 237.844 243.518 238.082 243.196C238.32 242.875 238.495 242.509 238.598 242.12C238.807 241.337 238.71 240.506 238.327 239.81C237.944 239.113 237.307 238.607 236.555 238.402C235.8 238.201 234.993 238.319 234.311 238.731C233.629 239.143 233.127 239.815 232.917 240.6Z" fill="#555B47"/>
<line x1="82.1299" y1="101.845" x2="44.7518" y2="101.845" stroke="#555B47" stroke-width="5" stroke-linecap="round"/>
<path d="M57.5356 120.187L2.99989 120.187" stroke="#555B47" stroke-width="5" stroke-linecap="round"/>
<path d="M70.3882 141.029L45.7255 141.029" stroke="#555B47" stroke-width="5" stroke-linecap="round"/>
<path d="M79.4194 161.871L28.3573 161.871" stroke="#555B47" stroke-width="5" stroke-linecap="round"/>
</svg>
