<svg width="73" height="59" viewBox="0 0 73 59" fill="none" xmlns="http://www.w3.org/2000/svg">
<line x1="4.83988" y1="5.96288" x2="66.9629" y2="46.1601" stroke="#D85F5F" stroke-opacity="0.7" stroke-width="7" stroke-linecap="round"/>
<path d="M45.2492 40.0857C45.4675 40.7317 45.1216 41.4321 44.4756 41.6503C43.8302 41.8691 43.1298 41.5227 42.9111 40.8772C42.6928 40.2318 43.0386 39.5309 43.6846 39.3127C44.3301 39.0939 45.0305 39.4402 45.2492 40.0857Z" fill="#F8F4EC"/>
<path d="M48.7624 45.7379C48.6927 45.5325 48.4694 45.4223 48.2639 45.4915L48.0841 45.5524L47.914 44.7563C47.8357 44.39 47.475 44.1569 47.1092 44.2353C47.0472 44.2486 46.9909 44.2722 46.9371 44.3004L46.2527 42.2773C46.5237 42.1431 46.9258 41.9064 47.3131 41.5334C47.6384 41.2179 47.9519 40.8004 48.1405 40.266C48.33 39.7332 48.3858 39.0882 48.2235 38.3566C48.1707 38.12 47.9366 37.9709 47.7004 38.0231C47.4637 38.0754 47.3146 38.3095 47.3669 38.5457C47.4955 39.1338 47.4468 39.5933 47.3131 39.974C47.1138 40.5421 46.6999 40.9509 46.3198 41.2184C46.1312 41.3511 45.954 41.4474 45.8269 41.5088C45.7639 41.5396 45.7127 41.5611 45.6794 41.5749C45.6625 41.5816 45.6502 41.5862 45.643 41.5893C45.6394 41.5908 45.6369 41.5918 45.6358 41.5923C45.6297 41.5944 45.6246 41.598 45.6189 41.6005C45.6056 41.6036 45.5928 41.6051 45.5795 41.6098L43.5728 42.2891C43.56 42.2932 43.5492 42.2998 43.5369 42.3055C43.5303 42.3075 43.5236 42.3075 43.517 42.3096L43.5159 42.3101C43.4739 42.3249 42.8628 42.4991 42.1865 42.4013C41.8479 42.3531 41.4959 42.2419 41.1706 42.0211C40.8458 41.7993 40.5395 41.4689 40.2925 40.9402C40.1901 40.7209 39.9293 40.6251 39.7096 40.7271C39.4898 40.829 39.3945 41.0903 39.4964 41.3101C39.8105 41.9904 40.247 42.4684 40.7213 42.7773C41.435 43.242 42.2029 43.327 42.7797 43.305C43.0451 43.2948 43.271 43.2615 43.4426 43.2282L44.127 45.2518C44.0671 45.262 44.0082 45.2774 43.9508 45.3045C43.6127 45.4644 43.4677 45.8691 43.6281 46.2072L43.9764 46.9429L43.7966 47.0038C43.5907 47.0735 43.481 47.2969 43.5502 47.5023C43.6199 47.7082 43.8427 47.8184 44.0487 47.7487L44.315 47.6585L45.1818 49.4905C45.3422 49.8292 45.7464 49.9736 46.085 49.8138C46.4231 49.6534 46.5676 49.2492 46.4078 48.9106L45.6086 47.221L46.9564 46.7651L47.3473 48.593C47.4256 48.9593 47.7863 49.1924 48.1526 49.114C48.5184 49.0357 48.752 48.6755 48.6736 48.3092L48.2499 46.3272L48.5163 46.237C48.7212 46.1668 48.8314 45.9435 48.7622 45.738L48.7624 45.7379Z" fill="#F8F4EC"/>
<path d="M59.1165 6.90756C59.4403 7.04126 59.7635 7.17805 60.0858 7.32149C60.8721 7.67088 61.7748 7.44649 62.1113 6.77948C62.3624 6.28204 62.1959 5.66319 61.7399 5.2242C61.9008 4.5951 61.4925 3.85436 60.7302 3.51574C41.3597 -5.09908 18.5623 2.61512 8.40232 21.222C8.00222 21.954 8.12825 22.7901 8.63798 23.1927C8.54269 23.8187 8.78603 24.411 9.28706 24.6544C9.95919 24.9802 10.8127 24.6098 11.2255 23.8552C11.3946 23.5457 11.5678 23.2409 11.744 22.9382L22.6574 26.1201L38.9486 38.3117L38.7718 38.4505L41.9188 41.9531L42.2703 41.6124L39.6949 37.7236L39.5494 37.8384L32.9716 19.0226L31.698 6.31468C31.9419 6.22656 32.1858 6.1405 32.4306 6.05751C32.676 5.97452 32.9224 5.89511 33.1694 5.81674L39.8737 16.6872L46.0731 35.6314L45.8876 35.6289L46.2027 40.2825L46.6889 40.3399L47.0623 35.6457L46.8374 35.6426L52.3774 16.0649L59.1165 6.90756ZM40.4739 4.27333C41.0348 4.21134 41.5973 4.16114 42.1614 4.12425L45.8612 15.7088L46.2331 34.6098L40.3228 16.5494L40.4739 4.27333ZM15.9703 17.0474C16.4605 16.4864 16.9662 15.9429 17.4846 15.4158L27.2433 22.1637L38.3048 37.243L22.9304 25.7369L15.9703 17.0474ZM23.1219 10.699L26.9421 21.3835L17.8206 15.0766C19.4635 13.448 21.2386 11.9849 23.1219 10.699ZM27.6198 21.8824L23.5245 10.43C23.9953 10.117 24.4722 9.8153 24.9558 9.52379L32.5301 19.1852L38.8021 37.1248L27.6198 21.8824ZM46.0972 14.9018L42.6444 4.09287C44.9215 3.97146 47.2208 4.05598 49.5148 4.3521L46.0972 14.9018ZM46.3313 15.7046L49.9876 4.41721C50.7202 4.52121 51.4517 4.64621 52.1817 4.79426L51.9286 15.9228L46.6991 34.4028L46.3313 15.7046ZM52.4144 15.2189L52.6495 4.89313C54.6751 5.33063 56.6869 5.93924 58.6659 6.72618L52.4144 15.2189ZM11.9921 22.5196C13.0863 20.6927 14.3153 18.9878 15.6591 17.41L22.1155 25.4715L11.9921 22.5196ZM32.4249 18.2891L25.3623 9.27989C27.2419 8.17948 29.2102 7.24552 31.2419 6.48277L32.4249 18.2891ZM33.6328 5.67385C35.7102 5.04629 37.8408 4.59342 40.0027 4.32605L39.8618 15.7722L33.6328 5.67385Z" fill="#F8F4EC"/>
</svg>
