<svg width="33" height="55" viewBox="0 0 33 55" fill="none" xmlns="http://www.w3.org/2000/svg">
<path d="M5.30001 45.3352C5.30001 45.3407 5.29767 45.3465 5.29767 45.3516L5.33478 45.7832V45.7844C5.33517 45.7868 5.33478 45.7879 5.33478 45.7887L5.38165 46.22C5.38165 46.22 5.38204 46.2211 5.38282 46.2211C5.38282 46.2223 5.38243 46.2235 5.38243 46.2247L5.43947 46.6547C5.43947 46.6559 5.43986 46.6559 5.43986 46.6571C5.44025 46.6582 5.43986 46.6582 5.43986 46.6594L5.50743 47.0883L5.50861 47.0895V47.093L5.58634 47.5196C5.58634 47.5207 5.58751 47.5207 5.58751 47.5219C5.58751 47.5219 5.58712 47.5231 5.58751 47.5243L5.67501 47.95C5.67501 47.95 5.6754 47.9512 5.67618 47.9512C5.67618 47.9524 5.67579 47.9536 5.67618 47.9547L5.77462 48.3782L5.77501 48.3793C5.77501 48.3805 5.77462 48.3805 5.77501 48.3817L5.88204 48.8016C5.88243 48.8028 5.88321 48.8028 5.88321 48.8039C5.8836 48.8051 5.88321 48.8063 5.8836 48.8075L6.00157 49.2243C6.00157 49.2254 6.00157 49.2254 6.00197 49.2254C6.00236 49.2266 6.00197 49.2278 6.00236 49.229L6.13047 49.6446C6.13047 49.6446 6.13087 49.6457 6.13165 49.6457V49.6481L6.26876 50.059C6.26915 50.059 6.26915 50.059 6.26915 50.0602C6.26954 50.0614 6.26954 50.0625 6.27032 50.0637L6.4172 50.4727C6.41837 50.475 6.42072 50.4762 6.4215 50.4782C6.42267 50.4817 6.42267 50.4848 6.42384 50.4883L6.5297 50.7168C6.53009 50.718 6.53087 50.718 6.53126 50.7192C6.53165 50.7204 6.53165 50.7204 6.53165 50.7215L6.64415 50.9477C6.64415 50.9489 6.64572 50.95 6.6465 50.9512C6.64689 50.9524 6.6465 50.9524 6.6465 50.9536L6.76564 51.1754L6.76915 51.179V51.1813L6.89571 51.4004C6.8961 51.4016 6.89727 51.4016 6.89806 51.4028C6.89845 51.404 6.89806 51.4051 6.89845 51.4051L7.03048 51.6196C7.03087 51.6207 7.03282 51.6219 7.03321 51.6231C7.0336 51.6231 7.03321 51.6243 7.0336 51.6243L7.17266 51.8352C7.17305 51.8364 7.17501 51.8375 7.1754 51.8387C7.17579 51.8387 7.1754 51.8399 7.17579 51.8411L7.32149 52.0465L7.325 52.05C7.32539 52.05 7.325 52.0512 7.32539 52.0524L7.47773 52.2536C7.47891 52.2547 7.48008 52.2547 7.48047 52.2559C7.48086 52.2559 7.48047 52.2571 7.48086 52.2583L7.63867 52.4555C7.63906 52.4567 7.64101 52.4567 7.6414 52.4579C7.64179 52.4579 7.6414 52.459 7.64258 52.4602L7.80663 52.6516C7.80781 52.6528 7.80898 52.654 7.81015 52.6551C7.81015 52.6551 7.81015 52.6563 7.81054 52.6563L7.98007 52.8434C7.98046 52.8446 7.98242 52.8434 7.98281 52.8446C7.98398 52.8458 7.9832 52.8469 7.98437 52.8481L8.16015 53.0293C8.16132 53.0305 8.16288 53.0293 8.16405 53.0305C8.16523 53.0317 8.16523 53.034 8.1664 53.0348L8.33828 53.1965C8.33984 53.1989 8.34258 53.1977 8.34375 53.1989C8.34609 53.2012 8.34492 53.2032 8.34726 53.2044L8.52851 53.3571C8.53008 53.3583 8.53281 53.3571 8.53398 53.3594C8.53633 53.3606 8.53554 53.3629 8.5375 53.3637L8.72852 53.5059C8.73008 53.5071 8.73242 53.5059 8.73477 53.5083C8.73594 53.5083 8.73594 53.5106 8.7375 53.5118L8.93555 53.6419C8.93789 53.6442 8.94063 53.643 8.94297 53.6442C8.94414 53.6454 8.94414 53.6477 8.94571 53.6485L9.15118 53.7665C9.15235 53.7665 9.15391 53.7665 9.15508 53.7676C9.15743 53.7688 9.1586 53.7712 9.16055 53.7719L9.37266 53.8778C9.37501 53.879 9.37696 53.8778 9.3793 53.879C9.38087 53.8801 9.38204 53.8813 9.3836 53.8825L9.60196 53.9754C9.60352 53.9754 9.60469 53.9754 9.60626 53.9766C9.6086 53.9766 9.61016 53.979 9.61251 53.9801L9.83556 54.0602C9.83712 54.0614 9.83946 54.0614 9.84181 54.0614C9.84337 54.0626 9.84454 54.0637 9.84571 54.0637L10.0731 54.1313C10.0754 54.1313 10.0774 54.1313 10.0805 54.1325C10.082 54.1325 10.0832 54.1337 10.0844 54.1337L10.3156 54.1876C10.3184 54.1887 10.3207 54.1887 10.3231 54.1887C10.3246 54.1887 10.3254 54.1899 10.327 54.1899L10.5606 54.2301H10.5684C10.5695 54.2313 10.5707 54.2313 10.5719 54.2313L10.8082 54.2575C10.8117 54.2587 10.8148 54.2587 10.8188 54.2587H10.8211L11.0539 54.27H11.0625H11.0629H11.0668L11.3008 54.2645H11.302C11.3062 54.2645 11.3109 54.2645 11.3152 54.2633L11.5477 54.2403C11.5492 54.2403 11.5512 54.2391 11.5527 54.2391C11.5555 54.2391 11.5578 54.2391 11.5613 54.2379L11.791 54.2001C11.7934 54.2001 11.7945 54.1989 11.7953 54.1977C11.7988 54.1977 11.802 54.1977 11.8047 54.1965L12.0316 54.1419C12.0332 54.1407 12.0344 54.1395 12.0359 54.1395C12.0387 54.1383 12.0414 54.1395 12.0449 54.1383L12.2668 54.0672C12.2691 54.0661 12.2707 54.0649 12.2723 54.0637C12.275 54.0626 12.2773 54.0637 12.2797 54.0626L12.4977 53.9762C12.5004 53.9751 12.502 53.9727 12.5051 53.9719C12.5074 53.9708 12.5094 53.9708 12.5117 53.9696L12.7219 53.8665C12.7242 53.8653 12.7254 53.8629 12.7274 53.8622C12.7297 53.861 12.7313 53.8622 12.7328 53.861L12.9352 53.7438C12.9375 53.7426 12.9375 53.7403 12.9391 53.7395C12.9418 53.7383 12.9445 53.7383 12.9477 53.7372L13.1414 53.6063C13.143 53.6051 13.143 53.602 13.1449 53.6008C13.1473 53.5997 13.1504 53.5997 13.1527 53.5985L13.3363 53.454C13.3379 53.4516 13.3375 53.4497 13.3398 53.4485C13.3414 53.4462 13.3441 53.4473 13.3465 53.445L13.5207 53.2887C13.523 53.2864 13.5219 53.2833 13.5242 53.2821C13.5266 53.2797 13.5297 53.2809 13.5316 53.2786L13.8141 52.9813C13.8156 52.979 13.8145 52.977 13.8164 52.9758C13.8187 52.9735 13.8219 52.9723 13.8242 52.9692L14.0824 52.6512C14.084 52.6501 14.0828 52.6477 14.084 52.6458C14.0863 52.6434 14.0894 52.6422 14.0918 52.6391L14.3238 52.3008C14.325 52.2997 14.3238 52.2973 14.325 52.2954C14.3266 52.293 14.3301 52.2919 14.3316 52.2887L14.5371 51.9344C14.5383 51.9321 14.5371 51.9301 14.5383 51.9278C14.5394 51.9254 14.5426 51.9243 14.5437 51.9211L14.7207 51.5516C14.7223 51.5481 14.7219 51.545 14.7234 51.5415C14.7238 51.5403 14.7262 51.5391 14.7273 51.5372L14.8742 51.154C14.8754 51.1504 14.8754 51.1473 14.8766 51.145C14.8766 51.1426 14.8789 51.1415 14.8801 51.1395L14.9961 50.7469C14.9973 50.7434 14.9961 50.7403 14.9973 50.7368C14.9977 50.7344 14.9996 50.7333 15 50.7325L15.0852 50.3309C15.0855 50.3274 15.0848 50.3243 15.0852 50.3208C15.0855 50.3196 15.0875 50.3184 15.0879 50.3165L15.1426 49.9106C15.1426 49.9071 15.1414 49.904 15.1414 49.8993C15.1414 49.8981 15.1438 49.8969 15.1438 49.895L15.1656 49.486C15.1656 49.4825 15.1641 49.4805 15.1645 49.477C15.1645 49.4747 15.1656 49.4727 15.1656 49.4704L15.1543 49.0606C15.1543 49.0594 15.1527 49.0583 15.1527 49.0563C15.1527 49.0528 15.1543 49.0497 15.1539 49.0462L15.1117 48.638V48.6368V48.6356L15.0535 48.1356C15.0535 48.1333 15.0523 48.1321 15.0523 48.1313C15.0523 48.1301 15.0527 48.129 15.0523 48.127L14.9723 47.6301C14.9723 47.6278 14.9711 47.6266 14.9711 47.6258C14.9707 47.6235 14.9711 47.6223 14.9711 47.6215L14.868 47.1282C14.8676 47.127 14.8664 47.1258 14.8656 47.1247V47.1204L14.7406 46.6325C14.7402 46.6301 14.7391 46.629 14.7383 46.6282V46.6239L14.5906 46.1419C14.5902 46.1407 14.5883 46.1407 14.5883 46.1395C14.5879 46.1372 14.5883 46.136 14.5871 46.134L14.4176 45.659C14.4176 45.6579 14.416 45.6567 14.4152 45.6547C14.4148 45.6536 14.4152 45.6524 14.4141 45.6512L14.2227 45.1852C14.2227 45.184 14.2215 45.1829 14.2203 45.1817C14.2203 45.1793 14.2203 45.1782 14.2191 45.1762L14.007 44.7192C14.007 44.718 14.0059 44.718 14.0047 44.7168C14.0043 44.7157 14.0043 44.7133 14.0035 44.7114L13.7715 44.2649C13.7703 44.2637 13.768 44.2637 13.7676 44.2614C13.7664 44.2602 13.7676 44.2579 13.7672 44.2571L13.5137 43.8219C13.5125 43.8208 13.5102 43.8208 13.5098 43.8196C13.5094 43.8184 13.5098 43.8161 13.5094 43.8153L13.2371 43.3918C13.2359 43.3907 13.2336 43.3907 13.2328 43.3895C13.2316 43.3872 13.2328 43.386 13.2316 43.384L12.9398 42.9751C12.9387 42.9739 12.9363 42.9739 12.9359 42.9727C12.9078 42.9356 12.8687 42.9118 12.8238 42.9016C12.8195 42.9004 12.816 42.8981 12.8121 42.8981C12.7848 42.8938 12.7566 42.8946 12.7293 42.9024L5.43629 45.1563C5.43082 45.1586 5.42613 45.1629 5.42105 45.1653C5.40933 45.1708 5.398 45.1766 5.38746 45.1836C5.37691 45.1903 5.36832 45.1965 5.35933 45.2055C5.35035 45.2145 5.3441 45.2239 5.33707 45.234C5.32964 45.2442 5.32457 45.2536 5.31988 45.2649C5.3148 45.2766 5.31207 45.2879 5.30933 45.2997C5.30855 45.3051 5.30001 45.3227 5.30001 45.3352Z" fill="#F8F4EC"/>
<path d="M27.976 24.894C27.9916 24.8979 28.0072 24.8994 28.0229 24.8994C28.0693 24.8994 28.1115 24.8799 28.1455 24.8502C28.1482 24.8475 28.1522 24.8487 28.1557 24.8459L28.2861 24.7194C28.2865 24.719 28.2865 24.717 28.2877 24.7166C28.2881 24.7155 28.2893 24.7162 28.29 24.7155L28.417 24.5854C28.4182 24.5842 28.4174 24.583 28.4182 24.5819C28.4193 24.5819 28.4205 24.5819 28.4217 24.5807L28.5447 24.4475C28.5443 24.4467 28.5443 24.4455 28.5443 24.4455C28.5455 24.4444 28.5467 24.4444 28.5479 24.4432L28.667 24.3053C28.667 24.3049 28.667 24.3037 28.6674 24.303C28.6678 24.3018 28.6689 24.3018 28.6701 24.3006L28.785 24.1596C28.7861 24.1584 28.7854 24.158 28.7861 24.1572C28.7865 24.1561 28.7885 24.1557 28.7896 24.1545L28.8998 24.0096V24.0073C28.901 24.0061 28.9022 24.0061 28.9025 24.0049L29.0088 23.8572V23.8549C29.01 23.8537 29.0111 23.8537 29.0123 23.8526L29.1143 23.7014C29.1146 23.7002 29.1143 23.699 29.1146 23.699C29.115 23.6979 29.1162 23.6975 29.1174 23.6963L29.2143 23.5428C29.2146 23.5416 29.2143 23.5404 29.2146 23.5393C29.215 23.5381 29.217 23.5381 29.217 23.5369L29.31 23.3803V23.378C29.3104 23.3768 29.3123 23.3764 29.3123 23.3752L29.4002 23.2162C29.4006 23.2158 29.3998 23.2147 29.4006 23.2135C29.4006 23.2123 29.4021 23.2123 29.4029 23.2112L29.4857 23.0487C29.4869 23.0459 29.4846 23.0436 29.4857 23.0408C29.4881 23.0369 29.4912 23.0358 29.4932 23.0322L29.7736 22.3268C29.774 22.3256 29.7736 22.3256 29.774 22.3244C29.7744 22.3244 29.7744 22.324 29.7744 22.3233L30.0439 21.6131C30.0443 21.6127 30.0439 21.6119 30.0443 21.6108C30.0443 21.6108 30.0447 21.6108 30.0447 21.6096L30.3021 20.8955V20.8944C30.3025 20.8932 30.3033 20.8932 30.3033 20.8932L30.549 20.1748C30.5494 20.1744 30.549 20.1737 30.5494 20.1725C30.5494 20.1725 30.5498 20.1725 30.5498 20.1713L30.785 19.4494V19.4471C30.785 19.4471 30.7854 19.4471 30.7854 19.4467L31.0084 18.7209C31.0088 18.7197 31.0084 18.7197 31.0088 18.7186V18.7174L31.2205 17.9881C31.2209 17.9877 31.2205 17.9865 31.2209 17.9865V17.9854L31.4201 17.2522C31.4205 17.251 31.4201 17.2506 31.4201 17.2498C31.4205 17.2494 31.4205 17.2494 31.4205 17.2486L31.6088 16.5135V16.5119C31.6088 16.5108 31.61 16.5108 31.61 16.5108L31.7854 15.7717C31.7857 15.7717 31.7854 15.7705 31.7854 15.7701C31.7854 15.7697 31.7857 15.7697 31.7857 15.7697L31.9498 15.0283V15.026C31.9498 15.026 31.951 15.0256 31.951 15.0248L32.1029 14.2807C32.1033 14.2768 32.1018 14.2729 32.1029 14.269C32.1029 14.2666 32.1053 14.2654 32.1053 14.2639L32.1799 13.6139V13.6115C32.1799 13.6104 32.1811 13.6104 32.1811 13.6092L32.242 12.9572V12.9537V12.9526L32.29 12.2994C32.29 12.2983 32.2896 12.2971 32.29 12.2967V12.2951L32.3248 11.6412C32.3248 11.6401 32.3244 11.6389 32.3244 11.6377C32.3244 11.6377 32.3248 11.6373 32.3248 11.6365L32.3451 10.9826V10.9799C32.3451 10.9795 32.3455 10.9787 32.3455 10.9783L32.3521 10.3233C32.3521 10.3221 32.3518 10.3221 32.3518 10.3209C32.3518 10.3209 32.3521 10.3197 32.3521 10.3193L32.3455 9.66427C32.3455 9.66388 32.3451 9.6631 32.3451 9.6627V9.66036L32.3248 9.00528C32.3248 9.00489 32.3244 9.00411 32.3244 9.00372C32.3244 9.00333 32.3248 9.00216 32.3248 9.00137L32.29 8.34668V8.34512V8.34278L32.242 7.68926V7.68809V7.68574L32.1811 7.03262C32.1811 7.03223 32.1799 7.03145 32.1799 7.03028V7.02911L32.1053 6.37794C32.1053 6.3752 32.1029 6.37286 32.1025 6.36934C32.1021 6.36583 32.1029 6.3627 32.1025 6.35997L32.0338 6.03028L32.0334 6.02911V6.02676L31.9604 5.70449C31.9604 5.7041 31.96 5.70332 31.9592 5.70293C31.9592 5.70254 31.9596 5.70137 31.9592 5.70059L31.8775 5.37403C31.8775 5.37285 31.8771 5.37285 31.8771 5.37246C31.8768 5.37207 31.8771 5.3709 31.8768 5.37012L31.7889 5.0459C31.7885 5.04473 31.7885 5.04473 31.7885 5.04356C31.7881 5.04316 31.7885 5.04238 31.7881 5.04121L31.6928 4.71855C31.6924 4.71816 31.6924 4.71738 31.6924 4.71699C31.692 4.7166 31.6924 4.71543 31.692 4.71543L31.59 4.39395C31.5896 4.39395 31.5896 4.39356 31.5896 4.39277C31.5893 4.3916 31.5896 4.39121 31.5893 4.39043L31.4818 4.07129C31.4814 4.0709 31.4807 4.07012 31.4807 4.06973C31.4803 4.06934 31.4807 4.06856 31.4803 4.06817L31.3662 3.75176C31.3662 3.75137 31.365 3.75058 31.365 3.75019V3.74785L31.2436 3.43379C31.2436 3.43262 31.2424 3.43262 31.2424 3.43145L31.2404 3.43027L31.1127 3.11777C31.1123 3.11738 31.1123 3.11738 31.1123 3.11621C31.1119 3.11582 31.1119 3.11504 31.1111 3.11387L30.9779 2.80528C30.9779 2.80411 30.9776 2.80411 30.9768 2.80411V2.80137L30.8369 2.49512C30.8319 2.48457 30.824 2.47715 30.8174 2.46817C30.8151 2.46465 30.8174 2.46036 30.8147 2.45762L30.36 1.86778C30.3565 1.86348 30.351 1.86388 30.3475 1.86036C30.3436 1.85606 30.3451 1.8502 30.3412 1.8463L29.8053 1.32989C29.8018 1.32637 29.7951 1.32754 29.792 1.32442C29.7885 1.3209 29.7885 1.31543 29.7842 1.3127L29.1776 0.88184C29.1733 0.879105 29.1674 0.88184 29.1635 0.878324C29.1592 0.87598 29.1592 0.86934 29.1533 0.866996L28.4904 0.528716C28.4881 0.527154 28.485 0.528716 28.4819 0.527544C28.4756 0.52481 28.4713 0.519732 28.4651 0.517388L27.7604 0.282228C27.7561 0.280666 27.751 0.281838 27.7463 0.280666C27.742 0.279494 27.7377 0.276369 27.7334 0.275197L27.0002 0.145117C26.9967 0.143945 26.9947 0.147461 26.9916 0.14668C26.9842 0.145508 26.9791 0.142383 26.9721 0.141601L26.2291 0.120898C26.2268 0.120117 26.2248 0.120117 26.2236 0.120117C26.2201 0.120117 26.2194 0.122851 26.2162 0.122851C26.2108 0.122851 26.2057 0.120508 26.2006 0.12168L25.4619 0.209961C25.4569 0.210351 25.4529 0.213867 25.4487 0.215039C25.4444 0.215429 25.4393 0.213867 25.4346 0.21543L24.7174 0.41191C24.7131 0.413081 24.7096 0.416206 24.7049 0.41816C24.7006 0.419722 24.6955 0.419331 24.6916 0.420894L24.01 0.720504C24.0033 0.72402 23.9994 0.729098 23.9936 0.732223C23.9912 0.733395 23.9881 0.731832 23.985 0.733395L23.3557 1.12987C23.3506 1.13261 23.3514 1.13925 23.3467 1.14159C23.3424 1.14394 23.3361 1.14277 23.3319 1.14667L22.7674 1.63105C22.7635 1.63457 22.7639 1.64004 22.7608 1.64277C22.7572 1.64551 22.7522 1.64511 22.749 1.64824L22.4479 1.98535C22.4467 1.98652 22.4475 1.98808 22.4463 1.98926C22.4451 1.99043 22.4436 1.98965 22.4424 1.99082L22.1541 2.33965C22.1537 2.34082 22.1537 2.34199 22.153 2.34316C22.1518 2.34434 22.1502 2.34434 22.149 2.34551L21.8748 2.70567C21.8744 2.70684 21.8748 2.70801 21.8744 2.70918C21.8733 2.71036 21.8717 2.71036 21.8705 2.71153L21.61 3.08106C21.6088 3.08223 21.61 3.0834 21.6088 3.08496C21.6084 3.08614 21.6065 3.08614 21.6053 3.08731L21.3596 3.46583C21.3592 3.467 21.3596 3.46934 21.3592 3.47012C21.3588 3.4713 21.3565 3.4713 21.3557 3.47247L21.124 3.86114C21.1229 3.86153 21.124 3.8627 21.1237 3.86387C21.1233 3.86504 21.1209 3.86622 21.1201 3.86739L20.9041 4.26544C20.9037 4.26583 20.9041 4.26661 20.9041 4.26778C20.9029 4.26895 20.9018 4.27013 20.9006 4.27169L20.6994 4.67716C20.6994 4.67833 20.6994 4.6795 20.699 4.68067C20.6986 4.68224 20.6975 4.68302 20.6963 4.68419L20.5115 5.09747C20.5115 5.09864 20.5115 5.09981 20.5111 5.10138C20.5108 5.10255 20.5096 5.10294 20.5096 5.10411L20.3401 5.52364V5.52716C20.3389 5.52872 20.3377 5.5295 20.3377 5.53106L20.185 5.95684V5.96114C20.1846 5.96231 20.1834 5.9627 20.1826 5.96387L20.0471 6.39551V6.39786C20.0467 6.39903 20.0459 6.39903 20.0455 6.4002L19.9162 6.85332V6.85449C19.9162 6.85488 19.9158 6.85567 19.9158 6.85567L19.7928 7.30997V7.31114C19.7924 7.31231 19.7916 7.31231 19.7916 7.3127L19.6744 7.76817V7.76973C19.6744 7.77012 19.674 7.77012 19.674 7.7709L19.5631 8.22793V8.2295C19.5631 8.22989 19.5627 8.23067 19.5627 8.23067L19.458 8.68926V8.69082V8.69199L19.3596 9.15176V9.15294C19.3596 9.15333 19.3592 9.15333 19.3592 9.1545L19.2678 9.61583V9.617C19.2678 9.61739 19.2666 9.61817 19.2666 9.61817L19.1822 10.0807V10.0818C19.1822 10.0822 19.1818 10.083 19.1818 10.083L19.1029 10.5471V10.5486V10.5498L19.0303 11.0146V11.0158C19.0303 11.017 19.0299 11.017 19.0299 11.017L18.9643 11.483V11.4854C18.9643 11.4854 18.9639 11.4854 18.9639 11.4865L18.9045 11.9529C18.9045 11.9541 18.9049 11.9553 18.9049 11.9565C18.9049 11.9568 18.9045 11.958 18.9045 11.9592L18.8666 12.3561C18.8662 12.3572 18.8666 12.3588 18.8666 12.3604C18.8666 12.3619 18.8654 12.3639 18.8654 12.3647L18.8459 12.7635C18.8459 12.7651 18.8471 12.7662 18.8471 12.7678C18.8471 12.7694 18.8459 12.7705 18.8459 12.7729L18.8447 13.1721C18.8447 13.1736 18.8459 13.1756 18.8459 13.1764C18.8459 13.1787 18.8455 13.1799 18.8455 13.1807L18.8635 13.5799C18.8635 13.5811 18.8647 13.5811 18.8647 13.5822C18.8647 13.5846 18.8635 13.5865 18.8643 13.5889L18.9006 13.9858C18.9006 13.9869 18.9022 13.9873 18.9022 13.9893C18.9025 13.9908 18.9018 13.9928 18.9018 13.9947L18.9576 14.3901C18.9576 14.3912 18.9588 14.3916 18.9588 14.3928C18.9592 14.3951 18.9584 14.3971 18.9588 14.3994L19.0334 14.7916C19.0334 14.7928 19.0346 14.7932 19.0346 14.7944C19.0357 14.7967 19.0346 14.7987 19.035 14.8006L19.1275 15.1885C19.1275 15.1901 19.1291 15.1901 19.1299 15.1912V15.1975L19.2408 15.5811C19.2412 15.5822 19.2424 15.5826 19.2424 15.5838C19.2428 15.5854 19.2424 15.5877 19.2436 15.5901L19.3717 15.9682C19.3728 15.9697 19.374 15.9697 19.3744 15.9709C19.3748 15.9733 19.3744 15.9752 19.3748 15.9764L19.5217 16.3483C19.5221 16.3494 19.5232 16.3494 19.524 16.3506C19.5244 16.3529 19.524 16.3545 19.5252 16.3561L19.9064 17.2072L20.0963 17.6928L20.2643 18.1947L20.4072 18.7026L20.5232 19.2111L20.6158 19.7318L20.6815 20.2506L20.7225 20.7818L20.7365 21.3037L20.7252 21.8264L20.6889 22.3529L20.6252 22.8811C20.624 22.89 20.6275 22.8983 20.6275 22.9072C20.6279 22.919 20.6279 22.9318 20.6311 22.9443C20.6338 22.9561 20.6389 22.9674 20.6428 22.9783C20.6482 22.9897 20.6529 23.0002 20.6592 23.0104C20.6666 23.0209 20.6744 23.0287 20.6834 23.0377C20.6924 23.0467 20.7006 23.0541 20.7107 23.0611C20.7221 23.0686 20.7326 23.0729 20.7447 23.0768C20.7537 23.0803 20.76 23.0861 20.769 23.0885L27.976 24.894Z" fill="#F8F4EC"/>
<path d="M17.715 31.9455C17.715 31.9483 17.7161 31.9498 17.7161 31.953C17.7161 31.9557 17.7146 31.958 17.715 31.9616L17.7368 32.3705C17.7368 32.3729 17.7384 32.3733 17.7392 32.3748C17.7392 32.3787 17.7376 32.3823 17.738 32.3862L17.7919 32.792C17.7923 32.7944 17.7943 32.7955 17.7947 32.7975C17.795 32.801 17.7943 32.8037 17.795 32.8069L17.8802 33.2076C17.8802 33.2092 17.8825 33.21 17.8829 33.2119C17.8833 33.2155 17.8825 33.2186 17.8833 33.2225L18.0005 33.6151C18.0009 33.6166 18.0033 33.6178 18.004 33.6201C18.0052 33.6237 18.0044 33.6264 18.0056 33.6291L18.1529 34.0123C18.154 34.0147 18.1556 34.0158 18.1564 34.0174C18.1579 34.0201 18.1576 34.0237 18.1591 34.0268L18.3357 34.3963C18.3372 34.3998 18.3408 34.4006 18.3423 34.403C18.3435 34.4053 18.3419 34.4072 18.3427 34.4096L18.5478 34.7651C18.5493 34.7678 18.5529 34.7686 18.5544 34.7717C18.556 34.774 18.5544 34.776 18.556 34.7783L18.7884 35.1155C18.7908 35.1178 18.7939 35.119 18.7958 35.1209C18.7974 35.1233 18.7962 35.1252 18.7974 35.1264L19.0556 35.4455C19.0579 35.449 19.0611 35.4498 19.0642 35.4522C19.0657 35.4537 19.0646 35.4561 19.0657 35.4576L19.3482 35.7537C19.3505 35.7553 19.3536 35.7549 19.3556 35.7565C19.3572 35.758 19.3568 35.7615 19.3591 35.7639L19.5325 35.9213C19.5349 35.9229 19.538 35.9225 19.54 35.9236C19.5423 35.926 19.5415 35.9291 19.5439 35.9303L19.7275 36.0737C19.7298 36.076 19.7325 36.0748 19.7349 36.076C19.7364 36.0776 19.7364 36.0803 19.7384 36.0815L19.9322 36.2123C19.9349 36.2139 19.9384 36.2135 19.9407 36.2147C19.9431 36.2162 19.9431 36.219 19.9447 36.2201L20.1474 36.3362C20.1486 36.3373 20.1509 36.3373 20.1529 36.3385C20.1552 36.3397 20.1564 36.342 20.1583 36.3428L20.3689 36.4447C20.3704 36.4459 20.3732 36.4459 20.3751 36.4463C20.3779 36.4475 20.3794 36.4498 20.3818 36.4506L20.599 36.5369C20.6013 36.5373 20.604 36.5373 20.6064 36.5385C20.6079 36.5385 20.6099 36.5408 20.6118 36.5412L20.8337 36.6131C20.8365 36.6143 20.8392 36.6135 20.8415 36.6143C20.8439 36.6154 20.845 36.6166 20.847 36.617L21.0743 36.6725C21.0771 36.6737 21.0798 36.6729 21.0833 36.6737C21.0849 36.6737 21.0861 36.6748 21.0876 36.6752L21.3185 36.7139C21.322 36.7143 21.3259 36.7143 21.3298 36.7151C21.331 36.7151 21.331 36.7154 21.3322 36.7154L21.5646 36.7377C21.5708 36.7389 21.5771 36.7389 21.5829 36.7389H21.5833L21.8118 36.7444H21.8161H21.824L22.0579 36.7342C22.0579 36.7342 22.0583 36.7338 22.0591 36.7338C22.063 36.7334 22.0669 36.7334 22.0708 36.7334L22.306 36.7072C22.3072 36.7072 22.3083 36.7061 22.3087 36.7061C22.3115 36.7061 22.315 36.7061 22.3181 36.7049L22.5517 36.6647C22.5529 36.6647 22.5532 36.6643 22.5544 36.6635C22.5568 36.6635 22.5595 36.6635 22.5622 36.6631L22.7931 36.6092C22.7954 36.6088 22.7966 36.6076 22.7982 36.6069C22.7997 36.6065 22.8021 36.6065 22.8044 36.6065L23.0318 36.5397C23.0333 36.5385 23.0353 36.5373 23.0361 36.5369C23.0384 36.5365 23.0404 36.5365 23.0427 36.5358L23.2657 36.4553C23.2681 36.4549 23.2693 36.453 23.27 36.4518C23.2724 36.4518 23.2743 36.4518 23.2767 36.4506L23.4947 36.3576C23.497 36.3565 23.4974 36.3549 23.499 36.3541C23.5013 36.353 23.5025 36.3537 23.5044 36.353L23.7165 36.2471C23.7189 36.2459 23.72 36.2444 23.722 36.2432C23.7232 36.2428 23.7255 36.2428 23.7263 36.2416L23.9318 36.1237C23.9333 36.1233 23.9333 36.1209 23.9353 36.1197C23.9376 36.1186 23.9396 36.1194 23.9419 36.1182L24.14 35.9881C24.1415 35.9869 24.1411 35.9846 24.1427 35.9838C24.1451 35.9826 24.1478 35.9826 24.1493 35.9815L24.3396 35.8397C24.3411 35.8385 24.3411 35.8358 24.3423 35.8346C24.3447 35.8334 24.3466 35.8342 24.3478 35.8322L24.5298 35.6803C24.5314 35.6791 24.531 35.6768 24.5325 35.6748C24.5341 35.6736 24.5368 35.6748 24.538 35.6725L24.7111 35.5096C24.7122 35.5084 24.7115 35.5069 24.7134 35.5057C24.7146 35.5041 24.7169 35.5053 24.7177 35.5041L24.8923 35.3229C24.8935 35.3217 24.8927 35.3205 24.8935 35.3194C24.8947 35.319 24.8958 35.3194 24.8962 35.3182L25.0665 35.1322C25.0665 35.1322 25.0665 35.1311 25.0669 35.1299C25.0673 35.1287 25.0693 35.1287 25.0704 35.1276L25.2345 34.9361C25.2349 34.9358 25.2349 34.9346 25.2349 34.9338C25.2361 34.9326 25.2372 34.9326 25.2384 34.9315L25.3962 34.7342C25.3966 34.733 25.3962 34.7318 25.3966 34.7318C25.3978 34.7307 25.3989 34.7295 25.4001 34.7283L25.5521 34.526C25.5525 34.526 25.5521 34.5248 25.5525 34.5244C25.5529 34.524 25.554 34.5229 25.5552 34.5221L25.7009 34.3166C25.7013 34.3162 25.7009 34.315 25.7013 34.3143C25.7017 34.3131 25.7036 34.3127 25.704 34.3115L25.8435 34.1014C25.8439 34.1002 25.8435 34.099 25.8439 34.099C25.8443 34.0979 25.8462 34.0967 25.8466 34.0955L25.9794 33.8811V33.8775C25.9806 33.8772 25.9817 33.8764 25.9817 33.8752L26.1083 33.6572C26.1087 33.6561 26.1083 33.6549 26.1087 33.6545C26.1091 33.6533 26.111 33.6529 26.111 33.6518L26.231 33.4287C26.2314 33.4275 26.2306 33.4272 26.2314 33.4264C26.2314 33.4252 26.2329 33.424 26.2337 33.4229L26.3458 33.1979C26.3462 33.1967 26.3462 33.1955 26.347 33.1943C26.3474 33.1932 26.3482 33.1932 26.3485 33.192L26.454 32.9623C26.4552 32.9596 26.4552 32.9557 26.4564 32.9529C26.4575 32.9506 26.4599 32.9502 26.4603 32.9479L26.6075 32.5397C26.6079 32.5385 26.6075 32.5373 26.6079 32.5369C26.6083 32.5365 26.6091 32.5365 26.6095 32.5354L26.7474 32.1244V32.1209C26.7474 32.1209 26.7485 32.1205 26.7485 32.1197L26.8767 31.7049V31.7022C26.8767 31.701 26.8771 31.701 26.8778 31.701L26.9958 31.2834V31.2807C26.9958 31.2803 26.997 31.2803 26.997 31.2791L27.1044 30.8592C27.1048 30.858 27.1044 30.8568 27.1044 30.8557C27.1048 30.8557 27.1056 30.8553 27.1056 30.8545L27.2036 30.4318V30.4283C27.2036 30.4279 27.2048 30.4279 27.2048 30.4272L27.2923 30.0022V29.9986C27.2923 29.9982 27.2935 29.9975 27.2935 29.9975L27.3708 29.5697C27.3712 29.5693 27.3704 29.5686 27.3708 29.5674C27.3708 29.5662 27.3712 29.5662 27.3712 29.5658L27.4388 29.1373V29.1338C27.4388 29.1338 27.4399 29.1334 27.4399 29.1326L27.497 28.7025V28.699C27.497 28.6979 27.4974 28.6979 27.4974 28.6975L27.5439 28.2662C27.5442 28.265 27.5439 28.2639 27.5439 28.2627C27.5439 28.2623 27.5442 28.2623 27.5442 28.2615L27.5806 27.8287C27.5817 27.8225 27.579 27.817 27.579 27.8119C27.579 27.799 27.5774 27.7861 27.5747 27.774C27.572 27.7623 27.5685 27.751 27.5642 27.7393C27.5599 27.7275 27.5528 27.7182 27.547 27.708C27.5407 27.6979 27.5337 27.6885 27.5247 27.6795C27.5157 27.6705 27.5067 27.6643 27.4966 27.6572C27.4853 27.6498 27.4759 27.6447 27.4634 27.6393C27.4579 27.6369 27.4532 27.6326 27.447 27.6303L20.1497 25.3795C20.1212 25.3705 20.0926 25.3705 20.0657 25.3752C20.0622 25.3752 20.0602 25.3767 20.0567 25.3775C20.0106 25.3869 19.9704 25.4115 19.9427 25.4498C19.9415 25.451 19.9399 25.4502 19.9387 25.4521L19.6469 25.8619C19.6458 25.8631 19.6466 25.8654 19.6458 25.8662C19.6446 25.8674 19.6423 25.8674 19.6415 25.8689L19.3692 26.2924C19.368 26.2939 19.3692 26.2959 19.368 26.2975C19.3669 26.2986 19.3653 26.2986 19.3645 26.2998L19.111 26.735V26.7385C19.1098 26.74 19.1075 26.7412 19.1067 26.7428L18.8739 27.1892C18.8735 27.1908 18.8739 27.1928 18.8727 27.1935C18.8723 27.1947 18.8704 27.1959 18.8704 27.1971L18.6583 27.6529C18.6571 27.6545 18.6571 27.6564 18.6571 27.6572C18.6559 27.6596 18.6547 27.66 18.6544 27.6615L18.4633 28.1275C18.4622 28.1299 18.4629 28.131 18.4622 28.1326C18.4618 28.1342 18.4606 28.135 18.4598 28.1365L18.2903 28.6103V28.6146C18.2891 28.6162 18.2879 28.6174 18.2879 28.6189L18.1403 29.0998C18.1399 29.101 18.1403 29.1021 18.1399 29.1041C18.1395 29.1053 18.1383 29.1064 18.1383 29.108L18.0129 29.5959C18.0126 29.5975 18.0129 29.5986 18.0126 29.6002C18.0126 29.6018 18.0114 29.6029 18.0114 29.6041L17.9079 30.0975C17.9075 30.0998 17.9083 30.101 17.9079 30.1018C17.9075 30.1041 17.9063 30.1053 17.9063 30.1061L17.8262 30.6029C17.8262 30.6053 17.8266 30.6064 17.8266 30.608C17.8262 30.6096 17.8254 30.6107 17.8251 30.6119L17.768 31.1131V31.1143V31.1154L17.7254 31.5225C17.7254 31.526 17.7266 31.5291 17.7266 31.533C17.7266 31.5346 17.7243 31.5357 17.7243 31.5369L17.715 31.9455Z" fill="#F8F4EC"/>
<path d="M0.518996 27.8441V27.8456L0.525636 28.5007C0.525636 28.5011 0.526027 28.5019 0.526027 28.5023C0.526027 28.5035 0.525636 28.5039 0.525636 28.5046L0.546339 29.1597C0.546339 29.1601 0.54673 29.1609 0.54673 29.1609C0.547121 29.1621 0.546339 29.1632 0.546339 29.1644L0.580322 29.8183C0.580322 29.8183 0.581496 29.8187 0.581496 29.8195C0.581496 29.8207 0.581105 29.8218 0.581105 29.8222L0.629152 30.4757C0.629152 30.4761 0.629543 30.4769 0.629543 30.4769V30.4796L0.69048 31.1316C0.69048 31.132 0.690871 31.132 0.690871 31.1332C0.690871 31.1343 0.69048 31.1343 0.69048 31.1355L0.765089 31.7867C0.76548 31.789 0.767824 31.7894 0.768605 31.7917C0.768605 31.796 0.767433 31.7996 0.768605 31.8035L0.920555 32.5472C0.920555 32.5472 0.921727 32.5472 0.921727 32.5476C0.921727 32.548 0.921336 32.5492 0.921727 32.5492L1.08462 33.2906C1.08462 33.291 1.08501 33.2917 1.08579 33.2917C1.08579 33.2929 1.0854 33.2933 1.08579 33.2941L1.26157 34.032C1.26157 34.0332 1.26157 34.0332 1.26196 34.0332V34.0355L1.44946 34.7714C1.44946 34.7714 1.44985 34.7714 1.44985 34.7726C1.45024 34.7726 1.44985 34.7738 1.45024 34.7742L1.64907 35.5066C1.64907 35.5066 1.65024 35.507 1.65024 35.5078V35.5101L1.86118 36.2386C1.86118 36.239 1.86157 36.2398 1.86157 36.2398C1.86196 36.241 1.86157 36.241 1.86196 36.2421L2.08501 36.9683C2.08501 36.9687 2.0854 36.9695 2.0854 36.9695C2.08579 36.9707 2.0854 36.9707 2.08579 36.9718L2.32096 37.6937C2.32135 37.6949 2.32096 37.6961 2.32135 37.6961L2.56705 38.4144L2.56744 38.4156C2.56783 38.4168 2.56744 38.4168 2.56783 38.4179L2.82525 39.132C2.82525 39.132 2.82564 39.132 2.82642 39.1332V39.1355L3.09595 39.8457C3.09634 39.8457 3.09634 39.8457 3.09634 39.8468C3.09673 39.8468 3.09634 39.848 3.09673 39.848L3.37798 40.5535C3.37837 40.5558 3.38071 40.557 3.38189 40.5589C3.38345 40.5625 3.38306 40.5656 3.3854 40.5691L3.46704 40.732C3.46743 40.7332 3.46939 40.7343 3.47056 40.7355C3.47056 40.7367 3.47017 40.7379 3.47056 40.739L3.55923 40.8988C3.55962 40.9 3.5604 40.9 3.56157 40.9011V40.9023L3.65337 41.0586C3.65454 41.0597 3.65571 41.0609 3.65611 41.0621C3.6565 41.0632 3.65611 41.0644 3.6565 41.0644L3.75376 41.2183C3.75415 41.2195 3.75533 41.2195 3.75611 41.2207C3.7565 41.2207 3.75611 41.2218 3.7565 41.223L3.85767 41.3742C3.85884 41.3754 3.86001 41.3754 3.86118 41.3765V41.3789L3.96821 41.5277C3.9686 41.5289 3.97056 41.53 3.97095 41.5312C3.97134 41.5312 3.97095 41.5324 3.97134 41.5336L4.0815 41.6781C4.08267 41.6793 4.08384 41.6793 4.08501 41.6804V41.6828L4.19985 41.8238C4.20102 41.825 4.2022 41.825 4.20337 41.8261C4.20376 41.8273 4.20337 41.8273 4.20454 41.8285L4.32368 41.9652C4.32407 41.9664 4.32602 41.9664 4.32641 41.9676C4.32681 41.9687 4.32681 41.9699 4.32681 41.9699L4.45064 42.1043C4.45181 42.1043 4.45298 42.1043 4.45337 42.1054C4.45376 42.1054 4.45376 42.1078 4.45454 42.1078L4.58149 42.2379C4.58188 42.239 4.58384 42.239 4.58423 42.239C4.5854 42.2402 4.58462 42.2414 4.5854 42.2426L4.71626 42.3695C4.71899 42.3719 4.7229 42.3707 4.72641 42.373C4.7604 42.4039 4.8022 42.4234 4.84907 42.4234C4.8647 42.4234 4.88032 42.4211 4.89595 42.4179L12.1069 40.607C12.1158 40.6047 12.1221 40.5981 12.1303 40.5953C12.142 40.591 12.1537 40.5863 12.1639 40.5801C12.1752 40.5723 12.183 40.5649 12.1924 40.5559C12.201 40.5469 12.2088 40.5395 12.2154 40.5297C12.2229 40.5184 12.2272 40.5078 12.2322 40.4965C12.2373 40.4852 12.2416 40.4746 12.244 40.4625C12.2463 40.45 12.2467 40.4383 12.2467 40.4254C12.2471 40.4164 12.2502 40.4082 12.249 40.3992L12.1858 39.8711L12.1486 39.3453L12.1373 38.8235L12.1514 38.3016L12.1928 37.7692L12.2588 37.2496L12.3502 36.732L12.4662 36.2235L12.61 35.7129L12.778 35.2129L12.9674 34.7262L13.3483 33.8762C13.3494 33.8738 13.3494 33.8723 13.3498 33.8707C13.3502 33.8695 13.3514 33.8692 13.3514 33.868L13.4983 33.4961C13.4994 33.4945 13.4987 33.4922 13.4994 33.4906C13.4998 33.4895 13.5018 33.4891 13.5018 33.4879L13.6307 33.1098C13.6311 33.1082 13.6307 33.1059 13.6319 33.1035C13.6319 33.1024 13.6334 33.102 13.6342 33.1L13.7436 32.7168C13.7448 32.7145 13.7436 32.7125 13.7448 32.7106C13.7448 32.7094 13.7459 32.709 13.7459 32.7078L13.8389 32.3199C13.8389 32.3176 13.8385 32.3156 13.8389 32.3137C13.8389 32.3125 13.8401 32.3121 13.8401 32.311L13.9147 31.9195C13.9151 31.9172 13.9147 31.9152 13.9147 31.9129C13.9151 31.9117 13.9162 31.9113 13.917 31.9094L13.9717 31.5145C13.9721 31.5121 13.9717 31.5102 13.9717 31.5082C13.9717 31.5067 13.9729 31.5067 13.9729 31.5055L14.01 31.1074C14.01 31.1051 14.0088 31.1039 14.0088 31.102C14.0088 31.1008 14.01 31.0996 14.01 31.0984L14.0284 30.7004C14.0284 30.6981 14.028 30.6969 14.028 30.6961C14.0284 30.6938 14.0291 30.6926 14.0291 30.6906L14.028 30.2914C14.028 30.2902 14.0276 30.2887 14.0276 30.2871C14.0272 30.2859 14.0276 30.2848 14.0276 30.2828L14.008 29.8848C14.008 29.8836 14.0069 29.8824 14.0069 29.8805C14.0069 29.8793 14.0073 29.8777 14.0073 29.8762L13.9694 29.4781C13.9694 29.477 13.969 29.4766 13.969 29.4758V29.4723L13.91 29.0051V29.0039C13.9096 29.0039 13.91 29.0027 13.91 29.0027L13.8432 28.5355V28.5344C13.8428 28.5344 13.8432 28.5344 13.8432 28.5332L13.7709 28.0695V28.0684V28.066L13.692 27.6027C13.692 27.6023 13.6916 27.6023 13.6916 27.6012V27.6L13.6061 27.1363C13.6061 27.1363 13.6057 27.1359 13.6057 27.1352V27.134L13.5143 26.673C13.5143 26.6727 13.5139 26.6727 13.5139 26.6715V26.6703L13.4155 26.2102C13.4155 26.2098 13.4151 26.209 13.4151 26.209V26.2078L13.3108 25.7496C13.3108 25.7484 13.3108 25.7484 13.3104 25.7484C13.3104 25.7473 13.3108 25.7469 13.3104 25.7461L13.1991 25.2891C13.1991 25.2879 13.1987 25.2879 13.1987 25.2879V25.2867L13.0826 24.8312C13.0826 24.8309 13.0822 24.8309 13.0815 24.8297C13.0815 24.8297 13.0819 24.8285 13.0815 24.8285L12.9576 24.3738V24.3734V24.3711L12.8276 23.9191C12.8276 23.918 12.8264 23.9176 12.8264 23.9164V23.9141L12.6897 23.4824C12.6897 23.4812 12.6885 23.4801 12.6885 23.4789C12.6881 23.4777 12.6885 23.4766 12.6873 23.4754L12.5354 23.0492C12.5342 23.0477 12.533 23.0469 12.533 23.0453C12.5326 23.0441 12.533 23.043 12.5319 23.0418L12.3631 22.6223C12.3619 22.6211 12.3615 22.6207 12.3608 22.6195C12.3604 22.6184 12.3608 22.6168 12.3596 22.6152L12.1748 22.2031C12.1748 22.202 12.1736 22.202 12.1733 22.2008C12.1729 22.1996 12.1729 22.1973 12.1717 22.1965L11.9717 21.7906C11.9705 21.7891 11.9694 21.7883 11.9682 21.7867C11.9678 21.7863 11.9682 21.7852 11.9682 21.784L11.7514 21.3871C11.751 21.3859 11.749 21.3859 11.7479 21.3844C11.7475 21.3832 11.7483 21.3816 11.7479 21.3805L11.5158 20.9918C11.5147 20.9902 11.5131 20.9895 11.5119 20.9879C11.5115 20.9875 11.5123 20.9867 11.5115 20.9855L11.2658 20.6059C11.2654 20.6047 11.2635 20.6047 11.2623 20.6035C11.2619 20.6023 11.2623 20.6012 11.2619 20.6L11.001 20.2297C10.9998 20.2285 10.9986 20.2293 10.9975 20.2273C10.9963 20.2262 10.9975 20.2246 10.9963 20.2234L10.7221 19.8645C10.7209 19.8633 10.7197 19.8633 10.7186 19.8621C10.7174 19.8609 10.7186 19.8594 10.7174 19.8582L10.4291 19.5098C10.4287 19.5086 10.4264 19.5086 10.4252 19.5074C10.424 19.5062 10.4252 19.5047 10.424 19.5035L10.1221 19.166C10.1186 19.1625 10.1131 19.1637 10.1104 19.1605C10.1076 19.157 10.108 19.1516 10.1049 19.1488L9.54045 18.6644C9.53615 18.6609 9.53029 18.6633 9.52639 18.6602C9.52248 18.6566 9.52209 18.6508 9.5174 18.6484L8.88733 18.2523C8.88498 18.25 8.88185 18.2523 8.87873 18.2508C8.87248 18.2469 8.86818 18.2414 8.86193 18.2391L8.18029 17.9395C8.17795 17.9383 8.17522 17.9398 8.17248 17.9395C8.16584 17.9359 8.16076 17.9316 8.15412 17.9293L7.43693 17.7332C7.43263 17.732 7.42795 17.7332 7.42365 17.732C7.41935 17.7309 7.41428 17.7281 7.41037 17.7277L6.67131 17.6398C6.6635 17.6395 6.65803 17.6414 6.65061 17.6414C6.64709 17.6414 6.64631 17.6387 6.64279 17.6387L5.90021 17.6598C5.89357 17.6598 5.88771 17.6633 5.88068 17.6641C5.87795 17.6641 5.8756 17.6617 5.87287 17.6617L5.13889 17.7922C5.13459 17.7926 5.1299 17.7961 5.126 17.7977C5.12092 17.7988 5.11662 17.7977 5.11194 17.7992L4.40764 18.0359C4.401 18.0383 4.39592 18.0434 4.39045 18.0465C4.38771 18.0477 4.38498 18.0453 4.38146 18.0465L3.71857 18.3848C3.71428 18.3875 3.7135 18.3938 3.70842 18.3965C3.70412 18.3988 3.69826 18.3965 3.69436 18.4L3.0885 18.8316C3.0842 18.8344 3.08498 18.841 3.08068 18.8441C3.07678 18.8477 3.07053 18.8453 3.0674 18.8496L2.53146 19.366C2.52756 19.3695 2.52873 19.3754 2.52521 19.3789C2.5217 19.3832 2.51506 19.3824 2.51232 19.3867L2.05802 19.9766C2.05372 19.9832 2.05646 19.991 2.05255 19.9984C2.04826 20.0051 2.03966 20.0063 2.03615 20.0137L1.89631 20.3199C1.89514 20.3211 1.89592 20.3215 1.89514 20.3227C1.89514 20.323 1.89474 20.323 1.89396 20.323L1.76076 20.6328V20.6352C1.76076 20.6356 1.75959 20.6363 1.75959 20.6363L1.63264 20.9484V20.95C1.63225 20.9504 1.63147 20.9512 1.63147 20.9516L1.50999 21.2656C1.5096 21.2668 1.5096 21.268 1.5096 21.268C1.50921 21.2691 1.50843 21.2695 1.50804 21.2703L1.39437 21.5871V21.5883C1.39437 21.5895 1.39398 21.5895 1.39319 21.5906L1.28499 21.9086V21.9113C1.28499 21.9117 1.2846 21.9117 1.28382 21.9129L1.18187 22.2332V22.2356C1.18187 22.2359 1.18148 22.2367 1.1807 22.2371L1.08539 22.5602V22.5617C1.08539 22.5621 1.085 22.5633 1.08422 22.5633L0.995544 22.8879V22.8902C0.995544 22.8902 0.995154 22.8914 0.994373 22.8918L0.912732 23.2184V23.2207C0.912732 23.2211 0.912341 23.2219 0.912341 23.2223L0.83656 23.5504C0.836169 23.5508 0.83656 23.552 0.83656 23.552C0.836169 23.5531 0.836169 23.5535 0.836169 23.5543L0.767419 23.884C0.766248 23.8867 0.767419 23.8902 0.767419 23.8934C0.766248 23.8961 0.764685 23.8984 0.763904 23.9012L0.689294 24.552C0.689294 24.5531 0.689685 24.5531 0.689685 24.5543C0.689294 24.5547 0.689294 24.5555 0.689294 24.5566L0.629919 25.2082V25.2105C0.629919 25.2109 0.629529 25.2117 0.629529 25.2121L0.581482 25.8656C0.581482 25.8668 0.581873 25.8668 0.581873 25.868C0.581873 25.8691 0.580701 25.8691 0.580701 25.8703L0.546716 26.5242C0.546716 26.5254 0.547107 26.5258 0.547107 26.5266C0.547107 26.5277 0.546716 26.5277 0.546716 26.5281L0.526013 27.1828C0.526013 27.184 0.526404 27.1852 0.526404 27.1856C0.526404 27.1859 0.526013 27.1867 0.526013 27.1871L0.519373 27.8422C0.518982 27.8434 0.518996 27.8433 0.518996 27.8441Z" fill="#F8F4EC"/>
</svg>
