<svg width="70" height="70" viewBox="0 0 70 70" fill="none" xmlns="http://www.w3.org/2000/svg">
<path d="M29.521 43.3485H20.0655C19.1909 43.3524 18.378 42.8977 17.9233 42.1505L17.9174 42.1407H17.9178C17.4475 41.3977 17.4042 40.4618 17.8038 39.6782L22.5358 30.2145C22.7553 30.6559 23.0936 31.027 23.5123 31.2868C23.9315 31.5466 24.4147 31.6841 24.9072 31.6845C25.1928 31.6841 25.4756 31.6349 25.7439 31.5384C26.4108 31.3169 26.9623 30.8396 27.2772 30.2114C27.5924 29.5833 27.6447 28.8555 27.4236 28.1887L25.5248 22.518C25.3123 21.8422 24.8291 21.2852 24.1904 20.9797C23.5557 20.666 22.8236 20.6133 22.1506 20.8324L16.4924 22.7316C15.8198 22.9539 15.2639 23.4359 14.9486 24.0703C14.6353 24.6891 14.585 25.4082 14.8076 26.0652C15.0193 26.7324 15.4892 27.2871 16.1127 27.6054C16.6252 27.8699 17.2104 27.9601 17.7787 27.8632L13.0592 37.312C11.8514 39.7409 11.9842 42.6214 13.4104 44.9292C14.8362 47.2366 17.353 48.644 20.0655 48.6507H29.521C30.2444 48.6507 30.8312 48.0644 30.8312 47.3409V44.6581C30.8312 43.9347 30.2445 43.3483 29.521 43.3483L29.521 43.3485Z" fill="#F8F4EC"/>
<path d="M37.271 9.81136L41.7874 18.8446V18.8449C41.2257 18.7442 40.6464 18.8282 40.1358 19.0836C39.5073 19.3914 39.0292 19.9403 38.81 20.6051C38.5877 21.2735 38.6385 22.0024 38.9518 22.6332C39.2651 23.264 39.8151 23.7453 40.4819 23.9719L46.121 25.8516V25.852C46.4022 25.952 46.6991 26.0012 46.9979 25.9977C47.5542 25.9993 48.0967 25.8254 48.5487 25.5008C49.0003 25.1766 49.3386 24.718 49.5148 24.1903L51.4015 18.5169C51.6304 17.8478 51.5808 17.1146 51.2644 16.4821C50.948 15.8497 50.3913 15.3704 49.7187 15.1516C49.1147 14.9528 48.4597 14.9774 47.8722 15.2216C47.285 15.4653 46.805 15.9126 46.5202 16.481L42.0014 7.43365H42.001C41.3553 6.12895 40.3561 5.03205 39.117 4.26805C37.8783 3.50399 36.4494 3.10325 34.994 3.11145C33.5409 3.11458 32.1163 3.51536 30.8749 4.27045C29.6409 5.03451 28.6456 6.12905 28.0019 7.42985L23.6292 16.1611C23.4737 16.472 23.4479 16.8321 23.5577 17.1619C23.6675 17.4915 23.9042 17.7642 24.2151 17.9197L26.6202 19.1158C27.2667 19.4353 28.0499 19.172 28.3725 18.5271L32.7291 9.81419C33.0127 9.25052 33.4959 8.81219 34.0846 8.58489C34.6733 8.35759 35.3252 8.35716 35.9143 8.58372C36.5034 8.81067 36.987 9.24817 37.2709 9.81142L37.271 9.81136Z" fill="#F8F4EC"/>
<path d="M56.941 37.313L52.3672 28.1525C52.2113 27.8404 51.9379 27.6037 51.6067 27.4939C51.2758 27.3846 50.9149 27.4115 50.604 27.5689L48.2091 28.7732V28.7736C47.8981 28.9287 47.6618 29.2014 47.552 29.531C47.4423 29.8607 47.4676 30.2205 47.6231 30.531L52.1938 39.6732C52.5907 40.4627 52.5462 41.4021 52.077 42.1505C51.6223 42.8978 50.8094 43.3525 49.9348 43.3485H42.5965C43.1321 42.6259 43.2649 41.6809 42.9496 40.8387C42.6344 39.9965 41.9133 39.3711 41.0351 39.1782C40.1566 38.9853 39.2402 39.2505 38.6003 39.8829L34.3745 44.1091C33.8706 44.6021 33.5843 45.2763 33.5796 45.9814C33.5749 46.6869 33.8519 47.3646 34.3491 47.865L38.5647 52.0802V52.0798C39.0573 52.5955 39.7389 52.8877 40.4522 52.8892C41.155 52.8849 41.8284 52.608 42.3307 52.1166C42.7811 51.665 43.0546 51.0666 43.1011 50.4307C43.1475 49.7947 42.9639 49.1631 42.5839 48.651H49.9347C52.6472 48.6443 55.1636 47.2373 56.5898 44.9299C58.0156 42.6225 58.1484 39.7419 56.941 37.313Z" fill="#F8F4EC"/>
</svg>
