<svg width="29" height="25" viewBox="0 0 29 25" fill="none" xmlns="http://www.w3.org/2000/svg">
<path d="M20.7312 13.3066H1.00049C1.00049 17.4605 2.36295 20.0951 5.15433 21.5323V23.6912H16.5774V21.5323C19.3688 20.0951 20.7312 17.4605 20.7312 13.3066Z" stroke="#555B47" stroke-miterlimit="10" stroke-linecap="round" stroke-linejoin="round"/>
<path d="M19.0396 13.2342L18.6543 7.07715H28.0004L26.962 23.6925H19.6928L19.4051 19.0984" stroke="#555B47" stroke-miterlimit="10" stroke-linecap="round" stroke-linejoin="round"/>
<path d="M19.1738 11.2305H27.4815" stroke="#555B47" stroke-miterlimit="10" stroke-linecap="round" stroke-linejoin="round"/>
<path d="M13.4624 9.15272V8.11426" stroke="#555B47" stroke-miterlimit="10" stroke-linecap="round" stroke-linejoin="round"/>
<path d="M13.462 4.99955C13.462 3.85205 14.3915 2.92262 15.539 2.92262H17.6159C18.7634 2.92262 19.6928 1.9932 19.6928 0.845703M6.06613 13.3062L1.4564 8.69647C0.847865 8.08793 0.847865 7.10139 1.4564 6.49389C2.06494 5.88535 3.05148 5.88535 3.65898 6.49389L10.4692 13.3041" stroke="#555B47" stroke-miterlimit="10" stroke-linecap="round" stroke-linejoin="round"/>
<path d="M1.52002 16.4229H20.2123" stroke="#555B47" stroke-miterlimit="10" stroke-linecap="round" stroke-linejoin="round"/>
</svg>
