<svg width="128" height="122" viewBox="0 0 128 122" fill="none" xmlns="http://www.w3.org/2000/svg">
<circle cx="66" cy="50" r="50" fill="#555B47" fill-opacity="0.5"/>
<circle cx="66" cy="50" r="35" fill="#555B47"/>
<path d="M79.5224 43.9773C79.3119 43.7651 79.0615 43.5967 78.7856 43.4817C78.5096 43.3668 78.2137 43.3076 77.9148 43.3076C77.6159 43.3076 77.32 43.3668 77.0441 43.4817C76.7682 43.5967 76.5178 43.7651 76.3073 43.9773L68.8583 51.449V34.2641C68.8583 33.6637 68.6197 33.0878 68.1951 32.6632C67.7705 32.2385 67.1946 32 66.5941 32C65.9936 32 65.4177 32.2385 64.9931 32.6632C64.5685 33.0878 64.33 33.6637 64.33 34.2641V51.449L56.8809 43.9773C56.4546 43.551 55.8764 43.3114 55.2734 43.3114C54.6705 43.3114 54.0922 43.551 53.6659 43.9773C53.2395 44.4037 53 44.9819 53 45.5848C53 46.1878 53.2395 46.766 53.6659 47.1924L64.9866 58.5131C65.2019 58.7192 65.4558 58.8808 65.7337 58.9886C66.0048 59.1084 66.2978 59.1702 66.5941 59.1702C66.8904 59.1702 67.1835 59.1084 67.4545 58.9886C67.7324 58.8808 67.9863 58.7192 68.2017 58.5131L79.5224 47.1924C79.7346 46.9819 79.903 46.7315 80.018 46.4556C80.1329 46.1797 80.1921 45.8837 80.1921 45.5848C80.1921 45.286 80.1329 44.99 80.018 44.7141C79.903 44.4382 79.7346 44.1878 79.5224 43.9773Z" fill="#F8F4EC"/>
<line x1="77.9" y1="65.5" x2="54.5" y2="65.5" stroke="#F8F4EC" stroke-width="3" stroke-linecap="round"/>
<path d="M18.8856 79.207L14.8048 70.3951L13.0041 71.229L14.5833 74.6389L6.21801 78.5129L7.14055 80.505L15.5058 76.631L17.0849 80.0409L18.8856 79.207Z" fill="#555B47"/>
<path d="M21.5772 86.2193L22.732 87.6366L25.5608 87.5588L24.0952 85.76L21.5772 86.2193ZM14.9255 93.2314C15.5424 93.9884 16.2472 94.4824 17.0339 94.7182C17.8205 94.9539 18.5345 94.9768 19.1747 94.7978L18.4067 92.9647C17.6187 93.1231 16.9255 92.8413 16.3334 92.1145C15.8892 91.5694 15.671 91.0418 15.6797 90.5207C15.6885 89.9997 15.8856 89.5367 16.2712 89.1318L20.2438 94.0073C20.3968 93.923 20.6005 93.7772 20.8549 93.5699C21.7815 92.8149 22.3138 91.8974 22.4518 90.8176C22.5898 89.7377 22.2461 88.6976 21.4319 87.6982C20.6374 86.7231 19.6759 86.1863 18.5526 86.0939C17.4292 86.0015 16.389 86.3451 15.4382 87.1199C14.4449 87.9292 13.902 88.8956 13.8096 90.0189C13.7172 91.1423 14.0806 92.2067 14.9047 93.2181L14.9255 93.2314ZM17.2849 88.2857C17.706 88.0232 18.1761 87.9324 18.6954 88.0132C19.2147 88.0939 19.66 88.3559 20.0301 88.8102C20.415 89.2826 20.5927 89.7727 20.568 90.2866C20.5433 90.8005 20.3484 91.2415 19.9893 91.6047L17.2849 88.2857Z" fill="#555B47"/>
<path d="M22.9204 101.138L24.5533 102.473L31.9471 93.4319L30.3142 92.0965L22.9204 101.138Z" fill="#555B47"/>
<path d="M37.7878 100.143L39.406 100.993L41.9775 99.8117L39.9235 98.7323L37.7878 100.143ZM34.421 109.203C35.2854 109.657 36.1275 109.835 36.9436 109.743C37.7597 109.651 38.4254 109.392 38.944 108.976L37.5183 107.591C36.8556 108.046 36.1075 108.059 35.2776 107.623C34.6552 107.296 34.2475 106.896 34.051 106.413C33.8546 105.931 33.8543 105.427 34.0501 104.904L39.6172 107.829C39.7248 107.692 39.855 107.478 40.0076 107.187C40.5637 106.129 40.6933 105.077 40.3965 104.029C40.0997 102.982 39.3754 102.16 38.2344 101.56C37.1209 100.975 36.026 100.859 34.9565 101.214C33.8869 101.57 33.065 102.294 32.4944 103.38C31.8984 104.514 31.7782 105.616 32.134 106.686C32.4898 107.755 33.2417 108.592 34.3966 109.199L34.421 109.203ZM34.6505 103.728C34.9348 103.321 35.3316 103.053 35.841 102.924C36.3503 102.794 36.8627 102.86 37.3813 103.133C37.9207 103.416 38.2765 103.798 38.4554 104.28C38.6344 104.762 38.6281 105.244 38.4403 105.719L34.6505 103.728Z" fill="#555B47"/>
<path d="M48.5231 114.584C49.5319 114.833 50.4375 114.783 51.2474 114.435C52.0573 114.088 52.6281 113.601 52.9691 112.969L51.1887 111.967C51.0135 112.286 50.7205 112.527 50.3023 112.689C49.884 112.852 49.4369 112.87 48.9514 112.75C48.3219 112.595 47.8623 112.24 47.5744 111.678C47.2866 111.116 47.2242 110.522 47.3795 109.892C47.5386 109.247 47.8706 108.75 48.3754 108.4C48.8803 108.05 49.4522 107.949 50.0818 108.105C50.5748 108.226 50.9602 108.458 51.2454 108.802C51.5307 109.146 51.6758 109.504 51.6788 109.883L53.725 109.808C53.7134 109.105 53.4271 108.407 52.8678 107.706C52.3086 107.005 51.5246 106.529 50.5158 106.28C49.325 105.987 48.234 106.136 47.2505 106.73C46.267 107.324 45.6293 108.213 45.3373 109.396C45.0453 110.579 45.1945 111.67 45.7868 112.661C46.3791 113.653 47.2736 114.3 48.4796 114.597L48.5231 114.584Z" fill="#555B47"/>
<path d="M64.5012 107.905C63.4152 107.905 62.5481 108.319 61.8996 109.155V104.546H59.7902V116.226H61.8996V112.226C61.8996 111.515 62.0793 110.944 62.4387 110.515C62.7981 110.085 63.2668 109.874 63.8527 109.874C64.4231 109.874 64.8527 110.054 65.1418 110.413C65.4309 110.772 65.5793 111.265 65.5793 111.897V116.233H67.6965V111.499C67.6965 110.39 67.4231 109.515 66.8762 108.874C66.3293 108.233 65.5402 107.913 64.5012 107.913V107.905Z" fill="#555B47"/>
<path d="M78.3882 114.732C79.4631 114.457 80.2028 113.849 80.6074 112.907L80.8528 113.868L82.9193 113.341L80.9169 105.499L78.8504 106.026L79.092 106.973C78.2874 106.348 77.3486 106.176 76.2737 106.45C75.1761 106.731 74.3531 107.36 73.8123 108.337C73.2715 109.313 73.1538 110.4 73.4572 111.588C73.7568 112.762 74.379 113.651 75.3238 114.256C76.2685 114.862 77.285 115.021 78.3826 114.741L78.3882 114.732ZM78.2706 112.818C77.6272 112.983 77.0412 112.899 76.5147 112.573C75.9882 112.248 75.6408 111.74 75.4669 111.059C75.2949 110.385 75.3581 109.781 75.6643 109.243C75.9705 108.705 76.4462 108.358 77.0896 108.193C77.7179 108.033 78.3038 108.117 78.8455 108.439C79.3871 108.76 79.7382 109.251 79.9064 109.909C80.0784 110.583 80.0076 111.19 79.6882 111.739C79.3688 112.288 78.895 112.643 78.2667 112.803L78.2706 112.818Z" fill="#555B47"/>
<path d="M88.991 103.29L88.4435 102.227L86.5685 103.193L90.2758 110.388L92.1509 109.422L90.537 106.29C90.0503 105.345 89.9082 104.575 90.1036 103.982C90.2991 103.389 90.8214 102.953 91.6705 102.673L90.7616 100.909C89.5717 101.329 88.9804 102.126 88.9877 103.3L88.991 103.29Z" fill="#555B47"/>
<path d="M100.212 94.2L100.822 94.922C99.8408 94.7287 98.9383 94.98 98.1148 95.6758C97.2257 96.4272 96.7388 97.3398 96.6601 98.4087C96.5814 99.4776 96.9304 100.471 97.7069 101.39C98.4583 102.28 99.375 102.783 100.463 102.897C101.551 103.011 102.536 102.7 103.414 101.958C104.231 101.268 104.629 100.42 104.609 99.4144L105.239 100.16C105.641 100.649 105.837 101.158 105.831 101.685C105.826 102.211 105.576 102.678 105.087 103.091C104.342 103.711 103.578 103.896 102.795 103.647L101.81 105.338C103.325 105.92 104.78 105.621 106.171 104.446C107.125 103.639 107.663 102.714 107.784 101.671C107.905 100.628 107.597 99.6709 106.861 98.7997L101.823 92.8385L100.212 94.2ZM102.469 100.271C101.956 100.705 101.407 100.903 100.817 100.859C100.228 100.815 99.7238 100.545 99.3052 100.05C98.8867 99.5547 98.7049 99.0128 98.7649 98.4302C98.8249 97.8476 99.1115 97.3395 99.6247 96.9058C100.12 96.4873 100.657 96.2996 101.241 96.3376C101.826 96.3755 102.33 96.6452 102.748 97.1404C103.167 97.6357 103.349 98.1776 103.294 98.7662C103.239 99.3548 102.958 99.8579 102.463 100.276L102.469 100.271Z" fill="#555B47"/>
<path d="M114.956 90.0908C115.523 89.2955 115.813 88.4851 115.832 87.6641C115.851 86.8431 115.684 86.1485 115.342 85.5785L113.777 86.8044C114.139 87.5224 114.05 88.2654 113.506 89.0288C113.098 89.6014 112.647 89.9516 112.142 90.0811C111.638 90.2106 111.139 90.143 110.646 89.8783L114.296 84.7568C114.175 84.6316 113.98 84.4738 113.713 84.2833C112.739 83.5896 111.714 83.3192 110.636 83.472C109.558 83.6248 108.646 84.2315 107.898 85.2813C107.168 86.3056 106.905 87.3748 107.113 88.4826C107.321 89.5903 107.928 90.5024 108.927 91.2143C109.97 91.9579 111.046 92.2255 112.154 92.0173C113.261 91.8091 114.192 91.1769 114.949 90.1144L114.956 90.0908ZM109.562 89.1248C109.198 88.7882 108.986 88.3589 108.926 87.8367C108.866 87.3146 109.001 86.8159 109.341 86.3387C109.695 85.8424 110.121 85.5414 110.623 85.4291C111.125 85.3169 111.602 85.3881 112.047 85.6383L109.562 89.1248Z" fill="#555B47"/>
<path d="M114.971 75.6531L113.871 75.1861L113.047 77.1278L120.497 80.2904L121.321 78.3487L118.078 76.9719C117.1 76.5567 116.498 76.0551 116.269 75.4743C116.041 74.8934 116.164 74.2241 116.638 73.4665L114.811 72.6911C114.165 73.7745 114.219 74.7653 114.975 75.6634L114.971 75.6531Z" fill="#555B47"/>
</svg>
