<svg width="71" height="49" viewBox="0 0 71 49" fill="none" xmlns="http://www.w3.org/2000/svg">
<line x1="4.83988" y1="3.96288" x2="66.9629" y2="44.1601" stroke="#D85F5F" stroke-opacity="0.7" stroke-width="7" stroke-linecap="round"/>
<path d="M46.6326 9.46322L46.7702 9.03983L46.3528 9.19301C43.2515 10.3336 40.0599 10.9116 36.8641 10.9116C31.6399 10.9116 27.4558 9.40348 24.8653 8.13834L24.6378 8.02734L24.5635 8.26942C22.6484 14.5393 18.5337 25.8194 12.4968 30.925L12.0463 31.3057H33.1256L32.106 29.1601C31.987 28.9095 32.094 28.6076 32.3446 28.4891C32.5937 28.3726 32.9006 28.4821 33.0176 28.7282L34.1351 31.0796L34.344 30.9365C40.2984 26.8343 44.5991 15.7213 46.6321 9.46246L46.6326 9.46322ZM31.5961 25.7211C31.6423 25.5945 31.7353 25.4941 31.8573 25.4373C34.7462 24.1004 38.1162 16.7874 39.1713 14.0829C39.2472 13.8876 39.4325 13.7625 39.6424 13.7625C39.7042 13.7625 39.7665 13.774 39.8237 13.7961C40.0824 13.8971 40.212 14.1899 40.1105 14.4485C39.9498 14.8609 36.1369 24.5665 32.2808 26.3514C32.0397 26.4644 31.7258 26.3499 31.6128 26.1053C31.5551 25.9838 31.5494 25.8471 31.5961 25.7211ZM33.7321 18.0113C33.6824 18.2222 32.467 23.2139 28.2673 25.2047C28.0167 25.3223 27.7098 25.2062 27.5953 24.9662C27.5375 24.8436 27.5305 24.7075 27.5757 24.5805C27.6209 24.4539 27.7123 24.3524 27.8344 24.2952C31.5524 22.5313 32.7396 17.826 32.7512 17.7778C32.8059 17.5503 33.0073 17.391 33.2429 17.391C33.2815 17.391 33.3207 17.3961 33.3589 17.4046C33.6291 17.4689 33.7964 17.7406 33.7321 18.0113Z" fill="#F8F4EC"/>
<path d="M61.5019 30.9236C55.7001 26.0163 48.8792 5.20801 48.8792 5.20801L47.9099 8.82408C46.005 14.9312 41.9258 25.9241 36.0141 30.9229L35.5636 31.3036H42.8911L42.9559 31.2152C43.9473 29.8542 47.2716 24.9339 48.4237 18.773L48.4473 18.7097C48.4588 18.662 48.4769 18.6173 48.5176 18.5425C48.5503 18.4948 48.5909 18.4526 48.6401 18.4194L48.7064 18.3817C48.7301 18.3672 48.7527 18.3546 48.7491 18.3546L48.8601 18.336C48.9038 18.329 48.946 18.3275 48.9957 18.334L49.0434 18.3396C49.1037 18.3541 49.1574 18.3747 49.2117 18.4074C49.2569 18.4385 49.2961 18.4742 49.3282 18.5148L56.6312 27.8373C56.7326 27.9674 56.7653 28.1381 56.7171 28.2943C56.6694 28.452 56.5473 28.5766 56.3951 28.6263C56.3771 28.6318 54.5404 29.2601 53.5139 30.9777L53.3195 31.3047H61.9538L61.5019 30.9236Z" fill="#F8F4EC"/>
<path d="M36.8521 9.90005C40.304 9.90005 43.7412 9.20295 47.0656 7.82979L47.16 7.79012L47.1896 7.69269C47.4684 6.78114 47.6944 5.99361 47.8671 5.37583L47.9982 4.90574L47.5628 5.12522C44.5127 6.6601 41.1714 7.4395 37.6291 7.4395C32.7655 7.4395 28.5192 6.0031 25.8126 4.79877L25.5806 4.69531L25.5158 4.94091C25.3897 5.41702 25.2099 6.07645 24.9794 6.87347L24.9297 7.04573L25.0904 7.12659C27.1576 8.16169 31.4341 9.89987 36.8521 9.89987L36.8521 9.90005Z" fill="#F8F4EC"/>
<path d="M55.2057 28.061L55.4317 27.9395L49.5516 20.4336L49.6892 21.2668C50.1448 24.02 51.2447 28.1825 52.2978 30.3828L52.4706 30.7419L52.677 30.4014C53.4083 29.1995 54.4559 28.4648 55.2057 28.061Z" fill="#F8F4EC"/>
</svg>
