<svg width="30" height="19" viewBox="0 0 30 19" fill="none" xmlns="http://www.w3.org/2000/svg">
<path d="M19.433 1.8919H20.9503C21.1832 1.8919 21.3719 1.63651 21.3719 1.32144C21.3719 1.00637 21.1832 0.750977 20.9503 0.750977H19.433C19.2002 0.750977 19.0117 1.00637 19.0117 1.32144C19.0117 1.63651 19.2002 1.8919 19.433 1.8919Z" fill="#555B47"/>
<path d="M16.0786 7.85799C15.9989 8.0183 15.9845 8.22198 16.0407 8.39981L17.1029 11.8218H17.1026C17.1388 11.9416 17.2064 12.039 17.2925 12.0955L17.4948 12.7284L17.2925 12.084C17.3528 12.1297 17.4213 12.1536 17.4904 12.1524H20.9422C21.0839 12.1548 21.2171 12.0605 21.2965 11.9014C21.3788 11.743 21.3961 11.5394 21.3426 11.3596L20.2804 7.93755L20.2807 7.93795C20.214 7.72513 20.0593 7.58788 19.8885 7.58987H16.4323H16.4326C16.2885 7.59146 16.155 7.6925 16.0786 7.85799H16.0786ZM19.6063 8.73635L20.3143 11.0174H17.7852L17.0773 8.73635H19.6063Z" fill="#555B47"/>
<path d="M29.9659 18.2304L24.967 2.21612L24.6045 1.07563C24.5392 0.866774 24.3887 0.729932 24.2211 0.727539H22.6911C22.4583 0.727539 22.2695 0.982931 22.2695 1.298C22.2695 1.61266 22.4583 1.86807 22.6911 1.86807H23.9556L24.1368 2.43853L28.9289 17.859H12.4326L7.61108 2.46094L7.55199 2.26721L7.43409 1.89088H18.1863C18.4188 1.89088 18.6076 1.63549 18.6076 1.32042C18.6076 1.00535 18.4188 0.749953 18.1863 0.749953H6.66716C6.49664 0.747964 6.34199 0.885206 6.27526 1.09804L5.54614 3.43637C5.45647 3.72757 5.55849 4.06213 5.77369 4.18346C5.9892 4.30439 6.23615 4.16675 6.32582 3.87555L6.74742 2.57507L6.94969 3.22509L11.5184 17.8594H9.41104L7.0802 9.82407C7.07314 9.79583 7.06315 9.76917 7.0508 9.74411C7.03933 9.71547 7.02493 9.68842 7.00876 9.66455L6.95819 9.59613L6.9035 9.54481H6.90321C6.86058 9.5102 6.81325 9.48673 6.76415 9.47599H6.61656C6.44281 9.47678 6.28728 9.62199 6.22466 9.84117L3.89826 17.8594H1.95525L5.68961 5.88309L5.68932 5.88348C5.74224 5.73947 5.74753 5.572 5.70431 5.42243C5.66109 5.27285 5.57319 5.1547 5.46205 5.09742C5.35121 5.04013 5.22744 5.04888 5.12161 5.12129C5.01547 5.19408 4.93698 5.32377 4.90552 5.47852L0.918266 18.2298C0.87005 18.4045 0.887985 18.5998 0.965894 18.7529C1.0441 18.9065 1.17258 18.9984 1.31016 19H29.5747C29.7167 19.0016 29.8499 18.9065 29.9287 18.7466C30.0078 18.5871 30.0219 18.3842 29.9666 18.2071L29.9659 18.2304ZM6.00036 17.8596L6.66627 13.0063L7.33248 17.8596H6.00036ZM4.79908 17.8596L5.45234 15.5786L5.14041 17.8596H4.79908ZM7.90958 15.8291L8.49993 17.8596H8.19212L7.90958 15.8291Z" fill="#555B47"/>
</svg>
