<svg width="150" height="145" viewBox="0 0 150 145" fill="none" xmlns="http://www.w3.org/2000/svg">
<path d="M142.806 42.4174L134.574 45.9855C133.644 44.6954 132.569 43.5165 131.369 42.4719C129.731 40.9545 128.547 39.858 128.07 37.4856C127.586 35.082 128.279 33.1193 128.95 31.2213C129.737 28.9945 130.628 26.4703 129.114 23.8175C127.65 21.2489 125.267 20.8313 123.165 20.4629C121.492 20.1697 119.912 19.8928 118.344 18.6507C115.537 16.426 115.188 12.878 114.851 9.44679C114.51 5.96912 114.157 2.37296 110.955 0.724742C109.029 -0.266423 106.411 -0.206415 103.583 0.89353C99.718 2.39687 95.0002 6.13293 93.1682 11.0936C91.9699 14.3399 92.4004 17.0548 92.7798 19.4498C93.1724 21.9264 93.4824 23.8824 92.1902 26.3591C91.3103 28.0455 90.3045 28.7821 89.2399 29.5621C87.9209 30.5284 86.4259 31.6234 85.8417 34.123C85.0048 37.7064 86.9799 40.2317 88.7229 42.4596C90.2227 44.377 91.7736 46.3597 92.1633 49.3217C92.1948 49.5625 92.2141 49.7947 92.2278 50.0242C91.3309 50.2212 90.455 50.504 89.6123 50.8688C89.4664 50.9321 89.3257 51.0035 89.1826 51.0713C89.126 51.0156 89.0663 50.9633 89.0037 50.9145C86.2858 48.8183 83.7637 48.5781 81.737 48.385C79.9128 48.2113 78.5952 48.0859 77.1386 46.8343C75.5899 45.5025 75.0793 43.9087 74.539 42.2212C73.9002 40.2271 73.1055 37.7454 70.2543 36.7071C68.2906 35.9936 66.8193 36.5108 65.6369 36.9264C64.6946 37.2578 63.8807 37.5437 62.5443 37.406C60.6012 37.2058 59.6257 36.3201 58.2755 35.0947C56.8998 33.8464 55.341 32.4315 52.6683 31.8153C47.8018 30.6954 41.3746 32.9939 38.9125 36.4887C38.2843 36.6338 37.6664 36.8208 37.0631 37.0485C35.8186 37.489 34.643 37.905 32.7541 37.6825C29.9813 37.3551 28.5401 35.9978 26.7154 34.2791C24.9495 32.6158 22.9483 30.7306 19.5891 29.8927C14.4586 28.6122 8.7141 30.4066 5.29579 32.7535C2.79482 34.4706 1.2712 36.6001 1.0058 38.7484C0.563456 42.3226 3.3363 44.6404 6.01742 46.8816C8.66282 49.0929 11.3985 51.3797 11.6554 54.9516C11.7976 56.9461 11.1366 58.4074 10.4373 59.9549C9.55749 61.9004 8.56043 64.1055 9.85782 66.7608C11.1966 69.5074 13.7835 70.1913 16.0658 70.7949C18.012 71.3094 20.0241 71.8418 21.7384 73.5966C23.4301 75.3275 23.6696 76.9237 24.0011 79.1334C24.2654 80.8961 24.5652 82.8943 25.6987 85.1121C26.9276 87.4116 28.632 89.4231 30.6987 91.0127L17.2947 96.8229C16.7924 97.0407 16.3972 97.449 16.1959 97.9582C15.9947 98.4674 16.004 99.0356 16.2217 99.538C25.4165 120.75 47.1426 132.738 69.0052 130.612L71.3504 136.023C72.865 139.506 75.6995 142.246 79.2318 143.642C82.7642 145.038 86.7061 144.976 90.1928 143.47L127.013 127.509C130.496 125.995 133.236 123.16 134.632 119.628C136.028 116.095 135.966 112.153 134.459 108.667L132.123 103.277C140.389 96.0068 146.138 86.3043 148.545 75.5626C150.952 64.8209 149.894 53.5927 145.521 43.4904C145.303 42.988 144.895 42.5928 144.385 42.3916C143.876 42.1903 143.308 42.1996 142.806 42.4174ZM89.8619 35.0622C90.0868 34.0999 90.5046 33.7531 91.6795 32.8926C92.8808 32.0125 94.5261 30.8073 95.8504 28.2686C97.7735 24.583 97.2867 21.5125 96.8576 18.8036C96.5135 16.6326 96.2166 14.758 97.0412 12.5232C98.2233 9.32202 101.526 6.12215 105.079 4.74106C106.74 4.09518 108.231 3.96599 109.066 4.39541C110.187 4.97251 110.447 6.84117 110.742 9.84983C111.124 13.7366 111.599 18.5736 115.78 21.8863C118.168 23.7785 120.544 24.1948 122.452 24.5292C124.358 24.8632 125.066 25.0522 125.528 25.8628C126.054 26.7846 125.802 27.7356 125.057 29.8459C124.28 32.0442 123.314 34.78 124.022 38.2997C124.762 41.9805 126.782 43.8506 128.564 45.5008C129.324 46.1712 130.033 46.8963 130.687 47.6704L116.33 53.8934C116.239 53.0116 116.142 52.1307 116.039 51.2506L120.815 44.9649C121.147 44.529 121.291 43.9793 121.217 43.4368C121.143 42.8944 120.856 42.4036 120.42 42.0724C119.984 41.7412 119.435 41.5967 118.892 41.6708C118.35 41.7449 117.859 42.0314 117.528 42.4673L115.259 45.4536C114.462 40.1842 113.432 34.913 112.175 29.7424C112.115 29.4756 112.002 29.2234 111.843 29.0007C111.684 28.7779 111.482 28.589 111.249 28.4449C111.017 28.3008 110.758 28.2044 110.488 28.1613C110.217 28.1181 109.941 28.1292 109.675 28.1938C109.409 28.2583 109.159 28.3751 108.939 28.5373C108.718 28.6996 108.532 28.904 108.392 29.1387C108.251 29.3735 108.158 29.6338 108.119 29.9047C108.08 30.1755 108.095 30.4515 108.164 30.7164C109.018 34.2389 109.763 37.7869 110.399 41.3552L106.577 37.6399C106.383 37.4509 106.153 37.3021 105.901 37.2019C105.65 37.1017 105.38 37.0521 105.109 37.0559C104.838 37.0598 104.571 37.117 104.322 37.2242C104.073 37.3315 103.847 37.4868 103.658 37.6812C103.469 37.8755 103.321 38.1052 103.22 38.3571C103.12 38.609 103.071 38.8782 103.074 39.1493C103.082 39.6967 103.307 40.2187 103.7 40.6003L111.48 48.1639C111.524 48.4785 111.57 48.7936 111.612 49.1079C111.693 49.7135 111.77 50.3198 111.843 50.9269L111.847 50.9595C112.037 52.5083 112.205 54.061 112.353 55.6176L108.039 57.4873C106.919 55.3001 105.255 53.4378 103.207 52.0795C101.159 50.7213 98.7961 49.9128 96.3453 49.7319C96.3264 49.4148 96.2967 49.0985 96.2564 48.7834C95.7198 44.7034 93.6431 42.0487 91.9744 39.9156C90.3318 37.8155 89.4922 36.6459 89.8618 35.0626L89.8619 35.0622ZM91.2543 54.6568C93.5873 53.6492 96.2127 53.5499 98.6151 54.3784C101.018 55.2068 103.024 56.9032 104.24 59.1346L89.0989 65.6978C88.2211 63.9744 87.0018 62.4476 85.5151 61.2104C85.9241 59.7599 86.6515 58.419 87.6444 57.2853C88.6372 56.1515 89.8705 55.2536 91.2543 54.6568ZM51.7414 35.8385C53.3636 36.2126 54.3067 37.0685 55.5006 38.1521C56.984 39.498 58.8297 41.1734 62.1214 41.5129C63.7815 41.6801 65.4573 41.4429 67.0058 40.8215C67.9852 40.4773 68.2921 40.3869 68.843 40.587C69.7132 40.9039 70.0022 41.5928 70.6069 43.4804C71.2336 45.4371 72.0136 47.8724 74.4471 49.9653C76.8988 52.0716 79.2613 52.2967 81.3455 52.4951C82.8199 52.6354 84.1301 52.761 85.5281 53.5487C83.9066 55.061 82.6615 56.9316 81.8922 59.0111C80.115 58.2618 78.2039 57.8814 76.2752 57.893C74.3464 57.9047 72.4401 58.3081 70.672 59.0789C70.5397 59.1362 70.4115 59.199 70.282 59.26C69.4593 58.1892 68.5131 57.2194 67.4629 56.3706C64.0093 53.5949 60.9216 53.2546 58.1975 52.9547C55.7698 52.6871 53.8522 52.4758 51.7451 50.5933C49.5163 48.6025 48.7511 46.2049 48.0111 43.8858C47.2603 41.5323 46.4215 38.9044 43.9338 37.3933C45.9351 36.143 49.1052 35.2317 51.7414 35.8385ZM85.2974 67.3456L66.7044 75.4052C65.9015 72.9921 66.0318 70.3657 67.0695 68.0439C68.1072 65.722 69.977 63.8731 72.3104 62.8617C74.6438 61.8502 77.2715 61.7496 79.6754 62.5795C82.0793 63.4095 84.0851 65.11 85.2974 67.3456ZM17.1215 66.8032C14.9599 66.2318 14.0334 65.9042 13.5684 64.9505C13.1591 64.1121 13.4015 63.42 14.1994 61.6558C14.9973 59.891 15.9904 57.6947 15.7735 54.6566C15.3911 49.3355 11.6619 46.2183 8.66563 43.7138C6.34594 41.7749 4.94865 40.5072 5.10365 39.2551C5.2187 38.3232 6.16418 37.1652 7.63292 36.1569C10.7733 34.0012 15.2789 33.072 18.5899 33.8984C20.9029 34.4752 22.2847 35.777 23.8849 37.2844C25.8808 39.1644 28.1432 41.2955 32.2709 41.7825C35.1147 42.1179 37.0369 41.4373 38.4407 40.9407C39.8134 40.4549 40.3349 40.305 41.2566 40.6618C42.7741 41.2483 43.2678 42.6009 44.078 45.1407C44.9014 47.7206 45.9256 50.9311 48.9948 53.6724C52.0871 56.435 55.0933 56.7659 57.7455 57.058C60.2225 57.3312 62.3609 57.5667 64.8763 59.5884C65.5946 60.1685 66.2487 60.8238 66.8276 61.543C64.7065 63.4455 63.2006 65.9369 62.5022 68.6992C61.8037 71.4615 61.9444 74.3693 62.9064 77.0512L56.9018 79.654C55.0008 78.3395 53.1294 76.9857 51.2876 75.5926L49.4152 64.8736C49.321 64.3342 49.0164 63.8544 48.5684 63.5397C48.1205 63.2249 47.5658 63.101 47.0265 63.1952C46.4871 63.2894 46.0073 63.594 45.6926 64.0419C45.3778 64.4899 45.2539 65.0446 45.3481 65.5839L46.4282 71.7664C43.9655 69.7503 41.5599 67.658 39.2114 65.4895L38.1491 57.2554C38.1144 56.9865 38.0271 56.7271 37.8922 56.492C37.7573 56.2569 37.5774 56.0506 37.3627 55.885C37.1481 55.7194 36.9029 55.5977 36.6412 55.5269C36.3796 55.456 36.1065 55.4374 35.8376 55.4721C35.5688 55.5068 35.3094 55.5941 35.0742 55.729C34.8391 55.864 34.6329 56.0439 34.4673 56.2585C34.3017 56.4732 34.18 56.7183 34.1091 56.98C34.0383 57.2417 34.0197 57.5147 34.0544 57.7836L34.4589 60.9189C32.0157 58.4717 29.6557 55.9512 27.3788 53.3573C27.2007 53.1511 26.9836 52.9822 26.74 52.8603C26.4963 52.7384 26.2309 52.6659 25.9592 52.6471C25.6874 52.6282 25.4146 52.6633 25.1564 52.7504C24.8983 52.8375 24.6599 52.9749 24.4551 53.1545C24.2503 53.3341 24.0831 53.5526 23.9631 53.7971C23.8431 54.0417 23.7727 54.3076 23.7559 54.5796C23.7392 54.8515 23.7764 55.124 23.8655 55.3815C23.9546 55.6389 24.0938 55.8762 24.275 56.0796C27.9183 60.2295 31.7667 64.1947 35.8058 67.9605C35.8347 67.9894 35.8644 68.0173 35.8949 68.0443C35.9839 68.1272 36.072 68.2108 36.161 68.2934L31.8457 68.5149C31.3004 68.5451 30.7893 68.79 30.4243 69.1961C30.0592 69.6022 29.8699 70.1365 29.8979 70.6818C29.9259 71.2272 30.1688 71.7393 30.5735 72.1059C30.9782 72.4726 31.5116 72.6639 32.0571 72.6381L40.5325 72.203C41.6667 73.1822 42.8127 74.1456 43.9704 75.0931C44.7437 75.7251 45.5241 76.3498 46.3115 76.9672L41.0906 77.2354C40.8192 77.2483 40.5529 77.3146 40.3071 77.4306C40.0614 77.5466 39.8409 77.71 39.6584 77.9114C39.476 78.1128 39.3351 78.3482 39.2438 78.6042C39.1525 78.8602 39.1127 79.1317 39.1266 79.4031C39.1406 79.6746 39.2079 79.9406 39.3249 80.1859C39.4419 80.4312 39.6061 80.651 39.8083 80.8327C40.0104 81.0143 40.2464 81.1543 40.5027 81.2446C40.7591 81.3348 41.0307 81.3736 41.3021 81.3586L51.4352 80.8384C51.7767 81.0864 52.1208 81.332 52.4638 81.5781L35.1223 89.0951C32.4862 87.4165 30.4626 85.3607 29.3751 83.2332C28.5485 81.6155 28.3228 80.1123 28.0841 78.5206C27.7238 76.1184 27.3153 73.3955 24.6917 70.7112C22.1817 68.1415 19.376 67.3993 17.1215 66.8032ZM130.672 110.309C131.744 112.791 131.788 115.597 130.795 118.111C129.801 120.625 127.85 122.643 125.371 123.721L88.5508 139.682C86.0689 140.754 83.263 140.798 80.7486 139.805C78.2341 138.811 76.2166 136.86 75.1385 134.381L73.2498 130.024C77.1591 129.311 80.9738 128.152 84.6189 126.569L118.489 111.888C122.135 110.309 125.59 108.321 128.787 105.962L130.672 110.309ZM142.332 81.7698C139.392 89.2532 134.606 95.8707 128.42 101.006C128.346 101.059 128.276 101.117 128.211 101.179C124.762 104.001 120.938 106.33 116.847 108.099L82.9769 122.781C59.39 133.006 31.9859 122.688 20.8712 99.7725L142.514 47.0437C146.835 58.2278 146.77 70.6316 142.332 81.7698Z" fill="#F8F4EC"/>
</svg>
