<svg width="53" height="53" viewBox="0 0 53 53" fill="none" xmlns="http://www.w3.org/2000/svg">
<circle cx="26.1442" cy="26.1442" r="26.1442" fill="white"/>
<circle cx="26.1442" cy="26.1442" r="26.1442" fill="#525744" fill-opacity="0.5"/>
<circle cx="26.144" cy="26.1445" r="15.6865" fill="#525744"/>
<path d="M26.1443 28.9329C26.588 28.9329 27.0136 28.7585 27.3274 28.4479C27.6412 28.1374 27.8175 27.7163 27.8175 27.2771V17.3423C27.8175 16.9032 27.6412 16.482 27.3274 16.1715C27.0136 15.861 26.588 15.6865 26.1443 15.6865C25.7005 15.6865 25.2749 15.861 24.9611 16.1715C24.6473 16.482 24.471 16.9032 24.471 17.3423V27.2771C24.471 27.7163 24.6473 28.1374 24.9611 28.4479C25.2749 28.7585 25.7005 28.9329 26.1443 28.9329ZM26.1443 35.5561C26.5579 35.5561 26.9623 35.4347 27.3063 35.2073C27.6502 34.9799 27.9183 34.6566 28.0766 34.2784C28.2349 33.9002 28.2763 33.4841 28.1956 33.0826C28.1149 32.6811 27.9157 32.3123 27.6232 32.0228C27.3307 31.7334 26.958 31.5362 26.5523 31.4564C26.1466 31.3765 25.7261 31.4175 25.3439 31.5742C24.9617 31.7308 24.635 31.9961 24.4052 32.3365C24.1754 32.6768 24.0527 33.077 24.0527 33.4864C24.0527 34.0353 24.2731 34.5617 24.6653 34.9499C25.0576 35.338 25.5896 35.5561 26.1443 35.5561Z" fill="#F1EDE6"/>
</svg>
