<svg width="25" height="31" viewBox="0 0 25 31" fill="none" xmlns="http://www.w3.org/2000/svg">
<path d="M14.1582 29.2876L14.1597 29.2894C14.198 29.3336 14.2114 29.4035 14.1841 29.4679C14.1542 29.5276 14.0925 29.5648 14.0303 29.5648H4.00864C3.94642 29.5648 3.88471 29.5276 3.85478 29.4679C3.82752 29.4035 3.84094 29.3336 3.87915 29.2894L3.88068 29.2876C4.92332 28.0699 5.39971 26.222 5.62612 24.7999C5.89244 23.1272 4.88198 21.6753 3.91294 20.5905C3.4995 20.1277 3.14801 19.6088 2.87141 19.047C2.60111 18.498 2.22326 17.932 1.86312 17.3926C1.71198 17.1662 1.56395 16.9445 1.42831 16.7307C0.944967 15.9687 0.583311 15.2617 0.509881 14.5556C0.503359 14.4928 0.5 14.429 0.5 14.3643C0.5 13.618 0.854994 12.8633 1.28516 11.9749C1.29335 11.9579 1.30158 11.941 1.30983 11.9239C1.70936 11.0992 2.17027 10.1478 2.17027 9.14964V2.67243C2.17027 1.47539 3.14566 0.5 4.3427 0.5H13.6962C14.8932 0.5 15.8686 1.47539 15.8686 2.67243V3.00648C15.8686 4.20461 16.8408 5.17675 18.0389 5.17675C18.1302 5.17675 18.207 5.25354 18.207 5.34486C18.207 5.43617 18.1302 5.51297 18.0389 5.51297C16.8408 5.51297 15.8686 6.4851 15.8686 7.68323V9.14964C15.8686 10.1478 16.3295 11.0992 16.7291 11.9239C16.7373 11.941 16.7455 11.9579 16.7537 11.9749C17.1839 12.8633 17.5389 13.618 17.5389 14.3643C17.5389 14.429 17.5355 14.4928 17.529 14.5556C17.4556 15.2617 17.0939 15.9687 16.6106 16.7307C16.4749 16.9445 16.3269 17.1662 16.1758 17.3926C15.8156 17.932 15.4378 18.498 15.1675 19.047C14.8909 19.6088 14.5394 20.1277 14.126 20.5905C13.1569 21.6753 12.1465 23.1272 12.4128 24.7999C12.6392 26.222 13.1156 28.0699 14.1582 29.2876ZM7.85134 4.00864C7.85134 4.09996 7.77455 4.17675 7.68323 4.17675H5.67891C5.5876 4.17675 5.5108 4.09996 5.5108 4.00864C5.5108 3.91733 5.5876 3.84054 5.67891 3.84054H7.68323C7.77455 3.84054 7.85134 3.91733 7.85134 4.00864ZM16.267 5.91137L15.9135 5.55782L16.267 5.91137C16.5781 5.60027 16.5781 5.08944 16.267 4.77835C15.9559 4.46725 15.4451 4.46725 15.134 4.77835C14.8229 5.08944 14.8229 5.60027 15.134 5.91137C15.4451 6.22247 15.9559 6.22247 16.267 5.91137ZM2.50648 8.02593C2.50648 10.5112 4.5212 12.5259 7.00648 12.5259H11.0324C13.5177 12.5259 15.5324 10.5112 15.5324 8.02593V7.68323C15.5324 6.4851 14.5603 5.51297 13.3621 5.51297C13.2708 5.51297 13.194 5.43618 13.194 5.34486C13.194 5.25354 13.2708 5.17675 13.3621 5.17675C14.5603 5.17675 15.5324 4.20461 15.5324 3.00648V2.67243C15.5324 1.65803 14.7106 0.836215 13.6962 0.836215H4.3427C3.3283 0.836215 2.50648 1.65803 2.50648 2.67243V8.02593ZM12.1538 25.2836C11.8775 23.8096 10.4064 22.8838 9.01945 22.8838C7.63252 22.8838 6.16139 23.8096 5.88514 25.2836C5.87221 25.3526 5.85872 25.4221 5.84465 25.492C5.66755 26.3718 5.89325 27.2928 6.37715 27.9954C6.86303 28.7008 7.64252 29.2286 8.59183 29.2286H9.44707C10.3964 29.2286 11.1759 28.7008 11.6617 27.9954C12.1456 27.2928 12.3713 26.3718 12.1942 25.492C12.1802 25.4221 12.1667 25.3526 12.1538 25.2836ZM13.2906 20.9468C13.8214 20.4841 14.1164 19.9343 14.1722 19.3525C14.2274 18.7767 14.0432 18.2263 13.7209 17.7632C13.0833 16.8469 11.8645 16.2027 10.5227 16.2027H7.51618C6.17436 16.2027 4.95562 16.8469 4.31797 17.7632C3.99572 18.2263 3.81145 18.7767 3.86669 19.3525C3.92252 19.9343 4.21751 20.4841 4.74831 20.9468C5.8913 21.9429 7.38591 22.5475 9.01945 22.5475C10.653 22.5475 12.1476 21.9429 13.2906 20.9468ZM15.7005 12.8621H2.33838C1.51104 12.8621 0.836215 13.537 0.836215 14.3643C0.836215 15.1916 1.51104 15.8665 2.33838 15.8665H15.7005C16.5279 15.8665 17.2027 15.1916 17.2027 14.3643C17.2027 13.537 16.5279 12.8621 15.7005 12.8621ZM24.22 10.0216C24.22 10.1129 24.1432 10.1897 24.0519 10.1897C22.8537 10.1897 21.8816 11.1619 21.8816 12.36C21.8816 12.4513 21.8048 12.5281 21.7135 12.5281C21.6222 12.5281 21.5454 12.4513 21.5454 12.36C21.5454 11.1619 20.5732 10.1897 19.3751 10.1897C19.2838 10.1897 19.207 10.1129 19.207 10.0216C19.207 9.93029 19.2838 9.8535 19.3751 9.8535C20.5732 9.8535 21.5454 8.88136 21.5454 7.68323C21.5454 7.59192 21.6222 7.51513 21.7135 7.51513C21.8048 7.51513 21.8816 7.59192 21.8816 7.68323C21.8816 8.88136 22.8537 9.8535 24.0519 9.8535C24.1432 9.8535 24.22 9.93029 24.22 10.0216ZM22.28 10.5881C22.5911 10.277 22.5911 9.7662 22.28 9.4551C21.9689 9.14399 21.4581 9.144 21.147 9.45509C20.8359 9.76619 20.8359 10.277 21.147 10.5881C21.4581 10.8992 21.9689 10.8992 22.28 10.5881Z" fill="#555B47" stroke="#555B47"/>
</svg>
