<svg width="29" height="28" viewBox="0 0 29 28" fill="none" xmlns="http://www.w3.org/2000/svg">
<path d="M14.5966 26.1099C14.6623 26.2407 14.732 26.371 14.8058 26.5H14.3839C14.4484 26.394 14.5069 26.2884 14.5593 26.185C14.5719 26.1601 14.5843 26.1351 14.5966 26.1099ZM17.0551 26.9733C17.255 27.1569 17.2981 27.4182 17.1727 27.6391L17.0551 26.9733ZM6.35639 26.5C6.4302 26.371 6.49985 26.2407 6.56558 26.1099C6.57783 26.1351 6.59026 26.1601 6.60287 26.185C6.65527 26.2884 6.71372 26.394 6.77829 26.5H6.35639ZM17.8816 16.1025C17.696 16.3214 17.5007 16.5561 17.3115 16.8019C17.2258 16.553 17.1113 16.3185 16.9768 16.1033C16.914 16.0029 16.8463 15.9055 16.7741 15.8111H18.1301C18.0497 15.905 17.9671 16.0017 17.8816 16.1025ZM18.1992 10.27C18.309 10.5126 18.4269 10.7394 18.5419 10.9475C18.5004 10.9454 18.4594 10.9444 18.4189 10.9444H17.6637C17.8591 10.7343 18.0383 10.5088 18.1992 10.27ZM2.62031 10.9475C2.73527 10.7394 2.85318 10.5126 2.96293 10.27C3.12386 10.5088 3.30303 10.7343 3.49846 10.9444H2.74324C2.70276 10.9444 2.66175 10.9454 2.62031 10.9475ZM18.7243 4.97778C18.7231 4.97879 18.7219 4.9798 18.7207 4.98081C18.7207 4.97879 18.7207 4.97677 18.7207 4.97475C18.7219 4.97576 18.7231 4.97677 18.7243 4.97778ZM18.1171 4.97475C18.1171 4.97676 18.1171 4.97879 18.1171 4.98081C18.1159 4.9798 18.1147 4.97879 18.1136 4.97778C18.1147 4.97677 18.1159 4.97576 18.1171 4.97475ZM3.03208 15.8111H4.38806C4.31581 15.9055 4.24815 16.0029 4.1854 16.1033C4.05083 16.3185 3.93638 16.553 3.85065 16.8019C3.66149 16.5561 3.46611 16.3214 3.28058 16.1025C3.19509 16.0017 3.11245 15.905 3.03208 15.8111ZM25.7748 9.3303C25.776 9.33132 25.7771 9.33232 25.7783 9.33333C25.7771 9.33434 25.776 9.33535 25.7748 9.33636C25.7748 9.33434 25.7748 9.33232 25.7748 9.3303ZM25.1712 9.3303C25.1712 9.33232 25.1712 9.33435 25.1712 9.33636C25.17 9.33535 25.1688 9.33434 25.1676 9.33333C25.1688 9.33232 25.17 9.33131 25.1712 9.3303Z" stroke="#555B47" stroke-width="3"/>
</svg>
