<?xml version="1.0" standalone="no"?>
<!DOCTYPE svg PUBLIC "-//W3C//DTD SVG 20010904//EN"
 "http://www.w3.org/TR/2001/REC-SVG-20010904/DTD/svg10.dtd">
<svg version="1.0" xmlns="http://www.w3.org/2000/svg"
 width="700.000000pt" height="700.000000pt" viewBox="0 0 700.000000 700.000000"
 preserveAspectRatio="xMidYMid meet">
<metadata>
Created by potrace 1.14, written by Peter Selinger 2001-2017
</metadata>
<g transform="translate(0.000000,700.000000) scale(0.100000,-0.100000)"
fill="#000000" stroke="none">
<path d="M4207 6583 c-4 -3 -7 -13 -7 -20 0 -8 -17 -48 -37 -90 -61 -125 -58
-271 9 -390 41 -72 39 -114 -7 -208 -24 -51 -39 -96 -42 -134 l-5 -58 128 1
128 1 7 31 c3 18 15 47 27 65 37 62 55 145 49 235 -4 69 -11 95 -41 157 -46
92 -48 138 -12 203 31 56 56 136 56 181 l0 33 -123 0 c-68 0 -127 -3 -130 -7z"/>
<path d="M3358 5443 c-74 -65 -161 -140 -193 -168 -123 -106 -140 -120 -155
-135 -8 -8 -76 -67 -150 -130 -74 -63 -137 -117 -140 -120 -3 -4 -156 -136
-340 -295 -184 -159 -351 -304 -370 -321 -19 -17 -73 -64 -120 -104 -184 -158
-270 -233 -270 -236 0 -3 131 -158 155 -182 10 -11 51 21 226 172 118 102 216
186 219 186 4 0 5 -1597 1 -1635 -1 -7 -67 -10 -183 -11 l-183 0 -3 -129 -3
-130 1651 0 1650 0 0 126 c0 93 -3 128 -12 131 -7 2 -91 3 -185 3 -152 -2
-173 0 -174 14 -4 72 -3 1624 1 1626 3 2 48 -33 101 -78 97 -83 213 -184 233
-202 6 -6 32 -27 57 -48 l46 -37 69 82 c37 44 75 88 83 96 16 16 16 17 -114
128 -159 137 -404 349 -440 382 l-40 37 1 523 c1 494 0 524 -17 530 -10 4
-228 7 -486 6 l-468 0 -1 -102 c-1 -57 -3 -105 -6 -107 -2 -3 -27 15 -54 39
-111 98 -239 206 -245 206 -3 0 -67 -53 -141 -117z m1153 -182 c7 -1 8 -571 1
-571 -3 0 -26 19 -51 41 -64 58 -95 85 -176 154 -38 33 -81 70 -94 82 -14 12
-48 41 -77 65 l-52 43 -1 92 c-1 80 1 92 16 95 16 3 418 2 434 -1z m-981 -64
c14 -12 72 -63 130 -112 58 -50 107 -92 110 -95 3 -3 39 -35 80 -70 41 -36 89
-77 105 -91 17 -15 71 -61 120 -104 138 -119 207 -179 219 -190 6 -6 42 -36
79 -68 38 -31 62 -57 55 -58 -7 -1 -431 -2 -941 -3 l-928 -1 33 30 c18 17 65
57 103 90 38 33 87 76 110 96 22 20 141 123 265 230 124 106 239 205 255 220
102 90 171 149 175 149 3 0 16 -10 30 -23z m986 -1239 l2 -188 -1018 0 -1018
0 1 188 0 188 1016 0 1016 -1 1 -187z m-1471 -645 l0 -198 -280 0 -280 0 -2
198 -1 197 282 0 282 0 -1 -197z m650 -325 l0 -523 -195 0 -195 0 0 523 0 522
195 0 195 0 0 -522z m823 324 l-1 -197 -281 0 -281 0 -1 190 c-1 105 1 193 3
198 2 4 130 7 283 7 l278 0 0 -198z m-1473 -652 l0 -195 -281 0 -281 0 -1 190
c0 104 2 193 4 196 2 3 128 6 281 5 l278 -1 0 -195z m1472 1 l-2 -196 -270 -1
c-148 0 -275 1 -281 3 -7 3 -10 66 -9 191 1 103 3 190 4 193 0 4 127 7 280 7
l279 -1 -1 -196z"/>
<path d="M2368 2012 c-13 -2 -15 -23 -14 -130 l1 -127 825 0 825 0 5 70 c3 39
4 97 2 130 l-3 60 -813 0 c-447 0 -819 -1 -828 -3z"/>
<path d="M4314 2011 c-2 -2 -4 -59 -4 -127 0 -89 3 -123 13 -126 6 -2 82 -4
167 -4 l155 1 0 129 0 130 -163 0 c-90 1 -166 -1 -168 -3z"/>
</g>
</svg>
