<svg width="1419" height="938" viewBox="0 0 1419 938" fill="none" xmlns="http://www.w3.org/2000/svg">
<path d="M1 101.908C1 101.908 339.5 13.4043 339.5 253.904C339.5 347.904 202 314.408 202 591.408C202 868.408 358.5 776.908 358.5 929.908C358.5 1192.91 -17.5 1032.41 -17.5 1032.41" stroke="#555B47" stroke-opacity="0.1" stroke-width="3"/>
<path d="M-106 191.677C-106 191.677 251 -2.82356 251 237.676C251 331.676 113.5 324.586 113.5 601.586C113.5 878.586 270 819.677 270 940.086C270 1203.09 -106 1042.59 -106 1042.59" stroke="#555B47" stroke-opacity="0.1" stroke-width="3"/>
<path d="M-151 267.904C-151 267.904 191.5 35.9047 191.5 230.404C191.5 324.404 53.5 305.404 53.5 622.584C53.5 899.584 210 855.904 210 961.084C210 1224.08 -166 1063.58 -166 1063.58" stroke="#555B47" stroke-opacity="0.1" stroke-width="3"/>
<path d="M-161.5 338.905C-161.5 338.905 152.5 75.4041 152.5 231.097C152.5 285.904 14.5 306.098 14.5 623.277C14.5 900.277 171 903.404 171 961.777C171 1224.78 -205 1064.28 -205 1064.28" stroke="#555B47" stroke-opacity="0.1" stroke-width="3"/>
<path d="M811.456 957C811.456 957 782.456 807.999 892.456 698C1002.46 588.001 1226.46 682.5 1226.46 469C1226.46 255.5 870.457 26.5 870.457 26.5" stroke="#555B47" stroke-opacity="0.1" stroke-width="3"/>
<path d="M908.414 957C908.414 957 883.371 829.5 967.414 745.5C1051.46 661.5 1323.41 726 1323.41 469C1323.41 246 981.457 11.5 981.457 11.5" stroke="#555B47" stroke-opacity="0.1" stroke-width="3"/>
<path d="M982.957 967.5C982.957 967.5 957.957 856 1019.96 795C1081.96 734 1396.22 745 1396.22 488C1396.22 265 1070.96 16 1070.96 16" stroke="#555B47" stroke-opacity="0.1" stroke-width="3"/>
<path d="M1030.96 969.5C1030.96 969.5 986.457 884.5 1060.46 824C1134.46 763.5 1416.51 765.5 1416.51 508.5C1416.51 285.5 1226.96 1 1226.96 1" stroke="#555B47" stroke-opacity="0.1" stroke-width="3"/>
</svg>
