<svg width="414" height="369" viewBox="0 0 414 369" fill="none" xmlns="http://www.w3.org/2000/svg">
<path d="M62.6243 300.45C67.9592 300.559 73.2634 299.641 78.2293 297.749C83.1952 295.856 87.724 293.027 91.5532 289.426C95.4088 285.541 98.4015 280.932 100.347 275.882C102.292 270.833 103.148 265.45 102.862 260.068C102.776 257.285 103.551 254.542 105.086 252.189C106.62 249.836 108.846 247.981 111.476 246.862C114.559 245.538 117.362 243.672 119.744 241.359C127.665 233.656 130.121 221.743 126.311 209.522C126.211 209.168 126.038 208.837 125.804 208.549C125.569 208.26 125.278 208.02 124.946 207.843C124.615 207.665 124.25 207.554 123.873 207.515C123.496 207.476 123.115 207.511 122.753 207.617C122.39 207.723 122.053 207.899 121.761 208.133C121.47 208.367 121.229 208.656 121.054 208.982C120.88 209.307 120.774 209.664 120.743 210.03C120.713 210.395 120.758 210.764 120.877 211.112C124.071 221.363 122.143 231.221 115.724 237.475C113.835 239.311 111.612 240.794 109.168 241.849C105.532 243.431 102.457 246.016 100.329 249.281C98.1996 252.546 97.1107 256.347 97.1976 260.208C97.4617 264.847 96.7413 269.489 95.081 273.847C93.4206 278.205 90.8555 282.187 87.5442 285.547C84.2555 288.652 80.3558 291.085 76.0772 292.7C71.7985 294.315 67.2283 295.079 62.6385 294.948C47.6934 294.476 33.5414 288.319 23.2469 277.81C3.31269 258.458 -0.244873 230.415 15.3198 215.297C18.8407 212.023 23.0281 209.498 27.614 207.882C32.1999 206.267 37.0833 205.597 41.9518 205.915C45.9417 206.022 49.8755 204.986 53.2597 202.935C56.6438 200.884 59.3277 197.911 60.9747 194.387C62.0252 192.163 63.4782 190.14 65.2648 188.412C71.7013 182.139 81.8686 180.274 92.4533 183.421C92.8114 183.533 93.189 183.575 93.564 183.544C93.939 183.513 94.304 183.411 94.6377 183.242C94.9714 183.074 95.2672 182.842 95.5079 182.562C95.7485 182.282 95.9293 181.958 96.0396 181.609C96.1498 181.26 96.1875 180.894 96.1503 180.531C96.1131 180.168 96.0018 179.816 95.8229 179.495C95.644 179.174 95.4011 178.891 95.1082 178.662C94.8154 178.433 94.4785 178.262 94.117 178.161C81.491 174.408 69.1914 176.785 61.2444 184.527C58.9886 186.707 57.1539 189.261 55.8271 192.068C54.6627 194.618 52.7406 196.774 50.3062 198.261C47.8718 199.747 45.0354 200.498 42.1591 200.415C36.5087 200.06 30.8442 200.855 25.5301 202.749C20.2161 204.644 15.3704 207.596 11.3051 211.415C-6.46279 228.673 -2.89104 260.202 19.2351 281.698C30.5902 293.235 46.179 299.972 62.6243 300.45Z" fill="#555B47"/>
<path d="M31.8358 251.281C32.3686 250.771 33.0873 250.487 33.835 250.49C34.5827 250.493 35.2988 250.783 35.8272 251.297L37.4079 252.836C37.9391 253.352 38.6597 253.642 39.4112 253.643C40.1626 253.643 40.8834 253.353 41.415 252.837C41.9465 252.321 42.2453 251.621 42.2456 250.891C42.2458 250.161 41.9476 249.461 41.4164 248.944L39.8527 247.425C39.0675 246.647 38.1297 246.03 37.0948 245.61C36.0598 245.19 34.9487 244.976 33.8272 244.981C32.7093 244.975 31.6015 245.186 30.569 245.602C29.5365 246.019 28.6004 246.632 27.816 247.406L26.2947 248.886C24.7144 250.433 23.8276 252.524 23.8276 254.703C23.8276 256.882 24.7144 258.973 26.2947 260.519L42.034 275.915C42.8253 276.684 43.7651 277.295 44.7994 277.711C45.8338 278.128 46.9425 278.342 48.0622 278.342C49.1819 278.342 50.2907 278.128 51.325 277.711C52.3594 277.295 53.2991 276.684 54.0905 275.915L55.6089 274.44C57.1839 272.884 58.0651 270.788 58.0619 268.606C58.0588 266.424 57.1714 264.33 55.5919 262.779L49.3993 256.746C48.8678 256.23 48.147 255.941 47.3955 255.941C46.6441 255.941 45.9235 256.231 45.3923 256.748C44.8611 257.264 44.5628 257.964 44.5631 258.694C44.5634 259.424 44.8622 260.125 45.3937 260.641L51.6005 266.673C52.1254 267.192 52.4195 267.891 52.4195 268.619C52.4195 269.347 52.1254 270.045 51.6005 270.565L50.0991 272.023C49.5541 272.526 48.831 272.807 48.0792 272.807C47.3274 272.807 46.6044 272.526 46.0594 272.023L30.289 256.625C29.77 256.111 29.4792 255.419 29.4792 254.699C29.4792 253.978 29.77 253.287 30.289 252.772L31.8358 251.281ZM178.104 155.04L178.489 154.665C180.277 152.916 181.281 150.551 181.281 148.086C181.281 145.621 180.277 143.256 178.489 141.507L164.223 127.601C163.336 126.737 162.282 126.051 161.122 125.583C159.962 125.115 158.718 124.874 157.462 124.874C156.206 124.874 154.962 125.115 153.802 125.583C152.642 126.051 151.588 126.737 150.702 127.601L150.328 127.964L147.577 125.298C147.314 125.042 147.002 124.839 146.658 124.7C146.315 124.561 145.946 124.49 145.574 124.489C145.202 124.489 144.834 124.56 144.49 124.698C144.146 124.836 143.833 125.038 143.57 125.293C143.307 125.549 143.098 125.852 142.955 126.186C142.812 126.52 142.738 126.878 142.738 127.239C142.738 127.6 142.81 127.959 142.952 128.293C143.094 128.627 143.303 128.93 143.566 129.186L146.328 131.878L140.815 137.236L138.067 134.556C137.534 134.054 136.818 133.775 136.076 133.78C135.333 133.786 134.622 134.074 134.096 134.584C133.57 135.093 133.271 135.783 133.263 136.505C133.256 137.226 133.541 137.922 134.056 138.442L137.172 141.483L128.957 153.518C128.596 154.046 128.434 154.68 128.498 155.311C128.563 155.943 128.85 156.533 129.311 156.983L129.69 157.354L73.7363 211.884C70.0925 211.213 66.3358 211.407 62.7856 212.449C59.2354 213.491 55.9965 215.35 53.3444 217.868C50.6922 220.387 48.7052 223.49 47.5521 226.915C46.399 230.339 46.114 233.983 46.7212 237.538C47.3285 241.092 48.8101 244.451 51.0401 247.33C53.2701 250.209 56.1825 252.522 59.53 254.073C62.8774 255.624 66.5608 256.367 70.2671 256.239C73.9734 256.111 77.593 255.115 80.8183 253.336C81.1506 253.162 81.4436 252.925 81.6801 252.639C81.9166 252.353 82.0918 252.024 82.1955 251.671C82.2991 251.318 82.3291 250.949 82.2837 250.584C82.2383 250.22 82.1184 249.868 81.931 249.55C81.7437 249.231 81.4926 248.952 81.1927 248.729C80.8927 248.507 80.5499 248.344 80.1844 248.252C79.8189 248.159 79.4381 248.139 79.0644 248.192C78.6907 248.245 78.3315 248.369 78.0082 248.559C74.7112 250.373 70.8925 251.087 67.138 250.589C63.3835 250.092 59.9006 248.412 57.2236 245.807C54.5085 243.182 52.7616 239.76 52.2543 236.072C51.747 232.384 52.5077 228.637 54.4182 225.412C56.3288 222.187 59.2822 219.665 62.8195 218.239C66.3569 216.812 70.2802 216.561 73.9799 217.523C76.9244 218.282 79.6064 219.791 81.7475 221.896C84.3479 224.476 86.0439 227.787 86.5938 231.358C87.1437 234.929 86.5193 238.577 84.8098 241.783C84.6265 242.104 84.5109 242.456 84.4698 242.821C84.4287 243.185 84.463 243.554 84.5707 243.905C84.6783 244.257 84.8572 244.584 85.0967 244.867C85.3362 245.15 85.6315 245.384 85.9654 245.555C86.2992 245.726 86.6649 245.83 87.0408 245.862C87.4168 245.894 87.7955 245.852 88.1546 245.74C88.5138 245.627 88.8463 245.446 89.1324 245.207C89.4186 244.968 89.6527 244.676 89.8211 244.348C92.27 239.845 93.0568 234.663 92.0505 229.666C92.0505 229.666 130.897 191.775 130.926 191.758C131.189 191.503 131.398 191.199 131.54 190.865C131.683 190.531 131.756 190.173 131.756 189.811C131.756 189.449 131.683 189.091 131.54 188.757C131.398 188.423 131.189 188.12 130.926 187.864L118.648 175.895L133.662 161.262L143.945 171.28L134.92 180.086C134.405 180.606 134.12 181.302 134.127 182.023C134.135 182.745 134.434 183.435 134.96 183.944C135.486 184.454 136.197 184.742 136.94 184.748C137.682 184.753 138.398 184.475 138.931 183.972L147.951 175.179L148.316 175.534C148.78 175.985 149.389 176.266 150.042 176.329C150.694 176.391 151.349 176.232 151.894 175.878L164.226 167.864L167.342 170.892C167.878 171.398 168.596 171.682 169.344 171.682C170.093 171.682 170.811 171.398 171.347 170.892C171.878 170.376 172.177 169.676 172.177 168.946C172.177 168.216 171.878 167.516 171.347 167L168.582 164.306L174.095 158.934L176.849 161.614C177.39 162.112 178.107 162.389 178.852 162.389C179.596 162.389 180.313 162.112 180.854 161.614C181.385 161.098 181.684 160.398 181.684 159.669C181.684 158.939 181.385 158.239 180.854 157.723L178.104 155.04ZM79.7334 213.836L95.6312 198.338L105.906 208.351L90.0222 223.842C87.8486 219.477 84.2238 215.952 79.7334 213.836ZM124.923 189.801L109.909 204.451L99.6369 194.439L114.651 179.795L124.923 189.801ZM150.702 170.036L134.951 154.69L143.027 142.884L152.333 133.802L154.719 131.479C155.078 131.128 155.506 130.85 155.977 130.661C156.449 130.472 156.954 130.376 157.464 130.378C157.974 130.376 158.48 130.472 158.952 130.661C159.424 130.85 159.853 131.128 160.214 131.479L174.478 145.388C175.208 146.104 175.619 147.072 175.619 148.081C175.619 149.09 175.208 150.057 174.478 150.774L172.107 153.086L162.786 162.168L150.702 170.036Z" fill="#555B47"/>
<path d="M247.324 5.18119L180.592 51.7534C177.721 53.7564 175.791 56.7816 175.223 60.1635C174.656 63.5454 175.499 67.007 177.568 69.7868L236.049 148.395C237.896 150.687 240.591 152.193 243.564 152.595C246.537 152.996 249.555 152.262 251.979 150.547L285.833 126.921C286.311 126.587 286.633 126.083 286.727 125.519C286.822 124.955 286.681 124.378 286.337 123.915C285.992 123.452 285.471 123.14 284.889 123.049C284.307 122.957 283.712 123.093 283.233 123.427L249.38 147.053C247.917 148.112 246.087 148.581 244.274 148.362C242.461 148.143 240.806 147.253 239.656 145.878L239.305 145.406C239.066 145.033 238.871 144.635 238.724 144.22C238.653 143.998 238.595 143.773 238.55 143.545C238.446 143.405 238.468 143.177 238.432 143.017C238.359 142.387 238.365 141.751 238.447 141.122C238.584 140.272 238.896 139.458 239.363 138.726C239.831 137.994 240.444 137.36 241.168 136.861L309.704 89.0304C310.044 88.794 310.357 88.5225 310.636 88.2207L310.961 87.9941L311.339 87.5446L312.807 89.5186C313.152 89.9818 313.292 90.5588 313.198 91.1224C313.103 91.6861 312.782 92.1903 312.303 92.5241L243.767 140.355C243.289 140.689 242.967 141.193 242.872 141.757C242.778 142.32 242.918 142.897 243.263 143.361C243.608 143.824 244.128 144.136 244.71 144.227C245.292 144.319 245.888 144.183 246.366 143.849L314.902 96.0178C315.514 95.5837 316.045 95.0517 316.472 94.4447L318.006 96.506C318.35 96.9693 318.491 97.5462 318.396 98.1099C318.302 98.6735 317.98 99.1777 317.502 99.5115L299.466 112.099C298.987 112.432 298.665 112.937 298.571 113.5C298.476 114.064 298.617 114.641 298.962 115.104C299.306 115.567 299.827 115.879 300.409 115.971C300.991 116.062 301.586 115.926 302.065 115.592L320.101 103.005C321.536 102.004 322.501 100.491 322.785 98.8002C323.068 97.1093 322.647 95.3785 321.613 93.9886L256.634 6.64564C255.6 5.25576 254.038 4.32064 252.292 4.046C250.546 3.77136 248.759 4.1797 247.324 5.18119ZM237.062 134.658L236.648 135.132C236.347 135.466 236.069 135.819 235.818 136.189C235.638 136.315 235.561 136.581 235.433 136.777C235.22 137.147 235.028 137.529 234.859 137.92L234.593 138.557L234.457 138.891L181.175 67.2694C179.796 65.4162 179.234 63.1085 179.612 60.8539C179.99 58.5993 181.277 56.5825 183.191 55.2471L240.372 132.109L238.569 133.368C238.022 133.747 237.518 134.179 237.062 134.658ZM243.979 129.591L186.798 52.7297L249.923 8.67491C250.402 8.34108 250.997 8.20496 251.579 8.29651C252.161 8.38805 252.682 8.69976 253.026 9.16306L307.609 82.5311C307.954 82.9944 308.094 83.5713 308 84.135C307.905 84.6986 307.583 85.2029 307.105 85.5367L243.979 129.591Z" fill="#555B47"/>
<path d="M249.499 30.2039L209.82 57.8946C209.341 58.2285 209.02 58.7327 208.925 59.2963C208.83 59.86 208.971 60.4369 209.316 60.9002L218.412 73.1284C218.757 73.5917 219.278 73.9034 219.86 73.995C220.442 74.0865 221.037 73.9504 221.516 73.6166L261.195 45.9258C261.673 45.592 261.995 45.0878 262.09 44.5242C262.184 43.9605 262.044 43.3836 261.699 42.9203L252.602 30.6921C252.258 30.2288 251.737 29.9171 251.155 29.8255C250.573 29.734 249.978 29.8701 249.499 30.2039ZM256.792 43.6907L220.72 68.8642L214.222 60.1297L250.295 34.9563L256.792 43.6907ZM277.081 74.6465L244.616 97.3026C244.138 97.6364 243.816 98.1406 243.721 98.7042C243.627 99.2679 243.767 99.8448 244.112 100.308C244.457 100.771 244.977 101.083 245.559 101.175C246.141 101.266 246.737 101.13 247.215 100.796L279.68 78.1402C280.158 77.8064 280.48 77.3022 280.575 76.7386C280.669 76.1749 280.529 75.598 280.184 75.1347C279.839 74.6714 279.319 74.3597 278.737 74.2681C278.155 74.1765 277.559 74.3127 277.081 74.6465ZM283.579 83.3809L251.114 106.037C250.635 106.371 250.314 106.875 250.219 107.439C250.124 108.002 250.265 108.579 250.61 109.043C250.954 109.506 251.475 109.818 252.057 109.909C252.639 110.001 253.234 109.865 253.713 109.531L286.178 86.8747C286.656 86.5409 286.978 86.0367 287.073 85.473C287.167 84.9094 287.027 84.3324 286.682 83.8691C286.337 83.4058 285.817 83.0941 285.235 83.0025C284.653 82.911 284.057 83.0471 283.579 83.3809ZM292.25 117.136L290.447 118.395C289.968 118.729 289.646 119.233 289.552 119.797C289.457 120.36 289.598 120.937 289.943 121.4C290.287 121.864 290.808 122.175 291.39 122.267C291.972 122.359 292.567 122.222 293.046 121.889L294.849 120.63C295.328 120.296 295.649 119.792 295.744 119.228C295.839 118.665 295.698 118.088 295.353 117.624C295.009 117.161 294.488 116.849 293.906 116.758C293.324 116.666 292.729 116.802 292.25 117.136Z" fill="#555B47"/>
<path d="M347.834 320.858H342.582C341.006 320.858 339.956 321.876 339.956 323.402C339.956 324.928 341.006 325.945 342.582 325.945H347.834C349.41 325.945 350.46 324.928 350.46 323.402C350.46 321.876 349.41 320.858 347.834 320.858ZM342.319 214.793C351.248 206.145 352.561 192.664 345.471 182.49C344.683 181.218 343.107 180.964 341.794 181.727C340.481 182.49 340.218 184.016 341.006 185.288C345.471 191.647 346.521 201.312 340.744 208.688L332.603 178.675C333.128 178.929 334.966 179.692 335.229 179.692C336.279 179.692 337.067 179.183 337.592 178.42C338.38 177.148 337.855 175.622 336.542 174.859C334.704 173.842 332.865 173.333 330.764 172.824C329.189 169.772 325.249 167.992 321.573 169.009C318.159 169.772 316.058 172.57 315.795 175.877L237.274 195.716C233.86 196.479 231.759 199.277 231.497 202.584L225.982 204.11L223.356 194.19L230.709 192.41C232.284 191.901 238.062 189.357 236.486 182.999C235.698 178.929 230.971 176.64 226.77 177.657C225.456 177.911 224.669 179.438 224.931 180.709C225.194 181.981 226.77 182.744 228.083 182.49C229.396 182.235 230.971 182.999 231.234 184.27C231.759 186.814 230.183 187.323 229.396 187.323L206.548 193.173L205.235 187.831L218.629 184.27C219.942 184.016 220.992 182.49 220.467 181.218C220.204 179.946 218.629 179.183 217.315 179.438L201.296 183.507C199.983 184.016 199.195 185.288 199.458 186.814L202.084 196.734C202.872 199.023 204.973 198.514 205.235 198.514L217.841 195.208L220.467 205.127L218.103 205.636C214.689 206.399 212.588 209.197 212.326 212.504L201.821 215.301C199.983 212.758 196.569 211.486 193.418 212.249C189.216 213.267 186.852 217.591 187.903 221.66L190.792 231.834C191.054 233.106 192.63 234.124 193.943 233.615C195.256 233.361 196.306 231.834 195.781 230.563L192.892 220.389C192.63 219.117 193.418 217.591 194.731 217.336C196.306 216.573 197.619 217.336 198.145 218.608L203.397 238.193C203.66 238.956 203.66 240.482 201.559 241.246C200.246 241.754 198.67 240.737 198.407 239.465C198.145 238.193 196.569 237.43 195.256 237.685C193.943 237.939 193.155 239.465 193.418 240.737C194.468 244.043 197.619 247.859 203.134 246.078C208.912 244.298 208.649 240.737 208.912 239.465L219.416 236.667C221.78 241.5 227.295 239.974 228.083 239.719L241.213 236.413C242.001 237.685 243.314 238.702 244.89 239.211C245.152 239.211 247.516 239.719 248.304 237.685C248.829 236.413 248.041 234.887 246.728 234.378C245.94 234.124 245.415 233.361 245.152 232.343L237.011 203.092C236.749 201.566 237.537 200.295 238.85 199.786L316.846 179.946L326.3 214.284L294.524 222.169C293.211 222.423 292.16 223.949 292.685 225.221C293.473 227.51 295.574 227.002 295.837 227.002L328.138 218.862C329.714 220.897 332.34 222.932 336.804 221.915C342.319 221.406 342.319 216.319 342.319 214.793ZM207.861 234.632L203.66 219.88L213.114 217.336L217.053 232.089L207.861 234.632ZM239.112 231.834L226.507 235.141C224.931 235.395 223.618 234.632 223.093 233.361L217.841 213.775C217.578 212.249 218.366 210.977 219.679 210.469L232.284 207.162L239.112 231.834ZM335.229 217.845C333.916 218.099 332.34 217.336 332.077 216.065L321.048 176.64C320.785 175.368 321.573 173.842 322.886 173.587C323.149 173.587 325.512 173.079 326.037 175.368L336.804 214.793C337.33 215.301 337.067 217.336 335.229 217.845Z" fill="#555B47"/>
<path d="M274.303 229.291C272.727 229.291 271.676 230.309 271.676 231.835C271.676 233.361 270.626 234.378 269.05 234.378C267.475 234.378 266.424 233.361 266.424 231.835C266.424 230.309 267.475 229.291 269.05 229.291C270.626 229.291 271.676 228.274 271.676 226.748C271.676 225.222 270.626 224.204 269.05 224.204C264.586 224.204 261.172 227.511 261.172 231.835C261.172 236.159 264.586 239.465 269.05 239.465C273.515 239.465 276.929 236.159 276.929 231.835C276.929 230.309 275.878 229.291 274.303 229.291ZM271.151 202.33C271.414 202.33 309.23 192.919 309.23 192.919C310.543 192.664 311.594 191.138 311.068 189.866C310.806 188.595 309.23 187.577 307.917 188.086L270.626 197.243C269.313 197.497 268.262 199.023 268.788 200.295C268.788 201.567 269.838 202.33 271.151 202.33ZM255.92 206.145C256.182 206.145 261.697 204.619 261.697 204.619C263.01 204.365 263.798 202.838 263.535 201.567C263.273 200.295 261.697 199.532 260.384 199.786L255.132 201.312C253.819 201.567 253.031 203.093 253.293 204.365C253.556 205.382 254.607 206.145 255.92 206.145Z" fill="#555B47"/>
<path d="M332.077 320.858H291.898L271.676 256.761V249.384C280.605 248.113 287.433 240.736 287.433 231.834C287.433 221.914 279.292 214.029 269.05 214.029C258.808 214.029 250.667 221.914 250.667 231.834C250.667 240.736 257.495 248.113 266.424 249.384V256.761L246.203 320.858H190.266C188.691 320.858 187.64 321.875 187.64 323.401C187.64 324.928 188.691 325.945 190.266 325.945H274.302C275.878 325.945 276.929 324.928 276.929 323.401C276.929 321.875 275.878 320.858 274.302 320.858H271.676V274.311L286.383 320.858C286.383 320.858 282.181 320.349 282.181 323.401C282.181 324.928 283.231 325.945 284.807 325.945H332.077C333.653 325.945 334.704 324.928 334.704 323.401C334.704 321.875 333.653 320.858 332.077 320.858ZM266.424 320.858H251.718L266.424 274.311V320.858ZM269.05 244.552C261.697 244.552 255.92 238.956 255.92 231.834C255.92 224.712 261.697 219.116 269.05 219.116C276.403 219.116 282.181 224.712 282.181 231.834C282.181 238.956 276.403 244.552 269.05 244.552Z" fill="#555B47"/>
<path d="M95.2489 58.1498C94.8686 58.1577 94.497 58.2624 94.1711 58.4532C93.8452 58.644 93.5763 58.9144 93.3912 59.2376L90.6169 64.1718L85.5225 66.8588C85.1793 67.0413 84.8929 67.3102 84.6934 67.6373C84.4939 67.9645 84.3887 68.3377 84.3887 68.718C84.3887 69.0983 84.4939 69.4717 84.6934 69.7989C84.8929 70.126 85.1793 70.3949 85.5225 70.5774L90.6169 73.2644L93.3912 78.1986C93.5777 78.5357 93.8547 78.8173 94.1927 79.0137C94.5307 79.2101 94.9171 79.3139 95.3109 79.3139C95.7046 79.3139 96.091 79.2101 96.429 79.0137C96.7671 78.8173 97.044 78.5357 97.2306 78.1986L100.021 73.2644L105.091 70.5774C105.434 70.3949 105.721 70.126 105.92 69.7989C106.12 69.4717 106.225 69.0983 106.225 68.718C106.225 68.3377 106.12 67.9645 105.92 67.6373C105.721 67.3102 105.434 67.0413 105.091 66.8588L100.021 64.1718L97.2306 59.2376C97.0364 58.8949 96.7486 58.6112 96.3988 58.4178C96.0491 58.2244 95.6511 58.1288 95.2489 58.1418V58.1498ZM95.3067 64.6594L96.4875 66.7387C96.688 67.0934 96.9889 67.3848 97.3544 67.5785L99.5012 68.7141L97.3544 69.8577C96.9889 70.0514 96.688 70.3426 96.4875 70.6972L95.3067 72.7765L94.1508 70.6972C93.9502 70.3426 93.6494 70.0514 93.2838 69.8577L91.1371 68.7141L93.2838 67.5785C93.6505 67.3827 93.9515 67.0883 94.1508 66.7307L95.3067 64.6594ZM117.154 66.6028C116.868 66.6017 116.584 66.6554 116.319 66.7609C116.054 66.8665 115.813 67.0217 115.61 67.2178C115.407 67.4138 115.246 67.6469 115.135 67.9036C115.025 68.1603 114.967 68.4358 114.966 68.7141C114.966 68.993 115.023 69.2691 115.133 69.5267C115.243 69.7844 115.404 70.0186 115.607 70.2155C115.811 70.4124 116.052 70.5682 116.317 70.6743C116.583 70.7803 116.867 70.8342 117.154 70.8332C117.732 70.8332 118.287 70.61 118.695 70.2125C119.104 69.8151 119.334 69.2761 119.334 68.7141C119.332 68.1534 119.101 67.6164 118.692 67.2207C118.284 66.825 117.731 66.6028 117.154 66.6028ZM117.096 79.2861C117.094 79.2861 117.091 79.2861 117.088 79.2861C116.704 79.2972 116.331 79.4065 116.004 79.6031C115.678 79.7997 115.411 80.0767 115.23 80.4058L112.456 85.3158L107.37 88.0189C107.027 88.2014 106.74 88.4703 106.541 88.7975C106.341 89.1246 106.236 89.4978 106.236 89.8781C106.236 90.2584 106.341 90.6319 106.541 90.959C106.74 91.2862 107.027 91.5551 107.37 91.7375L112.456 94.4245L115.23 99.3507C115.417 99.6878 115.694 99.9695 116.032 100.166C116.37 100.362 116.756 100.466 117.15 100.466C117.544 100.466 117.93 100.362 118.268 100.166C118.606 99.9695 118.883 99.6878 119.07 99.3507L121.844 94.4245L126.938 91.7375C127.281 91.5551 127.568 91.2862 127.767 90.959C127.967 90.6319 128.072 90.2584 128.072 89.8781C128.072 89.4978 127.967 89.1246 127.767 88.7975C127.568 88.4703 127.281 88.2014 126.938 88.0189L121.844 85.3158L119.07 80.3977C118.878 80.0521 118.591 79.7652 118.241 79.5689C117.891 79.3727 117.492 79.2746 117.088 79.2861H117.096ZM117.154 85.8118L118.327 87.8908C118.528 88.2495 118.832 88.5441 119.202 88.7387L121.348 89.8742L119.202 90.9937C118.832 91.1883 118.528 91.4828 118.327 91.8415L117.154 93.9208L115.973 91.8415C115.773 91.4869 115.472 91.1954 115.106 91.0017L112.96 89.8823L115.106 88.7387C115.473 88.5428 115.774 88.2484 115.973 87.8908L117.154 85.8118ZM95.315 87.7549C95.0281 87.7538 94.7437 87.808 94.4783 87.914C94.2129 88.02 93.9716 88.1759 93.7683 88.3728C93.565 88.5697 93.4037 88.8036 93.2937 89.0613C93.1836 89.3189 93.127 89.5952 93.127 89.8742C93.128 90.1525 93.1855 90.4278 93.296 90.6845C93.4066 90.9412 93.5681 91.1744 93.7712 91.3705C93.9744 91.5665 94.2153 91.7216 94.4802 91.8271C94.7451 91.9326 95.0287 91.9866 95.315 91.9855C95.8917 91.9855 96.4449 91.7633 96.8534 91.3676C97.262 90.9719 97.4926 90.4349 97.4948 89.8742C97.4948 89.3122 97.2651 88.7732 96.8563 88.3757C96.4475 87.9783 95.8931 87.7549 95.315 87.7549Z" fill="#555B47"/>
<path d="M136.947 326.43C136.566 326.438 136.195 326.543 135.869 326.733C135.543 326.924 135.274 327.195 135.089 327.518L132.315 332.452L127.22 335.139C126.877 335.322 126.591 335.59 126.391 335.918C126.192 336.245 126.086 336.618 126.086 336.998C126.086 337.379 126.192 337.752 126.391 338.079C126.591 338.406 126.877 338.675 127.22 338.858L132.315 341.545L135.089 346.479C135.275 346.816 135.552 347.098 135.89 347.294C136.228 347.49 136.615 347.594 137.009 347.594C137.402 347.594 137.789 347.49 138.127 347.294C138.465 347.098 138.742 346.816 138.928 346.479L141.719 341.545L146.789 338.858C147.132 338.675 147.418 338.406 147.618 338.079C147.817 337.752 147.923 337.379 147.923 336.998C147.923 336.618 147.817 336.245 147.618 335.918C147.418 335.59 147.132 335.322 146.789 335.139L141.719 332.452L138.928 327.518C138.734 327.175 138.446 326.891 138.097 326.698C137.747 326.505 137.349 326.409 136.947 326.422V326.43ZM137.004 332.94L138.185 335.019C138.386 335.374 138.687 335.665 139.052 335.859L141.199 336.994L139.052 338.138C138.687 338.332 138.386 338.623 138.185 338.977L137.004 341.057L135.849 338.977C135.648 338.623 135.347 338.332 134.982 338.138L132.835 336.994L134.982 335.859C135.348 335.663 135.649 335.369 135.849 335.011L137.004 332.94ZM158.852 334.883C158.566 334.882 158.282 334.936 158.017 335.041C157.752 335.147 157.511 335.302 157.308 335.498C157.105 335.694 156.943 335.927 156.833 336.184C156.722 336.441 156.665 336.716 156.664 336.994C156.664 337.273 156.72 337.549 156.83 337.807C156.941 338.065 157.102 338.299 157.305 338.496C157.508 338.693 157.75 338.849 158.015 338.955C158.281 339.061 158.565 339.114 158.852 339.113C159.43 339.113 159.984 338.89 160.393 338.493C160.802 338.095 161.032 337.556 161.032 336.994C161.029 336.434 160.799 335.897 160.39 335.501C159.982 335.105 159.429 334.883 158.852 334.883ZM158.794 347.566C158.791 347.566 158.789 347.566 158.786 347.566C158.402 347.577 158.028 347.687 157.702 347.883C157.376 348.08 157.109 348.357 156.928 348.686L154.154 353.596L149.068 356.299C148.724 356.482 148.438 356.751 148.239 357.078C148.039 357.405 147.934 357.778 147.934 358.158C147.934 358.539 148.039 358.912 148.239 359.239C148.438 359.566 148.724 359.835 149.068 360.018L154.154 362.705L156.928 367.631C157.115 367.968 157.391 368.25 157.73 368.446C158.068 368.642 158.454 368.746 158.848 368.746C159.241 368.746 159.628 368.642 159.966 368.446C160.304 368.25 160.581 367.968 160.767 367.631L163.542 362.705L168.636 360.018C168.979 359.835 169.266 359.566 169.465 359.239C169.665 358.912 169.77 358.539 169.77 358.158C169.77 357.778 169.665 357.405 169.465 357.078C169.266 356.751 168.979 356.482 168.636 356.299L163.542 353.596L160.767 348.678C160.575 348.332 160.289 348.045 159.939 347.849C159.589 347.653 159.19 347.555 158.786 347.566H158.794ZM158.852 354.092L160.024 356.171C160.226 356.53 160.53 356.824 160.899 357.019L163.046 358.154L160.899 359.274C160.53 359.469 160.226 359.763 160.024 360.122L158.852 362.201L157.671 360.122C157.471 359.767 157.17 359.476 156.804 359.282L154.657 358.163L156.804 357.019C157.171 356.823 157.472 356.529 157.671 356.171L158.852 354.092ZM137.013 356.035C136.726 356.034 136.441 356.088 136.176 356.194C135.911 356.3 135.669 356.456 135.466 356.653C135.263 356.85 135.101 357.084 134.991 357.342C134.881 357.599 134.825 357.876 134.825 358.154C134.826 358.433 134.883 358.708 134.994 358.965C135.104 359.221 135.266 359.455 135.469 359.651C135.672 359.847 135.913 360.002 136.178 360.107C136.443 360.213 136.726 360.267 137.013 360.266C137.589 360.266 138.143 360.044 138.551 359.648C138.96 359.252 139.19 358.715 139.193 358.154C139.193 357.592 138.963 357.053 138.554 356.656C138.145 356.259 137.591 356.035 137.013 356.035Z" fill="#555B47"/>
<path d="M381.177 124.498C380.796 124.506 380.425 124.611 380.099 124.802C379.773 124.993 379.504 125.263 379.319 125.586L376.545 130.52L371.45 133.207C371.107 133.39 370.821 133.659 370.621 133.986C370.422 134.313 370.316 134.686 370.316 135.067C370.316 135.447 370.422 135.82 370.621 136.147C370.821 136.475 371.107 136.744 371.45 136.926L376.545 139.613L379.319 144.547C379.505 144.884 379.782 145.166 380.12 145.362C380.458 145.559 380.845 145.663 381.239 145.663C381.632 145.663 382.019 145.559 382.357 145.362C382.695 145.166 382.972 144.884 383.158 144.547L385.949 139.613L391.019 136.926C391.362 136.744 391.648 136.475 391.848 136.147C392.047 135.82 392.153 135.447 392.153 135.067C392.153 134.686 392.047 134.313 391.848 133.986C391.648 133.659 391.362 133.39 391.019 133.207L385.949 130.52L383.158 125.586C382.964 125.244 382.676 124.96 382.327 124.766C381.977 124.573 381.579 124.477 381.177 124.49V124.498ZM381.234 131.008L382.415 133.087C382.616 133.442 382.917 133.733 383.282 133.927L385.429 135.063L383.282 136.206C382.917 136.4 382.616 136.691 382.415 137.046L381.234 139.125L380.079 137.046C379.878 136.691 379.577 136.4 379.212 136.206L377.065 135.063L379.212 133.927C379.578 133.731 379.879 133.437 380.079 133.079L381.234 131.008ZM403.082 132.951C402.796 132.95 402.512 133.004 402.247 133.11C401.982 133.215 401.741 133.37 401.538 133.566C401.335 133.762 401.173 133.995 401.063 134.252C400.952 134.509 400.895 134.784 400.894 135.063C400.894 135.342 400.95 135.618 401.06 135.875C401.171 136.133 401.332 136.367 401.535 136.564C401.738 136.761 401.98 136.917 402.245 137.023C402.511 137.129 402.795 137.183 403.082 137.182C403.66 137.182 404.214 136.959 404.623 136.561C405.032 136.164 405.262 135.625 405.262 135.063C405.259 134.502 405.029 133.965 404.62 133.569C404.212 133.174 403.658 132.951 403.082 132.951ZM403.024 145.635C403.021 145.635 403.018 145.635 403.016 145.635C402.632 145.646 402.258 145.755 401.932 145.952C401.606 146.148 401.339 146.425 401.158 146.754L398.384 151.664L393.298 154.368C392.954 154.55 392.668 154.819 392.468 155.146C392.269 155.473 392.164 155.846 392.164 156.227C392.164 156.607 392.269 156.981 392.468 157.308C392.668 157.635 392.954 157.904 393.298 158.086L398.384 160.773L401.158 165.699C401.344 166.036 401.621 166.318 401.959 166.514C402.297 166.711 402.684 166.815 403.078 166.815C403.471 166.815 403.858 166.711 404.196 166.514C404.534 166.318 404.811 166.036 404.997 165.699L407.772 160.773L412.866 158.086C413.209 157.904 413.496 157.635 413.695 157.308C413.895 156.981 414 156.607 414 156.227C414 155.846 413.895 155.473 413.695 155.146C413.496 154.819 413.209 154.55 412.866 154.368L407.772 151.664L404.997 146.746C404.805 146.401 404.519 146.114 404.169 145.918C403.819 145.721 403.42 145.623 403.016 145.635H403.024ZM403.082 152.16L404.254 154.239C404.456 154.598 404.76 154.893 405.129 155.087L407.276 156.223L405.129 157.342C404.76 157.537 404.456 157.831 404.254 158.19L403.082 160.269L401.901 158.19C401.7 157.836 401.4 157.544 401.034 157.35L398.887 156.231L401.034 155.087C401.401 154.891 401.702 154.597 401.901 154.239L403.082 152.16ZM381.243 154.104C380.956 154.102 380.671 154.157 380.406 154.263C380.141 154.369 379.899 154.525 379.696 154.721C379.493 154.918 379.331 155.152 379.221 155.41C379.111 155.668 379.055 155.944 379.055 156.223C379.056 156.501 379.113 156.776 379.224 157.033C379.334 157.29 379.496 157.523 379.699 157.719C379.902 157.915 380.143 158.07 380.408 158.176C380.673 158.281 380.956 158.335 381.243 158.334C381.819 158.334 382.373 158.112 382.781 157.716C383.19 157.32 383.42 156.784 383.423 156.223C383.423 155.661 383.193 155.122 382.784 154.724C382.375 154.327 381.821 154.104 381.243 154.104Z" fill="#555B47"/>
</svg>
