<svg width="862" height="1640" viewBox="0 0 862 1640" fill="none" xmlns="http://www.w3.org/2000/svg">
<g opacity="0.1">
<path d="M206.993 2C206.993 2 463.993 99.8803 416.993 171.038C369.993 242.195 276 327.957 279.5 411.854C280.796 442.927 376.009 506.15 418 530.554" stroke="#363A2E" stroke-width="3"/>
<path d="M336.003 2.93262C336.003 2.93262 536.502 89.3159 554.502 143.072C572.502 196.829 248.003 330.133 330.003 427.081C341.985 441.247 429.954 503.36 449.5 515.018" stroke="#363A2E" stroke-width="3"/>
<path d="M398.75 466.854C513.509 534.105 725.924 544.439 725.5 622.22C725 713.886 156 733.12 156 948.456C156 1050.38 357.5 1018.37 357.5 1115.32C357.5 1212.27 255 1390.63 255 1464.27C255 1537.91 443.5 1590.74 443.5 1590.74" stroke="#F8F4EC" stroke-width="3"/>
<path d="M399.502 312.11C399.502 312.11 332 362.76 372 409.68C375.054 413.263 380.517 417.005 388 420.907C478.51 468.105 864.583 538.672 859.503 633.096C854.003 735.327 240 721.965 240 943.516C240 1015.92 422 1020.89 422 1085.83C422 1150.77 331 1376.05 331 1446.9C331 1517.75 436.5 1548.51 436.5 1548.51" stroke="#F8F4EC" stroke-width="3"/>
<path d="M388.992 833.517C388.992 833.517 271.492 867.386 280.492 935.747C289.492 1004.11 458.992 1007.84 458.992 1007.84" stroke="#F8F4EC" stroke-width="3"/>
<path d="M558 578.406C559 695.863 1.99988 840.58 1.99988 967.089C1.99988 1093.6 242 1046.68 244 1136.79C246.79 1262.5 130.426 1362.86 135.5 1479.53C139 1560.01 483.5 1638 483.5 1638" stroke="#F8F4EC" stroke-width="3"/>
</g>
</svg>
