<svg width="396" height="1244" viewBox="0 0 396 1244" fill="none" xmlns="http://www.w3.org/2000/svg">
<g opacity="0.1">
<path d="M57 10.5C57 10.5 -24 394.5 155 394.5C334 394.5 530 622.5 530 817.5C530 1012.5 276.5 998.5 139 1044.5C1.49998 1090.5 1.5 1232.5 1.5 1232.5" stroke="#555B47" stroke-width="3"/>
<path d="M143.5 11C143.5 11 49.5 324.5 228.5 324.5C407.5 324.5 620.5 601.5 620.5 796.5C620.5 991.5 370.5 1083.5 231 1093C91.5003 1102.5 94.0001 1232.5 94.0001 1232.5" stroke="#555B47" stroke-width="3"/>
<path d="M202.499 11C202.499 11 80.9992 284.5 259.999 284.5C438.999 284.5 669.503 582.5 669.503 777.5C669.503 972.5 412 1125 273.5 1125C134.999 1125 146.5 1232.5 146.5 1232.5" stroke="#555B47" stroke-width="3"/>
<path d="M235 11C235 11 128.499 256 278.999 256C454.499 256 691.764 575.5 691.764 770.5C691.764 965.5 431.5 1149.5 292.999 1149.5C154.499 1149.5 177 1234.5 177 1234.5" stroke="#555B47" stroke-width="3"/>
<path d="M278.5 1.5C278.5 1.5 157.5 235.5 308 235.5C483.5 235.5 718.627 580 718.627 775C718.627 970 458.854 1168 320.353 1168C181.853 1168 204.353 1243 204.353 1243" stroke="#555B47" stroke-width="3"/>
</g>
</svg>
