<svg width="1099" height="1324" viewBox="0 0 1099 1324" fill="none" xmlns="http://www.w3.org/2000/svg">
<g opacity="0.1">
<path d="M166.5 6.86523C166.5 6.86523 755.5 152.06 765 450.832C774.5 749.605 630.5 760.67 630.5 1022.56C630.5 1284.44 971 1285.79 971 1285.79" stroke="#F8F4EC" stroke-width="3"/>
<path d="M310.5 9.2124C310.5 9.2124 807 160.108 816 450.832C825 741.557 681.5 760.67 681.5 1022.56C681.5 1284.44 1042 1259.63 1042 1259.63" stroke="#F8F4EC" stroke-width="3"/>
<path d="M388.5 1.5C388.5 1.5 844.5 127.917 855.5 451.167C866.5 774.418 721 761.005 721 1022.89C721 1284.78 1098 1244.21 1098 1244.21" stroke="#F8F4EC" stroke-width="3"/>
<path d="M1 10.2183C1 10.2183 651 155.748 671.5 450.832C692 745.916 537 760.67 537 1022.56C537 1284.44 843 1322 843 1322" stroke="#F8F4EC" stroke-width="3"/>
</g>
</svg>
