<svg width="1035" height="3074" viewBox="0 0 1035 3074" fill="none" xmlns="http://www.w3.org/2000/svg">
<path d="M591.5 1C591.5 1 594.5 56 364.499 56C175.5 56 135.5 237.5 154 261C302.113 449.146 71.8182 609.4 388.5 679C707 749 930.811 646.44 970.5 779" stroke="#555B47" stroke-linecap="square" stroke-dasharray="30 30"/>
<path d="M138.5 1735C195.5 1656.5 450 1684 450 1576C450 1549.07 745.5 1651.5 737 1315.99C728.5 980.471 1003 1088.5 1028 995.5C1053 902.5 997 876 971.5 781.5" stroke="#F8F4EC" stroke-linecap="square" stroke-dasharray="30 30"/>
<path d="M51.5 1859.5C4.50019 1977.5 -64.0001 2296 135.584 2266C335.168 2236 379 2370.67 441 2418" stroke="#F8F4EC" stroke-dasharray="30 30"/>
<path d="M767 3073C767 3057.5 836 2989.86 731 2989.5C425 2988.45 506.5 2770.63 566.5 2601.13C593.737 2524.18 532.26 2473.1 457 2428" stroke="#555B47" stroke-linecap="square" stroke-dasharray="30 30"/>
<path d="M471 1602C491 1774 588 1748 817 1748C1046 1748 918 2044 887 2145M815 2286C776 2361 520 2293 433 2384" stroke="#F8F4EC" stroke-dasharray="30 30"/>
</svg>
