<svg width="2133" height="3130" viewBox="0 0 2133 3130" fill="none" xmlns="http://www.w3.org/2000/svg">
<g opacity="0.1">
<path d="M1200.5 9.5C1200.5 9.5 1789.5 226 1799 671.5C1808.5 1117 1664.5 1133.5 1664.5 1524C1664.5 1914.5 2005 1916.5 2005 1916.5" stroke="#F8F4EC" stroke-width="3"/>
<path d="M1344.5 13C1344.5 13 1841 238 1850 671.5C1859 1105 1715.5 1133.5 1715.5 1524C1715.5 1914.5 2076 1877.5 2076 1877.5" stroke="#F8F4EC" stroke-width="3"/>
<path d="M1422.5 1.5C1422.5 1.5 1878.5 190 1889.5 672C1900.5 1154 1755 1134 1755 1524.5C1755 1915 2132 1854.5 2132 1854.5" stroke="#F8F4EC" stroke-width="3"/>
<path d="M1035 14.5C1035 14.5 1685 231.5 1705.5 671.5C1726 1111.5 1571 1133.5 1571 1524C1571 1914.5 1877 1970.5 1877 1970.5" stroke="#F8F4EC" stroke-width="3"/>
</g>
<g opacity="0.1">
<path d="M268.5 977.501C268.5 977.501 610 934.001 610 1267.5C610 1601 268.5 1689.5 268.5 2013C268.5 2206.47 435.923 2582 435.923 2850C435.923 3118 257.5 3148.95 257.5 3118" stroke="#F8F4EC" stroke-width="3"/>
<path d="M154 1087.5C154 1087.5 495.5 947.362 495.5 1280.86C495.5 1614.36 154 1702.86 154 2026.36C154 2219.83 321.423 2595.36 321.423 2863.36C321.423 3131.36 99.5 3116.95 99.5 3086" stroke="#F8F4EC" stroke-width="3"/>
<path d="M97.5 1186C97.5 1186 439 947.084 439 1280.58C439 1614.08 72 1699 72 2022.5C72 2215.97 248.5 2589 248.5 2857C248.5 3125 43 3116.67 43 3085.72" stroke="#F8F4EC" stroke-width="3"/>
<path d="M61 1243.5C61 1243.5 395.5 986.454 395.5 1283C395.5 1579.55 1.5 1636 1.5 1959.5C1.5 2152.97 216.5 2611.87 216.5 2879.87C216.5 3147.87 11 3139.54 11 3108.59" stroke="#F8F4EC" stroke-width="3"/>
</g>
</svg>
