<svg width="2607" height="3143" viewBox="0 0 2607 3143" fill="none" xmlns="http://www.w3.org/2000/svg">
<path d="M498 839C498 839 1157 867.5 1157 1117C1157 1366.5 1240 1339.5 1240 1495.5C1240 1651.5 826.5 1516.5 826.5 1682.5C826.5 1848.5 498 1953.5 498 1953.5" stroke="#F8F4EC" stroke-opacity="0.1" stroke-width="3"/>
<path d="M357.5 918.497C357.5 918.497 1028 878 1028 1127.5C1028 1377 1111 1262 1111 1418C1111 1574 738 1458 738 1624C738 1790 371 1931.5 371 1931.5" stroke="#F8F4EC" stroke-opacity="0.1" stroke-width="3"/>
<path d="M224 1023C224 1023 906.5 878.936 906.5 1128.44C906.5 1377.94 999.5 1227 999.5 1383C999.5 1539 661 1425 661 1591C661 1757 249.5 1932.44 249.5 1932.44" stroke="#F8F4EC" stroke-opacity="0.1" stroke-width="3"/>
<path d="M106.5 1190.5C106.5 1190.5 836.5 892.001 836.5 1141.5C836.5 1391 932.5 1210.5 932.5 1366.5C932.5 1522.5 611.5 1400.5 611.5 1566.5C611.5 1732.5 106.5 1932.81 106.5 1932.81" stroke="#F8F4EC" stroke-opacity="0.1" stroke-width="3"/>
<path d="M7 1344.01C7 1344.01 802.5 894.499 802.5 1144C802.5 1393.5 896.5 1253.5 896.5 1373C896.5 1492.5 581.5 1381 581.5 1547C581.5 1713 1 1942.79 1 1942.79" stroke="#F8F4EC" stroke-opacity="0.1" stroke-width="3"/>
<g opacity="0.1">
<path d="M1011 61.5C1011 61.5 835 133.5 847.25 290.5C859.5 447.5 608.5 608 608.5 608" stroke="#363A2E" stroke-width="3"/>
<path d="M950.5 39C950.5 39 774.5 111 786.75 268C799 425 521 559 521 559" stroke="#363A2E" stroke-width="3"/>
<path d="M915.5 16C915.5 16 739.5 88 751.75 245C764 402 545 501 545 501" stroke="#363A2E" stroke-width="3"/>
<path d="M891.5 2C891.5 2 715.5 74 727.75 231C740 388 564 460 564 460" stroke="#363A2E" stroke-width="3"/>
</g>
<g opacity="0.1">
<path d="M1951.99 61C1951.99 61 2208.99 218.5 2161.99 333C2114.99 447.5 2021 585.5 2024.5 720.5C2025.8 770.499 2121.01 872.231 2163 911.5" stroke="#363A2E" stroke-width="3"/>
<path d="M2081 62.5C2081 62.5 2281.5 201.5 2299.5 288C2317.5 374.5 1993 589 2075 745C2086.98 767.795 2174.95 867.742 2194.5 886.5" stroke="#363A2E" stroke-width="3"/>
<path d="M2143.75 809C2258.51 917.213 2470.92 933.841 2470.5 1059C2470 1206.5 1901 1237.45 1901 1583.95C1901 1747.95 2102.5 1696.45 2102.5 1852.45C2102.5 2008.45 2000 2295.45 2000 2413.95C2000 2532.45 2188.5 2617.45 2188.5 2617.45" stroke="#F8F4EC" stroke-width="3"/>
<path d="M2144.5 560C2144.5 560 2077 641.5 2117 717C2120.05 722.765 2125.52 728.787 2133 735.066C2223.51 811.013 2609.58 924.562 2604.5 1076.5C2599 1241 1985 1219.5 1985 1576C1985 1692.5 2167 1700.5 2167 1805C2167 1909.5 2076 2272 2076 2386C2076 2500 2181.5 2549.5 2181.5 2549.5" stroke="#F8F4EC" stroke-width="3"/>
<path d="M2133.99 1399C2133.99 1399 2016.49 1453.5 2025.49 1563.5C2034.49 1673.5 2203.99 1679.5 2203.99 1679.5" stroke="#F8F4EC" stroke-width="3"/>
<path d="M2303 988.5C2304 1177.5 1747 1410.37 1747 1613.93C1747 1817.5 1987 1742 1989 1887C1991.79 2089.28 1875.43 2250.77 1880.5 2438.5C1884 2568 2228.5 2693.5 2228.5 2693.5" stroke="#F8F4EC" stroke-width="3"/>
</g>
<path d="M1515.5 70C1515.5 70 1518.5 125 1288.5 125C1099.5 125 1059.5 306.5 1078 330C1226.11 518.146 995.818 678.4 1312.5 748C1631 818 1854.81 715.44 1894.5 848" stroke="#555B47" stroke-linecap="square" stroke-dasharray="30 30"/>
<path d="M1068.5 1798C1131 1724.5 1374 1753 1374 1645C1374 1618.07 1669.5 1720.5 1661 1384.99C1652.5 1049.47 1927 1157.5 1952 1064.5C1977 971.5 1921 945 1895.5 850.5" stroke="#F8F4EC" stroke-linecap="square" stroke-dasharray="30 30"/>
<path d="M973 1936.5C926 2054.5 860 2365 1059.58 2335C1259.17 2305 1303 2439.67 1365 2487" stroke="#F8F4EC" stroke-dasharray="30 30"/>
<path d="M1691 3142C1691 3126.5 1760 3058.86 1655 3058.5C1349 3057.45 1430.5 2839.63 1490.5 2670.13C1517.74 2593.18 1456.26 2542.1 1381 2497" stroke="#555B47" stroke-linecap="square" stroke-dasharray="30 30"/>
<path d="M1395 1671C1415 1843 1512 1817 1741 1817C1970 1817 1842 2113 1811 2214M1739 2355C1700 2430 1444 2362 1357 2453" stroke="#F8F4EC" stroke-dasharray="30 30"/>
<path d="M1826.81 2252.42L1818.57 2255.99C1817.64 2254.7 1816.57 2253.52 1815.37 2252.47C1813.73 2250.95 1812.55 2249.86 1812.07 2247.49C1811.59 2245.08 1812.28 2243.12 1812.95 2241.22C1813.74 2238.99 1814.63 2236.47 1813.11 2233.82C1811.65 2231.25 1809.27 2230.83 1807.16 2230.46C1805.49 2230.17 1803.91 2229.89 1802.34 2228.65C1799.54 2226.43 1799.19 2222.88 1798.85 2219.45C1798.51 2215.97 1798.16 2212.37 1794.95 2210.72C1793.03 2209.73 1790.41 2209.79 1787.58 2210.89C1783.72 2212.4 1779 2216.13 1777.17 2221.09C1775.97 2224.34 1776.4 2227.05 1776.78 2229.45C1777.17 2231.93 1777.48 2233.88 1776.19 2236.36C1775.31 2238.05 1774.3 2238.78 1773.24 2239.56C1771.92 2240.53 1770.43 2241.62 1769.84 2244.12C1769 2247.71 1770.98 2250.23 1772.72 2252.46C1774.22 2254.38 1775.77 2256.36 1776.16 2259.32C1776.19 2259.56 1776.21 2259.79 1776.23 2260.02C1775.33 2260.22 1774.46 2260.5 1773.61 2260.87C1773.47 2260.93 1773.33 2261 1773.18 2261.07C1773.13 2261.02 1773.07 2260.96 1773 2260.91C1770.29 2258.82 1767.76 2258.58 1765.74 2258.39C1763.91 2258.21 1762.6 2258.09 1761.14 2256.83C1759.59 2255.5 1759.08 2253.91 1758.54 2252.22C1757.9 2250.23 1757.11 2247.75 1754.25 2246.71C1752.29 2245.99 1750.82 2246.51 1749.64 2246.93C1748.69 2247.26 1747.88 2247.54 1746.54 2247.41C1744.6 2247.21 1743.63 2246.32 1742.28 2245.09C1740.9 2243.85 1739.34 2242.43 1736.67 2241.82C1731.8 2240.7 1725.37 2242.99 1722.91 2246.49C1722.28 2246.63 1721.67 2246.82 1721.06 2247.05C1719.82 2247.49 1718.64 2247.91 1716.75 2247.68C1713.98 2247.36 1712.54 2246 1710.72 2244.28C1708.95 2242.62 1706.95 2240.73 1703.59 2239.89C1698.46 2238.61 1692.71 2240.41 1689.3 2242.75C1686.79 2244.47 1685.27 2246.6 1685.01 2248.75C1684.56 2252.32 1687.34 2254.64 1690.02 2256.88C1692.66 2259.09 1695.4 2261.38 1695.66 2264.95C1695.8 2266.95 1695.14 2268.41 1694.44 2269.95C1693.56 2271.9 1692.56 2274.11 1693.86 2276.76C1695.2 2279.51 1697.78 2280.19 1700.07 2280.79C1702.01 2281.31 1704.02 2281.84 1705.74 2283.6C1707.43 2285.33 1707.67 2286.92 1708 2289.13C1708.27 2290.9 1708.57 2292.89 1709.7 2295.11C1710.93 2297.41 1712.63 2299.42 1714.7 2301.01L1701.29 2306.82C1700.79 2307.04 1700.4 2307.45 1700.2 2307.96C1699.99 2308.47 1700 2309.04 1700.22 2309.54C1709.42 2330.75 1731.14 2342.74 1753.01 2340.61L1755.35 2346.02C1756.87 2349.51 1759.7 2352.25 1763.23 2353.64C1766.76 2355.04 1770.71 2354.98 1774.19 2353.47L1811.01 2337.51C1814.5 2335.99 1817.24 2333.16 1818.63 2329.63C1820.03 2326.1 1819.97 2322.15 1818.46 2318.67L1816.12 2313.28C1824.39 2306.01 1830.14 2296.3 1832.55 2285.56C1834.95 2274.82 1833.89 2263.59 1829.52 2253.49C1829.3 2252.99 1828.89 2252.59 1828.39 2252.39C1827.88 2252.19 1827.31 2252.2 1826.81 2252.42ZM1773.86 2245.06C1774.09 2244.1 1774.5 2243.75 1775.68 2242.89C1776.88 2242.01 1778.53 2240.81 1779.85 2238.27C1781.77 2234.58 1781.29 2231.51 1780.86 2228.8C1780.51 2226.63 1780.22 2224.76 1781.04 2222.52C1782.22 2219.32 1785.53 2216.12 1789.08 2214.74C1790.74 2214.1 1792.23 2213.97 1793.07 2214.4C1794.19 2214.97 1794.45 2216.84 1794.74 2219.85C1795.12 2223.74 1795.6 2228.57 1799.78 2231.89C1802.17 2233.78 1804.54 2234.19 1806.45 2234.53C1808.36 2234.86 1809.07 2235.05 1809.53 2235.86C1810.05 2236.78 1809.8 2237.74 1809.06 2239.85C1808.28 2242.04 1807.31 2244.78 1808.02 2248.3C1808.76 2251.98 1810.78 2253.85 1812.56 2255.5C1813.32 2256.17 1814.03 2256.9 1814.69 2257.67L1800.33 2263.89C1800.24 2263.01 1800.14 2262.13 1800.04 2261.25L1804.82 2254.96C1805.15 2254.53 1805.29 2253.98 1805.22 2253.44C1805.14 2252.89 1804.86 2252.4 1804.42 2252.07C1803.98 2251.74 1803.43 2251.6 1802.89 2251.67C1802.35 2251.74 1801.86 2252.03 1801.53 2252.47L1799.26 2255.45C1798.46 2250.18 1797.43 2244.91 1796.18 2239.74C1796.11 2239.48 1796 2239.22 1795.84 2239C1795.68 2238.78 1795.48 2238.59 1795.25 2238.44C1795.02 2238.3 1794.76 2238.2 1794.49 2238.16C1794.22 2238.12 1793.94 2238.13 1793.68 2238.19C1793.41 2238.26 1793.16 2238.38 1792.94 2238.54C1792.72 2238.7 1792.53 2238.9 1792.39 2239.14C1792.25 2239.37 1792.16 2239.63 1792.12 2239.9C1792.08 2240.18 1792.1 2240.45 1792.16 2240.72C1793.02 2244.24 1793.76 2247.79 1794.4 2251.36L1790.58 2247.64C1790.38 2247.45 1790.15 2247.3 1789.9 2247.2C1789.65 2247.1 1789.38 2247.05 1789.11 2247.06C1788.84 2247.06 1788.57 2247.12 1788.32 2247.22C1788.07 2247.33 1787.85 2247.49 1787.66 2247.68C1787.47 2247.88 1787.32 2248.11 1787.22 2248.36C1787.12 2248.61 1787.07 2248.88 1787.07 2249.15C1787.08 2249.7 1787.31 2250.22 1787.7 2250.6L1795.48 2258.16C1795.52 2258.48 1795.57 2258.79 1795.61 2259.11C1795.69 2259.71 1795.77 2260.32 1795.84 2260.93L1795.85 2260.96C1796.04 2262.51 1796.21 2264.06 1796.35 2265.62L1792.04 2267.49C1790.92 2265.3 1789.26 2263.44 1787.21 2262.08C1785.16 2260.72 1782.8 2259.91 1780.35 2259.73C1780.33 2259.41 1780.3 2259.1 1780.26 2258.78C1779.72 2254.7 1777.64 2252.05 1775.97 2249.92C1774.33 2247.82 1773.49 2246.65 1773.86 2245.06L1773.86 2245.06ZM1775.25 2264.66C1777.59 2263.65 1780.21 2263.55 1782.62 2264.38C1785.02 2265.21 1787.02 2266.9 1788.24 2269.13L1773.1 2275.7C1772.22 2273.97 1771 2272.45 1769.52 2271.21C1769.92 2269.76 1770.65 2268.42 1771.64 2267.29C1772.64 2266.15 1773.87 2265.25 1775.25 2264.66ZM1735.74 2245.84C1737.36 2246.21 1738.31 2247.07 1739.5 2248.15C1740.98 2249.5 1742.83 2251.17 1746.12 2251.51C1747.78 2251.68 1749.46 2251.44 1751.01 2250.82C1751.99 2250.48 1752.29 2250.39 1752.84 2250.59C1753.71 2250.9 1754 2251.59 1754.61 2253.48C1755.23 2255.44 1756.01 2257.87 1758.45 2259.97C1760.9 2262.07 1763.26 2262.3 1765.35 2262.5C1766.82 2262.64 1768.13 2262.76 1769.53 2263.55C1767.91 2265.06 1766.66 2266.93 1765.89 2269.01C1764.11 2268.26 1762.2 2267.88 1760.28 2267.89C1758.35 2267.9 1756.44 2268.31 1754.67 2269.08C1754.54 2269.14 1754.41 2269.2 1754.28 2269.26C1753.46 2268.19 1752.51 2267.22 1751.46 2266.37C1748.01 2263.59 1744.92 2263.25 1742.2 2262.95C1739.77 2262.69 1737.85 2262.48 1735.75 2260.59C1733.52 2258.6 1732.75 2256.2 1732.01 2253.89C1731.26 2251.53 1730.42 2248.9 1727.93 2247.39C1729.94 2246.14 1733.11 2245.23 1735.74 2245.84ZM1769.3 2277.35L1750.7 2285.41C1749.9 2282.99 1750.03 2280.37 1751.07 2278.04C1752.11 2275.72 1753.98 2273.87 1756.31 2272.86C1758.64 2271.85 1761.27 2271.75 1763.68 2272.58C1766.08 2273.41 1768.09 2275.11 1769.3 2277.35ZM1701.12 2276.8C1698.96 2276.23 1698.03 2275.9 1697.57 2274.95C1697.16 2274.11 1697.4 2273.42 1698.2 2271.66C1699 2269.89 1699.99 2267.69 1699.77 2264.66C1699.39 2259.34 1695.66 2256.22 1692.67 2253.71C1690.35 2251.77 1688.95 2250.51 1689.1 2249.26C1689.22 2248.32 1690.16 2247.17 1691.63 2246.16C1694.77 2244 1699.28 2243.07 1702.59 2243.9C1704.9 2244.48 1706.28 2245.78 1707.88 2247.28C1709.88 2249.16 1712.14 2251.3 1716.27 2251.78C1719.11 2252.12 1721.04 2251.44 1722.44 2250.94C1723.81 2250.45 1724.33 2250.31 1725.26 2250.66C1726.77 2251.25 1727.27 2252.6 1728.08 2255.14C1728.9 2257.72 1729.93 2260.93 1732.99 2263.67C1736.09 2266.43 1739.09 2266.77 1741.75 2267.06C1744.22 2267.33 1746.36 2267.57 1748.88 2269.59C1749.59 2270.17 1750.25 2270.82 1750.83 2271.54C1748.71 2273.45 1747.2 2275.94 1746.5 2278.7C1745.8 2281.46 1745.94 2284.37 1746.91 2287.05L1740.9 2289.65C1739 2288.34 1737.13 2286.99 1735.29 2285.59L1733.42 2274.87C1733.32 2274.33 1733.02 2273.85 1732.57 2273.54C1732.12 2273.22 1731.57 2273.1 1731.03 2273.2C1730.49 2273.29 1730.01 2273.59 1729.69 2274.04C1729.38 2274.49 1729.25 2275.04 1729.35 2275.58L1730.43 2281.77C1727.97 2279.75 1725.56 2277.66 1723.21 2275.49L1722.15 2267.26C1722.11 2266.99 1722.03 2266.73 1721.89 2266.49C1721.76 2266.26 1721.58 2266.05 1721.36 2265.89C1721.15 2265.72 1720.9 2265.6 1720.64 2265.53C1720.38 2265.46 1720.11 2265.44 1719.84 2265.47C1719.57 2265.51 1719.31 2265.59 1719.07 2265.73C1718.84 2265.86 1718.63 2266.04 1718.47 2266.26C1718.3 2266.47 1718.18 2266.72 1718.11 2266.98C1718.04 2267.24 1718.02 2267.51 1718.05 2267.78L1718.46 2270.92C1716.02 2268.47 1713.66 2265.95 1711.38 2263.36C1711.2 2263.15 1710.98 2262.98 1710.74 2262.86C1710.5 2262.74 1710.23 2262.67 1709.96 2262.65C1709.69 2262.63 1709.41 2262.66 1709.16 2262.75C1708.9 2262.84 1708.66 2262.97 1708.46 2263.15C1708.25 2263.33 1708.08 2263.55 1707.96 2263.8C1707.84 2264.04 1707.77 2264.31 1707.76 2264.58C1707.74 2264.85 1707.78 2265.12 1707.87 2265.38C1707.95 2265.64 1708.09 2265.88 1708.27 2266.08C1711.92 2270.23 1715.77 2274.19 1719.81 2277.96C1719.83 2277.99 1719.86 2278.02 1719.89 2278.04C1719.98 2278.13 1720.07 2278.21 1720.16 2278.29L1715.85 2278.51C1715.3 2278.55 1714.79 2278.79 1714.42 2279.2C1714.06 2279.6 1713.87 2280.14 1713.9 2280.68C1713.93 2281.23 1714.17 2281.74 1714.57 2282.11C1714.98 2282.47 1715.51 2282.66 1716.06 2282.64L1724.53 2282.2C1725.67 2283.18 1726.81 2284.15 1727.97 2285.09C1728.74 2285.73 1729.52 2286.35 1730.31 2286.97L1725.09 2287.24C1724.82 2287.25 1724.55 2287.31 1724.31 2287.43C1724.06 2287.55 1723.84 2287.71 1723.66 2287.91C1723.48 2288.11 1723.34 2288.35 1723.24 2288.6C1723.15 2288.86 1723.11 2289.13 1723.13 2289.4C1723.14 2289.67 1723.21 2289.94 1723.32 2290.19C1723.44 2290.43 1723.61 2290.65 1723.81 2290.83C1724.01 2291.01 1724.25 2291.15 1724.5 2291.24C1724.76 2291.33 1725.03 2291.37 1725.3 2291.36L1735.44 2290.84C1735.78 2291.09 1736.12 2291.33 1736.46 2291.58L1719.12 2299.1C1716.49 2297.42 1714.46 2295.36 1713.38 2293.23C1712.55 2291.62 1712.32 2290.11 1712.08 2288.52C1711.72 2286.12 1711.32 2283.4 1708.69 2280.71C1706.18 2278.14 1703.38 2277.4 1701.12 2276.8ZM1814.67 2320.31C1815.74 2322.79 1815.79 2325.6 1814.79 2328.11C1813.8 2330.63 1811.85 2332.64 1809.37 2333.72L1772.55 2349.68C1770.07 2350.75 1767.26 2350.8 1764.75 2349.8C1762.23 2348.81 1760.22 2346.86 1759.14 2344.38L1757.25 2340.02C1761.16 2339.31 1764.97 2338.15 1768.62 2336.57L1802.49 2321.89C1806.14 2320.31 1809.59 2318.32 1812.79 2315.96L1814.67 2320.31ZM1826.33 2291.77C1823.39 2299.25 1818.61 2305.87 1812.42 2311.01C1812.35 2311.06 1812.28 2311.12 1812.21 2311.18C1808.76 2314 1804.94 2316.33 1800.85 2318.1L1766.98 2332.78C1743.39 2343.01 1715.99 2332.69 1704.87 2309.77L1826.51 2257.04C1830.83 2268.23 1830.77 2280.63 1826.33 2291.77Z" fill="#F8F4EC"/>
<path d="M1056.8 1834.36C1055.65 1833.86 1054.31 1834.39 1053.82 1835.54L1013.46 1929.29L950.96 1902.39L980.968 1832.68C982.586 1833.56 983.522 1834.36 984.557 1835.25C986.032 1836.51 987.703 1837.95 991.353 1839.52C995.002 1841.09 997.193 1841.32 999.124 1841.52C1000.97 1841.71 1002.56 1841.88 1005.57 1843.17C1008.59 1844.47 1009.8 1845.51 1011.21 1846.72C1012.68 1847.99 1014.36 1849.42 1018.01 1851C1021.66 1852.57 1023.85 1852.8 1025.79 1853C1027.63 1853.19 1029.23 1853.36 1032.25 1854.66C1035.26 1855.96 1036.48 1857 1037.89 1858.21C1038.84 1859.01 1040.27 1858.91 1041.09 1857.96C1041.9 1857.01 1041.79 1855.58 1040.84 1854.76C1039.79 1853.87 1038.63 1852.88 1036.75 1851.82L1064.58 1816.11C1065.31 1815.16 1065.19 1813.81 1064.3 1813.02L1053.59 1803.47C1053.12 1803.06 1052.5 1802.85 1051.88 1802.91C1051.25 1802.96 1050.68 1803.28 1050.29 1803.77L1017.59 1845.75C1016.07 1844.91 1015.16 1844.14 1014.16 1843.28C1012.69 1842.01 1011.02 1840.58 1007.37 1839.01C1003.72 1837.43 1001.53 1837.21 999.594 1837.01C997.75 1836.82 996.159 1836.65 993.147 1835.35C990.133 1834.06 988.919 1833.01 987.512 1831.81C986.349 1830.81 985.047 1829.7 982.765 1828.51L990.423 1810.72L1025.84 1825.97C1026.99 1826.46 1028.32 1825.93 1028.82 1824.78C1029.31 1823.63 1028.78 1822.3 1027.63 1821.8L990.133 1805.66C988.983 1805.16 987.648 1805.69 987.153 1806.84L945.897 1902.68C945.401 1903.83 945.932 1905.16 947.083 1905.66L1013.75 1934.36C1014.9 1934.85 1016.23 1934.32 1016.73 1933.17L1057.98 1837.34C1058.48 1836.19 1057.95 1834.85 1056.8 1834.36ZM1052.38 1808.47L1059.69 1814.99L1032.51 1849.88C1029.75 1848.86 1027.9 1848.66 1026.26 1848.49C1024.89 1848.34 1023.66 1848.21 1021.88 1847.63L1052.38 1808.47Z" fill="#F8F4EC"/>
<path d="M1004.75 1825.02L992.825 1829.77C991.661 1830.23 991.093 1831.55 991.557 1832.71C991.789 1833.29 992.234 1833.73 992.767 1833.96C993.3 1834.18 993.921 1834.21 994.503 1833.98L1004.32 1830.07L1007.04 1836.91C1007.5 1838.07 1008.82 1838.64 1009.98 1838.17C1011.15 1837.71 1011.71 1836.39 1011.25 1835.23L1007.69 1826.29C1007.23 1825.12 1005.91 1824.56 1004.75 1825.02ZM1005.53 1892.03L993.609 1896.78C992.445 1897.24 991.877 1898.56 992.341 1899.72L997.086 1911.64C997.318 1912.22 997.763 1912.66 998.296 1912.89C998.829 1913.12 999.45 1913.14 1000.03 1912.91L1011.95 1908.17C1013.12 1907.7 1013.68 1906.38 1013.22 1905.22L1008.48 1893.3C1008.01 1892.13 1006.69 1891.57 1005.53 1892.03ZM1000.46 1907.86L997.393 1900.15L1005.1 1897.08L1008.17 1904.79L1000.46 1907.86ZM960.508 1891.68C959.024 1895.13 960.621 1899.14 964.067 1900.62C967.513 1902.1 971.524 1900.51 973.007 1897.06C974.491 1893.61 972.895 1889.6 969.448 1888.12C966.002 1886.64 961.991 1888.23 960.508 1891.68ZM967.654 1892.29C968.803 1892.78 969.335 1894.12 968.841 1895.27C968.346 1896.42 967.009 1896.95 965.861 1896.45C964.712 1895.96 964.18 1894.62 964.674 1893.47C965.169 1892.33 966.506 1891.79 967.654 1892.29ZM995.691 1867.32C997.174 1863.87 995.578 1859.86 992.131 1858.38C988.685 1856.89 984.675 1858.49 983.191 1861.93C981.707 1865.38 983.304 1869.39 986.75 1870.88C990.196 1872.36 994.207 1870.76 995.691 1867.32ZM987.357 1863.73C987.852 1862.58 989.189 1862.05 990.338 1862.54C991.486 1863.04 992.018 1864.37 991.524 1865.52C991.03 1866.67 989.692 1867.2 988.544 1866.71C987.395 1866.21 986.863 1864.88 987.357 1863.73ZM973.899 1879.96C974.194 1879.96 974.486 1879.92 974.775 1879.82C975.32 1879.59 975.783 1879.14 976.016 1878.6C976.133 1878.33 976.186 1878.03 976.19 1877.74C976.193 1877.44 976.146 1877.15 976.048 1876.86C975.921 1876.58 975.755 1876.34 975.549 1876.13C974.922 1875.46 973.925 1875.26 973.09 1875.59C972.813 1875.72 972.578 1875.86 972.356 1876.09C972.145 1876.29 971.966 1876.54 971.849 1876.81C971.607 1877.37 971.612 1877.99 971.817 1878.55C972.051 1879.09 972.494 1879.55 973.036 1879.79C973.306 1879.9 973.595 1879.98 973.899 1879.96ZM1023.35 1889.1L1026.94 1880.77C1027.44 1879.62 1026.9 1878.28 1025.75 1877.79C1024.6 1877.29 1023.27 1877.83 1022.77 1878.98L1019.19 1887.31C1018.69 1888.46 1019.22 1889.79 1020.37 1890.29C1021.52 1890.78 1022.86 1890.25 1023.35 1889.1ZM961.785 1860C962.164 1858.81 961.528 1857.53 960.309 1857.16C958.865 1856.7 957.409 1856.39 955.956 1856.2C956.901 1853.39 957.01 1850.48 956.405 1847.74C958.803 1848.38 961.302 1848.31 963.593 1847.4C967.746 1845.74 970.584 1841.69 971 1836.81C971.06 1836.1 970.782 1835.4 970.249 1834.92C966.59 1831.66 961.744 1830.67 957.592 1832.32C954.622 1833.5 952.344 1835.93 951.125 1838.99C949.967 1838.02 948.655 1837.19 947.196 1836.56C946.046 1836.07 944.711 1836.6 944.216 1837.75C943.721 1838.9 944.252 1840.23 945.402 1840.73C951.146 1843.2 953.807 1849.89 951.334 1855.63C951.279 1855.76 951.282 1855.89 951.251 1856.02C942.098 1856.57 933.707 1862.16 929.866 1871.08C924.773 1882.91 929.42 1896.53 940.675 1902.76C940.742 1902.8 940.811 1902.83 940.879 1902.86C941.937 1903.32 943.189 1902.91 943.758 1901.88C944.365 1900.78 943.968 1899.4 942.873 1898.79C933.666 1893.7 929.865 1882.55 934.032 1872.87C938.2 1863.19 948.906 1858.3 958.937 1861.48C960.131 1861.86 961.406 1861.2 961.785 1860ZM959.269 1836.54C961.535 1835.63 964.105 1836.03 966.313 1837.58C965.771 1840.23 964.18 1842.28 961.916 1843.18C959.65 1844.08 957.086 1843.69 954.872 1842.14C955.415 1839.49 957.005 1837.44 959.269 1836.54Z" fill="#F8F4EC"/>
<path d="M939.386 1877.65C938.235 1877.15 936.901 1877.68 936.406 1878.83C933.933 1884.58 936.594 1891.26 942.338 1893.73C943.488 1894.23 944.823 1893.7 945.318 1892.55C945.813 1891.4 945.282 1890.06 944.131 1889.57C940.685 1888.08 939.088 1884.07 940.572 1880.63C941.067 1879.48 940.536 1878.14 939.386 1877.65ZM945.522 1872.68C945.728 1872.9 945.971 1873.07 946.243 1873.19C946.514 1873.31 946.811 1873.36 947.106 1873.37C947.402 1873.37 947.693 1873.32 947.982 1873.22C948.259 1873.1 948.503 1872.93 948.716 1872.72C948.948 1872.53 949.107 1872.28 949.223 1872.01C949.34 1871.73 949.415 1871.45 949.397 1871.14C949.4 1870.85 949.353 1870.55 949.256 1870.27C949.128 1869.99 948.982 1869.75 948.757 1869.53C948.346 1869.11 947.763 1868.86 947.173 1868.85C946.857 1868.84 946.586 1868.89 946.298 1868.99C946.02 1869.12 945.785 1869.26 945.564 1869.49C945.352 1869.7 945.174 1869.94 945.057 1870.21C944.94 1870.48 944.886 1870.78 944.882 1871.07C944.87 1871.39 944.926 1871.66 945.024 1871.95C945.151 1872.23 945.318 1872.47 945.522 1872.68ZM1045.58 1884.3C1044.52 1883.63 1043.13 1883.93 1042.45 1884.98C1041.77 1886.03 1042.07 1887.43 1043.13 1888.11C1053.39 1894.73 1057.33 1907.69 1052.49 1918.93C1047.4 1930.77 1033.85 1936.83 1021.65 1932.73C1020.47 1932.33 1019.18 1932.97 1018.78 1934.15C1018.4 1935.28 1018.96 1936.5 1020.03 1936.96C1020.09 1936.98 1020.15 1937.01 1020.21 1937.03C1034.63 1941.87 1050.64 1934.71 1056.66 1920.73C1062.38 1907.44 1057.72 1892.12 1045.58 1884.3Z" fill="#F8F4EC"/>
<path d="M1036.72 1925.21L1031.97 1913.29C1031.51 1912.13 1030.19 1911.56 1029.02 1912.02C1027.86 1912.49 1027.29 1913.8 1027.76 1914.97L1032.5 1926.89C1032.52 1926.92 1032.54 1926.94 1032.56 1926.98C1029.88 1927.42 1027.06 1927.27 1024.3 1926.43C1023.1 1926.06 1021.83 1926.74 1021.46 1927.94C1021.12 1929.05 1021.69 1930.23 1022.73 1930.68C1022.81 1930.71 1022.89 1930.74 1022.97 1930.77C1034.03 1934.15 1045.83 1928.67 1050.41 1918.04C1054.99 1907.4 1050.86 1895.07 1040.8 1889.36C1039.72 1888.77 1038.33 1889.12 1037.71 1890.21C1037.09 1891.3 1037.47 1892.68 1038.56 1893.3C1041.07 1894.73 1043.12 1896.67 1044.64 1898.93C1044.6 1898.94 1044.57 1898.93 1044.53 1898.94L1032.61 1903.69C1031.45 1904.15 1030.88 1905.47 1031.34 1906.64C1031.58 1907.22 1032.02 1907.65 1032.55 1907.88C1033.09 1908.11 1033.71 1908.14 1034.29 1907.9L1046.21 1903.16C1046.37 1903.09 1046.49 1902.98 1046.63 1902.88C1047.91 1906.41 1048.09 1910.33 1046.99 1914.1L1038.8 1910.57C1037.65 1910.08 1036.32 1910.61 1035.82 1911.76C1035.33 1912.91 1035.86 1914.24 1037.01 1914.74L1045.2 1918.26C1043.21 1921.65 1040.25 1924.21 1036.81 1925.71C1036.78 1925.54 1036.78 1925.37 1036.72 1925.21Z" fill="#F8F4EC"/>
</svg>
