<svg width="835" height="864" viewBox="0 0 835 864" fill="none" xmlns="http://www.w3.org/2000/svg">
<path d="M172.998 197.206L186.079 219.859C190.498 218.453 195.064 217.559 199.687 217.196C206.16 216.489 210.838 215.977 216.076 211.25C221.383 206.46 223.169 200.66 224.895 195.05C226.92 188.468 229.216 181.008 237.37 177.425C245.26 173.952 251.565 177.112 257.129 179.901C261.556 182.12 265.737 184.215 271.566 184.029C282.006 183.696 288.984 175.992 295.732 168.54C302.572 160.989 309.645 153.18 320.007 154.881C326.239 155.905 332.266 160.592 336.979 168.081C343.42 178.314 347.98 195.258 343.654 210.058C340.822 219.742 335.099 225.352 330.05 230.303C324.829 235.421 320.706 239.463 319.431 247.508C318.563 252.986 319.639 256.458 320.777 260.134C322.188 264.688 323.788 269.849 320.815 276.718C316.551 286.564 307.539 289.048 299.587 291.238C292.744 293.124 285.669 295.073 279.611 301.334C279.12 301.843 278.671 302.353 278.24 302.867C279.999 304.886 281.559 307.07 282.899 309.388C283.131 309.789 283.336 310.201 283.554 310.608C283.783 310.576 284.014 310.557 284.245 310.552C294.251 310.363 300.575 314.181 305.657 317.249C310.231 320.01 313.534 322.005 319.12 321.604C325.06 321.174 329.024 318.328 333.22 315.315C338.18 311.754 344.351 307.322 352.832 309.843C358.67 311.582 361.218 315.349 363.265 318.376C364.897 320.789 366.306 322.872 369.675 324.871C374.574 327.777 378.397 327.397 383.687 326.872C389.077 326.337 395.186 325.731 402.515 328.93C415.858 334.76 426.918 351.306 426.614 363.767C427.834 365.198 428.956 366.709 429.973 368.29C432.123 371.483 434.154 374.5 438.964 377.259C446.026 381.308 451.759 380.633 459.018 379.777C466.042 378.948 474.004 378.009 483.326 381.881C497.566 387.793 507.903 401.973 511.833 413.406C514.708 421.771 514.577 429.405 511.467 434.897C506.296 444.036 495.776 444.649 485.604 445.241C475.568 445.825 465.189 446.43 458.384 454.349C454.586 458.773 453.596 463.343 452.546 468.182C451.228 474.267 449.733 481.163 442.083 485.128C434.177 489.235 426.931 486.344 420.537 483.794C415.085 481.618 409.448 479.371 402.385 480.503C395.417 481.618 392.084 484.941 387.47 489.54C383.789 493.21 379.617 497.369 373.11 500.594C366.238 503.845 358.752 505.596 351.152 505.729L372.452 542.617C373.25 544 373.467 545.643 373.054 547.184C372.641 548.726 371.632 550.041 370.25 550.839C311.874 584.548 240.168 574.891 192.658 531.94L177.769 540.537C168.172 546.064 156.774 547.559 146.077 544.693C135.379 541.828 126.255 534.836 120.706 525.252L62.1942 423.922C56.6672 414.324 55.1727 402.927 58.0383 392.229C60.9039 381.532 67.8958 372.408 77.4801 366.859L92.3134 358.293C85.5817 326.91 88.9687 294.201 101.988 264.863C115.007 235.525 136.989 211.068 164.776 195.003C166.158 194.205 167.801 193.988 169.343 194.401C170.885 194.814 172.2 195.823 172.998 197.206ZM309.768 271.935C310.913 269.291 310.536 267.753 309.279 263.697C307.995 259.549 306.234 253.869 307.542 245.623C309.44 233.651 315.913 227.306 321.623 221.706C326.199 217.22 330.15 213.345 332.101 206.679C334.892 197.129 332.714 183.898 326.792 174.492C324.024 170.095 320.758 167.204 318.056 166.759C314.428 166.163 310.573 170.088 304.656 176.621C297.011 185.061 287.498 195.564 271.951 196.06C263.072 196.344 256.786 193.194 251.736 190.663C246.693 188.135 244.706 187.348 242.216 188.444C239.383 189.689 238.32 192.353 236.401 198.59C234.401 205.087 231.914 213.173 224.142 220.186C216.014 227.521 208.036 228.393 200.997 229.162C198.053 229.413 195.133 229.88 192.258 230.557L215.072 270.066C216.817 268.159 218.574 266.265 220.343 264.382L220.075 241.366C220.057 239.769 220.673 238.231 221.789 237.089C222.904 235.948 224.428 235.296 226.024 235.277C227.62 235.259 229.159 235.875 230.3 236.991C231.442 238.107 232.094 239.63 232.112 241.226L232.24 252.161C243.258 241.204 254.827 230.649 266.749 220.721C267.355 220.201 268.057 219.807 268.816 219.561C269.576 219.316 270.376 219.224 271.171 219.29C271.966 219.357 272.74 219.581 273.448 219.949C274.156 220.317 274.783 220.823 275.294 221.436C275.805 222.049 276.188 222.758 276.423 223.52C276.657 224.283 276.737 225.085 276.659 225.879C276.581 226.673 276.346 227.443 275.967 228.146C275.588 228.848 275.073 229.468 274.453 229.969C266.335 236.736 258.427 243.751 250.739 251.003L266.143 248.939C266.926 248.834 267.723 248.885 268.487 249.088C269.251 249.291 269.967 249.642 270.595 250.122C271.224 250.601 271.751 251.2 272.148 251.884C272.545 252.568 272.803 253.323 272.908 254.106C273.013 254.89 272.962 255.686 272.759 256.45C272.557 257.214 272.205 257.931 271.726 258.559C270.757 259.827 269.323 260.659 267.741 260.871L236.383 265.072C235.734 265.733 235.077 266.39 234.433 267.053C233.193 268.331 231.959 269.618 230.734 270.912L230.667 270.981C227.533 274.28 224.442 277.624 221.393 281.013L228.247 292.883C234.67 289.706 241.802 288.235 248.957 288.611C256.112 288.987 263.051 291.198 269.105 295.031C269.7 294.321 270.319 293.632 270.96 292.964C279.303 284.34 288.778 281.73 296.391 279.632C303.885 277.567 307.883 276.286 309.768 271.936L309.768 271.935ZM272.474 315.407C268.76 308.995 262.784 304.203 255.719 301.971C248.653 299.738 241.008 300.227 234.285 303.341L258.346 345.009C263.395 342.497 268.902 341.039 274.533 340.724C276.094 336.616 276.719 332.213 276.363 327.833C276.007 323.453 274.678 319.208 272.474 315.407ZM397.698 339.962C393.249 338.021 389.554 338.388 384.876 338.852C379.064 339.427 371.831 340.145 363.533 335.223C359.354 332.732 355.841 329.265 353.294 325.121C351.598 322.614 351.036 321.869 349.399 321.381C346.81 320.611 344.937 321.723 340.242 325.093C335.376 328.587 329.32 332.936 319.985 333.611C310.585 334.286 304.661 330.71 299.435 327.555C295.739 325.322 292.452 323.341 287.809 322.758C288.98 329.116 288.648 335.659 286.837 341.866C292.301 343.197 297.438 345.626 301.935 349.003C306.431 352.38 310.195 356.636 312.998 361.512C313.208 361.876 313.399 362.246 313.597 362.614C317.383 361.535 321.283 360.907 325.217 360.743C338.127 360.241 345.949 364.807 352.85 368.835C359 372.425 363.858 375.261 372.063 374.512C380.74 373.721 386.697 369.434 392.458 365.288C398.304 361.08 404.833 356.383 413.283 357.164C410.768 350.76 404.926 343.12 397.698 339.962ZM264.387 355.471L293.934 406.64C300.005 402.382 304.262 396.005 305.864 388.765C307.466 381.525 306.298 373.947 302.59 367.526C298.882 361.104 292.903 356.305 285.831 354.073C278.76 351.842 271.109 352.34 264.387 355.471ZM424.998 472.611C431.052 475.028 433.791 475.87 436.537 474.444C438.951 473.191 439.586 471.149 440.781 465.631C441.978 460.112 443.466 453.244 449.251 446.505C459.389 434.707 473.537 433.884 484.904 433.222C493.704 432.711 499.179 432.168 500.99 428.967C502.339 426.584 502.136 422.23 500.448 417.318C496.837 406.815 487.899 396.813 478.709 392.998C472.29 390.331 466.793 390.98 460.427 391.731C452.487 392.667 443.488 393.729 432.974 387.701C425.732 383.547 422.412 378.614 419.987 375.013C417.616 371.491 416.655 370.234 413.876 369.469C409.304 368.207 405.798 370.517 399.49 375.058C393.08 379.67 385.105 385.411 373.156 386.5C361.116 387.599 353.5 383.153 346.782 379.23C340.506 375.568 335.089 372.406 325.686 372.772C322.996 372.883 320.326 373.281 317.721 373.96C319.385 382.1 318.584 390.55 315.422 398.233C312.261 405.915 306.881 412.481 299.97 417.091L309.512 433.616C316.247 433.839 322.981 433.919 329.714 433.855L352.717 412.003C353.874 410.904 355.421 410.309 357.017 410.35C358.613 410.391 360.127 411.064 361.226 412.221C362.326 413.378 362.921 414.925 362.88 416.521C362.839 418.117 362.166 419.631 361.008 420.731L347.741 433.334C357.01 432.89 366.278 432.168 375.544 431.168L392.334 413.729C392.882 413.159 393.537 412.703 394.261 412.387C394.986 412.071 395.765 411.9 396.556 411.885C397.346 411.87 398.131 412.011 398.867 412.299C399.603 412.588 400.275 413.019 400.844 413.567C401.414 414.115 401.87 414.77 402.186 415.495C402.502 416.219 402.673 416.999 402.688 417.789C402.703 418.579 402.562 419.365 402.274 420.101C401.985 420.836 401.554 421.508 401.006 422.078L394.613 428.718C404.586 427.23 414.491 425.426 424.328 423.306C425.104 423.132 425.905 423.114 426.688 423.251C427.47 423.389 428.217 423.68 428.887 424.108C429.556 424.536 430.134 425.092 430.587 425.744C431.04 426.397 431.36 427.132 431.528 427.909C431.695 428.685 431.708 429.487 431.564 430.268C431.42 431.05 431.123 431.795 430.69 432.461C430.257 433.127 429.697 433.7 429.041 434.148C428.385 434.597 427.647 434.911 426.869 435.072C411.129 438.464 395.229 441.066 379.229 442.87C379.111 442.888 378.993 442.901 378.874 442.912C378.522 442.951 378.17 442.994 377.819 443.033L387.54 451.047C388.765 452.064 389.537 453.526 389.686 455.111C389.836 456.696 389.351 458.276 388.338 459.505C387.326 460.733 385.867 461.511 384.283 461.667C382.698 461.822 381.116 461.344 379.884 460.336L360.79 444.597C356.433 444.92 352.076 445.186 347.719 445.394C344.81 445.531 341.897 445.639 338.981 445.717L350.742 455.413C351.356 455.915 351.864 456.533 352.238 457.231C352.612 457.93 352.845 458.695 352.923 459.484C353 460.272 352.921 461.069 352.69 461.827C352.459 462.585 352.081 463.29 351.577 463.901C351.073 464.513 350.453 465.019 349.753 465.39C349.053 465.761 348.287 465.991 347.498 466.065C346.709 466.14 345.913 466.058 345.156 465.824C344.399 465.59 343.695 465.209 343.086 464.702L320.257 445.884C319.027 445.872 317.795 445.85 316.564 445.83L344.122 493.555C353.211 494.202 361.521 492.902 367.763 489.808C372.509 487.455 375.648 484.327 378.972 481.013C383.988 476.013 389.674 470.346 400.48 468.616C410.822 466.957 418.682 470.092 424.998 472.611ZM83.4995 377.283C76.677 381.233 71.6999 387.728 69.6601 395.342C67.6204 402.957 68.6845 411.07 72.6191 417.902L131.131 519.232C135.081 526.054 141.575 531.031 149.19 533.071C156.805 535.111 164.918 534.047 171.749 530.113L183.74 523.189C175.823 514.729 168.902 505.389 163.113 495.352L109.289 402.14C103.491 392.11 98.8523 381.453 95.4628 370.376L83.4995 377.283ZM105.758 290.192C99.6454 312.824 99.3608 336.635 104.931 359.407C105.011 359.659 105.074 359.916 105.12 360.176C108.295 372.775 113.207 384.872 119.713 396.119L173.538 489.332C211.021 554.245 293.122 577.676 358.953 543.313L165.647 208.547C136.102 227.236 114.71 256.398 105.758 290.192Z" fill="#F8F4EC"/>
<path d="M494.243 495.715C504.351 483.079 516.033 476.347 531.069 479.534C525.99 494.886 513.546 507.817 495.361 503.154C484.796 500.439 476.363 494.417 472.248 482.195C468.742 471.804 469.046 461.235 472.449 450.843C473.465 447.832 473.668 447.832 476.055 449.367C489.11 457.927 496.477 475.403 494.497 492.999C494.446 493.766 494.345 494.534 494.243 495.715Z" fill="#F8F4EC"/>
<path d="M439.883 540.657C439.343 528.122 435.022 518.127 423.898 512.025C419.944 523.461 421.842 537.395 435.675 544.313C443.715 548.329 451.941 549.335 460.313 544.528C467.436 540.445 472.202 534.254 474.902 526.532C475.665 524.279 475.535 524.172 473.286 523.79C460.908 521.798 447.987 527.89 440.995 538.973C440.668 539.438 440.372 539.929 439.883 540.657Z" fill="#F8F4EC"/>
<path d="M382.055 525.837C401.562 519.59 415.649 508.396 421.044 488.008C401.569 486.604 380.374 495.62 374.717 520.687C371.437 535.253 372.961 548.824 383.68 560.132C392.789 569.754 404.324 574.708 417.486 575.702C421.318 575.953 421.437 575.7 421.188 571.943C419.648 551.317 405.19 533.297 385.123 526.891C384.268 526.567 383.384 526.306 382.055 525.837Z" fill="#F8F4EC"/>
<path d="M585.035 530.33C588.985 517.555 596.199 508.285 609.473 504.628C610.518 517.332 604.772 531.228 588.446 535.087C578.959 537.324 570.089 536.419 562.637 529.497C556.295 523.614 552.985 516.116 552.249 507.53C552.06 505.031 552.224 504.951 554.678 505.089C568.153 505.958 580.012 515.277 584.327 528.335C584.544 528.891 584.72 529.466 585.035 530.33Z" fill="#F8F4EC"/>
<path d="M659.457 568.748C653.451 556.8 652.229 545.118 659.264 533.283C668.822 541.717 674.309 555.717 665.212 569.813C659.923 578.001 652.902 583.495 642.732 583.669C634.082 583.822 626.501 580.711 620.02 575.031C618.151 573.36 618.215 573.189 620.079 571.587C630.396 562.876 645.404 561.376 657.564 567.8C658.106 568.05 658.631 568.343 659.457 568.748Z" fill="#F8F4EC"/>
<path d="M551.064 614.407C555.779 599.056 554.884 584.978 544.18 572.375C534.555 584.279 530.865 601.957 544.463 616.823C552.368 625.457 561.784 630.554 573.861 628.721C584.132 627.168 592.486 621.963 599.021 613.938C600.898 611.585 600.788 611.395 598.259 609.873C584.296 601.627 566.225 602.86 553.115 612.905C552.524 613.31 551.96 613.763 551.064 614.407Z" fill="#F8F4EC"/>
<path d="M519.286 539.306C531.195 553.87 546.228 563.071 567.482 563.424C562.946 547.38 547.861 531.995 522.025 532.351C507.013 532.563 494.412 536.47 486.769 547.375C480.261 556.645 478.98 566.96 482.002 577.813C482.919 580.964 483.199 581.011 486.74 580.07C506.126 574.761 519.099 559.507 519.199 541.997C519.252 541.241 519.236 540.474 519.286 539.306Z" fill="#F8F4EC"/>
<path d="M431.491 621.742C443.58 632.523 450.163 645.137 447.512 661.603C432.988 656.361 420.569 643.037 424.534 623.107C426.843 611.527 432.303 602.21 443.681 597.482C453.355 593.455 463.281 593.581 473.112 597.091C475.961 598.14 475.966 598.362 474.579 600.996C466.841 615.406 450.605 623.783 434.046 621.966C433.324 621.925 432.601 621.83 431.491 621.742Z" fill="#F8F4EC"/>
</svg>
