<svg width="80" height="64" viewBox="0 0 80 64" fill="none" xmlns="http://www.w3.org/2000/svg">
<path d="M9.17578 15H12.3398L8.86328 9.82422C9.82031 9.48242 10.5723 8.92578 11.1094 8.14453C11.6465 7.36328 11.9199 6.50391 11.9199 5.55664C11.9199 4.375 11.4805 3.32031 10.6016 2.39258C9.72266 1.46484 8.56055 1.00586 7.125 1.00586H0.308594V15.0098H3.0332V10.1074H6.01172L9.17578 15ZM3.0332 3.4668H7.04688C7.69141 3.4668 8.21875 3.67188 8.63867 4.08203C9.05859 4.49219 9.26367 4.99023 9.26367 5.56641C9.26367 6.17188 9.04883 6.67969 8.61914 7.08984C8.18945 7.5 7.63281 7.70508 6.93945 7.70508H3.02344L3.0332 3.4668ZM24.5273 3.47656V0.996094H14.2051V15H24.5078V12.5195H16.8906V9.08203H23.502V6.67969H16.8906V3.47656H24.5273ZM36.9102 3.49609V0.996094H26.7246V15H29.4688V9.44336H35.8848V6.98242H29.4688V3.49609H36.9102ZM47.7598 0.996094V9.21875C47.7598 10.2832 47.4766 11.1426 46.9102 11.7871C46.3438 12.4316 45.5234 12.7539 44.459 12.7539C43.4141 12.7539 42.6035 12.4316 42.0371 11.7871C41.4707 11.1426 41.1875 10.2832 41.1875 9.21875V0.996094H38.4043V9.25781C38.4043 11.084 38.9316 12.5488 39.9863 13.6426C41.041 14.7363 42.5254 15.2832 44.4492 15.2832C46.3535 15.2832 47.8379 14.7363 48.9023 13.6328C49.9668 12.5293 50.5039 11.0742 50.5039 9.25781V0.996094H47.7598ZM66.959 7.2168H59.8105V9.58008H64.1172C63.9902 10.4883 63.5703 11.2402 62.8477 11.8359C62.125 12.4316 61.1973 12.7344 60.0645 12.7344C58.5605 12.7344 57.3691 12.2754 56.4902 11.3574C55.6113 10.4395 55.1719 9.31641 55.1719 7.97852C55.1719 6.67969 55.6016 5.57617 56.4609 4.66797C57.3203 3.75977 58.4141 3.31055 59.752 3.31055C61.7344 3.31055 63.1211 4.12109 63.9121 5.73242L66.4512 5.00977C65.9922 3.76953 65.1719 2.74414 63.9902 1.93359C62.8086 1.12305 61.3926 0.722656 59.7422 0.722656C57.6621 0.722656 55.9238 1.41602 54.5176 2.8125C53.1113 4.20898 52.4082 5.92773 52.4082 7.97852C52.4082 10.0586 53.1113 11.7969 54.5273 13.1934C55.9434 14.5898 57.7207 15.2832 59.8691 15.2832C61.9688 15.2832 63.6777 14.668 64.9863 13.4375C66.2949 12.207 66.9492 10.6055 66.9492 8.63281L66.959 7.2168ZM79.293 3.47656V0.996094H68.9707V15H79.2734V12.5195H71.6562V9.08203H78.2676V6.67969H71.6562V3.47656H79.293ZM3.04297 36.4805V24.9961H0.298828V39H10.0156V36.4805H3.04297ZM22.2031 39H25.0645L19.6836 24.9961H16.1191L10.7578 39H13.5996L14.7617 35.9629H21.0605L22.2031 39ZM15.6602 33.541L17.8965 27.623L20.1426 33.541H15.6602ZM32.4863 39.2832C34.2148 39.2832 35.6797 38.8438 36.8711 37.9551C38.0625 37.0664 38.834 36.0117 39.1758 34.791L36.5195 34.1074C36.2754 34.8398 35.7871 35.4551 35.0547 35.9531C34.3223 36.4512 33.4434 36.7051 32.4277 36.7051C31.0898 36.7051 30.0059 36.2461 29.166 35.3184C28.3262 34.3906 27.9062 33.2773 27.9062 31.9688C27.9062 30.6699 28.3262 29.5664 29.1562 28.6582C29.9863 27.75 31.0801 27.3008 32.4277 27.3008C33.4434 27.3008 34.3125 27.5547 35.0449 28.0625C35.7773 28.5703 36.2656 29.1953 36.5098 29.9277L39.1953 29.2734C38.834 28.043 38.0527 26.9785 36.8613 26.0801C35.6699 25.1816 34.1855 24.7324 32.418 24.7324C30.3379 24.7324 28.5996 25.4258 27.2031 26.8125C25.8066 28.1992 25.1133 29.9277 25.1133 31.9883C25.1133 34.0684 25.8066 35.8066 27.2031 37.2031C28.5996 38.5996 30.3477 39.293 32.457 39.293L32.4863 39.2832ZM12.0762 48.9961L7.49609 55.6172L2.91602 48.9961H0.298828V63H3.04297V53.7812L7.49609 59.9629L11.959 53.7812V63H14.7031V48.9961H12.0762ZM27.6133 51.4766V48.9961H17.291V63H27.5938V60.5195H19.9766V57.082H26.5879V54.6797H19.9766V51.4766H27.6133ZM38.6875 63H41.8516L38.375 57.8242C39.332 57.4824 40.084 56.9258 40.6211 56.1445C41.1582 55.3633 41.4316 54.5039 41.4316 53.5566C41.4316 52.375 40.9922 51.3203 40.1133 50.3926C39.2344 49.4648 38.0723 49.0059 36.6367 49.0059H29.8203V63.0098H32.5449V58.1074H35.5234L38.6875 63ZM32.5449 51.4668H36.5586C37.2031 51.4668 37.7305 51.6719 38.1504 52.082C38.5703 52.4922 38.7754 52.9902 38.7754 53.5664C38.7754 54.1719 38.5605 54.6797 38.1309 55.0898C37.7012 55.5 37.1445 55.7051 36.4512 55.7051H32.5352L32.5449 51.4668ZM46.4609 60.4805V48.9961H43.7168V63H53.4336V60.4805H46.4609ZM65.5234 51.4766V48.9961H55.2012V63H65.5039V60.5195H57.8867V57.082H64.498V54.6797H57.8867V51.4766H65.5234ZM78.8633 48.9961H66.7246V51.4766H71.4219V63H74.166V51.4766H78.8633V48.9961Z" fill="#3A472B"/>
</svg>
