<svg width="862" height="2636" viewBox="0 0 862 2636" fill="none" xmlns="http://www.w3.org/2000/svg">
<g opacity="0.1">
<path d="M206.993 2C206.993 2 463.993 159.5 416.993 274C369.993 388.5 276 526.5 279.5 661.5C280.796 711.499 376.009 813.231 418 852.5" stroke="#363A2E" stroke-width="3"/>
<path d="M336.003 3.5C336.003 3.5 536.502 142.5 554.502 229C572.502 315.5 248.003 530 330.003 686C341.985 708.795 429.954 808.742 449.5 827.5" stroke="#363A2E" stroke-width="3"/>
<path d="M398.75 750C513.509 858.213 725.924 874.841 725.5 1000C725 1147.5 156 1178.45 156 1524.95C156 1688.95 357.5 1637.45 357.5 1793.45C357.5 1949.45 255 2236.45 255 2354.95C255 2473.45 443.5 2558.45 443.5 2558.45" stroke="#F8F4EC" stroke-width="3"/>
<path d="M399.502 501C399.502 501 332 582.5 372 658C375.054 663.765 380.517 669.787 388 676.066C478.51 752.013 864.583 865.562 859.503 1017.5C854.003 1182 240 1160.5 240 1517C240 1633.5 422 1641.5 422 1746C422 1850.5 331 2213 331 2327C331 2441 436.5 2490.5 436.5 2490.5" stroke="#F8F4EC" stroke-width="3"/>
<path d="M388.992 1340C388.992 1340 271.492 1394.5 280.492 1504.5C289.492 1614.5 458.992 1620.5 458.992 1620.5" stroke="#F8F4EC" stroke-width="3"/>
<path d="M558 929.5C559 1118.5 1.99988 1351.37 1.99988 1554.93C1.99988 1758.5 242 1683 244 1828C246.79 2030.28 130.426 2191.77 135.5 2379.5C139 2509 483.5 2634.5 483.5 2634.5" stroke="#F8F4EC" stroke-width="3"/>
</g>
</svg>
