<svg width="254" height="335" viewBox="0 0 254 335" fill="none" xmlns="http://www.w3.org/2000/svg">
<rect width="254" height="334.211" fill="#555B47" fill-opacity="0.75"/>
<path fill-rule="evenodd" clip-rule="evenodd" d="M46.7273 205.885C46.1414 205.885 45.5639 205.746 45.042 205.48L16.9959 191.034C16.1312 190.589 15.4778 189.82 15.1785 188.894C14.8793 187.969 14.9585 186.963 15.3989 186.096L48.3463 121.018C48.5651 120.586 48.8669 120.201 49.2347 119.886C49.6024 119.571 50.0287 119.331 50.4892 119.181C50.9497 119.031 51.4352 118.973 51.9181 119.011C52.4009 119.049 52.8715 119.182 53.3028 119.403L79.9838 133.017C80.8404 133.453 81.4925 134.207 81.8006 135.117C82.1086 136.028 82.0482 137.023 81.6323 137.889L78.9634 143.457L84.7897 146.737C88.2375 144.647 95.6998 140.147 100.476 137.449C107.356 133.553 112.44 133.568 117.871 137.728C125.567 132.809 132.189 130.211 139.454 133.482C144.002 135.532 160.144 141.783 164.729 143.557L177.057 139.516L175.106 134.677C174.921 134.217 174.83 133.725 174.839 133.229C174.848 132.734 174.958 132.245 175.16 131.793C175.363 131.341 175.655 130.934 176.019 130.598C176.383 130.261 176.811 130.002 177.277 129.834L206.957 119.215C207.855 118.894 208.842 118.934 209.711 119.326C210.58 119.719 211.263 120.434 211.615 121.32L238.845 189.665C239.023 190.117 239.11 190.6 239.101 191.085C239.091 191.571 238.986 192.05 238.791 192.495C238.595 192.939 238.314 193.341 237.962 193.676C237.611 194.012 237.197 194.274 236.744 194.449L207.608 205.627C207.189 205.793 206.742 205.881 206.291 205.885C205.558 205.885 204.841 205.665 204.233 205.255C203.626 204.844 203.154 204.262 202.88 203.582L200.716 198.214L194.943 200.777C194.963 200.823 194.982 200.869 195.002 200.915C195.657 202.478 195.987 204.157 195.973 205.851C195.96 207.546 195.602 209.219 194.922 210.771C194.242 212.323 193.254 213.721 192.017 214.879C189.186 217.448 185.469 218.818 181.648 218.702C181.502 218.706 181.357 218.707 181.212 218.707C180.525 220.496 179.542 222.167 178.298 223.647C176.284 226.044 173.657 227.851 170.698 228.875C168.891 229.517 166.989 229.85 165.072 229.862C164.371 229.883 163.675 229.844 162.989 229.749C161.827 231.913 160.207 233.815 158.225 235.313C155.329 237.503 151.81 238.715 148.184 238.778C147.861 239.864 147.397 240.91 146.798 241.887C145.458 244.074 143.506 245.819 141.183 246.906C138.925 248.024 136.439 248.607 133.92 248.61C130.911 248.674 127.97 247.721 125.57 245.905C122.995 243.843 120.41 241.793 117.816 239.754C115.759 242.452 113.083 244.661 109.976 246.171C108.827 246.657 107.592 246.907 106.344 246.907C105.148 246.902 103.965 246.665 102.86 246.207C99.8593 244.735 97.3858 242.374 95.7764 239.444C93.1651 239.951 90.4589 239.544 88.1118 238.293C86.1429 237.002 84.4504 235.333 83.1327 233.382C82.7706 232.846 82.4388 232.292 82.1384 231.722C80.894 232.193 79.5726 232.466 78.2214 232.522C77.3496 232.525 76.482 232.401 75.6457 232.155C70.8882 230.724 68.3149 225.724 67.2267 222.96C63.2094 221.214 53.6668 216.087 53.6668 206.821C53.6664 206.435 53.7259 206.051 53.8434 205.684C54.3451 204.303 54.9167 202.95 55.5556 201.631L52.1866 199.319L50.0463 203.784C49.8328 204.227 49.5332 204.623 49.1648 204.949C48.7965 205.275 48.3669 205.524 47.9011 205.683C47.523 205.812 47.1268 205.88 46.7273 205.885ZM47.2738 192.553L45.0457 197.201L23.6155 186.162L53.2439 127.656L73.4451 137.959L70.9557 143.152L70.9469 143.167C70.8648 143.313 70.7929 143.464 70.7317 143.619L47.5521 191.973C47.442 192.159 47.349 192.353 47.2738 192.553ZM55.407 192.6L59.3352 195.296C61.015 193.328 63.314 191.987 65.8566 191.496C68.4355 190.997 71.1075 191.402 73.4227 192.643C75.6021 193.609 77.3402 195.357 78.2939 197.542C78.7513 198.589 79.0123 199.701 79.0748 200.823C80.7535 199.381 82.7981 198.4 85.0067 198.003C88.0644 197.454 91.2169 198.064 93.8488 199.715C95.6322 200.952 97.1711 202.936 97.6699 205.502C98.6746 205.446 99.6855 205.512 100.68 205.703C102.489 206.049 104.198 206.796 105.682 207.888C107.326 208.976 108.646 210.488 109.504 212.263C110.361 214.039 110.724 216.013 110.554 217.977C112.304 218.053 114.018 218.503 115.579 219.297C117.141 220.091 118.514 221.211 119.606 222.581C120.666 224.238 121.343 226.111 121.587 228.064C121.798 229.749 121.681 231.456 121.246 233.092C122.94 234.421 126.342 237.099 130.17 240.161C131.334 240.854 132.658 241.233 134.013 241.261C135.367 241.288 136.706 240.964 137.897 240.319C138.963 239.861 139.864 239.091 140.483 238.11C140.727 237.724 140.922 237.312 141.066 236.884C140.589 236.571 140.132 236.221 139.701 235.836L126.631 222.766L131.837 217.56L144.907 230.63C145.716 231.084 146.611 231.363 147.535 231.449C148.458 231.535 149.39 231.427 150.269 231.13C151.957 230.716 153.502 229.855 154.744 228.639C155.359 228.036 155.889 227.356 156.321 226.619C151.133 221.936 139.134 209.944 138.612 209.421C137.941 208.727 137.57 207.798 137.579 206.833C137.587 205.868 137.974 204.945 138.656 204.263C139.339 203.581 140.261 203.194 141.226 203.185C142.191 203.177 143.121 203.548 143.815 204.218C143.943 204.347 156.866 217.262 161.628 221.512C161.786 221.609 161.948 221.699 162.113 221.783C162.3 221.851 162.48 221.933 162.653 222.03C163.363 222.319 164.116 222.493 164.885 222.545C166.038 222.622 167.193 222.419 168.251 221.954C169.979 221.365 171.512 220.312 172.682 218.911C173.242 218.241 173.709 217.504 174.073 216.719L174.024 216.69C170.639 214.43 155.743 199.822 152.792 196.919C152.142 196.226 151.784 195.309 151.795 194.359C151.805 193.409 152.183 192.5 152.848 191.822C153.514 191.144 154.416 190.749 155.366 190.721C156.316 190.693 157.239 191.034 157.944 191.672C164.567 198.21 175.93 209.12 178.097 210.567C179.494 211.212 181.039 211.469 182.57 211.311C184.1 211.153 185.56 210.586 186.796 209.669C187.374 209.167 187.836 208.544 188.147 207.845C188.459 207.145 188.613 206.386 188.599 205.62C188.585 204.854 188.403 204.101 188.066 203.413C187.824 202.919 187.506 202.468 187.125 202.075L187.097 202.052C186.961 201.942 186.833 201.822 186.715 201.694C186.693 201.676 186.671 201.658 186.649 201.64C182.888 197.408 167.264 182.377 163.835 179.08C151.868 174.694 140.264 169.376 129.129 163.177L125.258 165.708C124.388 169.743 122.07 173.318 118.741 175.757C117.573 176.678 116.216 177.33 114.768 177.668C113.319 178.007 111.814 178.023 110.359 177.715C108.593 177.495 106.892 176.909 105.366 175.994C103.84 175.079 102.521 173.855 101.495 172.401C99.5377 168.221 99.3181 163.435 100.884 159.092C103.212 149.775 106.615 145.589 111.093 142.222C109.121 141.533 107.169 142.118 104.097 143.852C97.9591 147.322 86.8871 154.07 86.773 154.155C86.1918 154.503 85.5259 154.684 84.8486 154.677C84.2155 154.677 83.5932 154.514 83.0419 154.203L75.7748 150.109L55.407 192.6ZM63.3987 202.571C63.5057 202.417 63.6009 202.255 63.6834 202.086C64.1845 201.246 64.7182 200.424 65.2834 199.624C65.9708 199.086 66.8023 198.764 67.6727 198.698C68.5431 198.633 69.4134 198.827 70.1736 199.256C70.4747 199.345 70.7531 199.499 70.9902 199.705C71.2274 199.911 71.4178 200.165 71.5488 200.451C71.6798 200.736 71.7482 201.047 71.7497 201.361C71.7511 201.675 71.6855 201.986 71.5571 202.273C70.1589 206.788 68.7349 211.671 67.7745 215.027C64.9485 213.455 61.4234 210.835 61.0555 207.391C61.723 205.73 62.5062 204.12 63.3987 202.571ZM95.7322 214.017C95.7934 213.916 95.853 213.815 95.9112 213.715C96.3238 213.286 96.8649 213 97.4543 212.903C98.1638 212.783 98.8905 212.813 99.5877 212.991C100.285 213.17 100.937 213.492 101.502 213.937C102.245 214.425 102.799 215.152 103.075 215.997C103.35 216.842 103.33 217.756 103.018 218.588L95.1619 232.056C94.5868 232.261 93.9756 232.347 93.3662 232.307C92.7567 232.267 92.1619 232.103 91.6185 231.824C89.8778 230.602 88.6089 228.82 88.0235 226.775C90.1222 223.476 94.5708 216.415 95.7322 214.017ZM89.3026 210.421C89.259 210.495 89.2181 210.571 89.18 210.648L89.1557 210.695C89.1424 210.721 89.1293 210.747 89.1163 210.773C88.465 212.235 84.223 219.069 81.2387 223.737C80.277 224.502 78.8429 225.429 77.7615 225.108C76.3596 224.692 74.987 222.488 74.1812 220.564C76.9174 215.937 79.9087 211.465 83.1411 207.17C83.8767 206.193 84.939 205.514 86.1342 205.256C87.3293 204.998 88.5774 205.178 89.6504 205.764C90.9964 206.699 90.4187 208.48 89.5846 209.947C89.4861 210.102 89.392 210.26 89.3026 210.421ZM197.963 191.383L179.813 146.355L165.774 150.957C164.97 151.219 164.1 151.198 163.309 150.898C163.25 150.875 163.1 150.817 162.872 150.729L162.868 150.727C159.709 149.508 141.539 142.495 136.447 140.197C133.169 138.725 129.706 138.876 121.699 144.02L120.117 145.032C113.689 149.113 110.462 151.166 108.033 160.877C106.79 165.852 107.364 167.868 107.816 168.604C108.398 169.575 109.744 169.969 111.889 170.506C112.35 170.584 112.822 170.558 113.271 170.431C113.721 170.304 114.136 170.078 114.487 169.77C115.525 168.989 116.392 168.002 117.034 166.873C117.677 165.743 118.081 164.494 118.222 163.202C118.27 162.648 118.444 162.111 118.729 161.633C119.015 161.155 119.405 160.748 119.871 160.443L126.954 155.81C127.512 155.447 128.159 155.242 128.824 155.217C129.49 155.193 130.149 155.349 130.733 155.67L130.749 155.679C131.509 156.094 155.907 169.403 166.657 172.228C167.261 172.39 167.815 172.7 168.269 173.13L168.316 173.175C169.478 174.288 184.095 188.293 190.312 194.772L197.963 191.383ZM208.341 197.462L183.352 135.472L206.092 127.34L230.617 188.926L208.341 197.462ZM101.973 235.422C103.128 237.376 105.193 240.18 107.124 239.374C110.332 237.704 112.801 234.898 114.049 231.504C114.295 230.753 114.389 229.96 114.326 229.173C114.263 228.385 114.044 227.618 113.682 226.915C113.122 226.367 112.457 225.937 111.728 225.651C110.998 225.366 110.218 225.23 109.435 225.252L101.973 235.422Z" fill="#F8F4EC" fill-opacity="0.1"/>
</svg>
