<svg width="254" height="335" viewBox="0 0 254 335" fill="none" xmlns="http://www.w3.org/2000/svg">
<rect width="254" height="334.211" fill="#555B47" fill-opacity="0.75"/>
<path d="M112.2 133.2C112.2 131.736 111.766 130.306 110.953 129.089C110.14 127.872 108.984 126.923 107.632 126.363C106.28 125.803 104.792 125.657 103.356 125.942C101.921 126.228 100.602 126.932 99.5674 127.967C98.5325 129.002 97.8277 130.321 97.5422 131.756C97.2567 133.192 97.4032 134.68 97.9633 136.032C98.5234 137.384 99.4719 138.54 100.689 139.353C101.906 140.166 103.336 140.6 104.8 140.6C106.763 140.6 108.645 139.82 110.033 138.433C111.42 137.045 112.2 135.163 112.2 133.2ZM145.5 163.244C144.66 162.752 143.731 162.43 142.766 162.297C141.801 162.165 140.82 162.224 139.878 162.471C138.936 162.719 138.052 163.15 137.278 163.74C136.503 164.329 135.852 165.066 135.362 165.908C134.522 167.385 133.306 168.613 131.837 169.467C130.368 170.322 128.699 170.772 127 170.772C125.301 170.772 123.632 170.322 122.163 169.467C120.694 168.613 119.478 167.385 118.638 165.908C118.148 165.066 117.497 164.329 116.723 163.74C115.948 163.15 115.064 162.719 114.122 162.471C113.18 162.224 112.199 162.165 111.234 162.297C110.269 162.43 109.34 162.752 108.5 163.244C106.807 164.22 105.57 165.826 105.057 167.712C104.544 169.597 104.797 171.609 105.762 173.308C107.908 177.044 111.002 180.147 114.731 182.305C118.46 184.463 122.692 185.599 127 185.599C131.308 185.599 135.54 184.463 139.269 182.305C142.998 180.147 146.092 177.044 148.238 173.308C149.203 171.609 149.456 169.597 148.943 167.712C148.43 165.826 147.193 164.22 145.5 163.244ZM149.2 125.8C147.736 125.8 146.306 126.234 145.089 127.047C143.872 127.86 142.923 129.016 142.363 130.368C141.803 131.72 141.657 133.208 141.942 134.644C142.228 136.079 142.933 137.398 143.967 138.433C145.002 139.467 146.321 140.172 147.756 140.458C149.192 140.743 150.68 140.597 152.032 140.037C153.384 139.477 154.54 138.528 155.353 137.311C156.166 136.094 156.6 134.664 156.6 133.2C156.6 131.237 155.82 129.355 154.433 127.967C153.045 126.58 151.163 125.8 149.2 125.8ZM127 74C112.364 74 98.0571 78.34 85.8878 86.4712C73.7186 94.6025 64.2338 106.16 58.6329 119.681C53.0321 133.203 51.5666 148.082 54.4219 162.437C57.2772 176.791 64.325 189.977 74.6741 200.326C85.0232 210.675 98.2088 217.723 112.563 220.578C126.918 223.433 141.797 221.968 155.319 216.367C168.84 210.766 180.398 201.281 188.529 189.112C196.66 176.943 201 162.636 201 148C201 138.282 199.086 128.66 195.367 119.681C191.648 110.703 186.197 102.546 179.326 95.6741C172.454 88.8026 164.297 83.3518 155.319 79.6329C146.34 75.9141 136.718 74 127 74ZM127 207.2C113.216 207.259 99.8435 202.507 89.1883 193.763C78.5332 185.018 71.2634 172.83 68.6327 159.299C66.0019 145.768 68.1752 131.744 74.7777 119.644C81.3802 107.544 91.998 98.1275 104.8 93.018C104.724 94.0773 104.724 95.1407 104.8 96.2C104.8 102.088 107.139 107.734 111.302 111.898C115.466 116.061 121.112 118.4 127 118.4C128.963 118.4 130.845 117.62 132.233 116.233C133.62 114.845 134.4 112.963 134.4 111C134.4 109.037 133.62 107.155 132.233 105.767C130.845 104.38 128.963 103.6 127 103.6C125.037 103.6 123.155 102.82 121.767 101.433C120.38 100.045 119.6 98.1626 119.6 96.2C119.6 94.2374 120.38 92.3552 121.767 90.9674C123.155 89.5796 125.037 88.8 127 88.8C142.701 88.8 157.759 95.0371 168.861 106.139C179.963 117.241 186.2 132.299 186.2 148C186.2 163.701 179.963 178.759 168.861 189.861C157.759 200.963 142.701 207.2 127 207.2Z" fill="#F8F4EC" fill-opacity="0.1"/>
</svg>
