<svg width="254" height="335" viewBox="0 0 254 335" fill="none" xmlns="http://www.w3.org/2000/svg">
<rect width="254" height="334.211" fill="#555B47" fill-opacity="0.75"/>
<path fill-rule="evenodd" clip-rule="evenodd" d="M87.4999 144.75C87.4999 122.935 105.185 105.25 127 105.25C148.815 105.25 166.5 122.935 166.5 144.75C166.5 166.565 148.815 184.25 127 184.25C127 184.25 127 184.25 127 184.25C105.185 184.25 87.4999 166.565 87.4999 144.75ZM151.293 187.889C166.34 179.397 176.5 163.26 176.5 144.75C176.5 117.412 154.338 95.25 127 95.25C99.6618 95.25 77.4999 117.412 77.4999 144.75C77.4999 163.26 87.6599 179.397 102.707 187.889C96.7534 189.714 90.9992 192.211 85.5603 195.35C72.96 202.623 62.4954 213.083 55.2177 225.68C53.8363 228.071 54.6548 231.129 57.0458 232.51C59.4369 233.892 62.4951 233.073 63.8765 230.682C70.2763 219.605 79.4787 210.406 90.559 204.011C101.639 197.617 114.207 194.25 127 194.25C127 194.25 127 194.25 127.001 194.25C139.794 194.25 152.362 197.617 163.442 204.012C174.523 210.407 183.725 219.606 190.124 230.684C191.506 233.075 194.564 233.893 196.955 232.512C199.346 231.13 200.165 228.072 198.783 225.681C191.506 213.084 181.041 202.624 168.441 195.351C163.002 192.212 157.247 189.714 151.293 187.889Z" fill="#F8F4EC" fill-opacity="0.1"/>
</svg>
