<svg width="254" height="335" viewBox="0 0 254 335" fill="none" xmlns="http://www.w3.org/2000/svg">
<rect width="254" height="334.211" fill="#555B47" fill-opacity="0.75"/>
<path d="M157.406 111.152H169.15C170.953 111.152 172.413 109.184 172.413 106.756C172.413 104.328 170.953 102.359 169.15 102.359H157.406C155.603 102.359 154.145 104.328 154.145 106.756C154.145 109.184 155.603 111.152 157.406 111.152Z" fill="#F8F4EC" fill-opacity="0.1"/>
<path d="M131.44 157.127C130.823 158.363 130.712 159.932 131.147 161.303L139.368 187.675H139.366C139.646 188.597 140.169 189.348 140.836 189.784L142.402 194.661L140.836 189.695C141.303 190.047 141.833 190.231 142.368 190.222H169.086C170.183 190.241 171.214 189.514 171.828 188.288C172.465 187.068 172.6 185.498 172.185 184.112L163.964 157.74L163.966 157.743C163.449 156.103 162.252 155.045 160.93 155.061H134.178H134.18C133.065 155.073 132.032 155.852 131.44 157.127H131.44ZM158.746 163.896L164.226 181.475H144.65L139.17 163.896H158.746Z" fill="#F8F4EC" fill-opacity="0.1"/>
<path d="M238.936 237.069L200.243 113.654L197.437 104.864C196.932 103.255 195.767 102.2 194.47 102.182H182.627C180.825 102.182 179.364 104.15 179.364 106.578C179.364 109.003 180.825 110.971 182.627 110.971H192.415L193.817 115.368L230.91 234.207H103.223L65.9021 115.54L65.4447 114.047L64.5322 111.147H147.758C149.558 111.147 151.019 109.179 151.019 106.751C151.019 104.323 149.558 102.354 147.758 102.354H58.5958C57.2759 102.339 56.0789 103.397 55.5623 105.037L49.9187 123.057C49.2246 125.302 50.0143 127.88 51.68 128.815C53.3481 129.747 55.2596 128.686 55.9537 126.442L59.217 116.42L60.7827 121.429L96.1464 234.21H79.8344L61.7929 172.285C61.7382 172.067 61.6609 171.862 61.5653 171.669C61.4766 171.448 61.365 171.239 61.2399 171.055L60.8485 170.528L60.4252 170.133H60.4229C60.093 169.866 59.7266 169.685 59.3465 169.602H58.2042C56.8592 169.608 55.6554 170.727 55.1707 172.417L37.1635 234.21H22.1239L51.0292 141.913L51.027 141.916C51.4366 140.807 51.4775 139.516 51.143 138.363C50.8085 137.21 50.1281 136.3 49.2678 135.858C48.4099 135.417 47.4519 135.484 46.6326 136.042C45.8111 136.603 45.2036 137.603 44.96 138.795L14.0973 237.064C13.7241 238.41 13.8629 239.916 14.4659 241.096C15.0713 242.279 16.0657 242.987 17.1307 243H235.909C237.008 243.012 238.039 242.279 238.649 241.047C239.261 239.817 239.37 238.254 238.942 236.89L238.936 237.069ZM53.4345 234.211L58.5889 196.809L63.7456 234.211H53.4345ZM44.1362 234.211L49.1927 216.633L46.7782 234.211H44.1362ZM68.2126 218.563L72.7821 234.211H70.3995L68.2126 218.563Z" fill="#F8F4EC" fill-opacity="0.1"/>
</svg>
